*
*
G04 PADS Layout (Build Number 2005.266.2) generated Gerber (RS-274-X) file*
G04 PC Version=2.1*
*
%IN "ATS2823_MODULE_TEST_V1."*%
*
%MOIN*%
*
%FSLAX35Y35*%
*
*
*
*
G04 PC Standard Apertures*
*
*
G04 Thermal Relief Aperture macro.*
%AMTER*
1,1,$1,0,0*
1,0,$1-$2,0,0*
21,0,$3,$4,0,0,45*
21,0,$3,$4,0,0,135*
%
*
*
G04 Annular Aperture macro.*
%AMANN*
1,1,$1,0,0*
1,0,$2,0,0*
%
*
*
G04 Odd Aperture macro.*
%AMODD*
1,1,$1,0,0*
1,0,$1-0.005,0,0*
%
*
*
G04 PC Custom Aperture Macros*
*
*
*
*
*
*
G04 PC Aperture Table*
*
%ADD049C,0.01*%
%ADD067C,0.04437*%
%ADD098C,0.02665*%
%ADD123C,0.04043*%
%ADD157O,0.06405X0.09949*%
%ADD159O,0.09161X0.03846*%
%ADD160O,0.03846X0.09161*%
%ADD163R,0.08374X0.08374*%
%ADD164O,0.09949X0.06405*%
%ADD168C,0.08374*%
%ADD170C,0.255*%
%ADD178C,0.04043*%
*
*
*
*
G04 PC Copper Outlines (0)*
G04 Layer Name ATS2823_MODULE_TEST_V1. - dark (0)*
%LPD*%
*
*
G04 PC Area=CFC11*
G75*
G36*
G01*
X516193Y651244D02*
Y648547D01*
X509358D01*
Y651244D01*
X516193D01*
G37*
G74*
*
*
G04 PC Area=CFC10*
G75*
G36*
G01*
X516165Y657449D02*
Y654583D01*
X509409D01*
Y657449D01*
X516165D01*
G37*
G74*
*
*
G04 PC Area=DRW57740796*
G75*
G36*
G01*
X748500Y500500D02*
Y555500D01*
X795500D01*
Y544500D01*
X779500D01*
Y500500D01*
X748500D01*
G37*
G74*
*
*
G04 PC Copper Outlines (1)*
G04 Layer Name ATS2823_MODULE_TEST_V1. - dark (1)*
%LPD*%
*
*
G04 PC Area=Custom_Thermal*
*
G04 PC Custom Flashes*
G04 Layer Name ATS2823_MODULE_TEST_V1. - flashes*
%LPD*%
*
*
G04 PC Circuitry*
G04 Layer Name ATS2823_MODULE_TEST_V1. - circuitry*
%LPD*%
*
G54D49*
G01X748500Y500500D02*
Y555500D01*
X795500*
Y544500*
X779500*
Y500500*
X748500*
X516165Y657449D02*
Y654583D01*
X509409*
Y657449*
X516165*
X516193Y651244D02*
Y648547D01*
X509358*
Y651244*
X516193*
X500000Y500000D02*
Y681102D01*
X688976*
X688976*
X755906*
X755906*
X893701*
Y500000*
X500000*
X589000Y531600D02*
X659000D01*
Y526400*
X589000*
Y531600*
G54D67*
X845080Y664935D03*
X813584D03*
G54D98*
X520890Y660835D03*
Y645087D03*
G54D123*
X514173Y604189D03*
X541732D03*
G54D157*
X773496Y641000D03*
X765622D03*
X879496D03*
X871622D03*
X821748Y531000D03*
X829622D03*
X554126Y570000D03*
X562000D03*
X773496Y620000D03*
X765622D03*
X738000Y618000D03*
X728000D03*
X718000D03*
X708000D03*
G54D159*
X851118Y594102D03*
Y589969D03*
Y585835D03*
Y581701D03*
Y577567D03*
Y573433D03*
Y569299D03*
Y565165D03*
Y561031D03*
Y556898D03*
Y552764D03*
G54D160*
X839622Y548760D03*
X835488D03*
X831354D03*
X827220D03*
X823087D03*
X818953D03*
X814819D03*
X798165D03*
X794031D03*
X802417Y598000D03*
X806551D03*
X810685D03*
X814819D03*
X818953D03*
X823087D03*
X827220D03*
X831354D03*
X835488D03*
X839622D03*
G54D163*
X512740Y664378D03*
Y641937D03*
G54D164*
X665000Y638874D03*
Y631000D03*
X637000Y638874D03*
Y631000D03*
G54D168*
X793622Y516000D03*
X783622Y526000D03*
Y506000D03*
X803622D03*
Y526000D03*
G54D170*
X673000Y665000D03*
X516000Y516000D03*
X772000Y665000D03*
X878000Y516000D03*
Y665000D03*
G54D178*
X525000Y544677D03*
Y562000D03*
X0Y0D02*
M02*
