*
*
G04 PADS Layout (Build Number 2005.266.2) generated Gerber (RS-274-X) file*
G04 PC Version=2.1*
*
%IN "ATS2823_MODULE_TEST_V1."*%
*
%MOIN*%
*
%FSLAX35Y35*%
*
*
*
*
G04 PC Standard Apertures*
*
*
G04 Thermal Relief Aperture macro.*
%AMTER*
1,1,$1,0,0*
1,0,$1-$2,0,0*
21,0,$3,$4,0,0,45*
21,0,$3,$4,0,0,135*
%
*
*
G04 Annular Aperture macro.*
%AMANN*
1,1,$1,0,0*
1,0,$2,0,0*
%
*
*
G04 Odd Aperture macro.*
%AMODD*
1,1,$1,0,0*
1,0,$1-0.005,0,0*
%
*
*
G04 PC Custom Aperture Macros*
*
*
*
*
*
*
G04 PC Aperture Table*
*
%ADD027C,0.03937*%
%ADD049C,0.01*%
%ADD051C,0.008*%
%ADD052C,0.02*%
%ADD054C,0.025*%
%ADD090C,0.015*%
%ADD092C,0.02165*%
%ADD118C,0.03543*%
%ADD129O,0.05905X0.09449*%
%ADD132O,0.08661X0.03346*%
%ADD133O,0.03346X0.08661*%
%ADD136R,0.07874X0.07874*%
%ADD137O,0.09449X0.05905*%
%ADD141C,0.07874*%
%ADD143C,0.25*%
%ADD151C,0.03543*%
*
*
*
*
G04 PC Copper Outlines (0)*
G04 Layer Name ATS2823_MODULE_TEST_V1. - dark (0)*
%LPD*%
*
*
G04 PC Area=ANP000435*
G75*
G36*
G01*
X891201Y503000D02*
Y678102D01*
G03*
X890701Y678602I-500J0D01*
G01*
X755953D01*
X755945D01*
X755906D01*
X688976D01*
X688937D01*
X688929D01*
X503000D01*
G03*
X502500Y678102I0J-500D01*
G01*
Y503000D01*
G03*
X503000Y502500I500J0D01*
G01*
X747000D01*
G03*
X747500Y503000I-0J500D01*
G01*
Y556000D01*
G02*
X748000Y556500I500J0D01*
G01*
X796000D01*
G02*
X796500Y556000I0J-500D01*
G01*
Y553905D01*
G03*
X796617Y553584I500J0D01*
G02*
X797405Y551417I-2586J-2167D01*
G01*
Y546102D01*
G02*
X796422Y543722I-3374J0D01*
G03*
X796388Y543685I354J-353D01*
G02*
X796289Y543592I-388J315D01*
G03*
X796249Y543561I289J-408D01*
G02*
X792012Y543400I-2218J2541D01*
G03*
X791713Y543500I-299J-400D01*
G01*
X781000D01*
G03*
X780500Y543000I0J-500D01*
G01*
Y503000D01*
G03*
X781000Y502500I500J0D01*
G01*
X890701D01*
G03*
X891201Y503000I-0J500D01*
G37*
G74*
*
*
G04 PC Void Outlines (0)*
G04 Layer Name ATS2823_MODULE_TEST_V1. - clear (0)*
%LPC*%
*
*
G04 PC Area=ANP000435*
G75*
G36*
G01*
X885994Y544474D02*
G02*
X884298Y540246I-2194J-1574D01*
G03*
X883892Y539793I93J-491D01*
G02*
X879507Y537897I-2692J207D01*
G03*
X878694Y537475I-314J-390D01*
G02*
X873806Y538874I-2694J-175D01*
G03*
X873900Y539165I-406J291D01*
G01*
Y550425D01*
G03*
X873337Y550921I-500J0D01*
G02*
X871312Y555708I-337J2679D01*
G03*
X871500Y556098I-312J390D01*
G01*
Y567135D01*
G03*
X871406Y567426I-500J-0D01*
G02*
X873431Y571695I2194J1574D01*
G03*
X873900Y572194I-31J499D01*
G01*
Y606723D01*
G03*
X873754Y607077I-500J0D01*
G01*
X850777Y630054D01*
G03*
X850423Y630200I-354J-354D01*
G01*
X835922D01*
G03*
X835631Y630106I0J-500D01*
G02*
X831884Y633903I-1574J2194D01*
G03*
X831482Y634700I-402J297D01*
G01*
X828000D01*
G03*
X827500Y634200I0J-500D01*
G01*
Y631865D01*
G03*
X827594Y631574I500J0D01*
G02*
X823206I-2194J-1574D01*
G03*
X823300Y631865I-406J291D01*
G01*
Y634935D01*
G03*
X823206Y635226I-500J-0D01*
G02*
X826974Y638994I2194J1574D01*
G03*
X827265Y638900I291J406D01*
G01*
X856300D01*
G02*
X857785Y638285I0J-2100D01*
G01*
X875565Y620505D01*
G03*
X876415Y620912I353J354D01*
G02*
X881764Y621638I2685J288D01*
G03*
X881904Y621366I494J81D01*
G01*
X885285Y617985D01*
G02*
X885900Y616500I-1485J-1485D01*
G01*
Y544765D01*
G03*
X885994Y544474I500J0D01*
G37*
G74*
*
G75*
G36*
G01*
X884149Y642772D02*
Y639228D01*
G02*
X874843I-4653J0D01*
G01*
Y642772D01*
G02*
X884149I4653J-0D01*
G37*
G74*
*
G75*
G36*
G01*
X845080Y661117D02*
G03*
X845080I0J3818D01*
G37*
G74*
*
G75*
G36*
G01*
X813584D02*
G03*
X813584I0J3818D01*
G37*
G74*
*
G75*
G36*
G01*
X770275Y642772D02*
Y639228D01*
G02*
X760969I-4653J0D01*
G01*
Y642772D01*
G02*
X770275I4653J-0D01*
G37*
G74*
*
G75*
G36*
G01*
X742653Y619772D02*
Y616228D01*
G02*
X733485Y615104I-4653J0D01*
G03*
X732515I-485J-121D01*
G02*
X723485I-4515J1124D01*
G03*
X722515I-485J-121D01*
G02*
X713347Y616228I-4515J1124D01*
G01*
Y619772D01*
G02*
X722515Y620896I4653J-0D01*
G03*
X723485I485J121D01*
G02*
X732515I4515J-1124D01*
G03*
X733485I485J121D01*
G02*
X742653Y619772I4515J-1124D01*
G37*
G74*
*
G75*
G36*
G01*
X661500Y531600D02*
Y526400D01*
G02*
X659000Y523900I-2500J0D01*
G01*
X589000D01*
G02*
X586500Y526400I0J2500D01*
G01*
Y531600D01*
G02*
X589000Y534100I2500J0D01*
G01*
X659000D01*
G02*
X661500Y531600I0J-2500D01*
G37*
G74*
*
G75*
G36*
G01*
X666772Y643527D02*
G02*
Y634221I-0J-4653D01*
G01*
X663228D01*
G02*
Y643527I0J4653D01*
G01*
X666772D01*
G37*
G74*
*
G75*
G36*
G01*
X649500Y594500D02*
G02*
Y589100I0J-2700D01*
G01*
X643825D01*
G03*
X643472Y588954I0J-500D01*
G01*
X639009Y584491D01*
G02*
X635191Y588309I-1909J1909D01*
G01*
X640591Y593709D01*
G02*
X642500Y594500I1909J-1909D01*
G01*
X649500D01*
G37*
G74*
*
G75*
G36*
G01*
X632800Y579400D02*
Y560000D01*
G02*
X630100Y557300I-2700J0D01*
G01*
X630000D01*
G02*
X627384Y560670I0J2700D01*
G03*
X627400Y560794I-484J124D01*
G01*
Y579400D01*
G02*
X632800I2700J0D01*
G37*
G74*
*
G75*
G36*
G01*
X641773Y634555D02*
G02*
X638772Y626347I-3001J-3555D01*
G01*
X635228D01*
G02*
X632227Y634555I0J4653D01*
G03*
Y635319I-323J382D01*
G02*
X635228Y643527I3001J3555D01*
G01*
X638772D01*
G02*
X641773Y635319I-0J-4653D01*
G03*
Y634555I323J-382D01*
G37*
G74*
*
G75*
G36*
G01*
X576145Y615290D02*
G02*
X580994Y613226I2655J-490D01*
G03*
X580900Y612935I406J-291D01*
G01*
Y602865D01*
G03*
X580994Y602574I500J0D01*
G02*
Y599426I-2194J-1574D01*
G03*
X580900Y599135I406J-291D01*
G01*
Y577365D01*
G03*
X580994Y577074I500J0D01*
G02*
X576113Y575766I-2194J-1574D01*
G03*
X575566Y576313I-497J50D01*
G02*
X573106Y580574I-266J2687D01*
G03*
X573200Y580865I-406J291D01*
G01*
Y610335D01*
G03*
X573106Y610626I-500J-0D01*
G02*
X575598Y614884I2194J1574D01*
G03*
X576145Y615290I55J496D01*
G37*
G74*
*
G75*
G36*
G01*
X566653Y571772D02*
Y568228D01*
G02*
X558445Y565227I-4653J0D01*
G03*
X557681I-382J-323D01*
G02*
X549473Y568228I-3555J3001D01*
G01*
Y571772D01*
G02*
X557681Y574773I4653J-0D01*
G03*
X558445I382J323D01*
G02*
X566653Y571772I3555J-3001D01*
G37*
G74*
*
G75*
G36*
G01*
X541732Y600567D02*
G03*
X541732I0J3622D01*
G37*
G74*
*
G75*
G36*
G01*
X525000Y541055D02*
G03*
X525000I0J3622D01*
G37*
G74*
*
G75*
G36*
G01*
Y558378D02*
G03*
X525000I0J3622D01*
G37*
G74*
*
G75*
G36*
G01*
X520890Y642252D02*
G03*
X520890I-0J2835D01*
G37*
G74*
*
G75*
G36*
G01*
Y658000D02*
G03*
X520890I-0J2835D01*
G37*
G74*
*
G75*
G36*
G01*
X514173Y600567D02*
G03*
X514173I0J3622D01*
G37*
G74*
*
G75*
G36*
G01*
X842995Y551417D02*
Y546102D01*
G02*
X837822Y543250I-3373J0D01*
G03*
X837288I-267J-423D01*
G02*
X833688I-1800J2852D01*
G03*
X833154I-267J-423D01*
G02*
X832599Y542967I-1800J2852D01*
G03*
X832661Y542018I185J-464D01*
G02*
X833041Y536909I-661J-2618D01*
G03*
X832883Y536091I192J-462D01*
G02*
X834275Y532772I-3261J-3319D01*
G01*
Y529228D01*
G02*
X829708Y524576I-4653J0D01*
G03*
X829323Y523768I9J-500D01*
G02*
X829394Y520526I-2123J-1668D01*
G03*
X829300Y520235I406J-291D01*
G01*
Y518765D01*
G03*
X829394Y518474I500J0D01*
G02*
X825006I-2194J-1574D01*
G03*
X825100Y518765I-406J291D01*
G01*
Y520235D01*
G03*
X825006Y520526I-500J-0D01*
G02*
X826532Y524716I2194J1574D01*
G03*
X826720Y525591I-124J485D01*
G02*
X826067Y526227I2902J3637D01*
G03*
X825303I-382J-323D01*
G02*
X817095Y529228I-3555J3001D01*
G01*
Y532772D01*
G02*
X818314Y535911I4653J-0D01*
G03*
X818032Y536741I-369J337D01*
G02*
X817743Y541992I468J2659D01*
G03*
X817777Y542940I-140J480D01*
G02*
X817153Y543250I1176J3162D01*
G03*
X816619I-267J-423D01*
G02*
X811446Y546102I-1800J2852D01*
G01*
Y551417D01*
G02*
X816619Y554270I3373J0D01*
G03*
X817153I267J423D01*
G02*
X820753I1800J-2853D01*
G03*
X821287I267J423D01*
G02*
X824887I1800J-2853D01*
G03*
X825420I267J423D01*
G02*
X829021I1800J-2853D01*
G03*
X829554I266J423D01*
G02*
X833154I1800J-2853D01*
G03*
X833688I267J423D01*
G02*
X837288I1800J-2853D01*
G03*
X837822I267J423D01*
G02*
X842995Y551417I1800J-2853D01*
G37*
G74*
*
G75*
G36*
G01*
X789326Y622194D02*
G02*
Y617806I1574J-2194D01*
G03*
X789035Y617900I-291J-406D01*
G01*
X784165D01*
G03*
X783874Y617806I0J-500D01*
G02*
Y622194I-1574J2194D01*
G03*
X784165Y622100I291J406D01*
G01*
X789035D01*
G03*
X789326Y622194I-0J500D01*
G37*
G74*
*
G75*
G36*
G01*
X778149Y621772D02*
Y618228D01*
G02*
X769941Y615227I-4653J0D01*
G03*
X769177I-382J-323D01*
G02*
X760969Y618228I-3555J3001D01*
G01*
Y621772D01*
G02*
X769177Y624773I4653J-0D01*
G03*
X769941I382J323D01*
G02*
X778149Y621772I3555J-3001D01*
G37*
G74*
*
G75*
G36*
G01*
X840300Y515520D02*
G02*
X843820Y512000I2500J-1020D01*
G03*
X843656Y511891I189J-463D01*
G01*
X840409Y508644D01*
G03*
X840300Y508480I354J-353D01*
G02*
X836780Y512000I-2500J1020D01*
G03*
X836944Y512109I-189J463D01*
G01*
X840191Y515356D01*
G03*
X840300Y515520I-354J353D01*
G37*
G74*
*
G75*
G36*
G01*
X853776Y560271D02*
G02*
X856628Y555098I-0J-3373D01*
G03*
Y554564I423J-267D01*
G02*
X853776Y549391I-2852J-1800D01*
G01*
X848461D01*
G02*
X845608Y554564I-0J3373D01*
G03*
Y555098I-423J267D01*
G02*
X848461Y560271I2853J1800D01*
G01*
X853776D01*
G37*
G74*
*
G75*
G36*
G01*
Y593342D02*
G02*
X856628Y588168I-0J-3373D01*
G03*
Y587635I423J-266D01*
G02*
Y584035I-2852J-1800D01*
G03*
Y583501I423J-267D01*
G02*
Y579901I-2852J-1800D01*
G03*
Y579367I423J-267D01*
G02*
Y575767I-2852J-1800D01*
G03*
Y575233I423J-267D01*
G02*
Y571633I-2852J-1800D01*
G03*
Y571099I423J-267D01*
G02*
X853776Y565926I-2852J-1800D01*
G01*
X848461D01*
G02*
X845608Y571099I-0J3373D01*
G03*
Y571633I-423J267D01*
G02*
Y575233I2853J1800D01*
G03*
Y575767I-423J267D01*
G02*
Y579367I2853J1800D01*
G03*
Y579901I-423J267D01*
G02*
Y583501I2853J1800D01*
G03*
Y584035I-423J267D01*
G02*
X845132Y585290I2853J1800D01*
G03*
X844148Y585307I-494J-81D01*
G02*
X841596Y583137I-2648J528D01*
G03*
X841260Y582991I18J-500D01*
G01*
X841060Y582790D01*
G03*
X841130Y582025I354J-353D01*
G02*
X841812Y578252I-1530J-2225D01*
G03*
X841722Y577966I410J-286D01*
G01*
Y572065D01*
G03*
X841816Y571774I500J0D01*
G02*
X837428I-2194J-1574D01*
G03*
X837522Y572065I-406J291D01*
G01*
Y577904D01*
G03*
X837425Y578200I-500J0D01*
G01*
X837375Y578270D01*
G03*
X836610Y578340I-412J-284D01*
G01*
X836004Y577734D01*
G03*
X835864Y577462I354J-353D01*
G02*
X833593Y575229I-2664J438D01*
G03*
X833171Y574807I73J-495D01*
G02*
X829780Y572598I-2671J393D01*
G03*
X829155Y572207I-134J-482D01*
G02*
X826753Y570012I-2655J493D01*
G03*
X826300Y569514I47J-498D01*
G01*
Y564665D01*
G03*
X826394Y564374I500J0D01*
G02*
X822006I-2194J-1574D01*
G03*
X822100Y564665I-406J291D01*
G01*
Y580135D01*
G03*
X822006Y580426I-500J-0D01*
G02*
X823947Y584688I2194J1574D01*
G03*
X824400Y585186I-47J498D01*
G01*
Y586135D01*
G03*
X824306Y586426I-500J-0D01*
G02*
X828694I2194J1574D01*
G03*
X828600Y586135I406J-291D01*
G01*
Y581177D01*
G03*
X829454Y580823I500J0D01*
G01*
X838696Y590066D01*
G03*
X838836Y590338I-354J353D01*
G02*
X839194Y591305I2664J-438D01*
G03*
X838877Y592052I-427J260D01*
G02*
X837822Y592490I745J3291D01*
G03*
X837288I-267J-423D01*
G02*
X833688I-1800J2853D01*
G03*
X833154I-267J-423D01*
G02*
X827981Y595343I-1800J2853D01*
G01*
Y600657D01*
G02*
X833154Y603510I3373J0D01*
G03*
X833688I267J423D01*
G02*
X837288I1800J-2853D01*
G03*
X837822I267J423D01*
G02*
X842995Y600657I1800J-2853D01*
G01*
Y595343D01*
G02*
X842237Y593212I-3373J-0D01*
G03*
X842449Y592428I388J-316D01*
G02*
X844143Y590453I-949J-2528D01*
G03*
X845126Y590480I489J103D01*
G02*
X848461Y593342I3335J-511D01*
G01*
X853776D01*
G37*
G74*
*
G75*
G36*
G01*
X822326Y600657D02*
Y595343D01*
G02*
X815580I-3373J-0D01*
G01*
Y600657D01*
G02*
X822326I3373J0D01*
G37*
G74*
*
G75*
G36*
G01*
X793622Y510363D02*
G03*
X793622I0J5637D01*
G37*
G74*
*
G75*
G36*
G01*
X814058Y600657D02*
Y595343D01*
G02*
X808885Y592490I-3373J-0D01*
G03*
X808351I-267J-423D01*
G02*
X804751I-1800J2853D01*
G03*
X804217I-267J-423D01*
G02*
X799044Y595343I-1800J2853D01*
G01*
Y600657D01*
G02*
X804217Y603510I3373J0D01*
G03*
X804751I267J423D01*
G02*
X808351I1800J-2853D01*
G03*
X808885I267J423D01*
G02*
X814058Y600657I1800J-2853D01*
G37*
G74*
*
G75*
G36*
G01*
X869178Y550949D02*
G02*
X867045Y546804I-2278J-1449D01*
G03*
X866572Y546305I27J-499D01*
G01*
Y528100D01*
G02*
X860672I-2950J0D01*
G01*
Y562400D01*
Y602749D01*
G03*
X860526Y603103I-500J-0D01*
G01*
X853614Y610014D01*
G02*
X852890Y611202I2086J2086D01*
G03*
X852414Y611550I-476J-152D01*
G01*
X801222D01*
G03*
X800868Y611404I-0J-500D01*
G01*
X794732Y605268D01*
G02*
X793000Y604550I-1732J1732D01*
G01*
X776240D01*
G03*
X776046Y604511I-0J-500D01*
G02*
Y609489I-1046J2489D01*
G03*
X776240Y609450I194J461D01*
G01*
X779443D01*
G03*
X779827Y610270I-0J500D01*
G02*
X782946Y614489I2073J1730D01*
G03*
X783140Y614450I194J461D01*
G01*
X789360D01*
G03*
X789554Y614489I0J500D01*
G02*
X793300Y611976I1046J-2489D01*
G03*
X794153Y611618I500J-4D01*
G01*
X798268Y615732D01*
G02*
X800000Y616450I1732J-1732D01*
G01*
X850734D01*
G03*
X851088Y617304I0J500D01*
G01*
X849638Y618754D01*
G03*
X849284Y618900I-354J-354D01*
G01*
X799726D01*
G02*
X798241Y619515I0J2100D01*
G01*
X790003Y627754D01*
G03*
X789649Y627900I-354J-354D01*
G01*
X762865D01*
G03*
X762574Y627806I0J-500D01*
G02*
Y632194I-1574J2194D01*
G03*
X762865Y632100I291J406D01*
G01*
X790726D01*
G02*
X792211Y631485I0J-2100D01*
G01*
X800450Y623246D01*
G03*
X800803Y623100I353J354D01*
G01*
X850361D01*
G02*
X851846Y622485I0J-2100D01*
G01*
X868485Y605846D01*
G02*
X869100Y604361I-1485J-1485D01*
G01*
Y551218D01*
G03*
X869178Y550949I500J-0D01*
G37*
G74*
*
*
G04 PC Copper Outlines (1)*
G04 Layer Name ATS2823_MODULE_TEST_V1. - dark (1)*
%LPD*%
*
*
G04 PC Area=ANP000432*
G75*
G36*
G01*
X845608Y587635D02*
G03*
Y588168I-423J267D01*
G02*
X845137Y589392I2853J1801D01*
G03*
X844153Y589399I-493J-86D01*
G02*
X843585Y588185I-2653J501D01*
G03*
Y587550I387J-318D01*
G02*
X844148Y586363I-2085J-1715D01*
G03*
X845132Y586380I490J98D01*
G02*
X845608Y587635I3329J-545D01*
G37*
G74*
*
*
G04 PC Copper Outlines (2)*
G04 Layer Name ATS2823_MODULE_TEST_V1. - dark (2)*
%LPD*%
*
*
G04 PC Area=Custom_Thermal*
*
G04 PC Custom Flashes*
G04 Layer Name ATS2823_MODULE_TEST_V1. - flashes*
%LPD*%
*
*
G04 PC Circuitry*
G04 Layer Name ATS2823_MODULE_TEST_V1. - circuitry*
%LPD*%
*
G54D27*
G01X845080Y664935D03*
X813584D03*
G54D49*
X848899D02*
G75*
G03X848899I-3819J0D01*
G01X817403D02*
G03X817403I-3819J0D01*
G01X545354Y604189D02*
G03X545354I-3622J0D01*
G01X528622Y544677D02*
G03X528622I-3622J0D01*
G01Y562000D02*
G03X528622I-3622J0D01*
G01X523724Y645087D02*
G03X523724I-2834J0D01*
G01Y660835D02*
G03X523724I-2834J0D01*
G01X517795Y604189D02*
G03X517795I-3622J0D01*
G01X799259Y516000D02*
G03X799259I-5637J0D01*
G01X891201Y503000D02*
Y678102D01*
G03X890701Y678602I-500J0*
G01X755953*
G03X755945I-0J-500*
G01X755906D02*
G03X755945I0J2500D01*
G01X755906D02*
X688976D01*
X688937D02*
G03X688976I39J2500D01*
G01X688937D02*
G03X688929I-8J-500D01*
G01X503000*
G03X502500Y678102I0J-500*
G01Y503000*
G03X503000Y502500I500J0*
G01X747000*
G03X747500Y503000I-0J500*
G01Y556000*
X748000Y556500D02*
G03X747500Y556000I0J-500D01*
G01X748000Y556500D02*
X796000D01*
X796500Y556000D02*
G03X796000Y556500I-500J0D01*
G01X796500Y556000D02*
Y553905D01*
G03X796617Y553584I500J0*
G01X797405Y551417D02*
G03X796617Y553584I-3374J0D01*
G01X797405Y551417D02*
Y546102D01*
X796422Y543722D02*
G03X797405Y546102I-2391J2380D01*
G01X796422Y543722D02*
G03X796388Y543685I354J-353D01*
G01X796289Y543592D02*
G03X796388Y543685I-289J408D01*
G01X796289Y543592D02*
G03X796249Y543561I289J-408D01*
G01X792012Y543400D02*
G03X796249Y543561I2019J2702D01*
G01X792012Y543400D02*
G03X791713Y543500I-299J-400D01*
G01X781000*
G03X780500Y543000I0J-500*
G01Y503000*
G03X781000Y502500I500J0*
G01X890701*
G03X891201Y503000I-0J500*
G01X845608Y587635D02*
G03Y588168I-423J267D01*
G01X845137Y589392D02*
G03X845608Y588168I3324J577D01*
G01X845137Y589392D02*
G03X844153Y589399I-493J-86D01*
G01X843585Y588185D02*
G03X844153Y589399I-2085J1715D01*
G01X843585Y588185D02*
G03Y587550I387J-318D01*
G01X844148Y586363D02*
G03X843585Y587550I-2648J-528D01*
G01X844148Y586363D02*
G03X845132Y586380I490J98D01*
G01X845608Y587635D02*
G03X845132Y586380I2853J-1800D01*
G01X884298Y540246D02*
G03X885994Y544474I-498J2654D01*
G01X884298Y540246D02*
G03X883892Y539793I93J-491D01*
G01X879507Y537897D02*
G03X883892Y539793I1693J2103D01*
G01X879507Y537897D02*
G03X878694Y537475I-314J-390D01*
G01X873806Y538874D02*
G03X878694Y537475I2194J-1574D01*
G01X873806Y538874D02*
G03X873900Y539165I-406J291D01*
G01Y550425*
G03X873337Y550921I-500J0*
G01X871312Y555708D02*
G03X873337Y550921I1688J-2108D01*
G01X871312Y555708D02*
G03X871500Y556098I-312J390D01*
G01Y567135*
G03X871406Y567426I-500J-0*
G01X873431Y571695D02*
G03X871406Y567426I169J-2695D01*
G01X873431Y571695D02*
G03X873900Y572194I-31J499D01*
G01Y606723*
G03X873754Y607077I-500J0*
G01X850777Y630054*
G03X850423Y630200I-354J-354*
G01X835922*
G03X835631Y630106I0J-500*
G01X831884Y633903D02*
G03X835631Y630106I2173J-1603D01*
G01X831884Y633903D02*
G03X831482Y634700I-402J297D01*
G01X828000*
G03X827500Y634200I0J-500*
G01Y631865*
G03X827594Y631574I500J0*
G01X823206D02*
G03X827594I2194J-1574D01*
G01X823206D02*
G03X823300Y631865I-406J291D01*
G01Y634935*
G03X823206Y635226I-500J-0*
G01X826974Y638994D02*
G03X823206Y635226I-1574J-2194D01*
G01X826974Y638994D02*
G03X827265Y638900I291J406D01*
G01X856300*
X857785Y638285D02*
G03X856300Y638900I-1485J-1485D01*
G01X857785Y638285D02*
X875565Y620505D01*
G03X876415Y620912I353J354*
G01X881764Y621638D02*
G03X876415Y620912I-2664J-438D01*
G01X881764Y621638D02*
G03X881904Y621366I494J81D01*
G01X885285Y617985*
X885900Y616500D02*
G03X885285Y617985I-2100J0D01*
G01X885900Y616500D02*
Y544765D01*
G03X885994Y544474I500J0*
G01X884149Y642772D02*
Y639228D01*
X874843D02*
G03X884149I4653J0D01*
G01X874843D02*
Y642772D01*
X884149D02*
G03X874843I-4653J-0D01*
G01X848899Y664935D02*
G03X848899I-3819J0D01*
G01X817403D02*
G03X817403I-3819J0D01*
G01X770275Y642772D02*
Y639228D01*
X760969D02*
G03X770275I4653J0D01*
G01X760969D02*
Y642772D01*
X770275D02*
G03X760969I-4653J-0D01*
G01X742653Y619772D02*
Y616228D01*
X733485Y615104D02*
G03X742653Y616228I4515J1124D01*
G01X733485Y615104D02*
G03X732515I-485J-121D01*
G01X723485D02*
G03X732515I4515J1124D01*
G01X723485D02*
G03X722515I-485J-121D01*
G01X713347Y616228D02*
G03X722515Y615104I4653J0D01*
G01X713347Y616228D02*
Y619772D01*
X722515Y620896D02*
G03X713347Y619772I-4515J-1124D01*
G01X722515Y620896D02*
G03X723485I485J121D01*
G01X732515D02*
G03X723485I-4515J-1124D01*
G01X732515D02*
G03X733485I485J121D01*
G01X742653Y619772D02*
G03X733485Y620896I-4653J-0D01*
G01X661500Y531600D02*
Y526400D01*
X659000Y523900D02*
G03X661500Y526400I0J2500D01*
G01X659000Y523900D02*
X589000D01*
X586500Y526400D02*
G03X589000Y523900I2500J0D01*
G01X586500Y526400D02*
Y531600D01*
X589000Y534100D02*
G03X586500Y531600I0J-2500D01*
G01X589000Y534100D02*
X659000D01*
X661500Y531600D02*
G03X659000Y534100I-2500J0D01*
G01X666772Y634221D02*
G03Y643527I-0J4653D01*
G01Y634221D02*
X663228D01*
Y643527D02*
G03Y634221I0J-4653D01*
G01Y643527D02*
X666772D01*
X649500Y589100D02*
G03Y594500I0J2700D01*
G01Y589100D02*
X643825D01*
G03X643472Y588954I0J-500*
G01X639009Y584491*
X635191Y588309D02*
G03X639009Y584491I1909J-1909D01*
G01X635191Y588309D02*
X640591Y593709D01*
X642500Y594500D02*
G03X640591Y593709I0J-2700D01*
G01X642500Y594500D02*
X649500D01*
X632800Y579400D02*
Y560000D01*
X630100Y557300D02*
G03X632800Y560000I0J2700D01*
G01X630100Y557300D02*
X630000D01*
X627384Y560670D02*
G03X630000Y557300I2616J-670D01*
G01X627384Y560670D02*
G03X627400Y560794I-484J124D01*
G01Y579400*
X632800D02*
G03X627400I-2700J0D01*
G01X638772Y626347D02*
G03X641773Y634555I-0J4653D01*
G01X638772Y626347D02*
X635228D01*
X632227Y634555D02*
G03X635228Y626347I3001J-3555D01*
G01X632227Y634555D02*
G03Y635319I-323J382D01*
G01X635228Y643527D02*
G03X632227Y635319I0J-4653D01*
G01X635228Y643527D02*
X638772D01*
X641773Y635319D02*
G03X638772Y643527I-3001J3555D01*
G01X641773Y635319D02*
G03Y634555I323J-382D01*
G01X580994Y613226D02*
G03X576145Y615290I-2194J1574D01*
G01X580994Y613226D02*
G03X580900Y612935I406J-291D01*
G01Y602865*
G03X580994Y602574I500J0*
G01Y599426D02*
G03Y602574I-2194J1574D01*
G01Y599426D02*
G03X580900Y599135I406J-291D01*
G01Y577365*
G03X580994Y577074I500J0*
G01X576113Y575766D02*
G03X580994Y577074I2687J-266D01*
G01X576113Y575766D02*
G03X575566Y576313I-497J50D01*
G01X573106Y580574D02*
G03X575566Y576313I2194J-1574D01*
G01X573106Y580574D02*
G03X573200Y580865I-406J291D01*
G01Y610335*
G03X573106Y610626I-500J-0*
G01X575598Y614884D02*
G03X573106Y610626I-298J-2684D01*
G01X575598Y614884D02*
G03X576145Y615290I55J496D01*
G01X566653Y571772D02*
Y568228D01*
X558445Y565227D02*
G03X566653Y568228I3555J3001D01*
G01X558445Y565227D02*
G03X557681I-382J-323D01*
G01X549473Y568228D02*
G03X557681Y565227I4653J0D01*
G01X549473Y568228D02*
Y571772D01*
X557681Y574773D02*
G03X549473Y571772I-3555J-3001D01*
G01X557681Y574773D02*
G03X558445I382J323D01*
G01X566653Y571772D02*
G03X558445Y574773I-4653J-0D01*
G01X545354Y604189D02*
G03X545354I-3622J0D01*
G01X528622Y544677D02*
G03X528622I-3622J0D01*
G01Y562000D02*
G03X528622I-3622J0D01*
G01X523724Y645087D02*
G03X523724I-2834J0D01*
G01Y660835D02*
G03X523724I-2834J0D01*
G01X517795Y604189D02*
G03X517795I-3622J0D01*
G01X842995Y551417D02*
Y546102D01*
X837822Y543250D02*
G03X842995Y546102I1800J2852D01*
G01X837822Y543250D02*
G03X837288I-267J-423D01*
G01X833688D02*
G03X837288I1800J2852D01*
G01X833688D02*
G03X833154I-267J-423D01*
G01X832599Y542967D02*
G03X833154Y543250I-1245J3135D01*
G01X832599Y542967D02*
G03X832661Y542018I185J-464D01*
G01X833041Y536909D02*
G03X832661Y542018I-1041J2491D01*
G01X833041Y536909D02*
G03X832883Y536091I192J-462D01*
G01X834275Y532772D02*
G03X832883Y536091I-4653J-0D01*
G01X834275Y532772D02*
Y529228D01*
X829708Y524576D02*
G03X834275Y529228I-86J4652D01*
G01X829708Y524576D02*
G03X829323Y523768I9J-500D01*
G01X829394Y520526D02*
G03X829323Y523768I-2194J1574D01*
G01X829394Y520526D02*
G03X829300Y520235I406J-291D01*
G01Y518765*
G03X829394Y518474I500J0*
G01X825006D02*
G03X829394I2194J-1574D01*
G01X825006D02*
G03X825100Y518765I-406J291D01*
G01Y520235*
G03X825006Y520526I-500J-0*
G01X826532Y524716D02*
G03X825006Y520526I668J-2616D01*
G01X826532Y524716D02*
G03X826720Y525591I-124J485D01*
G01X826067Y526227D02*
G03X826720Y525591I3555J3001D01*
G01X826067Y526227D02*
G03X825303I-382J-323D01*
G01X817095Y529228D02*
G03X825303Y526227I4653J0D01*
G01X817095Y529228D02*
Y532772D01*
X818314Y535911D02*
G03X817095Y532772I3434J-3139D01*
G01X818314Y535911D02*
G03X818032Y536741I-369J337D01*
G01X817743Y541992D02*
G03X818032Y536741I757J-2592D01*
G01X817743Y541992D02*
G03X817777Y542940I-140J480D01*
G01X817153Y543250D02*
G03X817777Y542940I1800J2852D01*
G01X817153Y543250D02*
G03X816619I-267J-423D01*
G01X811446Y546102D02*
G03X816619Y543250I3373J0D01*
G01X811446Y546102D02*
Y551417D01*
X816619Y554270D02*
G03X811446Y551417I-1800J-2853D01*
G01X816619Y554270D02*
G03X817153I267J423D01*
G01X820753D02*
G03X817153I-1800J-2853D01*
G01X820753D02*
G03X821287I267J423D01*
G01X824887D02*
G03X821287I-1800J-2853D01*
G01X824887D02*
G03X825420I267J423D01*
G01X829021D02*
G03X825420I-1801J-2853D01*
G01X829021D02*
G03X829554I266J423D01*
G01X833154D02*
G03X829554I-1800J-2853D01*
G01X833154D02*
G03X833688I267J423D01*
G01X837288D02*
G03X833688I-1800J-2853D01*
G01X837288D02*
G03X837822I267J423D01*
G01X842995Y551417D02*
G03X837822Y554270I-3373J0D01*
G01X789326Y617806D02*
G03Y622194I1574J2194D01*
G01Y617806D02*
G03X789035Y617900I-291J-406D01*
G01X784165*
G03X783874Y617806I0J-500*
G01Y622194D02*
G03Y617806I-1574J-2194D01*
G01Y622194D02*
G03X784165Y622100I291J406D01*
G01X789035*
G03X789326Y622194I-0J500*
G01X778149Y621772D02*
Y618228D01*
X769941Y615227D02*
G03X778149Y618228I3555J3001D01*
G01X769941Y615227D02*
G03X769177I-382J-323D01*
G01X760969Y618228D02*
G03X769177Y615227I4653J0D01*
G01X760969Y618228D02*
Y621772D01*
X769177Y624773D02*
G03X760969Y621772I-3555J-3001D01*
G01X769177Y624773D02*
G03X769941I382J323D01*
G01X778149Y621772D02*
G03X769941Y624773I-4653J-0D01*
G01X843820Y512000D02*
G03X840300Y515520I-1020J2500D01*
G01X843820Y512000D02*
G03X843656Y511891I189J-463D01*
G01X840409Y508644*
G03X840300Y508480I354J-353*
G01X836780Y512000D02*
G03X840300Y508480I1020J-2500D01*
G01X836780Y512000D02*
G03X836944Y512109I-189J463D01*
G01X840191Y515356*
G03X840300Y515520I-354J353*
G01X856628Y555098D02*
G03X853776Y560271I-2852J1800D01*
G01X856628Y555098D02*
G03Y554564I423J-267D01*
G01X853776Y549391D02*
G03X856628Y554564I-0J3373D01*
G01X853776Y549391D02*
X848461D01*
X845608Y554564D02*
G03X848461Y549391I2853J-1800D01*
G01X845608Y554564D02*
G03Y555098I-423J267D01*
G01X848461Y560271D02*
G03X845608Y555098I-0J-3373D01*
G01X848461Y560271D02*
X853776D01*
X856628Y588168D02*
G03X853776Y593342I-2852J1801D01*
G01X856628Y588168D02*
G03Y587635I423J-266D01*
G01Y584035D02*
G03Y587635I-2852J1800D01*
G01Y584035D02*
G03Y583501I423J-267D01*
G01Y579901D02*
G03Y583501I-2852J1800D01*
G01Y579901D02*
G03Y579367I423J-267D01*
G01Y575767D02*
G03Y579367I-2852J1800D01*
G01Y575767D02*
G03Y575233I423J-267D01*
G01Y571633D02*
G03Y575233I-2852J1800D01*
G01Y571633D02*
G03Y571099I423J-267D01*
G01X853776Y565926D02*
G03X856628Y571099I-0J3373D01*
G01X853776Y565926D02*
X848461D01*
X845608Y571099D02*
G03X848461Y565926I2853J-1800D01*
G01X845608Y571099D02*
G03Y571633I-423J267D01*
G01Y575233D02*
G03Y571633I2853J-1800D01*
G01Y575233D02*
G03Y575767I-423J267D01*
G01Y579367D02*
G03Y575767I2853J-1800D01*
G01Y579367D02*
G03Y579901I-423J267D01*
G01Y583501D02*
G03Y579901I2853J-1800D01*
G01Y583501D02*
G03Y584035I-423J267D01*
G01X845132Y585290D02*
G03X845608Y584035I3329J545D01*
G01X845132Y585290D02*
G03X844148Y585307I-494J-81D01*
G01X841596Y583137D02*
G03X844148Y585307I-96J2698D01*
G01X841596Y583137D02*
G03X841260Y582991I18J-500D01*
G01X841060Y582790*
G03X841130Y582025I354J-353*
G01X841812Y578252D02*
G03X841130Y582025I-2212J1548D01*
G01X841812Y578252D02*
G03X841722Y577966I410J-286D01*
G01Y572065*
G03X841816Y571774I500J0*
G01X837428D02*
G03X841816I2194J-1574D01*
G01X837428D02*
G03X837522Y572065I-406J291D01*
G01Y577904*
G03X837425Y578200I-500J0*
G01X837375Y578270D02*
G03X837425Y578200I2225J1530D01*
G01X837375Y578270D02*
G03X836610Y578340I-412J-284D01*
G01X836004Y577734*
G03X835864Y577462I354J-353*
G01X833593Y575229D02*
G03X835864Y577462I-393J2671D01*
G01X833593Y575229D02*
G03X833171Y574807I73J-495D01*
G01X829780Y572598D02*
G03X833171Y574807I720J2602D01*
G01X829780Y572598D02*
G03X829155Y572207I-134J-482D01*
G01X826753Y570012D02*
G03X829155Y572207I-253J2688D01*
G01X826753Y570012D02*
G03X826300Y569514I47J-498D01*
G01Y564665*
G03X826394Y564374I500J0*
G01X822006D02*
G03X826394I2194J-1574D01*
G01X822006D02*
G03X822100Y564665I-406J291D01*
G01Y580135*
G03X822006Y580426I-500J-0*
G01X823947Y584688D02*
G03X822006Y580426I253J-2688D01*
G01X823947Y584688D02*
G03X824400Y585186I-47J498D01*
G01Y586135*
G03X824306Y586426I-500J-0*
G01X828694D02*
G03X824306I-2194J1574D01*
G01X828694D02*
G03X828600Y586135I406J-291D01*
G01Y581177*
G03X829454Y580823I500J0*
G01X838696Y590066*
G03X838836Y590338I-354J353*
G01X839194Y591305D02*
G03X838836Y590338I2306J-1405D01*
G01X839194Y591305D02*
G03X838877Y592052I-427J260D01*
G01X837822Y592490D02*
G03X838877Y592052I1800J2853D01*
G01X837822Y592490D02*
G03X837288I-267J-423D01*
G01X833688D02*
G03X837288I1800J2853D01*
G01X833688D02*
G03X833154I-267J-423D01*
G01X827981Y595343D02*
G03X833154Y592490I3373J-0D01*
G01X827981Y595343D02*
Y600657D01*
X833154Y603510D02*
G03X827981Y600657I-1800J-2853D01*
G01X833154Y603510D02*
G03X833688I267J423D01*
G01X837288D02*
G03X833688I-1800J-2853D01*
G01X837288D02*
G03X837822I267J423D01*
G01X842995Y600657D02*
G03X837822Y603510I-3373J0D01*
G01X842995Y600657D02*
Y595343D01*
X842237Y593212D02*
G03X842995Y595343I-2615J2131D01*
G01X842237Y593212D02*
G03X842449Y592428I388J-316D01*
G01X844143Y590453D02*
G03X842449Y592428I-2643J-553D01*
G01X844143Y590453D02*
G03X845126Y590480I489J103D01*
G01X848461Y593342D02*
G03X845126Y590480I-0J-3373D01*
G01X848461Y593342D02*
X853776D01*
X822326Y600657D02*
Y595343D01*
X815580D02*
G03X822326I3373J-0D01*
G01X815580D02*
Y600657D01*
X822326D02*
G03X815580I-3373J0D01*
G01X799259Y516000D02*
G03X799259I-5637J0D01*
G01X814058Y600657D02*
Y595343D01*
X808885Y592490D02*
G03X814058Y595343I1800J2853D01*
G01X808885Y592490D02*
G03X808351I-267J-423D01*
G01X804751D02*
G03X808351I1800J2853D01*
G01X804751D02*
G03X804217I-267J-423D01*
G01X799044Y595343D02*
G03X804217Y592490I3373J-0D01*
G01X799044Y595343D02*
Y600657D01*
X804217Y603510D02*
G03X799044Y600657I-1800J-2853D01*
G01X804217Y603510D02*
G03X804751I267J423D01*
G01X808351D02*
G03X804751I-1800J-2853D01*
G01X808351D02*
G03X808885I267J423D01*
G01X814058Y600657D02*
G03X808885Y603510I-3373J0D01*
G01X867045Y546804D02*
G03X869178Y550949I-145J2696D01*
G01X867045Y546804D02*
G03X866572Y546305I27J-499D01*
G01Y528100*
X860672D02*
G03X866572I2950J0D01*
G01X860672D02*
Y562400D01*
Y602749*
G03X860526Y603103I-500J-0*
G01X853614Y610014*
X852890Y611202D02*
G03X853614Y610014I2810J898D01*
G01X852890Y611202D02*
G03X852414Y611550I-476J-152D01*
G01X801222*
G03X800868Y611404I-0J-500*
G01X794732Y605268*
X793000Y604550D02*
G03X794732Y605268I0J2450D01*
G01X793000Y604550D02*
X776240D01*
G03X776046Y604511I-0J-500*
G01Y609489D02*
G03Y604511I-1046J-2489D01*
G01Y609489D02*
G03X776240Y609450I194J461D01*
G01X779443*
G03X779827Y610270I-0J500*
G01X782946Y614489D02*
G03X779827Y610270I-1046J-2489D01*
G01X782946Y614489D02*
G03X783140Y614450I194J461D01*
G01X789360*
G03X789554Y614489I0J500*
G01X793300Y611976D02*
G03X789554Y614489I-2700J24D01*
G01X793300Y611976D02*
G03X794153Y611618I500J-4D01*
G01X798268Y615732*
X800000Y616450D02*
G03X798268Y615732I0J-2450D01*
G01X800000Y616450D02*
X850734D01*
G03X851088Y617304I0J500*
G01X849638Y618754*
G03X849284Y618900I-354J-354*
G01X799726*
X798241Y619515D02*
G03X799726Y618900I1485J1485D01*
G01X798241Y619515D02*
X790003Y627754D01*
G03X789649Y627900I-354J-354*
G01X762865*
G03X762574Y627806I0J-500*
G01Y632194D02*
G03Y627806I-1574J-2194D01*
G01Y632194D02*
G03X762865Y632100I291J406D01*
G01X790726*
X792211Y631485D02*
G03X790726Y632100I-1485J-1485D01*
G01X792211Y631485D02*
X800450Y623246D01*
G03X800803Y623100I353J354*
G01X850361*
X851846Y622485D02*
G03X850361Y623100I-1485J-1485D01*
G01X851846Y622485D02*
X868485Y605846D01*
X869100Y604361D02*
G03X868485Y605846I-2100J0D01*
G01X869100Y604361D02*
Y551218D01*
G03X869178Y550949I500J-0*
G01X500000Y500000D02*
Y681102D01*
X688976*
X688976*
X755906*
X755906*
X893701*
Y500000*
X500000*
X589000Y531600D02*
X659000D01*
Y526400*
X589000*
Y531600*
G54D51*
X827200Y516900D02*
Y522100D01*
X876000Y537300D02*
Y607800D01*
X851500Y632300*
X578800Y575500D02*
Y601000D01*
X833200Y577900D02*
X841135Y585835D01*
X841500*
X824200Y562800D02*
Y582000D01*
X830500Y575200D02*
Y578900D01*
X841500Y589900*
X839622Y570200D02*
Y579800D01*
X826500Y572700D02*
Y588000D01*
X818500Y539400D02*
X832000D01*
X867000Y549500D02*
Y604361D01*
X850361Y621000*
X867000Y549500D02*
X866900D01*
X873000Y553600D02*
X873600Y554200D01*
Y569000*
X883800Y542900D02*
Y616500D01*
X879100Y621200*
X878800Y546000D02*
Y608600D01*
X852800Y634600*
X881200Y540000D02*
Y611900D01*
X856300Y636800*
X578800Y601000D02*
Y614800D01*
X575300Y579000D02*
Y612200D01*
X839600Y579800D02*
X839622D01*
X761000Y630000D02*
X790726D01*
X850361Y621000D02*
X799726D01*
X790726Y630000*
X782300Y620000D02*
X790900D01*
X842600Y634600D02*
X852800D01*
X825400Y630000D02*
Y636800D01*
X856300*
X834057Y632300D02*
X851500D01*
G54D52*
X630000Y560000D02*
X630100D01*
Y579400*
X637100Y586400D02*
X642500Y591800D01*
X649500*
X526000Y504000D03*
X504000Y526000D03*
X558000Y534000D03*
X542000Y524000D03*
X558000D03*
Y514000D03*
X542000D03*
X558000Y504000D03*
X542000D03*
X574000Y534000D03*
Y524000D03*
X590000Y514000D03*
X574000D03*
X606000Y504000D03*
X590000D03*
X574000D03*
X638000D03*
X622000D03*
X668000D03*
Y520000D03*
X680000Y504000D03*
Y520000D03*
X692000Y504000D03*
Y520000D03*
Y536000D03*
X668000D03*
X680000D03*
X724000Y504000D03*
X708000D03*
X724000Y520000D03*
X708000D03*
X724000Y536000D03*
X708000D03*
X740000Y504000D03*
Y520000D03*
Y536000D03*
X810100Y528800D03*
X810000Y523100D03*
Y534000D03*
X804000D03*
X786000Y516000D03*
X802000D03*
X804000Y518000D03*
Y514000D03*
X794000Y504000D03*
X796000Y506000D03*
X792000D03*
X784000Y514000D03*
Y518000D03*
X842800Y514500D03*
X837800Y509500D03*
X827200Y516900D03*
Y522100D03*
X847700Y519500D03*
X813800Y513800D03*
X842000Y524000D03*
X863622Y528100D03*
X859000Y519500D03*
X890000Y536000D03*
Y528000D03*
X859000Y524000D03*
X876000Y537300D03*
X504000Y542000D03*
Y558000D03*
Y574000D03*
X531900Y543900D03*
Y546900D03*
X568937Y553600D03*
Y542100D03*
X564500Y548000D03*
X569000Y576000D03*
X559900Y560500D03*
X559700Y553600D03*
X563300Y556900D03*
X543100Y543900D03*
X540300D03*
X537500D03*
X534700D03*
X543100Y546900D03*
X578800Y575500D03*
X586500Y575600D03*
Y566600D03*
X582300Y571000D03*
X573700Y548000D03*
X610600Y568900D03*
X588000Y542000D03*
X600000D03*
X612000D03*
Y550000D03*
X600000D03*
X588000D03*
X618000Y569000D03*
X640000Y550000D03*
X632000Y542000D03*
X644000Y567000D03*
X630000Y560000D03*
X676000Y577700D03*
X680000Y552000D03*
X656000Y542000D03*
X662000Y550000D03*
X692000Y552000D03*
Y567000D03*
X676000D03*
X660000D03*
X692000Y577700D03*
X708000Y552000D03*
X724000D03*
Y567000D03*
X708000D03*
X724000Y577700D03*
X708000D03*
X740000Y552000D03*
X772000Y567000D03*
X756000D03*
X740000D03*
X756000Y577600D03*
X772000D03*
X740000D03*
X810000Y540000D03*
X804000D03*
Y546000D03*
X807200D03*
Y552000D03*
X804000D03*
Y577700D03*
X788000Y577800D03*
X804000Y567000D03*
X788000D03*
X833200Y577900D03*
X824200Y562800D03*
X830500Y575200D03*
X839622Y570200D03*
X826500Y572700D03*
X832000Y539400D03*
X818500D03*
X830000Y565000D03*
X846000Y546000D03*
X850000D03*
X842000Y562000D03*
X820000Y567000D03*
X835900Y569600D03*
X873600Y569000D03*
X873000Y553600D03*
X883800Y542900D03*
X863622Y562400D03*
X866900Y549500D03*
X878800Y546000D03*
X869528Y562400D03*
X869500Y573800D03*
X855000Y546000D03*
X860000Y562000D03*
X890000Y552000D03*
Y544000D03*
X881200Y540000D03*
X530000Y588000D03*
X523000D03*
X530000Y596000D03*
X523000D03*
X530000Y605000D03*
X523000D03*
X504000Y590000D03*
X503000Y605700D03*
X569000Y588000D03*
X561000Y594000D03*
X550000Y600000D03*
X537000Y588000D03*
Y596000D03*
Y605000D03*
X578800Y614800D03*
Y601000D03*
X575300Y612200D03*
Y579000D03*
X600500Y599700D03*
X611000Y590000D03*
X605000D03*
X596200Y618000D03*
X590000D03*
X576000D03*
X600500Y596900D03*
Y602500D03*
X617000Y590000D03*
X644200Y601100D03*
X636000Y606000D03*
X622000D03*
X626500Y606100D03*
X643100Y610700D03*
X622000Y585400D03*
X625500Y588700D03*
X628800Y585100D03*
X649500Y591800D03*
X637100Y586400D03*
X630100Y579400D03*
X661500Y600800D03*
X676900Y600600D03*
X682100Y590800D03*
X664000Y608000D03*
X684000Y614000D03*
X692000Y604000D03*
X665300Y589000D03*
X692000Y594000D03*
X669900Y596300D03*
X692000Y588000D03*
X724000Y604000D03*
X708000D03*
Y594000D03*
X724000D03*
Y588000D03*
X708000D03*
X760000Y614000D03*
X772000Y604000D03*
X756000D03*
X740000D03*
Y594000D03*
X756000D03*
X772000D03*
Y588000D03*
X756000D03*
X740000D03*
X775000Y607000D03*
X790600Y612000D03*
X781900D03*
X810000Y606000D03*
X788000Y604000D03*
Y588000D03*
Y594000D03*
X812200Y608300D03*
X793000Y591300D03*
X805100D03*
X841500Y585835D03*
X824200Y582000D03*
X841500Y589900D03*
X839600Y579800D03*
X826500Y588000D03*
X844000Y599000D03*
X849000D03*
X834000Y606000D03*
X826000D03*
X818000D03*
X844000Y594000D03*
Y582000D03*
X838500Y617500D03*
X823000Y591300D03*
X855700Y612100D03*
X888100Y587000D03*
X854000Y599000D03*
X872000Y598000D03*
X869000Y606000D03*
X860000Y616000D03*
X890000Y596000D03*
Y606000D03*
Y616000D03*
X855600Y606000D03*
X503000Y623500D03*
X503100Y637100D03*
X504000Y654000D03*
X512300Y623900D03*
X512600Y626700D03*
X514900Y623900D03*
X525700Y645100D03*
X531200Y645200D03*
X528400Y645100D03*
X531000Y647900D03*
X528300D03*
X546000Y646000D03*
X540000Y642000D03*
X558000Y634000D03*
X562000Y640000D03*
X567900Y644600D03*
X552000Y650000D03*
X577700Y641900D03*
X626000Y654000D03*
X639000D03*
X644000Y646000D03*
X649000Y638000D03*
Y628000D03*
X651400Y623300D03*
X647700D03*
X631500Y623500D03*
X641200Y623400D03*
X620800Y654000D03*
X616000Y654100D03*
X613200Y643400D03*
X625800Y643600D03*
X623000Y658000D03*
X692000Y636000D03*
Y652000D03*
X664000Y624000D03*
X684000Y650000D03*
Y638000D03*
Y626000D03*
X724000Y652000D03*
X708000D03*
X761000Y630000D03*
X756000Y652000D03*
X740000D03*
X760000Y650000D03*
Y638000D03*
X790900Y620000D03*
X782300D03*
X795000Y657000D03*
X804000D03*
X808000Y624000D03*
X812000D03*
Y628000D03*
X808000D03*
X782000Y638000D03*
X804000Y644000D03*
Y650000D03*
X782000D03*
X801900Y625400D03*
X842600Y634600D03*
X848000Y657000D03*
X826000D03*
X848000Y644000D03*
X826000D03*
X848000Y650000D03*
X826000D03*
X838400Y629300D03*
X825400Y630000D03*
Y636800D03*
X834057Y632300D03*
X879100Y621200D03*
X857000Y657000D03*
X890000Y626000D03*
Y636000D03*
Y646000D03*
Y656000D03*
X856800Y621200D03*
X528000Y668000D03*
X504000Y670000D03*
X528000Y678000D03*
X512000D03*
X560000Y668000D03*
X544000D03*
X560000Y678000D03*
X544000D03*
X608000Y668000D03*
X592000D03*
X576000D03*
X608000Y678000D03*
X592000D03*
X576000D03*
X640000Y668000D03*
X624000D03*
X640000Y678000D03*
X624000D03*
X692000Y668000D03*
X656000D03*
Y678000D03*
X724000Y668000D03*
X708000D03*
X756000D03*
X740000D03*
X804000Y667000D03*
X800000Y678000D03*
X786000D03*
X799700Y662900D03*
X826000Y667000D03*
X842000Y678000D03*
X828000D03*
X814000D03*
X852400Y663000D03*
X870000Y678000D03*
X856000D03*
G54D54*
X863622Y528100D02*
Y562400D01*
Y604178*
X855700Y612100*
G54D90*
X837800Y509500D02*
X842800Y514500D01*
X775000Y607000D02*
X793000D01*
X800000Y614000*
X853800*
X781900Y612000D02*
X790600D01*
X855700Y612100D02*
X853800Y614000D01*
G54D92*
X520890Y660835D03*
Y645087D03*
G54D118*
X514173Y604189D03*
X541732D03*
G54D129*
X773496Y641000D03*
X765622D03*
X879496D03*
X871622D03*
X821748Y531000D03*
X829622D03*
X554126Y570000D03*
X562000D03*
X773496Y620000D03*
X765622D03*
X738000Y618000D03*
X728000D03*
X718000D03*
X708000D03*
G54D132*
X851118Y594102D03*
Y589969D03*
Y585835D03*
Y581701D03*
Y577567D03*
Y573433D03*
Y569299D03*
Y565165D03*
Y561031D03*
Y556898D03*
Y552764D03*
G54D133*
X839622Y548760D03*
X835488D03*
X831354D03*
X827220D03*
X823087D03*
X818953D03*
X814819D03*
X798165D03*
X794031D03*
X802417Y598000D03*
X806551D03*
X810685D03*
X814819D03*
X818953D03*
X823087D03*
X827220D03*
X831354D03*
X835488D03*
X839622D03*
G54D136*
X512740Y664378D03*
Y641937D03*
G54D137*
X665000Y638874D03*
Y631000D03*
X637000Y638874D03*
Y631000D03*
G54D141*
X793622Y516000D03*
X783622Y526000D03*
Y506000D03*
X803622D03*
Y526000D03*
G54D143*
X673000Y665000D03*
X516000Y516000D03*
X772000Y665000D03*
X878000Y516000D03*
Y665000D03*
G54D151*
X525000Y544677D03*
Y562000D03*
G74*
X0Y0D02*
M02*
