*
*
G04 PADS Layout (Build Number 2005.266.2) generated Gerber (RS-274-X) file*
G04 PC Version=2.1*
*
%IN "ATS2823_MODULE_TEST_V1."*%
*
%MOIN*%
*
%FSLAX35Y35*%
*
*
*
*
G04 PC Standard Apertures*
*
*
G04 Thermal Relief Aperture macro.*
%AMTER*
1,1,$1,0,0*
1,0,$1-$2,0,0*
21,0,$3,$4,0,0,45*
21,0,$3,$4,0,0,135*
%
*
*
G04 Annular Aperture macro.*
%AMANN*
1,1,$1,0,0*
1,0,$2,0,0*
%
*
*
G04 Odd Aperture macro.*
%AMODD*
1,1,$1,0,0*
1,0,$1-0.005,0,0*
%
*
*
G04 PC Custom Aperture Macros*
*
*
*
*
*
*
G04 PC Aperture Table*
*
%ADD049C,0.01*%
*
*
*
*
G04 PC Copper Outlines (0)*
G04 Layer Name ATS2823_MODULE_TEST_V1. - dark (0)*
%LPD*%
*
*
G04 PC Area=Custom_Thermal*
*
G04 PC Copper Outlines (1)*
G04 Layer Name ATS2823_MODULE_TEST_V1. - dark (1)*
%LPD*%
*
*
G04 PC Area=System Text*
G75*
G36*
G01*
X588298Y541620D02*
X588298D01*
X588231Y540959D01*
X588033Y540364D01*
X587702Y539901D01*
X587306Y539570D01*
X586645Y539306D01*
X586182Y539174D01*
X585587D01*
X584463D01*
Y544000D01*
X585587D01*
X586116D01*
X586579Y543934D01*
X586909Y543802D01*
X587306Y543603D01*
X587702Y543273D01*
X588033Y542810D01*
X588231Y542215D01*
X588298Y541620D01*
G37*
G74*
*
G75*
G36*
G01*
X590810Y544132D02*
X590810D01*
X591339D01*
X591669Y544000D01*
X592066Y543868D01*
X592331Y543736D01*
Y542942D01*
X592264D01*
X592066Y543140D01*
X591802Y543339D01*
X591339Y543537D01*
X590876Y543603D01*
X590545D01*
X590281Y543471D01*
X590017Y543339D01*
X589818Y543074D01*
X589488Y542479D01*
X589355Y542083D01*
Y541620D01*
X589488Y540760D01*
X589752Y540099D01*
X590281Y539702D01*
X590876Y539570D01*
X591339Y539636D01*
X591736Y539835D01*
X592066Y540033D01*
X592264Y540231D01*
X592331D01*
Y539438D01*
X592000Y539306D01*
X591669Y539174D01*
X591273Y539107D01*
X590876Y539041D01*
X590413Y539107D01*
X589950Y539240D01*
X589620Y539438D01*
X589289Y539702D01*
X589025Y540099D01*
X588826Y540496D01*
X588760Y541025D01*
X588694Y541620D01*
X588760Y542215D01*
X588826Y542678D01*
X589025Y543140D01*
X589289Y543471D01*
X589620Y543802D01*
X589950Y544000D01*
X590413Y544066D01*
X590810Y544132D01*
G37*
G74*
*
G75*
G36*
G01*
X595702Y542479D02*
X595702D01*
Y542083D01*
X595570Y541818D01*
X595240Y541355D01*
X594711Y541091D01*
X594116Y541025D01*
X593917D01*
X593653D01*
Y539702D01*
X595702D01*
Y539174D01*
X593058D01*
Y541686D01*
X593455Y541620D01*
X593983Y541554D01*
X594446Y541620D01*
X594777Y541818D01*
X594975Y542083D01*
X595041Y542479D01*
X594975Y542942D01*
X594777Y543273D01*
X594512Y543537D01*
X594116Y543603D01*
X593785D01*
X593388Y543471D01*
X593124Y543339D01*
X592926Y543207D01*
X592860D01*
Y543868D01*
X593455Y544066D01*
X594116Y544132D01*
X594777Y544000D01*
X595306Y543669D01*
X595570Y543140D01*
X595702Y542479D01*
G37*
G74*
*
G75*
G36*
G01*
X600066Y539174D02*
X599339D01*
X598083Y543074D01*
X596826Y539174D01*
X596099D01*
X597752Y544000D01*
X598413D01*
X600066Y539174D01*
G37*
G74*
*
G75*
G36*
G01*
X604000Y544000D02*
X604727D01*
X605124Y542612D01*
X606843D01*
X607240Y544000D01*
X607967D01*
X606380Y539174D01*
X605587D01*
X604000Y544000D01*
G37*
G74*
*
G75*
G36*
G01*
X611934Y539174D02*
X611207D01*
X609950Y543074D01*
X608694Y539174D01*
X607967D01*
X609620Y544000D01*
X610281D01*
X611934Y539174D01*
G37*
G74*
*
G75*
G36*
G01*
X614248Y544132D02*
X614248D01*
X614777D01*
X615107Y544000D01*
X615504Y543868D01*
X615769Y543736D01*
Y542942D01*
X615702D01*
X615504Y543140D01*
X615240Y543339D01*
X614777Y543537D01*
X614314Y543603D01*
X613983D01*
X613719Y543471D01*
X613455Y543339D01*
X613256Y543074D01*
X612926Y542479D01*
X612793Y542083D01*
Y541620D01*
X612926Y540760D01*
X613190Y540099D01*
X613719Y539702D01*
X614314Y539570D01*
X614777Y539636D01*
X615174Y539835D01*
X615504Y540033D01*
X615702Y540231D01*
X615769D01*
Y539438D01*
X615438Y539306D01*
X615107Y539174D01*
X614711Y539107D01*
X614314Y539041D01*
X613851Y539107D01*
X613388Y539240D01*
X613058Y539438D01*
X612727Y539702D01*
X612463Y540099D01*
X612264Y540496D01*
X612198Y541025D01*
X612132Y541620D01*
X612198Y542215D01*
X612264Y542678D01*
X612463Y543140D01*
X612727Y543471D01*
X613058Y543802D01*
X613388Y544000D01*
X613851Y544066D01*
X614248Y544132D01*
G37*
G74*
*
G75*
G36*
G01*
X618215D02*
X618215D01*
X618744D01*
X619074Y544000D01*
X619471Y543868D01*
X619736Y543736D01*
Y542942D01*
X619669D01*
X619471Y543140D01*
X619207Y543339D01*
X618744Y543537D01*
X618281Y543603D01*
X617950D01*
X617686Y543471D01*
X617421Y543339D01*
X617223Y543074D01*
X616893Y542479D01*
X616760Y542083D01*
Y541620D01*
X616893Y540760D01*
X617157Y540099D01*
X617686Y539702D01*
X618281Y539570D01*
X618744Y539636D01*
X619140Y539835D01*
X619471Y540033D01*
X619669Y540231D01*
X619736D01*
Y539438D01*
X619405Y539306D01*
X619074Y539174D01*
X618678Y539107D01*
X618281Y539041D01*
X617818Y539107D01*
X617355Y539240D01*
X617025Y539438D01*
X616694Y539702D01*
X616430Y540099D01*
X616231Y540496D01*
X616165Y541025D01*
X616099Y541620D01*
X616165Y542215D01*
X616231Y542678D01*
X616430Y543140D01*
X616694Y543471D01*
X617025Y543802D01*
X617355Y544000D01*
X617818Y544066D01*
X618215Y544132D01*
G37*
G74*
*
G75*
G36*
G01*
X627967Y539174D02*
X627240D01*
X625983Y543074D01*
X624727Y539174D01*
X624000D01*
X625653Y544000D01*
X626314D01*
X627967Y539174D01*
G37*
G74*
*
G75*
G36*
G01*
X632198Y544000D02*
X630479Y541884D01*
X630876Y541686D01*
X631207Y541355D01*
X631405Y540959D01*
X631471Y540496D01*
X631405Y540165D01*
X631339Y539835D01*
X630942Y539438D01*
X630413Y539240D01*
X630083Y539174D01*
X629686D01*
X628430D01*
Y544000D01*
X629091D01*
Y542083D01*
X629950D01*
X631471Y544000D01*
X632198D01*
G37*
G74*
*
G75*
G36*
G01*
X635967Y539702D02*
X635967D01*
X635702Y539438D01*
X635306Y539240D01*
X634909Y539107D01*
X634380Y539041D01*
X633917Y539107D01*
X633521Y539240D01*
X633190Y539438D01*
X632860Y539702D01*
X632595Y540099D01*
X632397Y540496D01*
X632331Y541025D01*
X632264Y541620D01*
X632331Y542149D01*
X632397Y542678D01*
X632595Y543140D01*
X632860Y543471D01*
X633190Y543736D01*
X633521Y544000D01*
X633917Y544066D01*
X634380Y544132D01*
X634843Y544066D01*
X635306Y544000D01*
X635636Y543802D01*
X635967Y543471D01*
X636231Y543140D01*
X636430Y542678D01*
X636496Y542149D01*
X636562Y541620D01*
X636496Y541025D01*
X636430Y540496D01*
X636231Y540099D01*
X635967Y539702D01*
G37*
G74*
*
G75*
G36*
G01*
X640463Y544926D02*
Y544529D01*
X636694D01*
Y544926D01*
X640463D01*
G37*
G74*
*
G75*
G36*
G01*
X642248Y544132D02*
X642248D01*
X642645D01*
X642975Y544000D01*
X643504Y543669D01*
X643835Y543207D01*
X643967Y542942D01*
Y542678D01*
X643901Y542215D01*
X643702Y541884D01*
X643438Y541620D01*
X642975Y541421D01*
X642512Y541289D01*
X641983Y541157D01*
X641719Y541025D01*
X641521Y540893D01*
X641388Y540628D01*
X641322Y540364D01*
X641388Y540033D01*
X641587Y539769D01*
X641917Y539636D01*
X642314Y539570D01*
X642711Y539636D01*
X643107Y539702D01*
X643438Y539901D01*
X643702Y540099D01*
X643769D01*
Y539372D01*
X643107Y539107D01*
X642314Y539041D01*
X641653Y539174D01*
X641124Y539438D01*
X640793Y539901D01*
X640661Y540430D01*
X640727Y540959D01*
X640992Y541355D01*
X641322Y541620D01*
X641785Y541752D01*
X642248Y541884D01*
X642711Y542017D01*
X642975Y542149D01*
X643174Y542281D01*
X643240Y542479D01*
X643306Y542744D01*
X643240Y543140D01*
X643041Y543405D01*
X642645Y543537D01*
X642182Y543603D01*
X641785Y543537D01*
X641388Y543405D01*
X640992Y543207D01*
X640661Y542942D01*
X640595D01*
Y543736D01*
X641322Y544000D01*
X641719Y544132D01*
X642248D01*
G37*
G74*
*
G75*
G36*
G01*
X648000Y544000D02*
X648727D01*
X649124Y542612D01*
X650843D01*
X651240Y544000D01*
X651967D01*
X650380Y539174D01*
X649587D01*
X648000Y544000D01*
G37*
G74*
*
G75*
G36*
G01*
X655273D02*
Y543471D01*
X652893D01*
X653157Y543207D01*
X653488Y542876D01*
X654149Y542215D01*
X654545Y541818D01*
X654810Y541355D01*
X655008Y540893D01*
X655074Y540364D01*
X655008Y539835D01*
X654678Y539438D01*
X654281Y539107D01*
X653686Y539041D01*
X652959Y539174D01*
X652694Y539240D01*
X652430Y539372D01*
Y540033D01*
X652496D01*
X652694Y539901D01*
X652893Y539769D01*
X653289Y539636D01*
X653620Y539570D01*
X653950Y539636D01*
X654149Y539769D01*
X654347Y540033D01*
X654413Y540364D01*
X654347Y540760D01*
X654215Y541157D01*
X653950Y541620D01*
X653488Y542149D01*
X652893Y542744D01*
X652298Y543339D01*
Y544000D01*
X655273D01*
G37*
G74*
*
G75*
G36*
G01*
X658645D02*
Y543537D01*
X657785D01*
Y539174D01*
X657322D01*
X657256Y539504D01*
X657058Y539702D01*
X656727Y539835D01*
X656331D01*
Y540298D01*
X657190D01*
Y543537D01*
X656331D01*
Y544000D01*
X658645D01*
G37*
G74*
*
*
G04 PC Void Outlines (0)*
G04 Layer Name ATS2823_MODULE_TEST_V1. - clear (0)*
%LPC*%
*
*
G04 PC Area=System Text*
G75*
G36*
G01*
X587636Y541554D02*
X587636D01*
X587570Y542083D01*
X587438Y542545D01*
X587240Y542876D01*
X586975Y543140D01*
X586711Y543339D01*
X586380Y543405D01*
X585587Y543471D01*
X585124D01*
Y539702D01*
X585587D01*
X586050D01*
X586380Y539769D01*
X586909Y540033D01*
X587240Y540298D01*
X587438Y540628D01*
X587570Y541091D01*
X587636Y541554D01*
G37*
G74*
*
G75*
G36*
G01*
X606645Y542083D02*
X605322D01*
X605983Y539967D01*
X606645Y542083D01*
G37*
G74*
*
G75*
G36*
G01*
X630810Y540496D02*
X630810D01*
X630744Y540959D01*
X630545Y541289D01*
X630149Y541488D01*
X629686Y541554D01*
X629091D01*
Y539702D01*
X629752D01*
X630215Y539769D01*
X630479Y539901D01*
X630744Y540165D01*
X630810Y540496D01*
G37*
G74*
*
G75*
G36*
G01*
X635901Y541620D02*
X635901D01*
X635835Y542479D01*
X635504Y543074D01*
X635041Y543471D01*
X634711Y543603D01*
X634446D01*
X634116D01*
X633785Y543471D01*
X633322Y543074D01*
X633058Y542479D01*
X632926Y541620D01*
X633058Y540760D01*
X633190Y540364D01*
X633322Y540099D01*
X633521Y539835D01*
X633785Y539702D01*
X634446Y539570D01*
X635041Y539702D01*
X635504Y540099D01*
X635769Y540694D01*
X635901Y541620D01*
G37*
G74*
*
G75*
G36*
G01*
X650645Y542083D02*
X649322D01*
X649983Y539967D01*
X650645Y542083D01*
G37*
G74*
*
*
G04 PC Custom Flashes*
G04 Layer Name ATS2823_MODULE_TEST_V1. - flashes*
%LPD*%
*
*
G04 PC Circuitry*
G04 Layer Name ATS2823_MODULE_TEST_V1. - circuitry*
%LPD*%
*
G54D49*
G01X857024Y603906D02*
Y542882D01*
X790094*
Y554693*
X845213*
Y592094*
X790094*
Y603906*
X857024*
X500000Y500000D02*
Y681102D01*
X688976*
X688976*
X755906*
X755906*
X893701*
Y500000*
X500000*
X589000Y531600D02*
X659000D01*
Y526400*
X589000*
Y531600*
X0Y0D02*
M02*
