%
T1C.012F095S3
X0504Y0526
X0526Y0504
X0542Y0524
X0542Y0514
X0542Y0504
X0558Y0524
X0558Y0504
X0558Y0514
X0574Y0524
X0574Y0514
X0574Y0504
X059Y0504
X059Y0514
X0606Y0504
X0622Y0504
X0638Y0504
X0668Y0504
X0668Y052
X068Y0504
X068Y052
X0692Y0504
X0692Y052
X0708Y0504
X0708Y052
X0724Y052
X0724Y0504
X074Y0504
X074Y052
X0784Y0514
X0784Y0518
X0786Y0516
X0792Y0506
X0794Y0504
X0796Y0506
X0802Y0516
X0804Y0514
X0804Y0518
X081Y05231
X08101Y05288
X08138Y05138
X08272Y05169
X08272Y05221
X08378Y05095
X0842Y0524
X08428Y05145
X08477Y05195
X0859Y05195
X0859Y0524
X086362Y05281
X089Y0528
X089Y0536
X089Y0552
X089Y0544
X08838Y05429
X08812Y054
X08788Y0546
X0876Y05373
X0873Y05536
X08669Y05495
X0855Y0546
X085Y0546
X0846Y0546
X0832Y05394
X08185Y05394
X081Y054
X081Y0534
X08072Y0546
X08072Y0552
X0804Y054
X0804Y0546
X0804Y0552
X0804Y0534
X074Y0552
X074Y0536
X0724Y0552
X0724Y0536
X0708Y0552
X0708Y0536
X0692Y0552
X0692Y0536
X068Y0552
X068Y0536
X0668Y0536
X0662Y055
X0656Y0542
X064Y055
X0632Y0542
X0612Y055
X0612Y0542
X06Y055
X06Y0542
X0588Y055
X0588Y0542
X0574Y0534
X05737Y0548
X056894Y05421
X056894Y05536
X05645Y0548
X05597Y05536
X0558Y0534
X05431Y05469
X05431Y05439
X05403Y05439
X05375Y05439
X05347Y05439
X05319Y05469
X05319Y05439
X0504Y0542
X0504Y0558
X0504Y0574
X05599Y05605
X05633Y05569
X0569Y0576
X05788Y05755
X05823Y0571
X05865Y05756
X05865Y05666
X06106Y05689
X0618Y0569
X063Y056
X0644Y0567
X066Y0567
X0676Y05777
X0676Y0567
X0692Y0567
X0692Y05777
X0708Y0567
X0708Y05777
X0724Y05777
X0724Y0567
X074Y05776
X074Y0567
X0756Y05776
X0756Y0567
X0772Y0567
X0772Y05776
X0788Y0567
X0788Y05778
X0804Y05777
X0804Y0567
X082Y0567
X08242Y05628
X08265Y05727
X083Y0565
X08305Y05752
X08332Y05779
X08359Y05696
X083962Y05702
X0842Y0562
X086Y0562
X086362Y05624
X08695Y05738
X086953Y05624
X08736Y0569
X089Y0596
X08881Y0587
X0872Y0598
X0854Y0599
X0849Y0599
X0844Y0599
X0844Y0594
X0844Y0582
X08415Y058584
X08415Y05899
X08396Y05798
X08265Y0588
X08242Y0582
X0823Y05913
X08051Y05913
X0793Y05913
X0788Y0588
X0788Y0594
X0772Y0594
X0772Y0588
X0756Y0594
X0756Y0588
X074Y0594
X074Y0588
X0724Y0594
X0724Y0588
X0708Y0594
X0708Y0588
X0692Y0594
X0692Y0588
X06821Y05908
X06769Y06006
X06699Y05963
X06653Y0589
X06615Y06008
X06495Y05918
X06442Y06011
X06371Y05864
X06301Y05794
X06288Y05851
X06255Y05887
X0622Y05854
X0617Y059
X0611Y059
X0605Y059
X06005Y05969
X06005Y05997
X06005Y06025
X05788Y0601
X05753Y0579
X0569Y0588
X0561Y0594
X055Y06
X0537Y0596
X0537Y0588
X053Y0596
X053Y0588
X0523Y0596
X0523Y0588
X0504Y059
X0503Y06057
X0503Y06235
X05123Y06239
X05126Y06267
X05149Y06239
X0523Y0605
X053Y0605
X0537Y0605
X05753Y06122
X0576Y0618
X05788Y06148
X059Y0618
X05962Y0618
X0622Y0606
X06265Y06061
X06315Y06235
X0636Y0606
X06412Y06234
X06431Y06107
X06477Y06233
X0649Y0628
X06514Y06233
X0664Y0608
X0664Y0624
X0684Y0614
X0684Y0626
X0692Y0604
X0708Y0604
X0724Y0604
X074Y0604
X0756Y0604
X076Y0614
X0772Y0604
X0775Y0607
X07819Y0612
X07823Y062
X0788Y0604
X07906Y0612
X07909Y062
X08019Y06254
X0808Y0624
X0808Y0628
X081Y0606
X0812Y0624
X0812Y0628
X08122Y06083
X0818Y0606
X0826Y0606
X0834Y0606
X08385Y06175
X08556Y0606
X08557Y06121
X08568Y06212
X086Y0616
X0869Y0606
X08791Y06212
X089Y0616
X089Y0626
X089Y0606
X089Y0636
X089Y0646
X0848Y0644
X0848Y065
X08426Y06346
X08384Y06293
X083406Y06323
X0826Y0644
X0826Y065
X08254Y063
X08254Y06368
X0804Y0644
X0804Y065
X0782Y0638
X0782Y065
X0761Y063
X076Y065
X076Y0638
X0756Y0652
X074Y0652
X0724Y0652
X0708Y0652
X0692Y0636
X0692Y0652
X0684Y0638
X0684Y065
X0649Y0638
X0644Y0646
X06258Y06436
X06132Y06434
X05777Y06419
X05679Y06446
X0562Y064
X0558Y0634
X0552Y065
X0546Y0646
X054Y0642
X05312Y06452
X0531Y06479
X05284Y06451
X05283Y06479
X05257Y06451
X05031Y06371
X0504Y0654
X0504Y067
X0512Y0678
X0528Y0668
X0528Y0678
X0544Y0668
X0544Y0678
X056Y0668
X056Y0678
X0576Y0668
X0576Y0678
X0592Y0668
X0592Y0678
X0608Y0668
X0608Y0678
X0616Y06541
X06208Y0654
X0623Y0658
X0624Y0668
X0624Y0678
X0626Y0654
X0639Y0654
X064Y0668
X064Y0678
X0656Y0668
X0656Y0678
X0692Y0668
X0708Y0668
X0724Y0668
X074Y0668
X0756Y0668
X0786Y0678
X0795Y0657
X07997Y06629
X08Y0678
X0804Y0657
X0804Y0667
X0814Y0678
X0826Y0657
X0826Y0667
X0828Y0678
X0842Y0678
X0848Y0657
X08524Y0663
X0856Y0678
X0857Y0657
X087Y0678
X089Y0656
T2C.01575F095S3
X051156Y064194
X051156Y066438
X051392Y064194
X051392Y066438
T3C.01969F095S3
X052089Y064509
X052089Y066083
T4C.02362F197S55
X079403Y054876
X079817Y054876
X081482Y054876
X081895Y054876
X082309Y054876
X082722Y054876
X083135Y054876
X083549Y054876
X083962Y054876
X085112Y055276
X085112Y057757
X085112Y057343
X085112Y05693
X085112Y056517
X085112Y056103
X085112Y05569
X085112Y058583
X085112Y05817
X085112Y05941
X085112Y058997
X083962Y0598
X083549Y0598
X083135Y0598
X082722Y0598
X082309Y0598
X081895Y0598
X081482Y0598
X081069Y0598
X080655Y0598
X080242Y0598
T5C.0315F197S55
X055413Y057
X0562Y057
X082175Y0531
X082962Y0531
X08795Y0641
X087162Y0641
X07735Y0641
X07735Y062
X076562Y0641
X076562Y062
X0738Y0618
X0728Y0618
X0718Y0618
X0708Y0618
X0665Y0631
X0665Y063887
X0637Y0631
X0637Y063887
T6C.03543F197S55
X0525Y054468
X0525Y0562
T7C.03543F197S55
X051417Y060419
X054173Y060419
T8C.03937F197S55
X081358Y066494
X084508Y066494
T9C.05512F107S55
X079362Y0516
T10C.05906F107S55
X078362Y0526
X078362Y0506
X080362Y0506
X080362Y0526
T11C.13F035S794
X0516Y0516
X0673Y0665
X0772Y0665
X0878Y0516
X0878Y0665
M30
