*
*
G04 PADS Layout (Build Number 2005.266.2) generated Gerber (RS-274-X) file*
G04 PC Version=2.1*
*
%IN "ATS2823_MODULE_TEST_V1."*%
*
%MOIN*%
*
%FSLAX35Y35*%
*
*
*
*
G04 PC Standard Apertures*
*
*
G04 Thermal Relief Aperture macro.*
%AMTER*
1,1,$1,0,0*
1,0,$1-$2,0,0*
21,0,$3,$4,0,0,45*
21,0,$3,$4,0,0,135*
%
*
*
G04 Annular Aperture macro.*
%AMANN*
1,1,$1,0,0*
1,0,$2,0,0*
%
*
*
G04 Odd Aperture macro.*
%AMODD*
1,1,$1,0,0*
1,0,$1-0.005,0,0*
%
*
*
G04 PC Custom Aperture Macros*
*
*
*
*
*
*
G04 PC Aperture Table*
*
%ADD023R,0.03346X0.03346*%
%ADD049C,0.01*%
%ADD130R,0.05X0.05*%
%ADD131R,0.045X0.045*%
%ADD134R,0.05512X0.07874*%
%ADD135R,0.04724X0.01575*%
%ADD138R,0.05X0.036*%
%ADD139O,0.08X0.025*%
%ADD140O,0.01969X0.07874*%
%ADD142O,0.07874X0.02362*%
%ADD144R,0.02756X0.07874*%
%ADD145R,0.04724X0.05512*%
%ADD146R,0.04724X0.08661*%
%ADD147R,0.06299X0.05512*%
%ADD148R,0.06299X0.11024*%
%ADD149R,0.07087X0.01968*%
%ADD150R,0.11417X0.06299*%
%ADD152O,0.025X0.08*%
*
*
*
*
G04 PC Copper Outlines (0)*
G04 Layer Name ATS2823_MODULE_TEST_V1. - dark (0)*
%LPD*%
*
*
G04 PC Area=Custom_Thermal*
*
G04 PC Custom Flashes*
G04 Layer Name ATS2823_MODULE_TEST_V1. - flashes*
%LPD*%
*
*
G04 PC Circuitry*
G04 Layer Name ATS2823_MODULE_TEST_V1. - circuitry*
%LPD*%
*
G54D23*
G01X864000Y546000D03*
X869906D03*
X864000Y553000D03*
X869906D03*
X806000Y612000D03*
X811906D03*
X837622D03*
X831717D03*
X568000Y648000D03*
X573906D03*
X587000D03*
X581094D03*
X836000Y582000D03*
Y587906D03*
X830000Y582000D03*
Y587906D03*
X794000Y612000D03*
X799906D03*
X879100Y624700D03*
X885006D03*
X867100D03*
X873006D03*
X846000Y606000D03*
X851906D03*
X845622Y612000D03*
X851528D03*
X884000Y553000D03*
X878094D03*
X813800Y510400D03*
Y504494D03*
X625400Y579400D03*
Y585306D03*
X522000Y628000D03*
X516094D03*
X554000Y557000D03*
X559906D03*
X657000Y619000D03*
X662906D03*
X657000Y613000D03*
X662906D03*
X878622Y587000D03*
X884528D03*
X869622Y579000D03*
Y584906D03*
X863622Y579000D03*
Y584906D03*
X817000Y588000D03*
X822906D03*
X612000Y654000D03*
X606094D03*
X587000Y636000D03*
X581094D03*
X568000D03*
X573906D03*
X568000Y630000D03*
X573906D03*
X568000Y624000D03*
X573906D03*
X581000Y642000D03*
X586906D03*
X587000Y624000D03*
X581094D03*
X587000Y630000D03*
X581094D03*
X799000Y588000D03*
X793094D03*
X811000D03*
X805094D03*
X777622Y549000D03*
X783528D03*
X783622D03*
Y543094D03*
X818622Y612000D03*
X824528D03*
X863622Y559000D03*
X869528D03*
X614000Y513000D03*
Y507094D03*
X594000Y513000D03*
Y507094D03*
X634000Y513000D03*
Y507094D03*
X654000Y513000D03*
Y507094D03*
X864000Y569000D03*
X869906D03*
X629000Y567000D03*
X634906D03*
X635000Y600000D03*
X629094D03*
X635000Y593000D03*
X629094D03*
X629000Y573000D03*
X634906D03*
X595000Y601000D03*
X589094D03*
X595000Y579000D03*
X589094D03*
X864000Y534000D03*
X869906D03*
X864000Y540000D03*
X869906D03*
X876000Y534000D03*
X881906D03*
X861000Y512000D03*
Y506094D03*
G54D49*
X500000Y500000D02*
Y681102D01*
X688976*
X688976*
X755906*
X755906*
X893701*
Y500000*
X500000*
X589000Y531600D02*
X659000D01*
Y526400*
X589000*
Y531600*
G54D130*
X586500Y586000D03*
X595500D03*
X586500Y609000D03*
X595500D03*
Y571000D03*
X586500D03*
Y594000D03*
X595500D03*
X615500Y616000D02*
X616500D01*
X604500D02*
X605500D01*
X615500Y626000D02*
X616500D01*
X604500D02*
X605500D01*
G54D131*
X634000Y533000D03*
Y525000D03*
X614000Y533000D03*
Y525000D03*
X594000Y533000D03*
Y525000D03*
X654000Y533000D03*
Y525000D03*
G54D134*
X568937Y548000D03*
X554000D03*
G54D135*
X524118Y658039D03*
Y655480D03*
Y652921D03*
Y650362D03*
Y647803D03*
G54D138*
X878622Y567000D03*
Y559500D03*
X887677Y563200D03*
X878622Y580000D03*
Y572500D03*
X887677Y576200D03*
G54D139*
X599250Y648500D03*
Y643500D03*
Y638500D03*
Y633500D03*
X619559Y633480D03*
Y638480D03*
Y643480D03*
Y648480D03*
G54D140*
X760522Y546005D03*
G54D142*
X853370Y504500D03*
Y509500D03*
Y514500D03*
Y519500D03*
X821874D03*
Y514500D03*
Y509500D03*
Y504500D03*
G54D144*
X816735Y623535D03*
X821065D03*
X825396D03*
X829727D03*
X834057D03*
X838388D03*
X842719D03*
X847050D03*
X851380D03*
G54D145*
X856780Y626235D03*
G54D146*
X857122Y663299D03*
X794122D03*
G54D147*
X796756Y625504D03*
G54D148*
X520472Y617575D03*
X532283D03*
X548031D03*
X551969Y590016D03*
G54D149*
X537205Y546886D03*
Y550035D03*
Y553185D03*
Y556335D03*
Y559484D03*
G54D150*
X514990Y535798D03*
X532312Y571231D03*
Y535798D03*
X514990Y571231D03*
G54D152*
X618500Y599750D03*
X613500D03*
X608500D03*
X603500D03*
X603480Y579441D03*
X608480D03*
X613480D03*
X618480D03*
X0Y0D02*
M02*
