*
*
G04 PADS Layout (Build Number 2005.266.2) generated Gerber (RS-274-X) file*
G04 PC Version=2.1*
*
%IN "ATS2823_MODULE_TEST_V1."*%
*
%MOIN*%
*
%FSLAX35Y35*%
*
*
*
*
G04 PC Standard Apertures*
*
*
G04 Thermal Relief Aperture macro.*
%AMTER*
1,1,$1,0,0*
1,0,$1-$2,0,0*
21,0,$3,$4,0,0,45*
21,0,$3,$4,0,0,135*
%
*
*
G04 Annular Aperture macro.*
%AMANN*
1,1,$1,0,0*
1,0,$2,0,0*
%
*
*
G04 Odd Aperture macro.*
%AMODD*
1,1,$1,0,0*
1,0,$1-0.005,0,0*
%
*
*
G04 PC Custom Aperture Macros*
*
*
*
*
*
*
G04 PC Aperture Table*
*
%ADD010C,0.006*%
%ADD018C,0.005*%
%ADD021C,0.004*%
%ADD049C,0.01*%
%ADD061C,0.00787*%
%ADD115C,0.00394*%
%ADD155C,0.00984*%
%ADD156C,0.00984*%
*
*
*
*
G04 PC Copper Outlines (0)*
G04 Layer Name ATS2823_MODULE_TEST_V1. - dark (0)*
%LPD*%
*
*
G04 PC Area=Custom_Thermal*
*
G04 PC Copper Outlines (1)*
G04 Layer Name ATS2823_MODULE_TEST_V1. - dark (1)*
%LPD*%
*
*
G04 PC Area=System Text*
G75*
G36*
G01*
X632314Y614835D02*
X631653D01*
X631157Y615000D01*
X630248Y615331D01*
Y616322D01*
X630331D01*
X630744Y615992D01*
X631240Y615744D01*
X631736Y615579D01*
X632231Y615496D01*
X632810Y615579D01*
X633306Y615744D01*
X633554Y616074D01*
X633636Y616570D01*
X633554Y616901D01*
X633471Y617149D01*
X633223Y617314D01*
X632893Y617479D01*
X632314Y617645D01*
X631736Y617810D01*
X631157Y617975D01*
X630744Y618306D01*
X630413Y618802D01*
X630331Y619463D01*
X630496Y620124D01*
X630909Y620702D01*
X631570Y621033D01*
X632397Y621198D01*
X633388Y621116D01*
X634215Y620785D01*
Y619876D01*
X634132D01*
X633802Y620124D01*
X633388Y620372D01*
X632893Y620455D01*
X632397Y620537D01*
X631901Y620455D01*
X631488Y620289D01*
X631240Y619959D01*
X631157Y619545D01*
X631240Y619215D01*
X631405Y618884D01*
X631653Y618719D01*
X631983Y618554D01*
X632645Y618388D01*
X633223Y618223D01*
X633802Y617975D01*
X634132Y617645D01*
X634380Y617231D01*
X634463Y616653D01*
Y616322D01*
X634298Y615992D01*
X633884Y615413D01*
X633223Y615000D01*
X632810Y614835D01*
X632314D01*
X632314D01*
G37*
G74*
*
G75*
G36*
G01*
X639008Y619215D02*
X638843Y618471D01*
X638512Y617893D01*
X638182Y617562D01*
X637769Y617397D01*
X637273Y617231D01*
X636694D01*
X636033D01*
Y615000D01*
X635207D01*
Y621033D01*
X636694D01*
X637190D01*
X637603Y620950D01*
X638264Y620620D01*
X638843Y620041D01*
X638926Y619628D01*
X639008Y619215D01*
X639008D01*
G37*
G74*
*
G75*
G36*
G01*
X644215Y615000D02*
X643306D01*
X640992Y617893D01*
X640579Y617397D01*
Y615000D01*
X639752D01*
Y621033D01*
X640579D01*
Y618223D01*
X643058Y621033D01*
X644050D01*
X641570Y618306D01*
X644215Y615000D01*
G37*
G74*
*
G75*
G36*
G01*
X684711Y639818D02*
Y639405D01*
X684545Y639074D01*
X684050Y638496D01*
X683719Y638248D01*
X683306Y638083D01*
X682893Y638000D01*
X682314D01*
X680579D01*
Y644033D01*
X682231D01*
X682810D01*
X683223Y643950D01*
X683802Y643785D01*
X684132Y643537D01*
X684298Y643289D01*
X684463Y642628D01*
X684380Y642215D01*
X684215Y641884D01*
X683967Y641554D01*
X683636Y641388D01*
Y641306D01*
X684050Y641140D01*
X684463Y640810D01*
X684628Y640314D01*
X684711Y639818D01*
X684711D01*
G37*
G74*
*
G75*
G36*
G01*
X684876Y638000D02*
X686860Y644033D01*
X687851D01*
X689835Y638000D01*
X688926D01*
X688430Y639736D01*
X686281D01*
X685785Y638000D01*
X684876D01*
G37*
G74*
*
G75*
G36*
G01*
X691818D02*
Y643289D01*
X689669D01*
Y644033D01*
X694793D01*
Y643289D01*
X692645D01*
Y638000D01*
X691818D01*
G37*
G74*
*
G75*
G36*
G01*
X840000Y526000D02*
X841587Y530826D01*
X842380D01*
X843967Y526000D01*
X843240D01*
X842843Y527388D01*
X841124D01*
X840727Y526000D01*
X840000D01*
G37*
G74*
*
G75*
G36*
G01*
X848264Y528380D02*
X848198Y527785D01*
X848000Y527190D01*
X847669Y526727D01*
X847273Y526397D01*
X846876Y526198D01*
X846545Y526066D01*
X846083Y526000D01*
X845554D01*
X844430D01*
Y530826D01*
X845554D01*
X846149D01*
X846612Y530694D01*
X847273Y530430D01*
X847669Y530099D01*
X848000Y529636D01*
X848198Y529041D01*
X848264Y528380D01*
X848264D01*
G37*
G74*
*
G75*
G36*
G01*
X851835Y530231D02*
X849587D01*
Y528909D01*
X851769D01*
Y528314D01*
X849587D01*
Y526000D01*
X848926D01*
Y530826D01*
X851835D01*
Y530231D01*
G37*
G74*
*
G75*
G36*
G01*
X854083Y525868D02*
X853355Y526000D01*
X852826Y526331D01*
X852628Y526595D01*
X852496Y526926D01*
X852364Y527322D01*
Y527785D01*
Y530826D01*
X853025D01*
Y527785D01*
X853091Y527190D01*
X853223Y526793D01*
X853554Y526463D01*
X854083Y526397D01*
X854612Y526463D01*
X855008Y526793D01*
X855140Y527190D01*
X855207Y527785D01*
Y530826D01*
X855868D01*
Y527785D01*
Y527322D01*
X855736Y526926D01*
X855603Y526595D01*
X855405Y526331D01*
X855140Y526132D01*
X854876Y526000D01*
X854545Y525868D01*
X854083D01*
X854083D01*
G37*
G74*
*
G75*
G36*
G01*
X784702Y632901D02*
X785099Y633165D01*
X785496Y633364D01*
X786025Y633430D01*
X786620Y633496D01*
X787149Y633430D01*
X787678Y633364D01*
X788140Y633165D01*
X788471Y632901D01*
X788802Y632570D01*
X789000Y632240D01*
X789066Y631777D01*
X789132Y631314D01*
X789066Y630851D01*
X789000Y630455D01*
X788736Y630124D01*
X788471Y629793D01*
X788140Y629529D01*
X787678Y629331D01*
X787149Y629264D01*
X786620Y629198D01*
X786025Y629264D01*
X785496Y629331D01*
X785099Y629529D01*
X784702Y629793D01*
X784438Y630124D01*
X784240Y630455D01*
X784107Y630851D01*
X784041Y631314D01*
X784107Y631843D01*
X784240Y632240D01*
X784438Y632636D01*
X784702Y632901D01*
X784702D01*
G37*
G74*
*
G75*
G36*
G01*
X789000Y637661D02*
Y636934D01*
X784835Y634752D01*
X789000D01*
Y634157D01*
X784174D01*
Y635083D01*
X788008Y637066D01*
X784174D01*
Y637661D01*
X789000D01*
G37*
G74*
*
G75*
G36*
G01*
X783975Y640504D02*
X790058Y638587D01*
Y638058D01*
X783975Y639975D01*
Y640504D01*
G37*
G74*
*
G75*
G36*
G01*
X784702Y644537D02*
X785099Y644802D01*
X785496Y645000D01*
X786025Y645066D01*
X786620Y645132D01*
X787149Y645066D01*
X787678Y645000D01*
X788140Y644802D01*
X788471Y644537D01*
X788802Y644207D01*
X789000Y643876D01*
X789066Y643413D01*
X789132Y642950D01*
X789066Y642488D01*
X789000Y642091D01*
X788736Y641760D01*
X788471Y641430D01*
X788140Y641165D01*
X787678Y640967D01*
X787149Y640901D01*
X786620Y640835D01*
X786025Y640901D01*
X785496Y640967D01*
X785099Y641165D01*
X784702Y641430D01*
X784438Y641760D01*
X784240Y642091D01*
X784107Y642488D01*
X784041Y642950D01*
X784107Y643479D01*
X784240Y643876D01*
X784438Y644273D01*
X784702Y644537D01*
X784702D01*
G37*
G74*
*
G75*
G36*
G01*
X784769Y648702D02*
Y646455D01*
X786091D01*
Y648636D01*
X786686D01*
Y646455D01*
X789000D01*
Y645793D01*
X784174D01*
Y648702D01*
X784769D01*
G37*
G74*
*
G75*
G36*
G01*
Y652140D02*
Y649893D01*
X786091D01*
Y652074D01*
X786686D01*
Y649893D01*
X789000D01*
Y649231D01*
X784174D01*
Y652140D01*
X784769D01*
G37*
G74*
*
G75*
G36*
G01*
X789000Y612231D02*
Y611504D01*
X787083Y609983D01*
Y609124D01*
X789000D01*
Y608463D01*
X784174D01*
Y609719D01*
Y610116D01*
X784240Y610446D01*
X784438Y610975D01*
X784835Y611372D01*
X785165Y611438D01*
X785496Y611504D01*
X785959Y611438D01*
X786355Y611240D01*
X786686Y610909D01*
X786884Y610512D01*
X789000Y612231D01*
G37*
G74*
*
G75*
G36*
G01*
Y612562D02*
X784174D01*
Y615603D01*
X784769D01*
Y613223D01*
X786091D01*
Y615471D01*
X786686D01*
Y613223D01*
X788405D01*
Y615603D01*
X789000D01*
Y612562D01*
G37*
G74*
*
G75*
G36*
G01*
X789132Y617653D02*
Y617124D01*
X789000Y616727D01*
X788736Y616000D01*
X787942D01*
Y616066D01*
X788207Y616397D01*
X788405Y616793D01*
X788537Y617190D01*
X788603Y617587D01*
X788537Y618050D01*
X788405Y618446D01*
X788140Y618645D01*
X787744Y618711D01*
X787479Y618645D01*
X787281Y618579D01*
X787149Y618380D01*
X787017Y618116D01*
X786884Y617653D01*
X786752Y617190D01*
X786620Y616727D01*
X786355Y616397D01*
X785959Y616132D01*
X785430Y616066D01*
X784901Y616198D01*
X784438Y616529D01*
X784174Y617058D01*
X784041Y617719D01*
X784107Y618512D01*
X784372Y619174D01*
X785099D01*
Y619107D01*
X784901Y618843D01*
X784702Y618512D01*
X784636Y618116D01*
X784570Y617719D01*
X784636Y617322D01*
X784769Y616992D01*
X785033Y616793D01*
X785364Y616727D01*
X785628Y616793D01*
X785893Y616926D01*
X786025Y617124D01*
X786157Y617388D01*
X786289Y617917D01*
X786421Y618380D01*
X786620Y618843D01*
X786884Y619107D01*
X787215Y619306D01*
X787678Y619372D01*
X787942D01*
X788207Y619240D01*
X788669Y618909D01*
X789000Y618380D01*
X789132Y618050D01*
Y617653D01*
X789132D01*
G37*
G74*
*
G75*
G36*
G01*
X789000Y619967D02*
X784174D01*
Y623008D01*
X784769D01*
Y620628D01*
X786091D01*
Y622876D01*
X786686D01*
Y620628D01*
X788405D01*
Y623008D01*
X789000D01*
Y619967D01*
G37*
G74*
*
G75*
G36*
G01*
Y624793D02*
X784769D01*
Y623074D01*
X784174D01*
Y627174D01*
X784769D01*
Y625455D01*
X789000D01*
Y624793D01*
G37*
G74*
*
G75*
G36*
G01*
X862000Y634628D02*
Y633967D01*
X857835D01*
X860678Y632711D01*
Y632314D01*
X857835Y631058D01*
X862000D01*
Y630463D01*
X857174D01*
Y631322D01*
X859884Y632579D01*
X857174Y633702D01*
Y634628D01*
X862000D01*
G37*
G74*
*
G75*
G36*
G01*
X857702Y638992D02*
X858099Y639256D01*
X858496Y639455D01*
X859025Y639521D01*
X859620Y639587D01*
X860149Y639521D01*
X860678Y639455D01*
X861140Y639256D01*
X861471Y638992D01*
X861802Y638661D01*
X862000Y638331D01*
X862066Y637868D01*
X862132Y637405D01*
X862066Y636942D01*
X862000Y636545D01*
X861736Y636215D01*
X861471Y635884D01*
X861140Y635620D01*
X860678Y635421D01*
X860149Y635355D01*
X859620Y635289D01*
X859025Y635355D01*
X858496Y635421D01*
X858099Y635620D01*
X857702Y635884D01*
X857438Y636215D01*
X857240Y636545D01*
X857107Y636942D01*
X857041Y637405D01*
X857107Y637934D01*
X857240Y638331D01*
X857438Y638727D01*
X857702Y638992D01*
X857702D01*
G37*
G74*
*
G75*
G36*
G01*
X859620Y644083D02*
X860215Y644017D01*
X860810Y643818D01*
X861273Y643488D01*
X861603Y643091D01*
X861802Y642694D01*
X861934Y642364D01*
X862000Y641901D01*
Y641372D01*
Y640248D01*
X857174D01*
Y641372D01*
Y641967D01*
X857306Y642430D01*
X857570Y643091D01*
X857901Y643488D01*
X858364Y643818D01*
X858959Y644017D01*
X859620Y644083D01*
X859620D01*
G37*
G74*
*
G75*
G36*
G01*
X862000Y644744D02*
X857174D01*
Y647785D01*
X857769D01*
Y645405D01*
X859091D01*
Y647653D01*
X859686D01*
Y645405D01*
X861405D01*
Y647785D01*
X862000D01*
Y644744D01*
G37*
G74*
*
G75*
G36*
G01*
X665000Y579000D02*
X667589Y585429D01*
X668571D01*
X671161Y579000D01*
X670179D01*
X669464Y580964D01*
X666696D01*
X665982Y579000D01*
X665000D01*
G37*
G74*
*
G75*
G36*
G01*
X673482D02*
Y584714D01*
X671339D01*
Y585429D01*
X676518D01*
Y584714D01*
X674375D01*
Y579000D01*
X673482D01*
G37*
G74*
*
G75*
G36*
G01*
X677143Y581232D02*
X678036D01*
X678125Y580786D01*
X678304Y580339D01*
X678571Y580071D01*
X678929Y579804D01*
X679375Y579625D01*
X679821D01*
X680625Y579804D01*
X680982Y579982D01*
X681161Y580161D01*
X681339Y580518D01*
Y580786D01*
X681161Y581232D01*
X680982Y581500D01*
X680625Y581679D01*
X680268Y581768D01*
X679554Y581946D01*
X678839Y582125D01*
X678393Y582393D01*
X677946Y582661D01*
X677679Y582929D01*
X677500Y583286D01*
X677411Y583732D01*
X677500Y584179D01*
X677679Y584625D01*
X678036Y584982D01*
X678482Y585250D01*
X679018Y585429D01*
X679643Y585518D01*
X680357Y585429D01*
X680893Y585250D01*
X681429Y584982D01*
X681786Y584625D01*
X681964Y584179D01*
X682054Y583643D01*
X681161D01*
X681071Y584179D01*
X680714Y584536D01*
X680268Y584714D01*
X679732Y584804D01*
X679107Y584714D01*
X678661Y584536D01*
X678393Y584179D01*
X678304Y583821D01*
X678393Y583464D01*
X678571Y583286D01*
X678661Y583107D01*
X678929Y583018D01*
X679286Y582929D01*
X679732Y582750D01*
X680536Y582571D01*
X681071Y582393D01*
X681607Y582125D01*
X681964Y581768D01*
X682143Y581321D01*
X682232Y580786D01*
X682143Y580339D01*
X681964Y579893D01*
X681607Y579446D01*
X681071Y579179D01*
X680536Y579000D01*
X679911Y578911D01*
X679107Y579000D01*
X678393Y579179D01*
X677857Y579536D01*
X677500Y579982D01*
X677232Y580607D01*
X677143Y581232D01*
X677143D01*
G37*
G74*
*
G75*
G36*
G01*
X687143Y579804D02*
Y579000D01*
X682946D01*
X683036Y579536D01*
X683214Y579982D01*
X683571Y580429D01*
X683929Y580875D01*
X684554Y581411D01*
X685357Y582125D01*
X685893Y582750D01*
X686161Y583196D01*
X686250Y583643D01*
X686161Y584089D01*
X685893Y584357D01*
X685536Y584625D01*
X685089Y584714D01*
X684554Y584625D01*
X684196Y584357D01*
X683929Y584000D01*
X683839Y583554D01*
X683036Y583643D01*
X683214Y584357D01*
X683661Y584982D01*
X684286Y585339D01*
X685089Y585429D01*
X685893Y585250D01*
X686518Y584893D01*
X686964Y584357D01*
X687054Y583643D01*
X686875Y582929D01*
X686696Y582482D01*
X686429Y582125D01*
X685982Y581589D01*
X685268Y580964D01*
X684732Y580518D01*
X684375Y580250D01*
X684018Y579804D01*
X687143D01*
G37*
G74*
*
G75*
G36*
G01*
X689286Y582482D02*
X688839Y582750D01*
X688571Y583018D01*
X688393Y583375D01*
X688304Y583821D01*
X688393Y584446D01*
X688839Y584982D01*
X689375Y585339D01*
X690179Y585429D01*
X690982Y585339D01*
X691518Y584982D01*
X691964Y584446D01*
X692054Y583732D01*
X691964Y583375D01*
X691786Y583018D01*
X691518Y582750D01*
X691071Y582482D01*
X691607Y582214D01*
X691964Y581857D01*
X692143Y581411D01*
X692232Y580875D01*
X692054Y580071D01*
X691696Y579446D01*
X690982Y579000D01*
X690179Y578911D01*
X689375Y579000D01*
X688661Y579446D01*
X688304Y580071D01*
X688125Y580875D01*
X688214Y581411D01*
X688393Y581946D01*
X688750Y582304D01*
X689286Y582482D01*
X689286D01*
G37*
G74*
*
G75*
G36*
G01*
X697143Y579804D02*
Y579000D01*
X692946D01*
X693036Y579536D01*
X693214Y579982D01*
X693571Y580429D01*
X693929Y580875D01*
X694554Y581411D01*
X695357Y582125D01*
X695893Y582750D01*
X696161Y583196D01*
X696250Y583643D01*
X696161Y584089D01*
X695893Y584357D01*
X695536Y584625D01*
X695089Y584714D01*
X694554Y584625D01*
X694196Y584357D01*
X693929Y584000D01*
X693839Y583554D01*
X693036Y583643D01*
X693214Y584357D01*
X693661Y584982D01*
X694286Y585339D01*
X695089Y585429D01*
X695893Y585250D01*
X696518Y584893D01*
X696964Y584357D01*
X697054Y583643D01*
X696875Y582929D01*
X696696Y582482D01*
X696429Y582125D01*
X695982Y581589D01*
X695268Y580964D01*
X694732Y580518D01*
X694375Y580250D01*
X694018Y579804D01*
X697143D01*
G37*
G74*
*
G75*
G36*
G01*
X698125Y580696D02*
X698929Y580786D01*
X699107Y580250D01*
X699375Y579893D01*
X699732Y579714D01*
X700179Y579625D01*
X700714Y579714D01*
X701071Y579982D01*
X701339Y580429D01*
X701429Y580875D01*
X701339Y581411D01*
X701071Y581768D01*
X700714Y582036D01*
X700179Y582125D01*
X699643Y582036D01*
X699732Y582750D01*
X699911D01*
X700357D01*
X700714Y583018D01*
X700982Y583286D01*
X701071Y583732D01*
X700982Y584089D01*
X700804Y584446D01*
X700536Y584625D01*
X700089Y584714D01*
X699732Y584625D01*
X699375Y584446D01*
X699196Y584089D01*
X699018Y583643D01*
X698214Y583732D01*
X698482Y584446D01*
X698839Y584982D01*
X699375Y585339D01*
X700089Y585429D01*
X700536Y585339D01*
X700982Y585161D01*
X701339Y584893D01*
X701696Y584625D01*
X701786Y584179D01*
X701875Y583732D01*
X701786Y583375D01*
X701696Y583018D01*
X701339Y582750D01*
X700982Y582482D01*
X701518Y582304D01*
X701875Y581946D01*
X702143Y581500D01*
X702232Y580875D01*
X702054Y580161D01*
X701607Y579446D01*
X700982Y579089D01*
X700089Y578911D01*
X699375Y579000D01*
X698750Y579357D01*
X698304Y579982D01*
X698125Y580696D01*
X698125D01*
G37*
G74*
*
G75*
G36*
G01*
X702589Y577214D02*
Y577750D01*
X707768D01*
Y577214D01*
X702589D01*
G37*
G74*
*
G75*
G36*
G01*
X708304Y579000D02*
Y585429D01*
X709643D01*
X711071Y580875D01*
X711250Y580339D01*
X711429Y579982D01*
X711518Y580339D01*
X711696Y580964D01*
X713125Y585429D01*
X714464D01*
Y579000D01*
X713571D01*
Y584446D01*
X711786Y579000D01*
X710893D01*
X709196Y584446D01*
Y579000D01*
X708304D01*
G37*
G74*
*
G75*
G36*
G01*
X715536Y582125D02*
X715625Y582839D01*
X715714Y583554D01*
X715982Y584089D01*
X716429Y584625D01*
X716875Y584982D01*
X717321Y585250D01*
X717946Y585429D01*
X718571Y585518D01*
X719375Y585429D01*
X720179Y585071D01*
X720804Y584536D01*
X721250Y583911D01*
X721518Y583107D01*
X721607Y582214D01*
X721518Y581232D01*
X721250Y580429D01*
X720714Y579804D01*
X720089Y579268D01*
X719375Y579000D01*
X718571Y578911D01*
X717768Y579000D01*
X716964Y579357D01*
X716339Y579893D01*
X715893Y580518D01*
X715625Y581321D01*
X715536Y582125D01*
X715536D01*
G37*
G74*
*
G75*
G36*
G01*
X722768Y579000D02*
Y585429D01*
X725000D01*
X725625D01*
X726071Y585339D01*
X726607Y585161D01*
X727054Y584893D01*
X727500Y584357D01*
X727768Y583732D01*
X727946Y583018D01*
X728036Y582214D01*
Y581589D01*
X727857Y580964D01*
X727679Y580429D01*
X727411Y579982D01*
X726875Y579446D01*
X726071Y579089D01*
X725089Y579000D01*
X722768D01*
G37*
G74*
*
G75*
G36*
G01*
X733304Y585429D02*
X734196D01*
Y581679D01*
X734107Y580875D01*
X734018Y580161D01*
X733661Y579625D01*
X733214Y579268D01*
X732500Y579000D01*
X731696Y578911D01*
X730893Y579000D01*
X730268Y579179D01*
X729732Y579625D01*
X729464Y580071D01*
X729286Y580786D01*
X729196Y581679D01*
Y585429D01*
X730089D01*
Y581768D01*
Y581054D01*
X730268Y580518D01*
X730446Y580161D01*
X730714Y579893D01*
X731161Y579714D01*
X731607D01*
X732411Y579804D01*
X732946Y580161D01*
X733125Y580429D01*
X733214Y580786D01*
X733304Y581232D01*
Y581768D01*
Y585429D01*
G37*
G74*
*
G75*
G36*
G01*
X735625Y579000D02*
Y585429D01*
X736518D01*
Y579714D01*
X739643D01*
Y579000D01*
X735625D01*
G37*
G74*
*
G75*
G36*
G01*
X740625D02*
Y585429D01*
X745268D01*
Y584714D01*
X741518D01*
Y582661D01*
X745000D01*
Y581946D01*
X741518D01*
Y579714D01*
X745446D01*
Y579000D01*
X740625D01*
G37*
G74*
*
G75*
G36*
G01*
X745804Y577214D02*
Y577750D01*
X750982D01*
Y577214D01*
X745804D01*
G37*
G74*
*
G75*
G36*
G01*
X753214Y579000D02*
Y584714D01*
X751071D01*
Y585429D01*
X756250D01*
Y584714D01*
X754107D01*
Y579000D01*
X753214D01*
G37*
G74*
*
G75*
G36*
G01*
X757143D02*
Y585429D01*
X761786D01*
Y584714D01*
X758036D01*
Y582661D01*
X761518D01*
Y581946D01*
X758036D01*
Y579714D01*
X761964D01*
Y579000D01*
X757143D01*
G37*
G74*
*
G75*
G36*
G01*
X762857Y581232D02*
X763750D01*
X763839Y580786D01*
X764018Y580339D01*
X764286Y580071D01*
X764643Y579804D01*
X765089Y579625D01*
X765536D01*
X766339Y579804D01*
X766696Y579982D01*
X766875Y580161D01*
X767054Y580518D01*
Y580786D01*
X766875Y581232D01*
X766696Y581500D01*
X766339Y581679D01*
X765982Y581768D01*
X765268Y581946D01*
X764554Y582125D01*
X764107Y582393D01*
X763661Y582661D01*
X763393Y582929D01*
X763214Y583286D01*
X763125Y583732D01*
X763214Y584179D01*
X763393Y584625D01*
X763750Y584982D01*
X764196Y585250D01*
X764732Y585429D01*
X765357Y585518D01*
X766071Y585429D01*
X766607Y585250D01*
X767143Y584982D01*
X767500Y584625D01*
X767679Y584179D01*
X767768Y583643D01*
X766875D01*
X766786Y584179D01*
X766429Y584536D01*
X765982Y584714D01*
X765446Y584804D01*
X764821Y584714D01*
X764375Y584536D01*
X764107Y584179D01*
X764018Y583821D01*
X764107Y583464D01*
X764286Y583286D01*
X764375Y583107D01*
X764643Y583018D01*
X765000Y582929D01*
X765446Y582750D01*
X766250Y582571D01*
X766786Y582393D01*
X767321Y582125D01*
X767679Y581768D01*
X767857Y581321D01*
X767946Y580786D01*
X767857Y580339D01*
X767679Y579893D01*
X767321Y579446D01*
X766786Y579179D01*
X766250Y579000D01*
X765625Y578911D01*
X764821Y579000D01*
X764107Y579179D01*
X763571Y579536D01*
X763214Y579982D01*
X762946Y580607D01*
X762857Y581232D01*
X762857D01*
G37*
G74*
*
G75*
G36*
G01*
X770714Y579000D02*
Y584714D01*
X768571D01*
Y585429D01*
X773750D01*
Y584714D01*
X771607D01*
Y579000D01*
X770714D01*
G37*
G74*
*
G75*
G36*
G01*
X695589Y570000D02*
X693000Y576429D01*
X693982D01*
X695768Y571786D01*
X696125Y570714D01*
X696393Y571786D01*
X698179Y576429D01*
X699161D01*
X696661Y570000D01*
X695589D01*
G37*
G74*
*
G75*
G36*
G01*
X702464D02*
X701661D01*
Y575000D01*
X701304Y574732D01*
X700946Y574464D01*
X700054Y574018D01*
Y574821D01*
X700679Y575179D01*
X701214Y575536D01*
X701661Y575982D01*
X701929Y576429D01*
X702464D01*
Y570000D01*
G37*
G74*
*
G75*
G36*
G01*
X704875D02*
Y570804D01*
X705679D01*
Y570000D01*
X704875D01*
G37*
G74*
*
G75*
G36*
G01*
X709964D02*
X709161D01*
Y575000D01*
X708804Y574732D01*
X708446Y574464D01*
X707554Y574018D01*
Y574821D01*
X708179Y575179D01*
X708714Y575536D01*
X709161Y575982D01*
X709429Y576429D01*
X709964D01*
Y570000D01*
G37*
G74*
*
G75*
G36*
G01*
X711482Y568214D02*
Y568750D01*
X716661D01*
Y568214D01*
X711482D01*
G37*
G74*
*
G75*
G36*
G01*
X719964Y570000D02*
X719161D01*
Y575000D01*
X718804Y574732D01*
X718446Y574464D01*
X717554Y574018D01*
Y574821D01*
X718179Y575179D01*
X718714Y575536D01*
X719161Y575982D01*
X719429Y576429D01*
X719964D01*
Y570000D01*
G37*
G74*
*
G75*
G36*
G01*
X726036Y574732D02*
X725232Y574643D01*
X725143Y575089D01*
X724964Y575357D01*
X724607Y575625D01*
X724161Y575714D01*
X723804Y575625D01*
X723446Y575536D01*
X723089Y575179D01*
X722911Y574732D01*
X722732Y574196D01*
X722643Y573304D01*
X723000Y573750D01*
X723357Y574018D01*
X723804Y574107D01*
X724250Y574196D01*
X724964Y574018D01*
X725589Y573571D01*
X725946Y572946D01*
X726125Y572143D01*
X726036Y571518D01*
X725857Y570982D01*
X725589Y570536D01*
X725143Y570179D01*
X724607Y570000D01*
X724071Y569911D01*
X723625D01*
X723179Y570089D01*
X722821Y570268D01*
X722464Y570625D01*
X722196Y571071D01*
X722018Y571607D01*
X721839Y572232D01*
Y573036D01*
X721929Y573839D01*
X722018Y574554D01*
X722196Y575179D01*
X722554Y575714D01*
X723268Y576250D01*
X723714Y576339D01*
X724161Y576429D01*
X724875Y576339D01*
X725411Y575982D01*
X725857Y575446D01*
X726036Y574732D01*
X726036D01*
G37*
G74*
*
G75*
G36*
G01*
X727018Y573125D02*
X727107Y574196D01*
X727286Y575000D01*
X727554Y575625D01*
X727911Y576071D01*
X728446Y576339D01*
X729071Y576429D01*
X729518Y576339D01*
X729964Y576250D01*
X730321Y575982D01*
X730589Y575625D01*
X730946Y574643D01*
X731125Y574018D01*
Y573125D01*
X731036Y572143D01*
X730857Y571339D01*
X730589Y570714D01*
X730232Y570268D01*
X729696Y570000D01*
X729071Y569911D01*
X728268Y570089D01*
X727643Y570536D01*
X727375Y570982D01*
X727196Y571607D01*
X727018Y572321D01*
Y573125D01*
X727018D01*
G37*
G74*
*
G75*
G36*
G01*
X731929Y575536D02*
Y576339D01*
X736125D01*
Y575714D01*
X735500Y574911D01*
X734964Y573929D01*
X734429Y572857D01*
X733982Y571786D01*
X733804Y570893D01*
X733714Y570000D01*
X732911D01*
X733000Y570804D01*
X733268Y571786D01*
X733625Y572857D01*
X734071Y573839D01*
X734696Y574732D01*
X735321Y575536D01*
X731929D01*
G37*
G74*
*
G75*
G36*
G01*
X737018Y573125D02*
X737107Y574196D01*
X737286Y575000D01*
X737554Y575625D01*
X737911Y576071D01*
X738446Y576339D01*
X739071Y576429D01*
X739518Y576339D01*
X739964Y576250D01*
X740321Y575982D01*
X740589Y575625D01*
X740946Y574643D01*
X741125Y574018D01*
Y573125D01*
X741036Y572143D01*
X740857Y571339D01*
X740589Y570714D01*
X740232Y570268D01*
X739696Y570000D01*
X739071Y569911D01*
X738268Y570089D01*
X737643Y570536D01*
X737375Y570982D01*
X737196Y571607D01*
X737018Y572321D01*
Y573125D01*
X737018D01*
G37*
G74*
*
G75*
G36*
G01*
X744518Y570000D02*
Y571518D01*
X741661D01*
Y572321D01*
X744696Y576339D01*
X745321D01*
Y572321D01*
X746125D01*
Y571518D01*
X745321D01*
Y570000D01*
X744518D01*
G37*
G74*
*
G75*
G36*
G01*
X710099Y635884D02*
X710050Y635488D01*
X710000Y635190D01*
X709851Y634893D01*
X709603Y634645D01*
X709355Y634397D01*
X709008Y634248D01*
X708612Y634198D01*
X708165Y634149D01*
X707769Y634198D01*
X707372Y634298D01*
X707074Y634446D01*
X706777Y634645D01*
X706579Y634893D01*
X706430Y635190D01*
X706331Y635537D01*
X706281Y635884D01*
X706331Y636231D01*
X706380Y636579D01*
X706479Y636826D01*
X706579Y637074D01*
X707174D01*
Y637025D01*
X707025Y636826D01*
X706876Y636579D01*
X706727Y636231D01*
X706678Y635835D01*
X706727Y635587D01*
X706777Y635339D01*
X706926Y635140D01*
X707074Y634992D01*
X707570Y634744D01*
X708165Y634645D01*
X708512D01*
X708810Y634744D01*
X709306Y634992D01*
X709504Y635140D01*
X709603Y635339D01*
X709702Y635587D01*
Y635835D01*
X709653Y636231D01*
X709603Y636579D01*
X708612D01*
Y635785D01*
X708165D01*
Y637074D01*
X709802D01*
X709901Y636826D01*
X710000Y636529D01*
X710099Y636231D01*
Y635884D01*
X710099D01*
G37*
G74*
*
G75*
G36*
G01*
X710000Y640298D02*
Y639752D01*
X706876Y638116D01*
X710000D01*
Y637669D01*
X706380D01*
Y638364D01*
X709256Y639851D01*
X706380D01*
Y640298D01*
X710000D01*
G37*
G74*
*
G75*
G36*
G01*
X708215Y643868D02*
X708661Y643818D01*
X709107Y643669D01*
X709455Y643421D01*
X709702Y643124D01*
X709851Y642826D01*
X709950Y642579D01*
X710000Y642231D01*
Y641835D01*
Y640992D01*
X706380D01*
Y641835D01*
Y642281D01*
X706479Y642628D01*
X706678Y643124D01*
X706926Y643421D01*
X707273Y643669D01*
X707719Y643818D01*
X708215Y643868D01*
X708215D01*
G37*
G74*
*
G75*
G36*
G01*
X720000Y637174D02*
Y636628D01*
X718562Y635488D01*
Y634843D01*
X720000D01*
Y634347D01*
X716380D01*
Y635289D01*
Y635587D01*
X716430Y635835D01*
X716579Y636231D01*
X716876Y636529D01*
X717124Y636579D01*
X717372Y636628D01*
X717719Y636579D01*
X718017Y636430D01*
X718264Y636182D01*
X718413Y635884D01*
X720000Y637174D01*
G37*
G74*
*
G75*
G36*
G01*
Y639950D02*
Y639355D01*
X718612Y638512D01*
X720000Y637620D01*
Y637074D01*
X718215Y638215D01*
X716380Y637074D01*
Y637669D01*
X717769Y638512D01*
X716380Y639455D01*
Y639950D01*
X718165Y638810D01*
X720000Y639950D01*
G37*
G74*
*
G75*
G36*
G01*
X730000Y635289D02*
X726826D01*
Y634000D01*
X726380D01*
Y637074D01*
X726826D01*
Y635785D01*
X730000D01*
Y635289D01*
G37*
G74*
*
G75*
G36*
G01*
Y639851D02*
Y639256D01*
X728612Y638413D01*
X730000Y637521D01*
Y636975D01*
X728215Y638116D01*
X726380Y636975D01*
Y637570D01*
X727769Y638413D01*
X726380Y639355D01*
Y639851D01*
X728165Y638711D01*
X730000Y639851D01*
G37*
G74*
*
G75*
G36*
G01*
X736380Y636975D02*
X740000Y635736D01*
Y635240D01*
X736380Y634000D01*
Y634545D01*
X739306Y635488D01*
X736380Y636430D01*
Y636975D01*
G37*
G74*
*
G75*
G36*
G01*
X740099Y638711D02*
X740050Y638413D01*
X740000Y638066D01*
X739851Y637818D01*
X739603Y637570D01*
X739355Y637372D01*
X739008Y637223D01*
X738661Y637174D01*
X738215Y637124D01*
X737769Y637174D01*
X737372Y637223D01*
X737074Y637372D01*
X736777Y637570D01*
X736579Y637818D01*
X736430Y638066D01*
X736331Y638413D01*
X736281Y638760D01*
X736331Y639058D01*
X736380Y639355D01*
X736479Y639603D01*
X736579Y639851D01*
X737174D01*
Y639802D01*
X737025Y639653D01*
X736876Y639405D01*
X736727Y639107D01*
X736678Y638760D01*
X736777Y638314D01*
X737074Y637917D01*
X737570Y637719D01*
X738215Y637620D01*
X738562D01*
X738860Y637719D01*
X739306Y637967D01*
X739504Y638116D01*
X739603Y638314D01*
X739702Y638512D01*
Y638760D01*
X739653Y639107D01*
X739504Y639455D01*
X739355Y639653D01*
X739207Y639802D01*
Y639851D01*
X739802D01*
X739901Y639653D01*
X740000Y639355D01*
X740099Y639107D01*
Y638711D01*
X740099D01*
G37*
G74*
*
G75*
G36*
G01*
Y641686D02*
X740050Y641388D01*
X740000Y641041D01*
X739851Y640793D01*
X739603Y640545D01*
X739355Y640347D01*
X739008Y640198D01*
X738661Y640149D01*
X738215Y640099D01*
X737769Y640149D01*
X737372Y640198D01*
X737074Y640347D01*
X736777Y640545D01*
X736579Y640793D01*
X736430Y641041D01*
X736331Y641388D01*
X736281Y641736D01*
X736331Y642033D01*
X736380Y642331D01*
X736479Y642579D01*
X736579Y642826D01*
X737174D01*
Y642777D01*
X737025Y642628D01*
X736876Y642380D01*
X736727Y642083D01*
X736678Y641736D01*
X736777Y641289D01*
X737074Y640893D01*
X737570Y640694D01*
X738215Y640595D01*
X738562D01*
X738860Y640694D01*
X739306Y640942D01*
X739504Y641091D01*
X739603Y641289D01*
X739702Y641488D01*
Y641736D01*
X739653Y642083D01*
X739504Y642430D01*
X739355Y642628D01*
X739207Y642777D01*
Y642826D01*
X739802D01*
X739901Y642628D01*
X740000Y642331D01*
X740099Y642083D01*
Y641686D01*
X740099D01*
G37*
G74*
*
G75*
G36*
G01*
X683140Y627835D02*
X682479Y627917D01*
X681983Y628000D01*
X681488Y628248D01*
X681074Y628661D01*
X680661Y629074D01*
X680413Y629653D01*
X680331Y630314D01*
X680248Y631058D01*
X680331Y631719D01*
X680496Y632380D01*
X680744Y632876D01*
X681074Y633372D01*
X681488Y633702D01*
X681983Y633950D01*
X682562Y634116D01*
X683140Y634198D01*
X683719Y634116D01*
X684298Y634033D01*
X684711Y633868D01*
X685124Y633702D01*
Y632711D01*
X685041D01*
X684711Y632959D01*
X684298Y633207D01*
X683719Y633455D01*
X683058Y633537D01*
X682645Y633455D01*
X682231Y633372D01*
X681901Y633124D01*
X681653Y632876D01*
X681240Y632050D01*
X681074Y631058D01*
Y630479D01*
X681240Y629983D01*
X681653Y629157D01*
X681901Y628826D01*
X682231Y628661D01*
X682645Y628496D01*
X683058D01*
X683719Y628579D01*
X684298Y628661D01*
Y630314D01*
X682975D01*
Y631058D01*
X685124D01*
Y628331D01*
X684711Y628165D01*
X684215Y628000D01*
X683719Y627835D01*
X683140D01*
X683140D01*
G37*
G74*
*
G75*
G36*
G01*
X690496Y628000D02*
X689587D01*
X686860Y633207D01*
Y628000D01*
X686116D01*
Y634033D01*
X687273D01*
X689752Y629240D01*
Y634033D01*
X690496D01*
Y628000D01*
G37*
G74*
*
G75*
G36*
G01*
X696446Y630975D02*
X696364Y630231D01*
X696116Y629488D01*
X695702Y628909D01*
X695207Y628496D01*
X694711Y628248D01*
X694298Y628083D01*
X693719Y628000D01*
X693058D01*
X691653D01*
Y634033D01*
X693058D01*
X693802D01*
X694380Y633868D01*
X695207Y633537D01*
X695702Y633124D01*
X696116Y632545D01*
X696364Y631802D01*
X696446Y630975D01*
X696446D01*
G37*
G74*
*
*
G04 PC Void Outlines (0)*
G04 Layer Name ATS2823_MODULE_TEST_V1. - clear (0)*
%LPC*%
*
*
G04 PC Area=System Text*
G75*
G36*
G01*
X638182Y619215D02*
X638099Y619711D01*
X637769Y620124D01*
X637355Y620289D01*
X636694Y620372D01*
X636033D01*
Y617893D01*
X636612D01*
X637025D01*
X637355Y617975D01*
X637851Y618223D01*
X638099Y618636D01*
X638182Y619215D01*
X638182D01*
G37*
G74*
*
G75*
G36*
G01*
X683636Y642545D02*
X683554Y642959D01*
X683306Y643207D01*
X682893Y643372D01*
X682562D01*
X682231D01*
X681405D01*
Y641554D01*
X682314D01*
X682645D01*
X682893D01*
X683306Y641719D01*
X683554Y642050D01*
X683636Y642545D01*
X683636D01*
G37*
G74*
*
G75*
G36*
G01*
X683884Y639818D02*
X683802Y640314D01*
X683636Y640562D01*
X683388Y640727D01*
X682975Y640893D01*
X682727D01*
X682314D01*
X681405D01*
Y638661D01*
X682066D01*
X682562D01*
X682893D01*
X683471Y638909D01*
X683802Y639240D01*
X683884Y639818D01*
X683884D01*
G37*
G74*
*
G75*
G36*
G01*
X688182Y640397D02*
X687355Y643041D01*
X686529Y640397D01*
X688182D01*
G37*
G74*
*
G75*
G36*
G01*
X842645Y527917D02*
X841983Y530033D01*
X841322Y527917D01*
X842645D01*
G37*
G74*
*
G75*
G36*
G01*
X847603Y528446D02*
X847537Y528909D01*
X847405Y529372D01*
X847207Y529702D01*
X846876Y529967D01*
X846347Y530231D01*
X846017Y530298D01*
X845554D01*
X845091D01*
Y526529D01*
X845554D01*
X846347Y526595D01*
X846678Y526661D01*
X846942Y526860D01*
X847207Y527124D01*
X847405Y527455D01*
X847537Y527917D01*
X847603Y528446D01*
X847603D01*
G37*
G74*
*
G75*
G36*
G01*
X786620Y632835D02*
X785694Y632702D01*
X785099Y632438D01*
X784702Y631975D01*
X784570Y631380D01*
X784702Y630719D01*
X784835Y630455D01*
X785099Y630256D01*
X785364Y630124D01*
X785760Y629992D01*
X786620Y629860D01*
X787479Y629992D01*
X788074Y630256D01*
X788471Y630719D01*
X788603Y631050D01*
Y631380D01*
Y631645D01*
X788471Y631975D01*
X788074Y632438D01*
X787479Y632769D01*
X786620Y632835D01*
X786620D01*
G37*
G74*
*
G75*
G36*
G01*
Y644471D02*
X785694Y644339D01*
X785099Y644074D01*
X784702Y643612D01*
X784570Y643017D01*
X784702Y642355D01*
X784835Y642091D01*
X785099Y641893D01*
X785364Y641760D01*
X785760Y641628D01*
X786620Y641496D01*
X787479Y641628D01*
X788074Y641893D01*
X788471Y642355D01*
X788603Y642686D01*
Y643017D01*
Y643281D01*
X788471Y643612D01*
X788074Y644074D01*
X787479Y644405D01*
X786620Y644471D01*
X786620D01*
G37*
G74*
*
G75*
G36*
G01*
X785496Y610843D02*
X785165Y610777D01*
X784901Y610512D01*
X784769Y610248D01*
X784702Y609785D01*
Y609124D01*
X786554D01*
Y609719D01*
X786488Y610182D01*
X786289Y610579D01*
X785959Y610777D01*
X785496Y610843D01*
X785496D01*
G37*
G74*
*
G75*
G36*
G01*
X859620Y638926D02*
X858694Y638793D01*
X858099Y638529D01*
X857702Y638066D01*
X857570Y637471D01*
X857702Y636810D01*
X857835Y636545D01*
X858099Y636347D01*
X858364Y636215D01*
X858760Y636083D01*
X859620Y635950D01*
X860479Y636083D01*
X861074Y636347D01*
X861471Y636810D01*
X861603Y637140D01*
Y637471D01*
Y637736D01*
X861471Y638066D01*
X861074Y638529D01*
X860479Y638860D01*
X859620Y638926D01*
X859620D01*
G37*
G74*
*
G75*
G36*
G01*
X859554Y643421D02*
X859091Y643355D01*
X858628Y643223D01*
X858298Y643025D01*
X858033Y642694D01*
X857769Y642165D01*
X857702Y641835D01*
Y641372D01*
Y640909D01*
X861471D01*
Y641372D01*
X861405Y642165D01*
X861339Y642496D01*
X861140Y642760D01*
X860876Y643025D01*
X860545Y643223D01*
X860083Y643355D01*
X859554Y643421D01*
X859554D01*
G37*
G74*
*
G75*
G36*
G01*
X666964Y581679D02*
X669196D01*
X668571Y583375D01*
X668304Y584089D01*
X668125Y584714D01*
X667679Y583554D01*
X666964Y581679D01*
G37*
G74*
*
G75*
G36*
G01*
X689107Y583821D02*
X689196Y583375D01*
X689375Y583107D01*
X689732Y582929D01*
X690179Y582839D01*
X690625Y582929D01*
X690982Y583107D01*
X691161Y583375D01*
X691250Y583732D01*
X691161Y584089D01*
X690982Y584446D01*
X690625Y584625D01*
X690179Y584714D01*
X689732Y584625D01*
X689375Y584446D01*
X689196Y584179D01*
X689107Y583821D01*
X689107D01*
G37*
G74*
*
G75*
G36*
G01*
X688929Y580875D02*
X689018Y580250D01*
X689196Y579982D01*
X689554Y579804D01*
X689821Y579625D01*
X690179D01*
X690714Y579714D01*
X691071Y579982D01*
X691339Y580339D01*
X691429Y580875D01*
X691339Y581321D01*
X691071Y581768D01*
X690714Y582036D01*
X690179Y582125D01*
X689643Y582036D01*
X689286Y581768D01*
X689018Y581321D01*
X688929Y580875D01*
X688929D01*
G37*
G74*
*
G75*
G36*
G01*
X716429Y582125D02*
X716607Y581054D01*
X717054Y580250D01*
X717768Y579804D01*
X718571Y579625D01*
X719464Y579804D01*
X720089Y580250D01*
X720536Y581143D01*
X720714Y582214D01*
X720625Y582929D01*
X720446Y583554D01*
X720179Y584089D01*
X719732Y584446D01*
X719196Y584714D01*
X718571Y584804D01*
X717768Y584625D01*
X717054Y584179D01*
X716786Y583821D01*
X716607Y583375D01*
X716429Y582750D01*
Y582125D01*
X716429D01*
G37*
G74*
*
G75*
G36*
G01*
X723661Y579714D02*
X725000D01*
X725536D01*
X725982Y579804D01*
X726518Y580161D01*
X726786Y580518D01*
X726964Y580964D01*
X727143Y581589D01*
Y582214D01*
X727054Y583196D01*
X726786Y583821D01*
X726429Y584268D01*
X726071Y584536D01*
X725625Y584714D01*
X725000D01*
X723661D01*
Y579714D01*
G37*
G74*
*
G75*
G36*
G01*
X722643Y572143D02*
X722732Y571696D01*
X722821Y571339D01*
X723000Y571071D01*
X723357Y570804D01*
X723625Y570625D01*
X724071D01*
X724518Y570714D01*
X724964Y570982D01*
X725232Y571429D01*
X725321Y572054D01*
X725232Y572679D01*
X724964Y573125D01*
X724518Y573393D01*
X723982Y573482D01*
X723446Y573393D01*
X723000Y573125D01*
X722732Y572679D01*
X722643Y572143D01*
X722643D01*
G37*
G74*
*
G75*
G36*
G01*
X727821Y573125D02*
Y572411D01*
X727911Y571875D01*
X728000Y571429D01*
X728179Y571071D01*
X728625Y570714D01*
X729071Y570625D01*
X729518Y570714D01*
X729964Y571071D01*
X730143Y571429D01*
X730232Y571875D01*
X730321Y572411D01*
Y573125D01*
Y573839D01*
X730232Y574464D01*
X730143Y574911D01*
X729964Y575179D01*
X729607Y575625D01*
X729071Y575714D01*
X728625Y575625D01*
X728179Y575268D01*
X728000Y574911D01*
X727911Y574464D01*
X727821Y573839D01*
Y573125D01*
X727821D01*
G37*
G74*
*
G75*
G36*
G01*
X737821D02*
Y572411D01*
X737911Y571875D01*
X738000Y571429D01*
X738179Y571071D01*
X738625Y570714D01*
X739071Y570625D01*
X739518Y570714D01*
X739964Y571071D01*
X740143Y571429D01*
X740232Y571875D01*
X740321Y572411D01*
Y573125D01*
Y573839D01*
X740232Y574464D01*
X740143Y574911D01*
X739964Y575179D01*
X739607Y575625D01*
X739071Y575714D01*
X738625Y575625D01*
X738179Y575268D01*
X738000Y574911D01*
X737911Y574464D01*
X737821Y573839D01*
Y573125D01*
X737821D01*
G37*
G74*
*
G75*
G36*
G01*
X744518Y572321D02*
Y574821D01*
X742643Y572321D01*
X744518D01*
G37*
G74*
*
G75*
G36*
G01*
X708165Y643372D02*
X707818Y643322D01*
X707471Y643223D01*
X707223Y643074D01*
X707025Y642826D01*
X706826Y642430D01*
X706777Y642182D01*
Y641835D01*
Y641488D01*
X709603D01*
Y641835D01*
X709554Y642430D01*
X709504Y642678D01*
X709355Y642876D01*
X709157Y643074D01*
X708909Y643223D01*
X708562Y643322D01*
X708165Y643372D01*
X708165D01*
G37*
G74*
*
G75*
G36*
G01*
X717372Y636132D02*
X717124Y636083D01*
X716926Y635884D01*
X716826Y635686D01*
X716777Y635339D01*
Y634843D01*
X718165D01*
Y635289D01*
X718116Y635636D01*
X717967Y635934D01*
X717719Y636083D01*
X717372Y636132D01*
X717372D01*
G37*
G74*
*
G75*
G36*
G01*
X695620Y631058D02*
X695537Y631636D01*
X695372Y632215D01*
X695124Y632628D01*
X694711Y632959D01*
X694050Y633289D01*
X693636Y633372D01*
X693058D01*
X692479D01*
Y628661D01*
X693058D01*
X694050Y628744D01*
X694463Y628826D01*
X694793Y629074D01*
X695124Y629405D01*
X695372Y629818D01*
X695537Y630397D01*
X695620Y631058D01*
X695620D01*
G37*
G74*
*
*
G04 PC Custom Flashes*
G04 Layer Name ATS2823_MODULE_TEST_V1. - flashes*
%LPD*%
*
*
G04 PC Circuitry*
G04 Layer Name ATS2823_MODULE_TEST_V1. - circuitry*
%LPD*%
*
G54D10*
G01X586721Y589794D02*
G75*
G03Y582194I-319J-3800D01*
G01X595479Y582206D02*
G03Y589806I319J3800D01*
G01X630800Y536300D02*
X637300D01*
Y521900*
X630700*
Y536300*
X635400Y529600D02*
X632700D01*
X634050Y528250*
X635400Y529600*
X632700*
X634050Y528250*
X635400Y529600*
X632700*
X634050Y528250*
X635400Y529600*
X562835Y545619D02*
Y550468D01*
X560297Y547930*
X562835Y545619*
X887516Y567000D02*
Y569000D01*
X882622*
X887516Y559500D02*
Y557500D01*
X882622*
X878122Y563500D02*
Y563000D01*
X887516Y580000D02*
Y582000D01*
X882622*
X887516Y572500D02*
Y570500D01*
X882622*
X878122Y576500D02*
Y576000D01*
X610800Y536300D02*
X617300D01*
Y521900*
X610700*
Y536300*
X615400Y529600D02*
X612700D01*
X614050Y528250*
X615400Y529600*
X612700*
X614050Y528250*
X615400Y529600*
X612700*
X614050Y528250*
X615400Y529600*
X590800Y536300D02*
X597300D01*
Y521900*
X590700*
Y536300*
X595400Y529600D02*
X592700D01*
X594050Y528250*
X595400Y529600*
X592700*
X594050Y528250*
X595400Y529600*
X592700*
X594050Y528250*
X595400Y529600*
X650800Y536300D02*
X657300D01*
Y521900*
X650700*
Y536300*
X655400Y529600D02*
X652700D01*
X654050Y528250*
X655400Y529600*
X652700*
X654050Y528250*
X655400Y529600*
X652700*
X654050Y528250*
X655400Y529600*
X586721Y612794D02*
G03Y605194I-319J-3800D01*
G01X595479Y605206D02*
G03Y612806I319J3800D01*
G01X595279Y567206D02*
G03Y574806I319J3800D01*
G01X586521Y574794D02*
G03Y567194I-319J-3800D01*
G01X586721Y597794D02*
G03Y590194I-319J-3800D01*
G01X595479Y590206D02*
G03Y597806I319J3800D01*
G01X607500Y620500D02*
X600563D01*
Y611500*
X607500*
X613500D02*
X621000D01*
Y620500*
X613500*
X600500D02*
X599200D01*
Y611500*
X600000*
X599991D02*
X600604D01*
X607500Y630500D02*
X600563D01*
Y621500*
X607500*
X613500D02*
X621000D01*
Y630500*
X613500*
X600500D02*
X599200D01*
Y621500*
X600000*
X599991D02*
X600604D01*
G54D18*
X605000Y651000D02*
Y631000D01*
X613969*
Y651000*
X610520*
X608520D02*
G03X610520I1000J0D01*
G01X608520D02*
X605000D01*
X621000Y594000D02*
X601000D01*
Y585031*
X621000*
Y588480*
Y590480D02*
G03Y588480I0J-1000D01*
G01Y590480D02*
Y594000D01*
G54D21*
X864000Y548700D02*
X861300D01*
Y543300*
X864000*
X869800Y548700D02*
X872600D01*
Y543300*
X869800*
X864000Y555700D02*
X861300D01*
Y550300*
X864000*
X869800Y555700D02*
X872600D01*
Y550300*
X869800*
X806000Y614700D02*
X803300D01*
Y609300*
X806000*
X811800Y614700D02*
X814600D01*
Y609300*
X811800*
X837623D02*
G03Y614700I90J2700D01*
G01X831721Y614800D02*
G03Y609400I-90J-2700D01*
G01X568000Y650700D02*
X565300D01*
Y645300*
X568000*
X573800Y650700D02*
X576600D01*
Y645300*
X573800*
X587000D02*
X589700D01*
Y650700*
X587000*
X581200Y645300D02*
X578400D01*
Y650700*
X581200*
X833300Y581999D02*
G03X838700I2700J-90D01*
G01X838800Y587901D02*
G03X833400I-2700J90D01*
G01X827300Y581999D02*
G03X832700I2700J-90D01*
G01X832800Y587901D02*
G03X827400I-2700J90D01*
G01X794000Y614700D02*
X791300D01*
Y609300*
X794000*
X799800Y614700D02*
X802600D01*
Y609300*
X799800*
X879100Y627400D02*
X876400D01*
Y622000*
X879100*
X884900Y627400D02*
X887700D01*
Y622000*
X884900*
X867100Y627400D02*
X864400D01*
Y622000*
X867100*
X872900Y627400D02*
X875700D01*
Y622000*
X872900*
X845999Y608700D02*
G03Y603300I-90J-2700D01*
G01X851901Y603200D02*
G03Y608600I90J2700D01*
G01X845622Y614700D02*
X842922D01*
Y609300*
X845622*
X851422Y614700D02*
X854222D01*
Y609300*
X851422*
X884000Y550300D02*
X886700D01*
Y555700*
X884000*
X878200Y550300D02*
X875400D01*
Y555700*
X878200*
X816500Y510401D02*
G03X811100I-2700J90D01*
G01X811000Y504499D02*
G03X816400I2700J-90D01*
G01X622700Y579399D02*
G03X628100I2700J-90D01*
G01X628200Y585301D02*
G03X622800I-2700J90D01*
G01X522000Y625300D02*
X524700D01*
Y630700*
X522000*
X516200Y625300D02*
X513400D01*
Y630700*
X516200*
X553999Y559700D02*
G03Y554300I-90J-2700D01*
G01X559901Y554200D02*
G03Y559600I90J2700D01*
G01X556500Y552724D02*
X550400D01*
Y543276*
X556500*
X566181D02*
X572437D01*
Y552724*
X566181*
X551400D02*
X549700D01*
Y543276*
X550900*
X656999Y621700D02*
G03Y616300I-90J-2700D01*
G01X662901Y616200D02*
G03Y621600I90J2700D01*
G01X657000Y615700D02*
X654300D01*
Y610300*
X657000*
X662800Y615700D02*
X665600D01*
Y610300*
X662800*
X878622Y589700D02*
X875922D01*
Y584300*
X878622*
X884422Y589700D02*
X887222D01*
Y584300*
X884422*
X866922Y578999D02*
G03X872322I2700J-90D01*
G01X872422Y584901D02*
G03X867022I-2700J90D01*
G01X860922Y578999D02*
G03X866322I2700J-90D01*
G01X866422Y584901D02*
G03X861022I-2700J90D01*
G01X816999Y590700D02*
G03Y585300I-90J-2700D01*
G01X822901Y585200D02*
G03Y590600I90J2700D01*
G01X612001Y651300D02*
G03Y656700I90J2700D01*
G01X606099Y656800D02*
G03Y651400I-90J-2700D01*
G01X587000Y633300D02*
X589700D01*
Y638700*
X587000*
X581200Y633300D02*
X578400D01*
Y638700*
X581200*
X567999D02*
G03Y633300I-90J-2700D01*
G01X573901Y633200D02*
G03Y638600I90J2700D01*
G01X567999Y632700D02*
G03Y627300I-90J-2700D01*
G01X573901Y627200D02*
G03Y632600I90J2700D01*
G01X567999Y626700D02*
G03Y621300I-90J-2700D01*
G01X573901Y621200D02*
G03Y626600I90J2700D01*
G01X580999Y644700D02*
G03Y639300I-90J-2700D01*
G01X586901Y639200D02*
G03Y644600I90J2700D01*
G01X587000Y621300D02*
X589700D01*
Y626700*
X587000*
X581200Y621300D02*
X578400D01*
Y626700*
X581200*
X587000Y627300D02*
X589700D01*
Y632700*
X587000*
X581200Y627300D02*
X578400D01*
Y632700*
X581200*
X799001Y585300D02*
G03Y590700I90J2700D01*
G01X793099Y590800D02*
G03Y585400I-90J-2700D01*
G01X811001Y585300D02*
G03Y590700I90J2700D01*
G01X805099Y590800D02*
G03Y585400I-90J-2700D01*
G01X777622Y551700D02*
X774922D01*
Y546300*
X777622*
X783422Y551700D02*
X786222D01*
Y546300*
X783422*
X786322Y549000D02*
Y551700D01*
X780922*
Y549000*
X786322Y543200D02*
Y540400D01*
X780922*
Y543200*
X818622Y614700D02*
X815922D01*
Y609300*
X818622*
X824422Y614700D02*
X827222D01*
Y609300*
X824422*
X863621Y561700D02*
G03Y556300I-90J-2700D01*
G01X869523Y556200D02*
G03Y561600I90J2700D01*
G01X616700Y513000D02*
Y515700D01*
X611300*
Y513000*
X616700Y507200D02*
Y504400D01*
X611300*
Y507200*
X596700Y513000D02*
Y515700D01*
X591300*
Y513000*
X596700Y507200D02*
Y504400D01*
X591300*
Y507200*
X636700Y513000D02*
Y515700D01*
X631300*
Y513000*
X636700Y507200D02*
Y504400D01*
X631300*
Y507200*
X656700Y513000D02*
Y515700D01*
X651300*
Y513000*
X656700Y507200D02*
Y504400D01*
X651300*
Y507200*
X864000Y571700D02*
X861300D01*
Y566300*
X864000*
X869800Y571700D02*
X872600D01*
Y566300*
X869800*
X628999Y569700D02*
G03Y564300I-90J-2700D01*
G01X634901Y564200D02*
G03Y569600I90J2700D01*
G01X635001Y597300D02*
G03Y602700I90J2700D01*
G01X629099Y602800D02*
G03Y597400I-90J-2700D01*
G01X635001Y590300D02*
G03Y595700I90J2700D01*
G01X629099Y595800D02*
G03Y590400I-90J-2700D01*
G01X628999Y575700D02*
G03Y570300I-90J-2700D01*
G01X634901Y570200D02*
G03Y575600I90J2700D01*
G01X595000Y598300D02*
X597700D01*
Y603700*
X595000*
X589200Y598300D02*
X586400D01*
Y603700*
X589200*
X595000Y576300D02*
X597700D01*
Y581700*
X595000*
X589200Y576300D02*
X586400D01*
Y581700*
X589200*
X864000Y536700D02*
X861300D01*
Y531300*
X864000*
X869800Y536700D02*
X872600D01*
Y531300*
X869800*
X864000Y542700D02*
X861300D01*
Y537300*
X864000*
X869800Y542700D02*
X872600D01*
Y537300*
X869800*
X875999Y536700D02*
G03Y531300I-90J-2700D01*
G01X881901Y531200D02*
G03Y536600I90J2700D01*
G01X863700Y512000D02*
Y514700D01*
X858300*
Y512000*
X863700Y506200D02*
Y503400D01*
X858300*
Y506200*
G54D49*
X779842Y529780D02*
X807402D01*
Y502220*
X779842*
Y529780*
X853094Y502000D02*
X839556D01*
Y503250*
X835688*
Y502000*
X822150*
Y522000*
X853094*
Y502000*
X537059Y561370D02*
Y567583D01*
X537075Y539394D02*
Y545220D01*
X520576Y535370D02*
X526636D01*
X520774Y571136D02*
X526537D01*
X509051Y538440D02*
X500475D01*
Y568395*
X508852*
X594045Y543625D02*
Y538000D01*
X592000Y540812D02*
X596091D01*
X614045Y543625D02*
Y538000D01*
X612000Y540812D02*
X616091D01*
X634045Y543625D02*
Y538000D01*
X632000Y540812D02*
X636091D01*
X654045Y543625D02*
Y538000D01*
X652000Y540812D02*
X656091D01*
X500000Y500000D02*
Y681102D01*
X688976*
X688976*
X755906*
X755906*
X893701*
Y500000*
X500000*
X589000Y531600D02*
X659000D01*
Y526400*
X589000*
Y531600*
G54D61*
X525181Y662567D02*
Y666425D01*
X518252*
X525220Y643197D02*
Y639850D01*
X518331*
X507898Y666425D02*
X501402D01*
Y639890*
X507976*
X515339Y660795D02*
Y658000D01*
X505732*
Y660795*
X515339*
X515299Y648079D02*
Y645283D01*
X505693*
Y648079*
X515299*
X688000Y665000D02*
G03X688000I-15000J0D01*
G01X531000Y516000D02*
G03X531000I-15000J0D01*
G01X787000Y665000D02*
G03X787000I-15000J0D01*
G01X893000Y516000D02*
G03X893000I-15000J0D01*
G01Y665000D02*
G03X893000I-15000J0D01*
G01X504409Y614031D02*
Y593953D01*
X497244*
Y614031*
X504409*
X504449Y616000D02*
Y591591D01*
X555906*
Y616000*
X504449*
G54D115*
X854480Y623535D02*
X796580D01*
Y680635*
X854480*
Y623535*
G54D155*
X757827Y648913D02*
Y644583D01*
X759441*
Y641669*
X757827*
Y629583*
X758228*
X781291*
Y641669*
X779677*
Y644583*
X781291*
Y648913*
X772378*
Y647299*
X766866*
Y648913*
X757953*
X757827*
X863827D02*
Y644583D01*
X865441*
Y641669*
X863827*
Y629583*
X864228*
X887291*
Y641669*
X885677*
Y644583*
X887291*
Y648913*
X878378*
Y647299*
X872866*
Y648913*
X863953*
X863827*
X837417Y523087D02*
Y527417D01*
X835803*
Y530331*
X837417*
Y542417*
X837016*
X813953*
Y530331*
X815567*
Y527417*
X813953*
Y523087*
X822866*
Y524701*
X828378*
Y523087*
X837291*
X837417*
X569795Y562087D02*
Y566417D01*
X568181*
Y569331*
X569795*
Y581417*
X569394*
X546331*
Y569331*
X547945*
Y566417*
X546331*
Y562087*
X555244*
Y563701*
X560756*
Y562087*
X569669*
X569795*
X657087Y623205D02*
X661417D01*
Y624819*
X664331*
Y623205*
X676417*
Y623606*
Y646669*
X664331*
Y645055*
X661417*
Y646669*
X657087*
Y637756*
X658701*
Y632244*
X657087*
Y623331*
Y623205*
X757827Y627913D02*
Y623583D01*
X759441*
Y620669*
X757827*
Y608583*
X758228*
X781291*
Y620669*
X779677*
Y623583*
X781291*
Y627913*
X772378*
Y626299*
X766866*
Y627913*
X757953*
X757827*
X629087Y623205D02*
X633417D01*
Y624819*
X636331*
Y623205*
X648417*
Y623606*
Y646669*
X636331*
Y645055*
X633417*
Y646669*
X629087*
Y637756*
X630701*
Y632244*
X629087*
Y623331*
Y623205*
G54D156*
X748000Y608157D02*
Y614417D01*
X745976*
Y617331*
X748000*
Y631386*
X698000*
Y617331*
X700000*
Y614417*
X698000*
Y608157*
X708709*
Y609732*
X736756*
Y608157*
X748000*
G74*
X0Y0D02*
M02*
