*
*
G04 PADS Layout (Build Number 2005.266.2) generated Gerber (RS-274-X) file*
G04 PC Version=2.1*
*
%IN "ATS2823_MODULE_TEST_V1."*%
*
%MOIN*%
*
%FSLAX35Y35*%
*
*
*
*
G04 PC Standard Apertures*
*
*
G04 Thermal Relief Aperture macro.*
%AMTER*
1,1,$1,0,0*
1,0,$1-$2,0,0*
21,0,$3,$4,0,0,45*
21,0,$3,$4,0,0,135*
%
*
*
G04 Annular Aperture macro.*
%AMANN*
1,1,$1,0,0*
1,0,$2,0,0*
%
*
*
G04 Odd Aperture macro.*
%AMODD*
1,1,$1,0,0*
1,0,$1-0.005,0,0*
%
*
*
G04 PC Custom Aperture Macros*
*
*
*
*
*
*
G04 PC Aperture Table*
*
%ADD049C,0.01*%
%ADD064R,0.03846X0.03846*%
%ADD067C,0.04437*%
%ADD098C,0.02665*%
%ADD123C,0.04043*%
%ADD130R,0.05X0.05*%
%ADD157O,0.06405X0.09949*%
%ADD158R,0.055X0.055*%
%ADD159O,0.09161X0.03846*%
%ADD160O,0.03846X0.09161*%
%ADD161R,0.06012X0.08374*%
%ADD162R,0.05224X0.02075*%
%ADD163R,0.08374X0.08374*%
%ADD164O,0.09949X0.06405*%
%ADD165R,0.055X0.041*%
%ADD166O,0.085X0.03*%
%ADD167O,0.02469X0.08374*%
%ADD168C,0.08374*%
%ADD169O,0.08374X0.02862*%
%ADD170C,0.255*%
%ADD171R,0.03256X0.08374*%
%ADD172R,0.05224X0.06012*%
%ADD173R,0.05224X0.09161*%
%ADD174R,0.06799X0.06012*%
%ADD175R,0.06799X0.11524*%
%ADD176R,0.07587X0.02468*%
%ADD177R,0.11917X0.06799*%
%ADD178C,0.04043*%
%ADD179O,0.03X0.085*%
*
*
*
*
G04 PC Copper Outlines (0)*
G04 Layer Name ATS2823_MODULE_TEST_V1. - dark (0)*
%LPD*%
*
*
G04 PC Area=CFC8*
G75*
G36*
G01*
X516154Y657433D02*
Y654567D01*
X509358D01*
Y657433D01*
X516154D01*
G37*
G74*
*
*
G04 PC Area=CFC9*
G75*
G36*
G01*
X516197Y648571D02*
Y651244D01*
X509402D01*
Y648571D01*
X516197D01*
G37*
G74*
*
*
G04 PC Area=DRW47092678*
G75*
G36*
G01*
X748500Y500500D02*
Y555500D01*
X795500D01*
Y544500D01*
X779500D01*
Y500500D01*
X748500D01*
G37*
G74*
*
*
G04 PC Copper Outlines (1)*
G04 Layer Name ATS2823_MODULE_TEST_V1. - dark (1)*
%LPD*%
*
*
G04 PC Area=Custom_Thermal*
*
G04 PC Custom Flashes*
G04 Layer Name ATS2823_MODULE_TEST_V1. - flashes*
%LPD*%
*
*
G04 PC Circuitry*
G04 Layer Name ATS2823_MODULE_TEST_V1. - circuitry*
%LPD*%
*
G54D49*
G01X748500Y500500D02*
Y555500D01*
X795500*
Y544500*
X779500*
Y500500*
X748500*
X516154Y657433D02*
Y654567D01*
X509358*
Y657433*
X516154*
X516197Y648571D02*
Y651244D01*
X509402*
Y648571*
X516197*
X500000Y500000D02*
Y681102D01*
X688976*
X688976*
X755906*
X755906*
X893701*
Y500000*
X500000*
X589000Y531600D02*
X659000D01*
Y526400*
X589000*
Y531600*
G54D64*
X864000Y546000D03*
X869906D03*
X864000Y553000D03*
X869906D03*
X806000Y612000D03*
X811906D03*
X837622D03*
X831717D03*
X568000Y648000D03*
X573906D03*
X587000D03*
X581094D03*
X836000Y582000D03*
Y587906D03*
X830000Y582000D03*
Y587906D03*
X794000Y612000D03*
X799906D03*
X879100Y624700D03*
X885006D03*
X867100D03*
X873006D03*
X846000Y606000D03*
X851906D03*
X845622Y612000D03*
X851528D03*
X884000Y553000D03*
X878094D03*
X813800Y510400D03*
Y504494D03*
X625400Y579400D03*
Y585306D03*
X522000Y628000D03*
X516094D03*
X554000Y557000D03*
X559906D03*
X657000Y619000D03*
X662906D03*
X657000Y613000D03*
X662906D03*
X878622Y587000D03*
X884528D03*
X869622Y579000D03*
Y584906D03*
X863622Y579000D03*
Y584906D03*
X817000Y588000D03*
X822906D03*
X612000Y654000D03*
X606094D03*
X587000Y636000D03*
X581094D03*
X568000D03*
X573906D03*
X568000Y630000D03*
X573906D03*
X568000Y624000D03*
X573906D03*
X581000Y642000D03*
X586906D03*
X587000Y624000D03*
X581094D03*
X587000Y630000D03*
X581094D03*
X799000Y588000D03*
X793094D03*
X811000D03*
X805094D03*
X777622Y549000D03*
X783528D03*
X783622D03*
Y543094D03*
X818622Y612000D03*
X824528D03*
X863622Y559000D03*
X869528D03*
X614000Y513000D03*
Y507094D03*
X594000Y513000D03*
Y507094D03*
X634000Y513000D03*
Y507094D03*
X654000Y513000D03*
Y507094D03*
X864000Y569000D03*
X869906D03*
X629000Y567000D03*
X634906D03*
X635000Y600000D03*
X629094D03*
X635000Y593000D03*
X629094D03*
X629000Y573000D03*
X634906D03*
X595000Y601000D03*
X589094D03*
X595000Y579000D03*
X589094D03*
X864000Y534000D03*
X869906D03*
X864000Y540000D03*
X869906D03*
X876000Y534000D03*
X881906D03*
X861000Y512000D03*
Y506094D03*
G54D67*
X845080Y664935D03*
X813584D03*
G54D98*
X520890Y660835D03*
Y645087D03*
G54D123*
X514173Y604189D03*
X541732D03*
G54D130*
X634000Y533000D03*
Y525000D03*
X614000Y533000D03*
Y525000D03*
X594000Y533000D03*
Y525000D03*
X654000Y533000D03*
Y525000D03*
G54D157*
X773496Y641000D03*
X765622D03*
X879496D03*
X871622D03*
X821748Y531000D03*
X829622D03*
X554126Y570000D03*
X562000D03*
X773496Y620000D03*
X765622D03*
X738000Y618000D03*
X728000D03*
X718000D03*
X708000D03*
G54D158*
X586500Y586000D03*
X595500D03*
X586500Y609000D03*
X595500D03*
Y571000D03*
X586500D03*
Y594000D03*
X595500D03*
X615500Y616000D02*
X616500D01*
X604500D02*
X605500D01*
X615500Y626000D02*
X616500D01*
X604500D02*
X605500D01*
G54D159*
X851118Y594102D03*
Y589969D03*
Y585835D03*
Y581701D03*
Y577567D03*
Y573433D03*
Y569299D03*
Y565165D03*
Y561031D03*
Y556898D03*
Y552764D03*
G54D160*
X839622Y548760D03*
X835488D03*
X831354D03*
X827220D03*
X823087D03*
X818953D03*
X814819D03*
X798165D03*
X794031D03*
X802417Y598000D03*
X806551D03*
X810685D03*
X814819D03*
X818953D03*
X823087D03*
X827220D03*
X831354D03*
X835488D03*
X839622D03*
G54D161*
X568937Y548000D03*
X554000D03*
G54D162*
X524118Y658039D03*
Y655480D03*
Y652921D03*
Y650362D03*
Y647803D03*
G54D163*
X512740Y664378D03*
Y641937D03*
G54D164*
X665000Y638874D03*
Y631000D03*
X637000Y638874D03*
Y631000D03*
G54D165*
X878622Y567000D03*
Y559500D03*
X887677Y563200D03*
X878622Y580000D03*
Y572500D03*
X887677Y576200D03*
G54D166*
X599250Y648500D03*
Y643500D03*
Y638500D03*
Y633500D03*
X619559Y633480D03*
Y638480D03*
Y643480D03*
Y648480D03*
G54D167*
X760522Y546005D03*
G54D168*
X793622Y516000D03*
X783622Y526000D03*
Y506000D03*
X803622D03*
Y526000D03*
G54D169*
X853370Y504500D03*
Y509500D03*
Y514500D03*
Y519500D03*
X821874D03*
Y514500D03*
Y509500D03*
Y504500D03*
G54D170*
X673000Y665000D03*
X516000Y516000D03*
X772000Y665000D03*
X878000Y516000D03*
Y665000D03*
G54D171*
X816735Y623535D03*
X821065D03*
X825396D03*
X829727D03*
X834057D03*
X838388D03*
X842719D03*
X847050D03*
X851380D03*
G54D172*
X856780Y626235D03*
G54D173*
X857122Y663299D03*
X794122D03*
G54D174*
X796756Y625504D03*
G54D175*
X520472Y617575D03*
X532283D03*
X548031D03*
X551969Y590016D03*
G54D176*
X537205Y546886D03*
Y550035D03*
Y553185D03*
Y556335D03*
Y559484D03*
G54D177*
X514990Y535798D03*
X532312Y571231D03*
Y535798D03*
X514990Y571231D03*
G54D178*
X525000Y544677D03*
Y562000D03*
G54D179*
X618500Y599750D03*
X613500D03*
X608500D03*
X603500D03*
X603480Y579441D03*
X608480D03*
X613480D03*
X618480D03*
X0Y0D02*
M02*
