*
*
G04 PADS Layout (Build Number 2005.266.2) generated Gerber (RS-274-X) file*
G04 PC Version=2.1*
*
%IN "ATS2825_CHIPID_CORE_V1."*%
*
%MOIN*%
*
%FSLAX35Y35*%
*
*
*
*
G04 PC Standard Apertures*
*
*
G04 Thermal Relief Aperture macro.*
%AMTER*
1,1,$1,0,0*
1,0,$1-$2,0,0*
21,0,$3,$4,0,0,45*
21,0,$3,$4,0,0,135*
%
*
*
G04 Annular Aperture macro.*
%AMANN*
1,1,$1,0,0*
1,0,$2,0,0*
%
*
*
G04 Odd Aperture macro.*
%AMODD*
1,1,$1,0,0*
1,0,$1-0.005,0,0*
%
*
*
G04 PC Custom Aperture Macros*
*
*
*
*
*
*
G04 PC Aperture Table*
*
%ADD023R,0.03346X0.03346*%
%ADD027C,0.03937*%
%ADD049C,0.01*%
%ADD054C,0.025*%
%ADD091R,0.02165X0.02165*%
%ADD139R,0.04724X0.04724*%
%ADD140R,0.075X0.075*%
%ADD141R,0.05X0.05*%
*
*
*
*
G04 PC Copper Outlines (0)*
G04 Layer Name ATS2825_CHIPID_CORE_V1. - dark (0)*
%LPD*%
*
*
G04 PC Area=Custom_Thermal*
*
G04 PC Custom Flashes*
G04 Layer Name ATS2825_CHIPID_CORE_V1. - flashes*
%LPD*%
*
*
G04 PC Circuitry*
G04 Layer Name ATS2825_CHIPID_CORE_V1. - circuitry*
%LPD*%
*
G54D23*
G01X750400Y698900D03*
X744494D03*
X771900Y670800D03*
X777806D03*
X726900Y725300D03*
Y731206D03*
X726800Y738200D03*
Y744106D03*
X722000Y707500D03*
X727906D03*
X735300Y684500D03*
Y678594D03*
X756700Y692900D03*
Y698806D03*
X735300Y699000D03*
Y693094D03*
X717000Y670300D03*
X711094D03*
X745700Y725600D03*
Y731506D03*
X756700Y686700D03*
Y680794D03*
X620100Y593000D03*
Y598906D03*
X614000Y593000D03*
Y598906D03*
X762500Y657400D03*
Y651494D03*
X783300Y674500D03*
X789206D03*
X751800Y676900D03*
X745894D03*
X776600Y720100D03*
X770694D03*
X766500Y707000D03*
Y712906D03*
X773000Y707000D03*
Y712906D03*
X783300Y686900D03*
X789206D03*
X783300Y680800D03*
X789206D03*
X758300Y738300D03*
Y744206D03*
X739600Y738300D03*
Y744206D03*
X752000Y725300D03*
Y731206D03*
X733100Y725300D03*
Y731206D03*
Y738300D03*
Y744206D03*
X739600Y725300D03*
Y731206D03*
X758300Y725300D03*
Y731206D03*
X750000Y622000D03*
X744094D03*
G54D27*
X828000Y608400D03*
G54D49*
X565898Y829500D02*
G75*
G03X554700Y819506I-663J-10528D01*
G01X565900Y829500D02*
X871000D01*
X881000Y819501D02*
G03X871001Y829500I-11107J-1108D01*
G01X881000Y819500D02*
Y562100D01*
X870984Y552097D02*
G03X880999Y562094I-2734J12753D01*
G01X871000Y552100D02*
X565900D01*
X554699Y562107D02*
G03X565891Y552100I11332J1411D01*
G01X554700Y562100D02*
Y819500D01*
G54D54*
X729651Y629800D02*
X736993D01*
X729651Y634800D02*
X736993D01*
X729651Y639800D02*
X736993D01*
X729651Y644800D02*
X736993D01*
X754907D02*
X762249D01*
X754907Y639800D02*
X762249D01*
X754907Y634800D02*
X762249D01*
X754907Y629800D02*
X762249D01*
G54D91*
X794298Y647169D02*
X794102D01*
X794298Y643231D02*
X794102D01*
X780298Y647169D02*
X780102D01*
X780298Y643231D02*
X780102D01*
X785200Y647298D02*
Y647102D01*
X789137Y647298D02*
Y647102D01*
X799231Y647298D02*
Y647102D01*
X803169Y647298D02*
Y647102D01*
G54D139*
X784379Y701150D02*
X785166D01*
X793434D02*
X794221D01*
X793434Y694850D02*
X794221D01*
X784379D02*
X785166D01*
G54D140*
X769850Y736900D02*
Y731900D01*
X783350Y736900D02*
Y731900D01*
G54D141*
X608000Y702000D02*
X610000D01*
X596000D02*
X598000D01*
X608000Y690000D02*
X610000D01*
X596000D02*
X598000D01*
G74*
X0Y0D02*
M02*
