%
T1C.01F095S3
X0822Y06144
X0822Y06185
X0822Y06225
X0822Y06265
X0822Y06307
X0822Y06346
X0822Y06387
X0828Y06143
X0828Y06185
X0828Y06224
X0828Y06082
X08281Y06307
X08281Y06347
X08281Y06386
X08281Y06266
X0828Y06428
X0828Y06469
X0822Y06427
X08072Y0647
X07812Y06701
X05689Y0716
X07209Y07253
X07298Y07335
T2C.014F095S3
X0647Y0583
X0649Y058
X0651Y0583
X06835Y06045
X06946Y06046
X0704Y05738
X07077Y06143
X07084Y06056
X07108Y06098
X0719Y0601
X07324Y06133
X07324Y06063
X07383Y06132
X07384Y06065
X0787Y0609
X0789Y0606
X0791Y0609
X0789Y064
X0787Y0637
X0785Y064
X07515Y06321
X07423Y064
X07408Y06348
X07383Y062
X07324Y06202
X07264Y06347
X07189Y06342
X07111Y06172
X07088Y06408
X07075Y06228
X06948Y06261
X06835Y06161
X0586Y0657
X0588Y0654
X059Y0657
X0685Y0652
X0687Y0649
X0689Y0652
X07188Y06653
X0719Y0662
X07193Y0651
X07248Y06628
X07277Y06532
X07284Y06495
X07514Y06448
X0763Y0665
X07659Y06622
X0768Y065
X0824Y0684
X0822Y0681
X082Y0684
X0799Y0682
X0797Y0679
X0795Y0682
X07776Y06665
X07516Y06817
X07404Y06775
X07112Y06745
X0707Y0689
X0705Y0686
X07047Y06734
X0703Y0689
X06965Y0673
X0583Y07059
X0597Y07106
X0673Y0697
X0675Y0694
X0677Y0697
X06892Y07156
X07121Y07112
X07122Y07034
X07124Y07078
X07219Y07045
X0725Y07133
X07284Y07122
X07461Y07004
X07702Y07156
X07792Y06949
X07999Y07013
X0822Y0738
X07671Y07216
X07665Y07177
X07498Y07355
X07396Y07344
X06919Y07195
X06851Y07196
X06771Y0734
X06753Y07295
X0672Y07341
X06683Y0722
X06663Y07391
X06636Y07253
X06636Y07172
X06599Y07309
X05606Y07709
X05735Y07709
X05844Y07709
X05985Y07872
X06022Y07872
X06059Y07872
X06498Y07413
X06614Y07441
X0674Y0762
X0676Y0759
X0678Y0762
X0731Y0754
X0733Y0751
X0735Y0754
X07615Y07474
X0773Y0778
X0775Y0775
X0777Y0778
X082Y0741
X0824Y0741
X0863Y0817
X0861Y0814
X0859Y0817
X0776Y0805
X0774Y0802
X0772Y0805
X05899Y0818
X0579Y0818
X05607Y08179
T3C.02362F197S55
X073448Y066426
X073605Y065823
X07392Y066426
X074078Y065823
X074393Y066426
X07455Y065823
X074865Y066426
X075022Y065823
X075337Y066426
X075495Y065823
X07581Y066426
X077463Y067792
X077463Y068264
X077463Y068737
X076861Y067634
X076861Y068107
X076861Y068579
X076861Y069052
X076263Y067949
X076263Y068422
X076263Y068894
X076263Y067477
X075652Y067024
X07518Y067024
X074707Y067024
X074235Y067024
X073763Y067024
X07329Y067024
X072837Y069052
X072837Y068579
X072837Y068107
X072837Y067634
X072239Y068422
X072239Y067949
X072239Y068894
X072239Y067477
X071637Y067792
X071637Y068737
X071637Y068264
X071637Y069681
X071637Y069209
X072239Y069839
X072239Y069367
X072837Y069996
X072837Y069524
X07329Y071048
X073448Y070449
X073763Y071048
X07392Y070449
X074235Y071048
X074393Y070449
X074707Y071048
X074865Y070449
X07518Y071048
X075337Y070449
X075652Y071048
X07581Y070449
X076263Y069839
X076263Y069367
X076861Y069524
X076861Y069996
X077463Y069681
X077463Y069209
X075495Y07165
X075022Y07165
X07455Y07165
X074078Y07165
X073605Y07165
T4C.03543F197S55
X05803Y078558
X05803Y08029
T5C.04F139S55
X0669Y058
X0669Y059
X0679Y058
X0679Y059
X0689Y058
X0689Y059
X0699Y058
X0699Y059
X0709Y058
X0709Y059
X0719Y058
X0719Y059
X0729Y058
X0729Y059
X0739Y058
X0739Y059
X0749Y058
X0749Y059
X0759Y058
X0759Y059
X0769Y058
X0769Y059
X0779Y058
X0779Y059
X0789Y058
X0789Y059
X0799Y058
X0799Y059
X0809Y058
X0809Y059
X0819Y058
X0819Y059
X08585Y06045
X08585Y06145
X08585Y06245
X08585Y06345
X08485Y06045
X08485Y06245
X08485Y06145
X08485Y06345
X0642Y06345
X0642Y06245
X0642Y06145
X0642Y06045
X0632Y06145
X0632Y06245
X0632Y06045
X0632Y06345
X0632Y06645
X0632Y06545
X0632Y06445
X0632Y06845
X0632Y06745
X0642Y06445
X0642Y06545
X0642Y06845
X0642Y06645
X0642Y06745
X08485Y06645
X08485Y06445
X08485Y06545
X08485Y06845
X08485Y06745
X08585Y06445
X08585Y06845
X08585Y06645
X08585Y06745
X08585Y06545
X08585Y06945
X08585Y07045
X08585Y07145
X08585Y07245
X08585Y07345
X08485Y06945
X08485Y07045
X08485Y07145
X08485Y07245
X08485Y07345
X0642Y06945
X0642Y07345
X0642Y07245
X0642Y07045
X0642Y07145
X0632Y07345
X0632Y07045
X0632Y07245
X0632Y06945
X0632Y07145
X0632Y07645
X0632Y07545
X0632Y07445
X0632Y07845
X0632Y07745
X0642Y07445
X0642Y07545
X0642Y07845
X0642Y07645
X0642Y07745
X0669Y0786
X0679Y0786
X0689Y0786
X0699Y0786
X0709Y0786
X0719Y0786
X0729Y0786
X0739Y0786
X0749Y0786
X0759Y0786
X0769Y0786
X0779Y0786
X0789Y0786
X0799Y0786
X0809Y0786
X0819Y0786
X08485Y07645
X08485Y07845
X08485Y07445
X08485Y07545
X08485Y07745
X08585Y07445
X08585Y07545
X08585Y07645
X08585Y07745
X08585Y07845
X08585Y07945
X08485Y07945
X0819Y0796
X0809Y0796
X0799Y0796
X0789Y0796
X0779Y0796
X0769Y0796
X0759Y0796
X0749Y0796
X0739Y0796
X0729Y0796
X0719Y0796
X0709Y0796
X0699Y0796
X0689Y0796
X0679Y0796
X0669Y0796
X0642Y07945
X0632Y07945
T6C.048F139S55
X05764Y0566
X05764Y05837
X05764Y0599
X05764Y06167
X0602Y0599
X0602Y0566
X0602Y06167
X0602Y05837
T7C.06299F089S55
X071991Y071689
X077109Y065784
T8C.09055F066S55
X070219Y065981
X07455Y068737
X078881Y065981
X078881Y071493
X070219Y071493
M30
