*
*
G04 PADS Layout (Build Number 2005.266.2) generated Gerber (RS-274-X) file*
G04 PC Version=2.1*
*
%IN "ATS2825_CHIPID_CORE_V1."*%
*
%MOIN*%
*
%FSLAX35Y35*%
*
*
*
*
G04 PC Standard Apertures*
*
*
G04 Thermal Relief Aperture macro.*
%AMTER*
1,1,$1,0,0*
1,0,$1-$2,0,0*
21,0,$3,$4,0,0,45*
21,0,$3,$4,0,0,135*
%
*
*
G04 Annular Aperture macro.*
%AMANN*
1,1,$1,0,0*
1,0,$2,0,0*
%
*
*
G04 Odd Aperture macro.*
%AMODD*
1,1,$1,0,0*
1,0,$1-0.005,0,0*
%
*
*
G04 PC Custom Aperture Macros*
*
*
*
*
*
*
G04 PC Aperture Table*
*
%ADD010C,0.006*%
%ADD014C,0.00591*%
%ADD049C,0.01*%
%ADD051C,0.008*%
%ADD103C,0.007*%
*
*
*
*
G04 PC Copper Outlines (0)*
G04 Layer Name ATS2825_CHIPID_CORE_V1. - dark (0)*
%LPD*%
*
*
G04 PC Area=Custom_Thermal*
*
G04 PC Copper Outlines (1)*
G04 Layer Name ATS2825_CHIPID_CORE_V1. - dark (1)*
%LPD*%
*
*
G04 PC Area=System Text*
G75*
G36*
G01*
X649000Y820000D02*
X651589Y826429D01*
X652571D01*
X655161Y820000D01*
X654179D01*
X653464Y821964D01*
X650696D01*
X649982Y820000D01*
X649000D01*
G37*
G74*
*
G75*
G36*
G01*
X657482D02*
Y825714D01*
X655339D01*
Y826429D01*
X660518D01*
Y825714D01*
X658375D01*
Y820000D01*
X657482D01*
G37*
G74*
*
G75*
G36*
G01*
X661143Y822232D02*
X662036D01*
X662125Y821786D01*
X662304Y821339D01*
X662571Y821071D01*
X662929Y820804D01*
X663375Y820625D01*
X663821D01*
X664625Y820804D01*
X664982Y820982D01*
X665161Y821161D01*
X665339Y821518D01*
Y821786D01*
X665161Y822232D01*
X664982Y822500D01*
X664625Y822679D01*
X664268Y822768D01*
X663554Y822946D01*
X662839Y823125D01*
X662393Y823393D01*
X661946Y823661D01*
X661679Y823929D01*
X661500Y824286D01*
X661411Y824732D01*
X661500Y825179D01*
X661679Y825625D01*
X662036Y825982D01*
X662482Y826250D01*
X663018Y826429D01*
X663643Y826518D01*
X664357Y826429D01*
X664893Y826250D01*
X665429Y825982D01*
X665786Y825625D01*
X665964Y825179D01*
X666054Y824643D01*
X665161D01*
X665071Y825179D01*
X664714Y825536D01*
X664268Y825714D01*
X663732Y825804D01*
X663107Y825714D01*
X662661Y825536D01*
X662393Y825179D01*
X662304Y824821D01*
X662393Y824464D01*
X662571Y824286D01*
X662661Y824107D01*
X662929Y824018D01*
X663286Y823929D01*
X663732Y823750D01*
X664536Y823571D01*
X665071Y823393D01*
X665607Y823125D01*
X665964Y822768D01*
X666143Y822321D01*
X666232Y821786D01*
X666143Y821339D01*
X665964Y820893D01*
X665607Y820446D01*
X665071Y820179D01*
X664536Y820000D01*
X663911Y819911D01*
X663107Y820000D01*
X662393Y820179D01*
X661857Y820536D01*
X661500Y820982D01*
X661232Y821607D01*
X661143Y822232D01*
X661143D01*
G37*
G74*
*
G75*
G36*
G01*
X671143Y820804D02*
Y820000D01*
X666946D01*
X667036Y820536D01*
X667214Y820982D01*
X667571Y821429D01*
X667929Y821875D01*
X668554Y822411D01*
X669357Y823125D01*
X669893Y823750D01*
X670161Y824196D01*
X670250Y824643D01*
X670161Y825089D01*
X669893Y825357D01*
X669536Y825625D01*
X669089Y825714D01*
X668554Y825625D01*
X668196Y825357D01*
X667929Y825000D01*
X667839Y824554D01*
X667036Y824643D01*
X667214Y825357D01*
X667661Y825982D01*
X668286Y826339D01*
X669089Y826429D01*
X669893Y826250D01*
X670518Y825893D01*
X670964Y825357D01*
X671054Y824643D01*
X670875Y823929D01*
X670696Y823482D01*
X670429Y823125D01*
X669982Y822589D01*
X669268Y821964D01*
X668732Y821518D01*
X668375Y821250D01*
X668018Y820804D01*
X671143D01*
G37*
G74*
*
G75*
G36*
G01*
X673286Y823482D02*
X672839Y823750D01*
X672571Y824018D01*
X672393Y824375D01*
X672304Y824821D01*
X672393Y825446D01*
X672839Y825982D01*
X673375Y826339D01*
X674179Y826429D01*
X674982Y826339D01*
X675518Y825982D01*
X675964Y825446D01*
X676054Y824732D01*
X675964Y824375D01*
X675786Y824018D01*
X675518Y823750D01*
X675071Y823482D01*
X675607Y823214D01*
X675964Y822857D01*
X676143Y822411D01*
X676232Y821875D01*
X676054Y821071D01*
X675696Y820446D01*
X674982Y820000D01*
X674179Y819911D01*
X673375Y820000D01*
X672661Y820446D01*
X672304Y821071D01*
X672125Y821875D01*
X672214Y822411D01*
X672393Y822946D01*
X672750Y823304D01*
X673286Y823482D01*
X673286D01*
G37*
G74*
*
G75*
G36*
G01*
X681143Y820804D02*
Y820000D01*
X676946D01*
X677036Y820536D01*
X677214Y820982D01*
X677571Y821429D01*
X677929Y821875D01*
X678554Y822411D01*
X679357Y823125D01*
X679893Y823750D01*
X680161Y824196D01*
X680250Y824643D01*
X680161Y825089D01*
X679893Y825357D01*
X679536Y825625D01*
X679089Y825714D01*
X678554Y825625D01*
X678196Y825357D01*
X677929Y825000D01*
X677839Y824554D01*
X677036Y824643D01*
X677214Y825357D01*
X677661Y825982D01*
X678286Y826339D01*
X679089Y826429D01*
X679893Y826250D01*
X680518Y825893D01*
X680964Y825357D01*
X681054Y824643D01*
X680875Y823929D01*
X680696Y823482D01*
X680429Y823125D01*
X679982Y822589D01*
X679268Y821964D01*
X678732Y821518D01*
X678375Y821250D01*
X678018Y820804D01*
X681143D01*
G37*
G74*
*
G75*
G36*
G01*
X682125Y821696D02*
X682929Y821786D01*
X683107Y821250D01*
X683286Y820893D01*
X683643Y820714D01*
X684089Y820625D01*
X684714Y820714D01*
X685071Y821071D01*
X685339Y821518D01*
X685429Y822143D01*
X685339Y822768D01*
X685071Y823214D01*
X684714Y823482D01*
X684089Y823571D01*
X683464Y823393D01*
X683018Y822946D01*
X682214Y823036D01*
X682839Y826339D01*
X685875D01*
Y825536D01*
X683464D01*
X683196Y823839D01*
X683732Y824196D01*
X684357Y824286D01*
X685071Y824107D01*
X685696Y823661D01*
X686143Y823036D01*
X686232Y822232D01*
X686143Y821339D01*
X685786Y820714D01*
X685429Y820357D01*
X685071Y820089D01*
X684625Y820000D01*
X684089Y819911D01*
X683375Y820000D01*
X682750Y820357D01*
X682304Y820982D01*
X682125Y821696D01*
X682125D01*
G37*
G74*
*
G75*
G36*
G01*
X686589Y818214D02*
Y818750D01*
X691768D01*
Y818214D01*
X686589D01*
G37*
G74*
*
G75*
G36*
G01*
X696768Y822232D02*
X697661Y822054D01*
X697304Y821071D01*
X696768Y820446D01*
X695964Y820000D01*
X695071Y819911D01*
X694179Y820000D01*
X693464Y820357D01*
X692839Y820804D01*
X692482Y821518D01*
X692214Y822321D01*
X692125Y823214D01*
X692214Y824196D01*
X692482Y825000D01*
X692929Y825625D01*
X693554Y826161D01*
X694268Y826429D01*
X695071Y826518D01*
X695875Y826429D01*
X696589Y825982D01*
X697125Y825446D01*
X697482Y824643D01*
X696589Y824464D01*
X696321Y825089D01*
X695964Y825446D01*
X695518Y825714D01*
X694982Y825804D01*
X694357Y825714D01*
X693821Y825446D01*
X693464Y825000D01*
X693196Y824464D01*
X693107Y823839D01*
X693018Y823304D01*
X693107Y822500D01*
X693286Y821786D01*
X693554Y821339D01*
X693911Y820893D01*
X694446Y820714D01*
X694982Y820625D01*
X695607Y820714D01*
X696143Y821071D01*
X696500Y821518D01*
X696768Y822232D01*
X696768D01*
G37*
G74*
*
G75*
G36*
G01*
X698821Y820000D02*
Y826429D01*
X699714D01*
Y823750D01*
X702929D01*
Y826429D01*
X703821D01*
Y820000D01*
X702929D01*
Y823036D01*
X699714D01*
Y820000D01*
X698821D01*
G37*
G74*
*
G75*
G36*
G01*
X705339D02*
Y826429D01*
X706232D01*
Y820000D01*
X705339D01*
G37*
G74*
*
G75*
G36*
G01*
X707750D02*
Y826429D01*
X710161D01*
X710696D01*
X711054Y826339D01*
X711857Y826071D01*
X712125Y825804D01*
X712393Y825446D01*
X712571Y825000D01*
Y824554D01*
X712482Y823839D01*
X712036Y823214D01*
X711768Y822946D01*
X711321Y822768D01*
X710875Y822679D01*
X710250D01*
X708643D01*
Y820000D01*
X707750D01*
G37*
G74*
*
G75*
G36*
G01*
X713821D02*
Y826429D01*
X714714D01*
Y820000D01*
X713821D01*
G37*
G74*
*
G75*
G36*
G01*
X716232D02*
Y826429D01*
X718464D01*
X719089D01*
X719536Y826339D01*
X720071Y826161D01*
X720518Y825893D01*
X720964Y825357D01*
X721232Y824732D01*
X721411Y824018D01*
X721500Y823214D01*
Y822589D01*
X721321Y821964D01*
X721143Y821429D01*
X720875Y820982D01*
X720339Y820446D01*
X719536Y820089D01*
X718554Y820000D01*
X716232D01*
G37*
G74*
*
G75*
G36*
G01*
X721857Y818214D02*
Y818750D01*
X727036D01*
Y818214D01*
X721857D01*
G37*
G74*
*
G75*
G36*
G01*
X732036Y822232D02*
X732929Y822054D01*
X732571Y821071D01*
X732036Y820446D01*
X731232Y820000D01*
X730339Y819911D01*
X729446Y820000D01*
X728732Y820357D01*
X728107Y820804D01*
X727750Y821518D01*
X727482Y822321D01*
X727393Y823214D01*
X727482Y824196D01*
X727750Y825000D01*
X728196Y825625D01*
X728821Y826161D01*
X729536Y826429D01*
X730339Y826518D01*
X731143Y826429D01*
X731857Y825982D01*
X732393Y825446D01*
X732750Y824643D01*
X731857Y824464D01*
X731589Y825089D01*
X731232Y825446D01*
X730786Y825714D01*
X730250Y825804D01*
X729625Y825714D01*
X729089Y825446D01*
X728732Y825000D01*
X728464Y824464D01*
X728375Y823839D01*
X728286Y823304D01*
X728375Y822500D01*
X728554Y821786D01*
X728821Y821339D01*
X729179Y820893D01*
X729714Y820714D01*
X730250Y820625D01*
X730875Y820714D01*
X731411Y821071D01*
X731768Y821518D01*
X732036Y822232D01*
X732036D01*
G37*
G74*
*
G75*
G36*
G01*
X733821Y823125D02*
X733911Y823839D01*
X734000Y824554D01*
X734268Y825089D01*
X734714Y825625D01*
X735161Y825982D01*
X735607Y826250D01*
X736232Y826429D01*
X736857Y826518D01*
X737661Y826429D01*
X738464Y826071D01*
X739089Y825536D01*
X739536Y824911D01*
X739804Y824107D01*
X739893Y823214D01*
X739804Y822232D01*
X739536Y821429D01*
X739000Y820804D01*
X738375Y820268D01*
X737661Y820000D01*
X736857Y819911D01*
X736054Y820000D01*
X735250Y820357D01*
X734625Y820893D01*
X734179Y821518D01*
X733911Y822321D01*
X733821Y823125D01*
X733821D01*
G37*
G74*
*
G75*
G36*
G01*
X741054Y820000D02*
Y826429D01*
X743821D01*
X744625Y826339D01*
X745071Y826250D01*
X745518Y825982D01*
X745786Y825625D01*
X745964Y825179D01*
X746054Y824643D01*
X745964Y824018D01*
X745607Y823571D01*
X745071Y823125D01*
X744357Y822946D01*
X744804Y822589D01*
X745161Y822232D01*
X745518Y821786D01*
X746589Y820000D01*
X745518D01*
X744714Y821339D01*
X744357Y821875D01*
X744089Y822232D01*
X743911Y822500D01*
X743732Y822679D01*
X743375Y822857D01*
X743196D01*
X742929D01*
X741946D01*
Y820000D01*
X741054D01*
G37*
G74*
*
G75*
G36*
G01*
X747482D02*
Y826429D01*
X752125D01*
Y825714D01*
X748375D01*
Y823661D01*
X751857D01*
Y822946D01*
X748375D01*
Y820714D01*
X752304D01*
Y820000D01*
X747482D01*
G37*
G74*
*
G75*
G36*
G01*
X752661Y818214D02*
Y818750D01*
X757839D01*
Y818214D01*
X752661D01*
G37*
G74*
*
G75*
G36*
G01*
X760250Y820000D02*
X757661Y826429D01*
X758643D01*
X760429Y821786D01*
X760786Y820714D01*
X761054Y821786D01*
X762839Y826429D01*
X763821D01*
X761321Y820000D01*
X760250D01*
G37*
G74*
*
G75*
G36*
G01*
X767125D02*
X766321D01*
Y825000D01*
X765964Y824732D01*
X765607Y824464D01*
X764714Y824018D01*
Y824821D01*
X765339Y825179D01*
X765875Y825536D01*
X766321Y825982D01*
X766589Y826429D01*
X767125D01*
Y820000D01*
G37*
G74*
*
G75*
G36*
G01*
X769536D02*
Y820804D01*
X770339D01*
Y820000D01*
X769536D01*
G37*
G74*
*
G75*
G36*
G01*
X774625D02*
X773821D01*
Y825000D01*
X773464Y824732D01*
X773107Y824464D01*
X772214Y824018D01*
Y824821D01*
X772839Y825179D01*
X773375Y825536D01*
X773821Y825982D01*
X774089Y826429D01*
X774625D01*
Y820000D01*
G37*
G74*
*
G75*
G36*
G01*
X776143Y818214D02*
Y818750D01*
X781321D01*
Y818214D01*
X776143D01*
G37*
G74*
*
G75*
G36*
G01*
X784625Y820000D02*
X783821D01*
Y825000D01*
X783464Y824732D01*
X783107Y824464D01*
X782214Y824018D01*
Y824821D01*
X782839Y825179D01*
X783375Y825536D01*
X783821Y825982D01*
X784089Y826429D01*
X784625D01*
Y820000D01*
G37*
G74*
*
G75*
G36*
G01*
X790696Y824732D02*
X789893Y824643D01*
X789804Y825089D01*
X789625Y825357D01*
X789268Y825625D01*
X788821Y825714D01*
X788464Y825625D01*
X788107Y825536D01*
X787750Y825179D01*
X787571Y824732D01*
X787393Y824196D01*
X787304Y823304D01*
X787661Y823750D01*
X788018Y824018D01*
X788464Y824107D01*
X788911Y824196D01*
X789625Y824018D01*
X790250Y823571D01*
X790607Y822946D01*
X790786Y822143D01*
X790696Y821518D01*
X790518Y820982D01*
X790250Y820536D01*
X789804Y820179D01*
X789268Y820000D01*
X788732Y819911D01*
X788286D01*
X787839Y820089D01*
X787482Y820268D01*
X787125Y820625D01*
X786857Y821071D01*
X786679Y821607D01*
X786500Y822232D01*
Y823036D01*
X786589Y823839D01*
X786679Y824554D01*
X786857Y825179D01*
X787214Y825714D01*
X787929Y826250D01*
X788375Y826339D01*
X788821Y826429D01*
X789536Y826339D01*
X790071Y825982D01*
X790518Y825446D01*
X790696Y824732D01*
X790696D01*
G37*
G74*
*
G75*
G36*
G01*
X791679Y823125D02*
X791768Y824196D01*
X791946Y825000D01*
X792214Y825625D01*
X792571Y826071D01*
X793107Y826339D01*
X793732Y826429D01*
X794179Y826339D01*
X794625Y826250D01*
X794982Y825982D01*
X795250Y825625D01*
X795607Y824643D01*
X795786Y824018D01*
Y823125D01*
X795696Y822143D01*
X795518Y821339D01*
X795250Y820714D01*
X794893Y820268D01*
X794357Y820000D01*
X793732Y819911D01*
X792929Y820089D01*
X792304Y820536D01*
X792036Y820982D01*
X791857Y821607D01*
X791679Y822321D01*
Y823125D01*
X791679D01*
G37*
G74*
*
G75*
G36*
G01*
X796589Y825536D02*
Y826339D01*
X800786D01*
Y825714D01*
X800161Y824911D01*
X799625Y823929D01*
X799089Y822857D01*
X798643Y821786D01*
X798464Y820893D01*
X798375Y820000D01*
X797571D01*
X797661Y820804D01*
X797929Y821786D01*
X798286Y822857D01*
X798732Y823839D01*
X799357Y824732D01*
X799982Y825536D01*
X796589D01*
G37*
G74*
*
G75*
G36*
G01*
X801679Y823125D02*
X801768Y824196D01*
X801946Y825000D01*
X802214Y825625D01*
X802571Y826071D01*
X803107Y826339D01*
X803732Y826429D01*
X804179Y826339D01*
X804625Y826250D01*
X804982Y825982D01*
X805250Y825625D01*
X805607Y824643D01*
X805786Y824018D01*
Y823125D01*
X805696Y822143D01*
X805518Y821339D01*
X805250Y820714D01*
X804893Y820268D01*
X804357Y820000D01*
X803732Y819911D01*
X802929Y820089D01*
X802304Y820536D01*
X802036Y820982D01*
X801857Y821607D01*
X801679Y822321D01*
Y823125D01*
X801679D01*
G37*
G74*
*
G75*
G36*
G01*
X809179Y820000D02*
Y821518D01*
X806321D01*
Y822321D01*
X809357Y826339D01*
X809982D01*
Y822321D01*
X810786D01*
Y821518D01*
X809982D01*
Y820000D01*
X809179D01*
G37*
G74*
*
G75*
G36*
G01*
X564714Y680000D02*
Y686429D01*
X569357D01*
Y685714D01*
X565607D01*
Y683661D01*
X569089D01*
Y682946D01*
X565607D01*
Y680714D01*
X569536D01*
Y680000D01*
X564714D01*
G37*
G74*
*
G75*
G36*
G01*
X573554Y680625D02*
X573107Y680268D01*
X572750Y680089D01*
X571857Y679911D01*
X571232Y680000D01*
X570696Y680268D01*
X570429Y680714D01*
X570339Y681250D01*
X570518Y681875D01*
X570875Y682321D01*
X571411Y682589D01*
X571679D01*
X572125Y682679D01*
X572929Y682768D01*
X573464Y682946D01*
Y683125D01*
X573375Y683482D01*
X573286Y683750D01*
X572929Y683929D01*
X572393Y684018D01*
X571946Y683929D01*
X571589Y683839D01*
X571411Y683571D01*
X571232Y683214D01*
X570429Y683304D01*
X570607Y683750D01*
X570786Y684107D01*
X571054Y684375D01*
X571500Y684554D01*
X572571Y684732D01*
X573107D01*
X573554Y684554D01*
X573821Y684464D01*
X574089Y684196D01*
X574357Y683661D01*
Y683393D01*
Y682946D01*
Y681964D01*
Y681518D01*
Y681071D01*
Y680804D01*
X574446Y680625D01*
X574625Y680000D01*
X573821D01*
X573554Y680625D01*
X573554D01*
G37*
G74*
*
G75*
G36*
G01*
X575607Y680000D02*
Y684643D01*
X576321D01*
Y684018D01*
X576589Y684375D01*
X576768Y684554D01*
X577304Y684732D01*
X577661Y684643D01*
X578018Y684464D01*
X577750Y683750D01*
X577482Y683929D01*
X577214Y684018D01*
X576768Y683839D01*
X576500Y683393D01*
X576411Y682500D01*
Y680000D01*
X575607D01*
G37*
G74*
*
G75*
G36*
G01*
X578464Y678214D02*
Y684643D01*
X579268D01*
Y683929D01*
X579536Y684286D01*
X579804Y684554D01*
X580161Y684643D01*
X580607Y684732D01*
X581143Y684643D01*
X581589Y684464D01*
X581946Y684018D01*
X582304Y683571D01*
X582393Y682946D01*
X582482Y682321D01*
X582393Y681696D01*
X582214Y681071D01*
X581946Y680536D01*
X581500Y680179D01*
X580964Y680000D01*
X580518Y679911D01*
X580071D01*
X579804Y680089D01*
X579268Y680536D01*
Y678214D01*
X578464D01*
G37*
G74*
*
G75*
G36*
G01*
X583554Y680000D02*
Y686429D01*
X584357D01*
Y684018D01*
X584982Y684554D01*
X585696Y684732D01*
X586232Y684643D01*
X586589Y684554D01*
X586946Y684286D01*
X587125Y683929D01*
X587304Y683482D01*
Y682946D01*
Y680000D01*
X586500D01*
Y682857D01*
X586411Y683393D01*
X586232Y683750D01*
X585964Y683929D01*
X585518Y684018D01*
X584893Y683839D01*
X584625Y683661D01*
X584446Y683304D01*
X584357Y682946D01*
Y682500D01*
Y680000D01*
X583554D01*
G37*
G74*
*
G75*
G36*
G01*
X588286Y682321D02*
X588464Y683393D01*
X589000Y684196D01*
X589625Y684554D01*
X590429Y684732D01*
X591321Y684554D01*
X591946Y684107D01*
X592393Y683393D01*
X592571Y682411D01*
X592482Y681607D01*
X592304Y680982D01*
X591946Y680536D01*
X591500Y680179D01*
X591054Y680000D01*
X590429Y679911D01*
X589536Y680089D01*
X588911Y680536D01*
X588464Y681250D01*
X588286Y682321D01*
X588286D01*
G37*
G74*
*
G75*
G36*
G01*
X593554Y680000D02*
Y684643D01*
X594357D01*
Y684018D01*
X594625Y684286D01*
X594982Y684554D01*
X595339Y684643D01*
X595786Y684732D01*
X596500Y684554D01*
X597036Y684196D01*
X597304Y683571D01*
Y683304D01*
Y682857D01*
Y680000D01*
X596500D01*
Y682768D01*
Y683214D01*
X596411Y683482D01*
X596054Y683839D01*
X595518Y684018D01*
X595071Y683929D01*
X594714Y683661D01*
X594446Y683214D01*
X594357Y682500D01*
Y680000D01*
X593554D01*
G37*
G74*
*
G75*
G36*
G01*
X601768Y681429D02*
X602571Y681339D01*
X602304Y680714D01*
X601857Y680268D01*
X601232Y680000D01*
X600429Y679911D01*
X599536Y680089D01*
X598821Y680536D01*
X598375Y681250D01*
X598196Y682321D01*
X598375Y683304D01*
X598821Y684107D01*
X599536Y684554D01*
X600429Y684732D01*
X601321Y684554D01*
X601946Y684107D01*
X602393Y683304D01*
X602571Y682321D01*
Y682143D01*
X599000D01*
X599179Y681518D01*
X599446Y680982D01*
X599893Y680714D01*
X600518Y680625D01*
X600875D01*
X601232Y680804D01*
X601500Y681071D01*
X601768Y681429D01*
X601768D01*
G37*
G74*
*
G75*
G36*
G01*
X562875Y592446D02*
X562161Y592536D01*
X561446Y592625D01*
X560911Y592893D01*
X560375Y593339D01*
X560018Y593786D01*
X559750Y594232D01*
X559571Y594857D01*
X559482Y595482D01*
X559571Y596286D01*
X559929Y597089D01*
X560464Y597714D01*
X561089Y598161D01*
X561893Y598429D01*
X562786Y598518D01*
X563768Y598429D01*
X564571Y598161D01*
X565196Y597625D01*
X565732Y597000D01*
X566000Y596286D01*
X566089Y595482D01*
X566000Y594679D01*
X565643Y593875D01*
X565107Y593250D01*
X564482Y592804D01*
X563679Y592536D01*
X562875Y592446D01*
X562875D01*
G37*
G74*
*
G75*
G36*
G01*
X566000Y599679D02*
X559571D01*
Y600661D01*
X564393Y603786D01*
X559571D01*
Y604679D01*
X566000D01*
Y603696D01*
X561179Y600571D01*
X566000D01*
Y599679D01*
G37*
G74*
*
G75*
G36*
G01*
X562875Y605839D02*
X562161Y605929D01*
X561446Y606018D01*
X560911Y606286D01*
X560375Y606732D01*
X560018Y607179D01*
X559750Y607625D01*
X559571Y608250D01*
X559482Y608875D01*
X559571Y609679D01*
X559929Y610482D01*
X560464Y611107D01*
X561089Y611554D01*
X561893Y611821D01*
X562786Y611911D01*
X563768Y611821D01*
X564571Y611554D01*
X565196Y611018D01*
X565732Y610393D01*
X566000Y609679D01*
X566089Y608875D01*
X566000Y608071D01*
X565643Y607268D01*
X565107Y606643D01*
X564482Y606196D01*
X563679Y605929D01*
X562875Y605839D01*
X562875D01*
G37*
G74*
*
G75*
G36*
G01*
X566000Y613071D02*
X559571D01*
Y617357D01*
X560286D01*
Y613964D01*
X562339D01*
Y616821D01*
X563054D01*
Y613964D01*
X566000D01*
Y613071D01*
G37*
G74*
*
G75*
G36*
G01*
Y618518D02*
X559571D01*
Y622804D01*
X560286D01*
Y619411D01*
X562339D01*
Y622268D01*
X563054D01*
Y619411D01*
X566000D01*
Y618518D01*
G37*
G74*
*
G75*
G36*
G01*
Y563000D02*
X559571Y565589D01*
Y566571D01*
X566000Y569161D01*
Y568179D01*
X564036Y567464D01*
Y564696D01*
X566000Y563982D01*
Y563000D01*
G37*
G74*
*
G75*
G36*
G01*
Y569875D02*
X559571D01*
Y572107D01*
Y572732D01*
X559661Y573179D01*
X559839Y573714D01*
X560107Y574161D01*
X560643Y574607D01*
X561268Y574875D01*
X561982Y575054D01*
X562786Y575143D01*
X563411D01*
X564036Y574964D01*
X564571Y574786D01*
X565018Y574518D01*
X565554Y573982D01*
X565911Y573179D01*
X566000Y572196D01*
Y569875D01*
G37*
G74*
*
G75*
G36*
G01*
Y576304D02*
X559571D01*
Y580589D01*
X560286D01*
Y577196D01*
X562339D01*
Y580054D01*
X563054D01*
Y577196D01*
X566000D01*
Y576304D01*
G37*
G74*
*
G75*
G36*
G01*
X559571Y585857D02*
Y586750D01*
X563321D01*
X564125Y586661D01*
X564839Y586571D01*
X565375Y586214D01*
X565732Y585768D01*
X566000Y585054D01*
X566089Y584250D01*
X566000Y583446D01*
X565821Y582821D01*
X565375Y582286D01*
X564929Y582018D01*
X564214Y581839D01*
X563321Y581750D01*
X559571D01*
Y582643D01*
X563232D01*
X563946D01*
X564482Y582821D01*
X564839Y583000D01*
X565107Y583268D01*
X565286Y583714D01*
Y584161D01*
X565196Y584964D01*
X564839Y585500D01*
X564571Y585679D01*
X564214Y585768D01*
X563768Y585857D01*
X563232D01*
X559571D01*
G37*
G74*
*
G75*
G36*
G01*
X568821Y769429D02*
X569714D01*
Y765679D01*
X569625Y764875D01*
X569536Y764161D01*
X569179Y763625D01*
X568732Y763268D01*
X568018Y763000D01*
X567214Y762911D01*
X566411Y763000D01*
X565786Y763179D01*
X565250Y763625D01*
X564982Y764071D01*
X564804Y764786D01*
X564714Y765679D01*
Y769429D01*
X565607D01*
Y765768D01*
Y765054D01*
X565786Y764518D01*
X565964Y764161D01*
X566232Y763893D01*
X566679Y763714D01*
X567125D01*
X567929Y763804D01*
X568464Y764161D01*
X568643Y764429D01*
X568732Y764786D01*
X568821Y765232D01*
Y765768D01*
Y769429D01*
G37*
G74*
*
G75*
G36*
G01*
X570964Y761214D02*
Y767643D01*
X571768D01*
Y766929D01*
X572036Y767286D01*
X572304Y767554D01*
X572661Y767643D01*
X573107Y767732D01*
X573643Y767643D01*
X574089Y767464D01*
X574446Y767018D01*
X574804Y766571D01*
X574893Y765946D01*
X574982Y765321D01*
X574893Y764696D01*
X574714Y764071D01*
X574446Y763536D01*
X574000Y763179D01*
X573464Y763000D01*
X573018Y762911D01*
X572571D01*
X572304Y763089D01*
X571768Y763536D01*
Y761214D01*
X570964D01*
G37*
G74*
*
G75*
G36*
G01*
X575786Y762643D02*
X576589Y762554D01*
X576679Y762286D01*
X576857Y762018D01*
X577214Y761929D01*
X577661Y761839D01*
X578107Y761929D01*
X578464Y762018D01*
X578732Y762286D01*
X578821Y762643D01*
X578911Y763000D01*
Y763625D01*
X578375Y763179D01*
X577661Y763000D01*
X576857Y763179D01*
X576232Y763714D01*
X575786Y764429D01*
X575696Y765321D01*
X575786Y765946D01*
X575964Y766571D01*
X576232Y767018D01*
X576589Y767375D01*
X577036Y767643D01*
X577661Y767732D01*
X578375Y767554D01*
X578911Y767018D01*
Y767643D01*
X579714D01*
Y763625D01*
X579625Y762732D01*
X579536Y762107D01*
X579179Y761661D01*
X578821Y761393D01*
X578286Y761214D01*
X577661Y761125D01*
X576857Y761214D01*
X576321Y761482D01*
X575875Y761929D01*
X575786Y762643D01*
X575786D01*
G37*
G74*
*
G75*
G36*
G01*
X580964Y763000D02*
Y767643D01*
X581679D01*
Y767018D01*
X581946Y767375D01*
X582125Y767554D01*
X582661Y767732D01*
X583018Y767643D01*
X583375Y767464D01*
X583107Y766750D01*
X582839Y766929D01*
X582571Y767018D01*
X582125Y766839D01*
X581857Y766393D01*
X581768Y765500D01*
Y763000D01*
X580964D01*
G37*
G74*
*
G75*
G36*
G01*
X586857Y763625D02*
X586411Y763268D01*
X586054Y763089D01*
X585161Y762911D01*
X584536Y763000D01*
X584000Y763268D01*
X583732Y763714D01*
X583643Y764250D01*
X583821Y764875D01*
X584179Y765321D01*
X584714Y765589D01*
X584982D01*
X585429Y765679D01*
X586232Y765768D01*
X586768Y765946D01*
Y766125D01*
X586679Y766482D01*
X586589Y766750D01*
X586232Y766929D01*
X585696Y767018D01*
X585250Y766929D01*
X584893Y766839D01*
X584714Y766571D01*
X584536Y766214D01*
X583732Y766304D01*
X583911Y766750D01*
X584089Y767107D01*
X584357Y767375D01*
X584804Y767554D01*
X585875Y767732D01*
X586411D01*
X586857Y767554D01*
X587125Y767464D01*
X587393Y767196D01*
X587661Y766661D01*
Y766393D01*
Y765946D01*
Y764964D01*
Y764518D01*
Y764071D01*
Y763804D01*
X587750Y763625D01*
X587929Y763000D01*
X587125D01*
X586857Y763625D01*
X586857D01*
G37*
G74*
*
G75*
G36*
G01*
X591768Y763000D02*
Y763625D01*
X591500Y763357D01*
X591232Y763089D01*
X590875Y762911D01*
X590518D01*
X589982Y763000D01*
X589536Y763179D01*
X589089Y763536D01*
X588821Y764071D01*
X588643Y764607D01*
X588554Y765321D01*
X588643Y765946D01*
X588821Y766571D01*
X589089Y767018D01*
X589446Y767464D01*
X589982Y767643D01*
X590518Y767732D01*
X590875Y767643D01*
X591232Y767554D01*
X591768Y767018D01*
Y769429D01*
X592571D01*
Y763000D01*
X591768D01*
G37*
G74*
*
G75*
G36*
G01*
X597125Y764429D02*
X597929Y764339D01*
X597661Y763714D01*
X597214Y763268D01*
X596589Y763000D01*
X595786Y762911D01*
X594893Y763089D01*
X594179Y763536D01*
X593732Y764250D01*
X593554Y765321D01*
X593732Y766304D01*
X594179Y767107D01*
X594893Y767554D01*
X595786Y767732D01*
X596679Y767554D01*
X597304Y767107D01*
X597750Y766304D01*
X597929Y765321D01*
Y765143D01*
X594357D01*
X594536Y764518D01*
X594804Y763982D01*
X595250Y763714D01*
X595875Y763625D01*
X596232D01*
X596589Y763804D01*
X596857Y764071D01*
X597125Y764429D01*
X597125D01*
G37*
G74*
*
*
G04 PC Void Outlines (0)*
G04 Layer Name ATS2825_CHIPID_CORE_V1. - clear (0)*
%LPC*%
*
*
G04 PC Area=System Text*
G75*
G36*
G01*
X650964Y822679D02*
X653196D01*
X652571Y824375D01*
X652304Y825089D01*
X652125Y825714D01*
X651679Y824554D01*
X650964Y822679D01*
G37*
G74*
*
G75*
G36*
G01*
X673107Y824821D02*
X673196Y824375D01*
X673375Y824107D01*
X673732Y823929D01*
X674179Y823839D01*
X674625Y823929D01*
X674982Y824107D01*
X675161Y824375D01*
X675250Y824732D01*
X675161Y825089D01*
X674982Y825446D01*
X674625Y825625D01*
X674179Y825714D01*
X673732Y825625D01*
X673375Y825446D01*
X673196Y825179D01*
X673107Y824821D01*
X673107D01*
G37*
G74*
*
G75*
G36*
G01*
X672929Y821875D02*
X673018Y821250D01*
X673196Y820982D01*
X673554Y820804D01*
X673821Y820625D01*
X674179D01*
X674714Y820714D01*
X675071Y820982D01*
X675339Y821339D01*
X675429Y821875D01*
X675339Y822321D01*
X675071Y822768D01*
X674714Y823036D01*
X674179Y823125D01*
X673643Y823036D01*
X673286Y822768D01*
X673018Y822321D01*
X672929Y821875D01*
X672929D01*
G37*
G74*
*
G75*
G36*
G01*
X708643Y823393D02*
X710250D01*
X710875Y823482D01*
X711321Y823661D01*
X711589Y824107D01*
X711679Y824554D01*
Y824911D01*
X711500Y825268D01*
X711232Y825536D01*
X710964Y825625D01*
X710696Y825714D01*
X710250D01*
X708643D01*
Y823393D01*
G37*
G74*
*
G75*
G36*
G01*
X717125Y820714D02*
X718464D01*
X719000D01*
X719446Y820804D01*
X719982Y821161D01*
X720250Y821518D01*
X720429Y821964D01*
X720607Y822589D01*
Y823214D01*
X720518Y824196D01*
X720250Y824821D01*
X719893Y825268D01*
X719536Y825536D01*
X719089Y825714D01*
X718464D01*
X717125D01*
Y820714D01*
G37*
G74*
*
G75*
G36*
G01*
X734714Y823125D02*
X734893Y822054D01*
X735339Y821250D01*
X736054Y820804D01*
X736857Y820625D01*
X737750Y820804D01*
X738375Y821250D01*
X738821Y822143D01*
X739000Y823214D01*
X738911Y823929D01*
X738732Y824554D01*
X738464Y825089D01*
X738018Y825446D01*
X737482Y825714D01*
X736857Y825804D01*
X736054Y825625D01*
X735339Y825179D01*
X735071Y824821D01*
X734893Y824375D01*
X734714Y823750D01*
Y823125D01*
X734714D01*
G37*
G74*
*
G75*
G36*
G01*
X741946Y823571D02*
X743732D01*
X744179D01*
X744536Y823661D01*
X744982Y824107D01*
X745161Y824643D01*
X745071Y825089D01*
X744893Y825446D01*
X744446Y825625D01*
X743911Y825714D01*
X741946D01*
Y823571D01*
G37*
G74*
*
G75*
G36*
G01*
X787304Y822143D02*
X787393Y821696D01*
X787482Y821339D01*
X787661Y821071D01*
X788018Y820804D01*
X788286Y820625D01*
X788732D01*
X789179Y820714D01*
X789625Y820982D01*
X789893Y821429D01*
X789982Y822054D01*
X789893Y822679D01*
X789625Y823125D01*
X789179Y823393D01*
X788643Y823482D01*
X788107Y823393D01*
X787661Y823125D01*
X787393Y822679D01*
X787304Y822143D01*
X787304D01*
G37*
G74*
*
G75*
G36*
G01*
X792482Y823125D02*
Y822411D01*
X792571Y821875D01*
X792661Y821429D01*
X792839Y821071D01*
X793286Y820714D01*
X793732Y820625D01*
X794179Y820714D01*
X794625Y821071D01*
X794804Y821429D01*
X794893Y821875D01*
X794982Y822411D01*
Y823125D01*
Y823839D01*
X794893Y824464D01*
X794804Y824911D01*
X794625Y825179D01*
X794268Y825625D01*
X793732Y825714D01*
X793286Y825625D01*
X792839Y825268D01*
X792661Y824911D01*
X792571Y824464D01*
X792482Y823839D01*
Y823125D01*
X792482D01*
G37*
G74*
*
G75*
G36*
G01*
X802482D02*
Y822411D01*
X802571Y821875D01*
X802661Y821429D01*
X802839Y821071D01*
X803286Y820714D01*
X803732Y820625D01*
X804179Y820714D01*
X804625Y821071D01*
X804804Y821429D01*
X804893Y821875D01*
X804982Y822411D01*
Y823125D01*
Y823839D01*
X804893Y824464D01*
X804804Y824911D01*
X804625Y825179D01*
X804268Y825625D01*
X803732Y825714D01*
X803286Y825625D01*
X802839Y825268D01*
X802661Y824911D01*
X802571Y824464D01*
X802482Y823839D01*
Y823125D01*
X802482D01*
G37*
G74*
*
G75*
G36*
G01*
X809179Y822321D02*
Y824821D01*
X807304Y822321D01*
X809179D01*
G37*
G74*
*
G75*
G36*
G01*
X573464Y682232D02*
X572929Y682054D01*
X572214Y681964D01*
X571857Y681875D01*
X571589Y681786D01*
X571232Y681607D01*
X571143Y681250D01*
X571232Y680982D01*
X571411Y680804D01*
X571679Y680625D01*
X572036D01*
X572482D01*
X572839Y680804D01*
X573107Y680982D01*
X573375Y681339D01*
X573464Y681607D01*
Y681964D01*
Y682232D01*
G37*
G74*
*
G75*
G36*
G01*
X579268Y682321D02*
X579357Y681518D01*
X579625Y680982D01*
X579982Y680714D01*
X580429Y680625D01*
X580964Y680714D01*
X581321Y681071D01*
X581589Y681607D01*
X581679Y682321D01*
X581589Y683036D01*
X581321Y683571D01*
X580964Y683929D01*
X580518Y684018D01*
X580071Y683929D01*
X579625Y683571D01*
X579357Y683036D01*
X579268Y682321D01*
X579268D01*
G37*
G74*
*
G75*
G36*
G01*
X589089D02*
X589179Y681607D01*
X589446Y681071D01*
X589893Y680714D01*
X590429Y680625D01*
X590964Y680714D01*
X591411Y681071D01*
X591679Y681607D01*
X591768Y682321D01*
X591679Y683036D01*
X591411Y683571D01*
X590964Y683929D01*
X590429Y684018D01*
X589893Y683929D01*
X589446Y683571D01*
X589179Y683036D01*
X589089Y682321D01*
X589089D01*
G37*
G74*
*
G75*
G36*
G01*
X599000Y682857D02*
X601768D01*
X601679Y683304D01*
X601411Y683661D01*
X600964Y683929D01*
X600429Y684018D01*
X599893Y683929D01*
X599446Y683661D01*
X599089Y683304D01*
X599000Y682857D01*
X599000D01*
G37*
G74*
*
G75*
G36*
G01*
X562875Y593339D02*
X563946Y593518D01*
X564750Y593964D01*
X565196Y594679D01*
X565375Y595482D01*
X565196Y596375D01*
X564750Y597000D01*
X563857Y597446D01*
X562786Y597625D01*
X562071Y597536D01*
X561446Y597357D01*
X560911Y597089D01*
X560554Y596643D01*
X560286Y596107D01*
X560196Y595482D01*
X560375Y594679D01*
X560821Y593964D01*
X561179Y593696D01*
X561625Y593518D01*
X562250Y593339D01*
X562875D01*
X562875D01*
G37*
G74*
*
G75*
G36*
G01*
Y606732D02*
X563946Y606911D01*
X564750Y607357D01*
X565196Y608071D01*
X565375Y608875D01*
X565196Y609768D01*
X564750Y610393D01*
X563857Y610839D01*
X562786Y611018D01*
X562071Y610929D01*
X561446Y610750D01*
X560911Y610482D01*
X560554Y610036D01*
X560286Y609500D01*
X560196Y608875D01*
X560375Y608071D01*
X560821Y607357D01*
X561179Y607089D01*
X561625Y606911D01*
X562250Y606732D01*
X562875D01*
X562875D01*
G37*
G74*
*
G75*
G36*
G01*
X563321Y564964D02*
Y567196D01*
X561625Y566571D01*
X560911Y566304D01*
X560286Y566125D01*
X561446Y565679D01*
X563321Y564964D01*
G37*
G74*
*
G75*
G36*
G01*
X565286Y570768D02*
Y572107D01*
Y572643D01*
X565196Y573089D01*
X564839Y573625D01*
X564482Y573893D01*
X564036Y574071D01*
X563411Y574250D01*
X562786D01*
X561804Y574161D01*
X561179Y573893D01*
X560732Y573536D01*
X560464Y573179D01*
X560286Y572732D01*
Y572107D01*
Y570768D01*
X565286D01*
G37*
G74*
*
G75*
G36*
G01*
X571768Y765321D02*
X571857Y764518D01*
X572125Y763982D01*
X572482Y763714D01*
X572929Y763625D01*
X573464Y763714D01*
X573821Y764071D01*
X574089Y764607D01*
X574179Y765321D01*
X574089Y766036D01*
X573821Y766571D01*
X573464Y766929D01*
X573018Y767018D01*
X572571Y766929D01*
X572125Y766571D01*
X571857Y766036D01*
X571768Y765321D01*
X571768D01*
G37*
G74*
*
G75*
G36*
G01*
X576500Y765411D02*
X576589Y764607D01*
X576857Y764071D01*
X577214Y763804D01*
X577661Y763714D01*
X578196Y763804D01*
X578554Y764071D01*
X578821Y764607D01*
X578911Y765321D01*
X578821Y766036D01*
X578554Y766571D01*
X578196Y766929D01*
X577661Y767018D01*
X577214Y766929D01*
X576857Y766571D01*
X576589Y766125D01*
X576500Y765411D01*
X576500D01*
G37*
G74*
*
G75*
G36*
G01*
X586768Y765232D02*
X586232Y765054D01*
X585518Y764964D01*
X585161Y764875D01*
X584893Y764786D01*
X584536Y764607D01*
X584446Y764250D01*
X584536Y763982D01*
X584714Y763804D01*
X584982Y763625D01*
X585339D01*
X585786D01*
X586143Y763804D01*
X586411Y763982D01*
X586679Y764339D01*
X586768Y764607D01*
Y764964D01*
Y765232D01*
G37*
G74*
*
G75*
G36*
G01*
X589357Y765321D02*
X589446Y764607D01*
X589714Y764071D01*
X590161Y763714D01*
X590607Y763625D01*
X591054Y763714D01*
X591411Y763982D01*
X591679Y764518D01*
X591768Y765232D01*
X591679Y766036D01*
X591411Y766571D01*
X591054Y766929D01*
X590518Y767018D01*
X590071Y766929D01*
X589714Y766571D01*
X589446Y766036D01*
X589357Y765321D01*
X589357D01*
G37*
G74*
*
G75*
G36*
G01*
X594357Y765857D02*
X597125D01*
X597036Y766304D01*
X596768Y766661D01*
X596321Y766929D01*
X595786Y767018D01*
X595250Y766929D01*
X594804Y766661D01*
X594446Y766304D01*
X594357Y765857D01*
X594357D01*
G37*
G74*
*
*
G04 PC Custom Flashes*
G04 Layer Name ATS2825_CHIPID_CORE_V1. - flashes*
%LPD*%
*
*
G04 PC Circuitry*
G04 Layer Name ATS2825_CHIPID_CORE_V1. - circuitry*
%LPD*%
*
G54D10*
G01X608000Y589700D02*
Y559700D01*
X570500*
Y589700*
X608000*
Y622700D02*
Y592700D01*
X570500*
Y622700*
X608000*
X592359Y802270D02*
Y808483D01*
X592375Y780294D02*
Y786120D01*
X575876Y776270D02*
X581936D01*
X576074Y812036D02*
X581837D01*
X564351Y779340D02*
X555775D01*
Y809295*
X564152*
G54D14*
X604546Y691591D02*
X563602D01*
X563602D02*
Y716000D01*
X573050*
X611239Y691591D02*
Y716000D01*
Y691591*
X606909Y716000D02*
X611239D01*
X591554D02*
X600609D01*
X579350D02*
X584861D01*
X563602Y713638D02*
X555728D01*
X555728D02*
Y693953D01*
X555728D02*
X563602D01*
G54D49*
X688413Y622406D02*
X802587D01*
Y752327*
X688413*
Y622406*
X710476Y659866D02*
G75*
G03X710476I-8376J0D01*
G01X710576Y714766D02*
G03X710576I-8376J0D01*
G01X797076Y659766D02*
G03X797076I-8376J0D01*
G01X797176Y714766D02*
G03X797176I-8376J0D01*
G01X689176Y628572D02*
X694726Y623022D01*
X664000Y575000D02*
Y595000D01*
X824000*
Y575000*
X664000*
X843500Y600000D02*
X863500D01*
Y801000*
X843500*
Y600000*
X664000Y801000D02*
X824000D01*
Y781000*
X664000*
Y801000*
X627000D02*
X647000D01*
Y600000*
X627000*
Y801000*
X565898Y829500D02*
G03X554700Y819506I-663J-10528D01*
G01X565900Y829500D02*
X871000D01*
X881000Y819501D02*
G03X871001Y829500I-11107J-1108D01*
G01X881000Y819500D02*
Y562100D01*
X870984Y552097D02*
G03X880999Y562094I-2734J12753D01*
G01X871000Y552100D02*
X565900D01*
X554699Y562107D02*
G03X565891Y552100I11332J1411D01*
G01X554700Y562100D02*
Y819500D01*
G54D51*
X612000Y816000D02*
X878500D01*
Y560000*
X632000*
X612000Y580000*
Y816000*
G54D103*
X799000Y566986D02*
X798834D01*
X798503Y567123*
X798337Y567259*
X798337D02*
X798172Y567532D01*
Y568077*
X798337Y568350*
X798337D02*
X798503Y568486D01*
X798834Y568623*
X799166*
X799497Y568486*
X799994Y568214*
X801650Y566850*
Y568759*
X798172Y571895D02*
X801650Y570532D01*
X798172Y569986D02*
Y571895D01*
X616350Y635666D02*
X616623Y635831D01*
X617032Y636328*
Y632850*
X618532Y636328D02*
X620032D01*
X619214Y635003*
X619623*
X619895Y634837*
X619895D02*
X620032Y634672D01*
X620168Y634175*
Y633844*
X620032Y633347*
X619759Y633016*
X619350Y632850*
X618941*
X618532Y633016*
X618395Y633181*
X618259Y633512*
X623305Y636328D02*
X621941Y632850D01*
X621395Y636328D02*
X623305D01*
X616350Y625666D02*
X616623Y625831D01*
X617032Y626328*
Y622850*
X618532Y626328D02*
X620032D01*
X619214Y625003*
X619623*
X619895Y624837*
X619895D02*
X620032Y624672D01*
X620168Y624175*
Y623844*
X620032Y623347*
X619759Y623016*
X619350Y622850*
X618941*
X618532Y623016*
X618395Y623181*
X618259Y623512*
X623168Y625169D02*
X623032Y624672D01*
X622759Y624341*
X622350Y624175*
X622214*
X621805Y624341*
X621532Y624672*
X621395Y625169*
Y625334*
X621532Y625831*
X621805Y626162*
X621805D02*
X622214Y626328D01*
X622350*
X622759Y626162*
X622759D02*
X623032Y625831D01*
X623168Y625169*
Y624341*
X623032Y623512*
X623032D02*
X622759Y623016D01*
X622350Y622850*
X622077*
X621668Y623016*
X621532Y623347*
X616350Y607666D02*
X616623Y607831D01*
X617032Y608328*
Y604850*
X619623Y608328D02*
X618259Y606009D01*
X620305*
X619623Y608328D02*
Y604850D01*
X621805Y608328D02*
X623305D01*
X622486Y607003*
X622895*
X623168Y606837*
X623168D02*
X623305Y606672D01*
X623441Y606175*
Y605844*
X623305Y605347*
X623032Y605016*
X622623Y604850*
X622214*
X621805Y605016*
X621668Y605181*
X621532Y605512*
X616350Y617666D02*
X616623Y617831D01*
X617032Y618328*
Y614850*
X619623Y618328D02*
X618259Y616009D01*
X620305*
X619623Y618328D02*
Y614850D01*
X621532Y617666D02*
X621805Y617831D01*
X622214Y618328*
Y614850*
X650350Y637666D02*
X650623Y637831D01*
X651032Y638328*
Y634850*
X652532Y638328D02*
X654032D01*
X653214Y637003*
X653623*
X653895Y636837*
X653895D02*
X654032Y636672D01*
X654168Y636175*
Y635844*
X654032Y635347*
X653759Y635016*
X653350Y634850*
X652941*
X652532Y635016*
X652395Y635181*
X652259Y635512*
X656077Y638328D02*
X655668Y638162D01*
X655668D02*
X655532Y637831D01*
Y637500*
X655668Y637169*
X655941Y637003*
X656486Y636837*
X656486D02*
X656895Y636672D01*
X657168Y636341*
X657305Y636009*
Y635512*
X657305D02*
X657168Y635181D01*
X657032Y635016*
X656623Y634850*
X656077*
X655668Y635016*
X655532Y635181*
X655395Y635512*
X655395D02*
Y636009D01*
X655532Y636341*
X655805Y636672*
X656214Y636837*
X656214D02*
X656759Y637003D01*
X657032Y637169*
X657168Y637500*
Y637831*
X657032Y638162*
X657032D02*
X656623Y638328D01*
X656077*
X650350Y627666D02*
X650623Y627831D01*
X651032Y628328*
Y624850*
X653623Y628328D02*
X652259Y626009D01*
X654305*
X653623Y628328D02*
Y624850D01*
X656350Y628328D02*
X655941Y628162D01*
X655941D02*
X655668Y627666D01*
X655532Y626837*
X655532D02*
Y626341D01*
X655668Y625512*
X655668D02*
X655941Y625016D01*
X656350Y624850*
X656623*
X657032Y625016*
X657305Y625512*
X657305D02*
X657441Y626341D01*
Y626837*
X657441D02*
X657305Y627666D01*
X657032Y628162*
X657032D02*
X656623Y628328D01*
X656350*
X650350Y617666D02*
X650623Y617831D01*
X651032Y618328*
Y614850*
X653623Y618328D02*
X652259Y616009D01*
X654305*
X653623Y618328D02*
Y614850D01*
X655668Y617500D02*
Y617666D01*
X655805Y617997*
X655941Y618162*
X655941D02*
X656214Y618328D01*
X656759*
X657032Y618162*
X657032D02*
X657168Y617997D01*
X657305Y617666*
Y617334*
X657168Y617003*
X656895Y616506*
X655532Y614850*
X657441*
X650350Y607666D02*
X650623Y607831D01*
X651032Y608328*
Y604850*
X653623Y608328D02*
X652259Y606009D01*
X654305*
X653623Y608328D02*
Y604850D01*
X656895Y608328D02*
X655532Y606009D01*
X657577*
X656895Y608328D02*
Y604850D01*
X616350Y675666D02*
X616623Y675831D01*
X617032Y676328*
Y672850*
X618395Y675500D02*
Y675666D01*
X618532Y675997*
X618668Y676162*
X618668D02*
X618941Y676328D01*
X619486*
X619759Y676162*
X619759D02*
X619895Y675997D01*
X620032Y675666*
Y675334*
X619895Y675003*
X619623Y674506*
X618259Y672850*
X620168*
X623168Y675169D02*
X623032Y674672D01*
X622759Y674341*
X622350Y674175*
X622214*
X621805Y674341*
X621532Y674672*
X621395Y675169*
Y675334*
X621532Y675831*
X621805Y676162*
X621805D02*
X622214Y676328D01*
X622350*
X622759Y676162*
X622759D02*
X623032Y675831D01*
X623168Y675169*
Y674341*
X623032Y673512*
X623032D02*
X622759Y673016D01*
X622350Y672850*
X622077*
X621668Y673016*
X621532Y673347*
X616350Y665666D02*
X616623Y665831D01*
X617032Y666328*
Y662850*
X618532Y666328D02*
X620032D01*
X619214Y665003*
X619623*
X619895Y664837*
X619895D02*
X620032Y664672D01*
X620168Y664175*
Y663844*
X620032Y663347*
X619759Y663016*
X619350Y662850*
X618941*
X618532Y663016*
X618395Y663181*
X618259Y663512*
X621395Y665666D02*
X621668Y665831D01*
X622077Y666328*
Y662850*
X616350Y647666D02*
X616623Y647831D01*
X617032Y648328*
Y644850*
X618532Y648328D02*
X620032D01*
X619214Y647003*
X619623*
X619895Y646837*
X619895D02*
X620032Y646672D01*
X620168Y646175*
Y645844*
X620032Y645347*
X619759Y645016*
X619350Y644850*
X618941*
X618532Y645016*
X618395Y645181*
X618259Y645512*
X623168Y648328D02*
X621805D01*
X621668Y646837*
X621668D02*
X621805Y647003D01*
X622214Y647169*
X622623*
X623032Y647003*
X623305Y646672*
X623441Y646175*
X623305Y645844*
X623168Y645347*
X622895Y645016*
X622486Y644850*
X622077*
X621668Y645016*
X621532Y645181*
X621395Y645512*
X616350Y657666D02*
X616623Y657831D01*
X617032Y658328*
Y654850*
X618532Y658328D02*
X620032D01*
X619214Y657003*
X619623*
X619895Y656837*
X619895D02*
X620032Y656672D01*
X620168Y656175*
Y655844*
X620032Y655347*
X619759Y655016*
X619350Y654850*
X618941*
X618532Y655016*
X618395Y655181*
X618259Y655512*
X621668Y658328D02*
X623168D01*
X622350Y657003*
X622759*
X623032Y656837*
X623032D02*
X623168Y656672D01*
X623305Y656175*
Y655844*
X623168Y655347*
X622895Y655016*
X622486Y654850*
X622077*
X621668Y655016*
X621532Y655181*
X621395Y655512*
X650350Y677666D02*
X650623Y677831D01*
X651032Y678328*
Y674850*
X652532Y678328D02*
X654032D01*
X653214Y677003*
X653623*
X653895Y676837*
X653895D02*
X654032Y676672D01*
X654168Y676175*
Y675844*
X654032Y675347*
X653759Y675016*
X653350Y674850*
X652941*
X652532Y675016*
X652395Y675181*
X652259Y675512*
X656214Y678328D02*
X655805Y678162D01*
X655805D02*
X655532Y677666D01*
X655395Y676837*
X655395D02*
Y676341D01*
X655532Y675512*
X655532D02*
X655805Y675016D01*
X656214Y674850*
X656486*
X656895Y675016*
X657168Y675512*
X657168D02*
X657305Y676341D01*
Y676837*
X657305D02*
X657168Y677666D01*
X656895Y678162*
X656895D02*
X656486Y678328D01*
X656214*
X650350Y667666D02*
X650623Y667831D01*
X651032Y668328*
Y664850*
X652532Y668328D02*
X654032D01*
X653214Y667003*
X653623*
X653895Y666837*
X653895D02*
X654032Y666672D01*
X654168Y666175*
Y665844*
X654032Y665347*
X653759Y665016*
X653350Y664850*
X652941*
X652532Y665016*
X652395Y665181*
X652259Y665512*
X655532Y667500D02*
Y667666D01*
X655668Y667997*
X655805Y668162*
X655805D02*
X656077Y668328D01*
X656623*
X656895Y668162*
X656895D02*
X657032Y667997D01*
X657168Y667666*
Y667334*
X657032Y667003*
X656759Y666506*
X655395Y664850*
X657305*
X650350Y657666D02*
X650623Y657831D01*
X651032Y658328*
Y654850*
X652532Y658328D02*
X654032D01*
X653214Y657003*
X653623*
X653895Y656837*
X653895D02*
X654032Y656672D01*
X654168Y656175*
Y655844*
X654032Y655347*
X653759Y655016*
X653350Y654850*
X652941*
X652532Y655016*
X652395Y655181*
X652259Y655512*
X656759Y658328D02*
X655395Y656009D01*
X657441*
X656759Y658328D02*
Y654850D01*
X650350Y647666D02*
X650623Y647831D01*
X651032Y648328*
Y644850*
X652532Y648328D02*
X654032D01*
X653214Y647003*
X653623*
X653895Y646837*
X653895D02*
X654032Y646672D01*
X654168Y646175*
Y645844*
X654032Y645347*
X653759Y645016*
X653350Y644850*
X652941*
X652532Y645016*
X652395Y645181*
X652259Y645512*
X657032Y647831D02*
X656895Y648162D01*
X656895D02*
X656486Y648328D01*
X656214*
X655805Y648162*
X655805D02*
X655532Y647666D01*
X655395Y646837*
X655395D02*
Y646009D01*
X655532Y645347*
X655805Y645016*
X656214Y644850*
X656350*
X656759Y645016*
X657032Y645347*
X657168Y645844*
Y646009*
X657032Y646506*
X656759Y646837*
X656759D02*
X656350Y647003D01*
X656214*
X655805Y646837*
X655805D02*
X655532Y646506D01*
X655395Y646009*
X699331Y772623D02*
X699828Y772486D01*
X700159Y772214*
X700325Y771805*
Y771668*
X700159Y771259*
X699828Y770986*
X699331Y770850*
X699166*
X698669Y770986*
X698337Y771259*
X698337D02*
X698172Y771668D01*
Y771805*
X698337Y772214*
X698337D02*
X698669Y772486D01*
X699331Y772623*
X700159*
X700987Y772486*
X700987D02*
X701484Y772214D01*
X701650Y771805*
Y771532*
X701484Y771123*
X701153Y770986*
X698172Y774532D02*
X698337Y774123D01*
X698337D02*
X698669Y773986D01*
X699000*
X699331Y774123*
X699497Y774395*
X699662Y774941*
X699662D02*
X699828Y775350D01*
X700159Y775623*
X700491Y775759*
X700987*
X700987D02*
X701319Y775623D01*
X701484Y775486*
X701650Y775077*
Y774532*
X701484Y774123*
X701319Y773986*
X700987Y773850*
X700987D02*
X700491D01*
X700159Y773986*
X699828Y774259*
X699662Y774668*
X699662D02*
X699497Y775214D01*
X699331Y775486*
X699000Y775623*
X698669*
X698337Y775486*
X698337D02*
X698172Y775077D01*
Y774532*
X699331Y806623D02*
X699828Y806486D01*
X700159Y806214*
X700325Y805805*
Y805668*
X700159Y805259*
X699828Y804986*
X699331Y804850*
X699166*
X698669Y804986*
X698337Y805259*
X698337D02*
X698172Y805668D01*
Y805805*
X698337Y806214*
X698337D02*
X698669Y806486D01*
X699331Y806623*
X700159*
X700987Y806486*
X700987D02*
X701484Y806214D01*
X701650Y805805*
Y805532*
X701484Y805123*
X701153Y804986*
X698172Y809759D02*
X701650Y808395D01*
X698172Y807850D02*
Y809759D01*
X689331Y806623D02*
X689828Y806486D01*
X690159Y806214*
X690325Y805805*
Y805668*
X690159Y805259*
X689828Y804986*
X689331Y804850*
X689166*
X688669Y804986*
X688337Y805259*
X688337D02*
X688172Y805668D01*
Y805805*
X688337Y806214*
X688337D02*
X688669Y806486D01*
X689331Y806623*
X690159*
X690987Y806486*
X690987D02*
X691484Y806214D01*
X691650Y805805*
Y805532*
X691484Y805123*
X691153Y804986*
X689331Y809623D02*
X689828Y809486D01*
X690159Y809214*
X690325Y808805*
Y808668*
X690159Y808259*
X689828Y807986*
X689331Y807850*
X689166*
X688669Y807986*
X688337Y808259*
X688337D02*
X688172Y808668D01*
Y808805*
X688337Y809214*
X688337D02*
X688669Y809486D01*
X689331Y809623*
X690159*
X690987Y809486*
X690987D02*
X691484Y809214D01*
X691650Y808805*
Y808532*
X691484Y808123*
X691153Y807986*
X678834Y804850D02*
X678669Y805123D01*
X678172Y805532*
X681650*
X678172Y807577D02*
X678337Y807168D01*
X678337D02*
X678834Y806895D01*
X679662Y806759*
X679662D02*
X680159D01*
X680987Y806895*
X680987D02*
X681484Y807168D01*
X681650Y807577*
Y807850*
X681484Y808259*
X680987Y808532*
X680987D02*
X680159Y808668D01*
X679662*
X679662D02*
X678834Y808532D01*
X678337Y808259*
X678337D02*
X678172Y807850D01*
Y807577*
X678834Y809895D02*
X678669Y810168D01*
X678172Y810577*
X681650*
X668834Y804850D02*
X668669Y805123D01*
X668172Y805532*
X671650*
X668172Y807577D02*
X668337Y807168D01*
X668337D02*
X668834Y806895D01*
X669662Y806759*
X669662D02*
X670159D01*
X670987Y806895*
X670987D02*
X671484Y807168D01*
X671650Y807577*
Y807850*
X671484Y808259*
X670987Y808532*
X670987D02*
X670159Y808668D01*
X669662*
X669662D02*
X668834Y808532D01*
X668337Y808259*
X668337D02*
X668172Y807850D01*
Y807577*
Y810168D02*
Y811668D01*
X669497Y810850*
Y811259*
X669662Y811532*
X669662D02*
X669828Y811668D01*
X670325Y811805*
X670656*
X671153Y811668*
X671484Y811395*
X671650Y810986*
Y810577*
X671484Y810168*
X671319Y810032*
X670987Y809895*
X688834Y770850D02*
X688669Y771123D01*
X688172Y771532*
X691650*
X688172Y773577D02*
X688337Y773168D01*
X688337D02*
X688834Y772895D01*
X689662Y772759*
X689662D02*
X690159D01*
X690987Y772895*
X690987D02*
X691484Y773168D01*
X691650Y773577*
Y773850*
X691484Y774259*
X690987Y774532*
X690987D02*
X690159Y774668D01*
X689662*
X689662D02*
X688834Y774532D01*
X688337Y774259*
X688337D02*
X688172Y773850D01*
Y773577*
Y776714D02*
X688337Y776305D01*
X688337D02*
X688834Y776032D01*
X689662Y775895*
X689662D02*
X690159D01*
X690987Y776032*
X690987D02*
X691484Y776305D01*
X691650Y776714*
Y776986*
X691484Y777395*
X690987Y777668*
X690987D02*
X690159Y777805D01*
X689662*
X689662D02*
X688834Y777668D01*
X688337Y777395*
X688337D02*
X688172Y776986D01*
Y776714*
X678834Y770850D02*
X678669Y771123D01*
X678172Y771532*
X681650*
X678172Y773577D02*
X678337Y773168D01*
X678337D02*
X678834Y772895D01*
X679662Y772759*
X679662D02*
X680159D01*
X680987Y772895*
X680987D02*
X681484Y773168D01*
X681650Y773577*
Y773850*
X681484Y774259*
X680987Y774532*
X680987D02*
X680159Y774668D01*
X679662*
X679662D02*
X678834Y774532D01*
X678337Y774259*
X678337D02*
X678172Y773850D01*
Y773577*
X679000Y776032D02*
X678834D01*
X678503Y776168*
X678337Y776305*
X678337D02*
X678172Y776577D01*
Y777123*
X678337Y777395*
X678337D02*
X678503Y777532D01*
X678834Y777668*
X679166*
X679497Y777532*
X679994Y777259*
X681650Y775895*
Y777805*
X668834Y770850D02*
X668669Y771123D01*
X668172Y771532*
X671650*
X668172Y773577D02*
X668337Y773168D01*
X668337D02*
X668834Y772895D01*
X669662Y772759*
X669662D02*
X670159D01*
X670987Y772895*
X670987D02*
X671484Y773168D01*
X671650Y773577*
Y773850*
X671484Y774259*
X670987Y774532*
X670987D02*
X670159Y774668D01*
X669662*
X669662D02*
X668834Y774532D01*
X668337Y774259*
X668337D02*
X668172Y773850D01*
Y773577*
Y777259D02*
X670491Y775895D01*
Y777941*
X668172Y777259D02*
X671650D01*
X837741Y792672D02*
X839105Y796150D01*
X839650Y792672D02*
X837741D01*
X836377Y793500D02*
Y793334D01*
X836241Y793003*
X836105Y792837*
X836105D02*
X835832Y792672D01*
X835286*
X835014Y792837*
X835014D02*
X834877Y793003D01*
X834741Y793334*
Y793666*
X834877Y793997*
X835150Y794494*
X836514Y796150*
X834605*
X837741Y782672D02*
X839105Y786150D01*
X839650Y782672D02*
X837741D01*
X835695D02*
X836105Y782837D01*
X836105D02*
X836377Y783334D01*
X836514Y784162*
X836514D02*
Y784659D01*
X836377Y785487*
X836377D02*
X836105Y785984D01*
X835695Y786150*
X835423*
X835014Y785984*
X834741Y785487*
X834741D02*
X834605Y784659D01*
Y784162*
X834605D02*
X834741Y783334D01*
X835014Y782837*
X835014D02*
X835423Y782672D01*
X835695*
X838014Y773169D02*
X838150Y772837D01*
X838150D02*
X838559Y772672D01*
X838832*
X839241Y772837*
X839241D02*
X839514Y773334D01*
X839650Y774162*
X839650D02*
Y774991D01*
X839514Y775653*
X839241Y775984*
X838832Y776150*
X838695*
X838286Y775984*
X838014Y775653*
X837877Y775156*
Y774991*
X838014Y774494*
X838286Y774162*
X838286D02*
X838695Y773997D01*
X838832*
X839241Y774162*
X839241D02*
X839514Y774494D01*
X839650Y774991*
X835968Y772672D02*
X836377Y772837D01*
X836377D02*
X836514Y773169D01*
Y773500*
X836377Y773831*
X836105Y773997*
X835559Y774162*
X835559D02*
X835150Y774328D01*
X834877Y774659*
X834741Y774991*
Y775487*
X834741D02*
X834877Y775819D01*
X835014Y775984*
X835423Y776150*
X835968*
X836377Y775984*
X836514Y775819*
X836650Y775487*
X836650D02*
Y774991D01*
X836514Y774659*
X836241Y774328*
X835832Y774162*
X835832D02*
X835286Y773997D01*
X835014Y773831*
X834877Y773500*
Y773169*
X835014Y772837*
X835014D02*
X835423Y772672D01*
X835968*
X870014Y763169D02*
X870150Y762837D01*
X870150D02*
X870559Y762672D01*
X870832*
X871241Y762837*
X871241D02*
X871514Y763334D01*
X871650Y764162*
X871650D02*
Y764991D01*
X871514Y765653*
X871241Y765984*
X870832Y766150*
X870695*
X870286Y765984*
X870014Y765653*
X869877Y765156*
Y764991*
X870014Y764494*
X870286Y764162*
X870286D02*
X870695Y763997D01*
X870832*
X871241Y764162*
X871241D02*
X871514Y764494D01*
X871650Y764991*
X866877Y762672D02*
X868241D01*
X868377Y764162*
X868377D02*
X868241Y763997D01*
X867832Y763831*
X867423*
X867014Y763997*
X866741Y764328*
X866605Y764825*
X866741Y765156*
X866877Y765653*
X867150Y765984*
X867559Y766150*
X867968*
X868377Y765984*
X868514Y765819*
X868650Y765487*
X870014Y773169D02*
X870150Y772837D01*
X870150D02*
X870559Y772672D01*
X870832*
X871241Y772837*
X871241D02*
X871514Y773334D01*
X871650Y774162*
X871650D02*
Y774991D01*
X871514Y775653*
X871241Y775984*
X870832Y776150*
X870695*
X870286Y775984*
X870014Y775653*
X869877Y775156*
Y774991*
X870014Y774494*
X870286Y774162*
X870286D02*
X870695Y773997D01*
X870832*
X871241Y774162*
X871241D02*
X871514Y774494D01*
X871650Y774991*
X866741Y772672D02*
X868105Y776150D01*
X868650Y772672D02*
X866741D01*
X870014Y783169D02*
X870150Y782837D01*
X870150D02*
X870559Y782672D01*
X870832*
X871241Y782837*
X871241D02*
X871514Y783334D01*
X871650Y784162*
X871650D02*
Y784991D01*
X871514Y785653*
X871241Y785984*
X870832Y786150*
X870695*
X870286Y785984*
X870014Y785653*
X869877Y785156*
Y784991*
X870014Y784494*
X870286Y784162*
X870286D02*
X870695Y783997D01*
X870832*
X871241Y784162*
X871241D02*
X871514Y784494D01*
X871650Y784991*
X866877Y783831D02*
X867014Y784328D01*
X867286Y784659*
X867695Y784825*
X867832*
X868241Y784659*
X868514Y784328*
X868650Y783831*
Y783666*
X868514Y783169*
X868241Y782837*
X868241D02*
X867832Y782672D01*
X867695*
X867286Y782837*
X867286D02*
X867014Y783169D01*
X866877Y783831*
Y784659*
X867014Y785487*
X867014D02*
X867286Y785984D01*
X867695Y786150*
X867968*
X868377Y785984*
X868514Y785653*
X869741Y792672D02*
X871105Y796150D01*
X871650Y792672D02*
X869741D01*
X868514Y793334D02*
X868241Y793169D01*
X867832Y792672*
Y796150*
X838014Y763169D02*
X838150Y762837D01*
X838150D02*
X838559Y762672D01*
X838832*
X839241Y762837*
X839241D02*
X839514Y763334D01*
X839650Y764162*
X839650D02*
Y764991D01*
X839514Y765653*
X839241Y765984*
X838832Y766150*
X838695*
X838286Y765984*
X838014Y765653*
X837877Y765156*
Y764991*
X838014Y764494*
X838286Y764162*
X838286D02*
X838695Y763997D01*
X838832*
X839241Y764162*
X839241D02*
X839514Y764494D01*
X839650Y764991*
X835014Y763169D02*
X835150Y762837D01*
X835150D02*
X835559Y762672D01*
X835832*
X836241Y762837*
X836241D02*
X836514Y763334D01*
X836650Y764162*
X836650D02*
Y764991D01*
X836514Y765653*
X836241Y765984*
X835832Y766150*
X835695*
X835286Y765984*
X835014Y765653*
X834877Y765156*
Y764991*
X835014Y764494*
X835286Y764162*
X835286D02*
X835695Y763997D01*
X835832*
X836241Y764162*
X836241D02*
X836514Y764494D01*
X836650Y764991*
X698172Y568759D02*
X701650Y567395D01*
X698172Y566850D02*
Y568759D01*
X709331Y568623D02*
X709828Y568486D01*
X710159Y568214*
X710325Y567805*
Y567668*
X710159Y567259*
X709828Y566986*
X709331Y566850*
X709166*
X708669Y566986*
X708337Y567259*
X708337D02*
X708172Y567668D01*
Y567805*
X708337Y568214*
X708337D02*
X708669Y568486D01*
X709331Y568623*
X710159*
X710987Y568486*
X710987D02*
X711484Y568214D01*
X711650Y567805*
Y567532*
X711484Y567123*
X711153Y566986*
X718834Y566850D02*
X718669Y567123D01*
X718172Y567532*
X721650*
X718834Y568759D02*
X718669Y569032D01*
X718172Y569441*
X721650*
X728834Y566850D02*
X728669Y567123D01*
X728172Y567532*
X731650*
X728172Y569032D02*
Y570532D01*
X729497Y569714*
Y570123*
X729662Y570395*
X729662D02*
X729828Y570532D01*
X730325Y570668*
X730656*
X731153Y570532*
X731484Y570259*
X731650Y569850*
Y569441*
X731484Y569032*
X731319Y568895*
X730987Y568759*
X738834Y566850D02*
X738669Y567123D01*
X738172Y567532*
X741650*
X738172Y570532D02*
Y569168D01*
X739662Y569032*
X739662D02*
X739497Y569168D01*
X739331Y569577*
Y569986*
X739497Y570395*
X739828Y570668*
X740325Y570805*
X740656Y570668*
X741153Y570532*
X741484Y570259*
X741650Y569850*
Y569441*
X741484Y569032*
X741319Y568895*
X740987Y568759*
X748834Y566850D02*
X748669Y567123D01*
X748172Y567532*
X751650*
X748172Y570668D02*
X751650Y569305D01*
X748172Y568759D02*
Y570668D01*
X758834Y566850D02*
X758669Y567123D01*
X758172Y567532*
X761650*
X759331Y570532D02*
X759828Y570395D01*
X760159Y570123*
X760325Y569714*
Y569577*
X760159Y569168*
X759828Y568895*
X759331Y568759*
X759166*
X758669Y568895*
X758337Y569168*
X758337D02*
X758172Y569577D01*
Y569714*
X758337Y570123*
X758337D02*
X758669Y570395D01*
X759331Y570532*
X760159*
X760987Y570395*
X760987D02*
X761484Y570123D01*
X761650Y569714*
Y569441*
X761484Y569032*
X761153Y568895*
X769000Y566986D02*
X768834D01*
X768503Y567123*
X768337Y567259*
X768337D02*
X768172Y567532D01*
Y568077*
X768337Y568350*
X768337D02*
X768503Y568486D01*
X768834Y568623*
X769166*
X769497Y568486*
X769994Y568214*
X771650Y566850*
Y568759*
X768834Y569986D02*
X768669Y570259D01*
X768172Y570668*
X771650*
X779000Y566986D02*
X778834D01*
X778503Y567123*
X778337Y567259*
X778337D02*
X778172Y567532D01*
Y568077*
X778337Y568350*
X778337D02*
X778503Y568486D01*
X778834Y568623*
X779166*
X779497Y568486*
X779994Y568214*
X781650Y566850*
Y568759*
X778172Y570259D02*
Y571759D01*
X779497Y570941*
Y571350*
X779662Y571623*
X779662D02*
X779828Y571759D01*
X780325Y571895*
X780656*
X781153Y571759*
X781484Y571486*
X781650Y571077*
Y570668*
X781484Y570259*
X781319Y570123*
X780987Y569986*
X789000Y566986D02*
X788834D01*
X788503Y567123*
X788337Y567259*
X788337D02*
X788172Y567532D01*
Y568077*
X788337Y568350*
X788337D02*
X788503Y568486D01*
X788834Y568623*
X789166*
X789497Y568486*
X789994Y568214*
X791650Y566850*
Y568759*
X788172Y571759D02*
Y570395D01*
X789662Y570259*
X789662D02*
X789497Y570395D01*
X789331Y570805*
Y571214*
X789497Y571623*
X789828Y571895*
X790325Y572032*
X790656Y571895*
X791153Y571759*
X791484Y571486*
X791650Y571077*
Y570668*
X791484Y570259*
X791319Y570123*
X790987Y569986*
X809000Y566986D02*
X808834D01*
X808503Y567123*
X808337Y567259*
X808337D02*
X808172Y567532D01*
Y568077*
X808337Y568350*
X808337D02*
X808503Y568486D01*
X808834Y568623*
X809166*
X809497Y568486*
X809994Y568214*
X811650Y566850*
Y568759*
X809331Y571759D02*
X809828Y571623D01*
X810159Y571350*
X810325Y570941*
Y570805*
X810159Y570395*
X809828Y570123*
X809331Y569986*
X809166*
X808669Y570123*
X808337Y570395*
X808337D02*
X808172Y570805D01*
Y570941*
X808337Y571350*
X808337D02*
X808669Y571623D01*
X809331Y571759*
X810159*
X810987Y571623*
X810987D02*
X811484Y571350D01*
X811650Y570941*
Y570668*
X811484Y570259*
X811153Y570123*
X677516Y600441D02*
X680272Y598850D01*
Y601236*
X677516Y600441D02*
X681650D01*
X688106Y600759D02*
X687712Y600600D01*
X687712D02*
X687516Y600123D01*
Y599805*
X687712Y599327*
X687712D02*
X688303Y599009D01*
X689287Y598850*
X689287D02*
X690272D01*
X691059Y599009*
X691453Y599327*
X691650Y599805*
Y599964*
X691453Y600441*
X691059Y600759*
X690469Y600918*
X690272*
X689681Y600759*
X689287Y600441*
X689287D02*
X689091Y599964D01*
Y599805*
X689287Y599327*
X689287D02*
X689681Y599009D01*
X690272Y598850*
X697516Y599645D02*
X697712Y599168D01*
X697712D02*
X698106Y599009D01*
X698500*
X698894Y599168*
X699091Y599486*
X699287Y600123*
X699287D02*
X699484Y600600D01*
X699878Y600918*
X700272Y601077*
X700862*
X700862D02*
X701256Y600918D01*
X701453Y600759*
X701650Y600282*
Y599645*
X701453Y599168*
X701256Y599009*
X700862Y598850*
X700862D02*
X700272D01*
X699878Y599009*
X699484Y599327*
X699287Y599805*
X699287D02*
X699091Y600441D01*
X698894Y600759*
X698500Y600918*
X698106*
X697712Y600759*
X697712D02*
X697516Y600282D01*
Y599645*
X728303Y598850D02*
X728106Y599168D01*
X727516Y599645*
X731650*
X727516Y602668D02*
X730272Y601077D01*
Y603464*
X727516Y602668D02*
X731650D01*
X738303Y598850D02*
X738106Y599168D01*
X737516Y599645*
X741650*
X738106Y602986D02*
X737712Y602827D01*
X737712D02*
X737516Y602350D01*
Y602032*
X737712Y601555*
X737712D02*
X738303Y601236D01*
X739287Y601077*
X739287D02*
X740272D01*
X741059Y601236*
X741453Y601555*
X741650Y602032*
Y602191*
X741453Y602668*
X741059Y602986*
X740469Y603145*
X740272*
X739681Y602986*
X739287Y602668*
X739287D02*
X739091Y602191D01*
Y602032*
X739287Y601555*
X739287D02*
X739681Y601236D01*
X740272Y601077*
X748303Y598850D02*
X748106Y599168D01*
X747516Y599645*
X751650*
X747516Y601873D02*
X747712Y601395D01*
X747712D02*
X748106Y601236D01*
X748500*
X748894Y601395*
X749091Y601714*
X749287Y602350*
X749287D02*
X749484Y602827D01*
X749878Y603145*
X750272Y603305*
X750862*
X750862D02*
X751256Y603145D01*
X751453Y602986*
X751650Y602509*
Y601873*
X751453Y601395*
X751256Y601236*
X750862Y601077*
X750862D02*
X750272D01*
X749878Y601236*
X749484Y601555*
X749287Y602032*
X749287D02*
X749091Y602668D01*
X748894Y602986*
X748500Y603145*
X748106*
X747712Y602986*
X747712D02*
X747516Y602509D01*
Y601873*
X758500Y599009D02*
X758303D01*
X757909Y599168*
X757712Y599327*
X757712D02*
X757516Y599645D01*
Y600282*
X757712Y600600*
X757712D02*
X757909Y600759D01*
X758303Y600918*
X758697*
X759091Y600759*
X759681Y600441*
X761650Y598850*
Y601077*
X757516Y603464D02*
X757712Y602986D01*
X757712D02*
X758303Y602668D01*
X759287Y602509*
X759287D02*
X759878D01*
X760862Y602668*
X760862D02*
X761453Y602986D01*
X761650Y603464*
Y603782*
X761453Y604259*
X760862Y604577*
X760862D02*
X759878Y604736D01*
X759287*
X759287D02*
X758303Y604577D01*
X757712Y604259*
X757712D02*
X757516Y603782D01*
Y603464*
X768500Y599009D02*
X768303D01*
X767909Y599168*
X767712Y599327*
X767712D02*
X767516Y599645D01*
Y600282*
X767712Y600600*
X767712D02*
X767909Y600759D01*
X768303Y600918*
X768697*
X769091Y600759*
X769681Y600441*
X771650Y598850*
Y601077*
X768500Y602668D02*
X768303D01*
X767909Y602827*
X767712Y602986*
X767712D02*
X767516Y603305D01*
Y603941*
X767712Y604259*
X767712D02*
X767909Y604418D01*
X768303Y604577*
X768697*
X769091Y604418*
X769681Y604100*
X771650Y602509*
Y604736*
X778500Y599009D02*
X778303D01*
X777909Y599168*
X777712Y599327*
X777712D02*
X777516Y599645D01*
Y600282*
X777712Y600600*
X777712D02*
X777909Y600759D01*
X778303Y600918*
X778697*
X779091Y600759*
X779681Y600441*
X781650Y598850*
Y601077*
X777516Y604100D02*
X780272Y602509D01*
Y604895*
X777516Y604100D02*
X781650D01*
X788500Y599009D02*
X788303D01*
X787909Y599168*
X787712Y599327*
X787712D02*
X787516Y599645D01*
Y600282*
X787712Y600600*
X787712D02*
X787909Y600759D01*
X788303Y600918*
X788697*
X789091Y600759*
X789681Y600441*
X791650Y598850*
Y601077*
X788106Y604418D02*
X787712Y604259D01*
X787712D02*
X787516Y603782D01*
Y603464*
X787712Y602986*
X787712D02*
X788303Y602668D01*
X789287Y602509*
X789287D02*
X790272D01*
X791059Y602668*
X791453Y602986*
X791650Y603464*
Y603623*
X791453Y604100*
X791059Y604418*
X790469Y604577*
X790272*
X789681Y604418*
X789287Y604100*
X789287D02*
X789091Y603623D01*
Y603464*
X789287Y602986*
X789287D02*
X789681Y602668D01*
X790272Y602509*
X807516Y599168D02*
Y600918D01*
X809091Y599964*
Y600441*
X809287Y600759*
X809287D02*
X809484Y600918D01*
X810075Y601077*
X810469*
X811059Y600918*
X811453Y600600*
X811650Y600123*
Y599645*
X811453Y599168*
X811256Y599009*
X810862Y598850*
X807516Y603464D02*
X807712Y602986D01*
X807712D02*
X808303Y602668D01*
X809287Y602509*
X809287D02*
X809878D01*
X810862Y602668*
X810862D02*
X811453Y602986D01*
X811650Y603464*
Y603782*
X811453Y604259*
X810862Y604577*
X810862D02*
X809878Y604736D01*
X809287*
X809287D02*
X808303Y604577D01*
X807712Y604259*
X807712D02*
X807516Y603782D01*
Y603464*
X798500Y599009D02*
X798303D01*
X797909Y599168*
X797712Y599327*
X797712D02*
X797516Y599645D01*
Y600282*
X797712Y600600*
X797712D02*
X797909Y600759D01*
X798303Y600918*
X798697*
X799091Y600759*
X799681Y600441*
X801650Y598850*
Y601077*
X797516Y603305D02*
X797712Y602827D01*
X797712D02*
X798106Y602668D01*
X798500*
X798894Y602827*
X799091Y603145*
X799287Y603782*
X799287D02*
X799484Y604259D01*
X799878Y604577*
X800272Y604736*
X800862*
X800862D02*
X801256Y604577D01*
X801453Y604418*
X801650Y603941*
Y603305*
X801453Y602827*
X801256Y602668*
X800862Y602509*
X800862D02*
X800272D01*
X799878Y602668*
X799484Y602986*
X799287Y603464*
X799287D02*
X799091Y604100D01*
X798894Y604418*
X798500Y604577*
X798106*
X797712Y604418*
X797712D02*
X797516Y603941D01*
Y603305*
X818172Y806759D02*
X821650Y805395D01*
X818172Y804850D02*
Y806759D01*
Y808259D02*
Y809759D01*
X819497Y808941*
Y809350*
X819662Y809623*
X819662D02*
X819828Y809759D01*
X820325Y809895*
X820656*
X821153Y809759*
X821484Y809486*
X821650Y809077*
Y808668*
X821484Y808259*
X821319Y808123*
X820987Y807986*
X808172Y806759D02*
X811650Y805395D01*
X808172Y804850D02*
Y806759D01*
Y809759D02*
Y808395D01*
X809662Y808259*
X809662D02*
X809497Y808395D01*
X809331Y808805*
Y809214*
X809497Y809623*
X809828Y809895*
X810325Y810032*
X810656Y809895*
X811153Y809759*
X811484Y809486*
X811650Y809077*
Y808668*
X811484Y808259*
X811319Y808123*
X810987Y807986*
X798172Y806759D02*
X801650Y805395D01*
X798172Y804850D02*
Y806759D01*
Y809895D02*
X801650Y808532D01*
X798172Y807986D02*
Y809895D01*
X788172Y806759D02*
X791650Y805395D01*
X788172Y804850D02*
Y806759D01*
X789331Y809759D02*
X789828Y809623D01*
X790159Y809350*
X790325Y808941*
Y808805*
X790159Y808395*
X789828Y808123*
X789331Y807986*
X789166*
X788669Y808123*
X788337Y808395*
X788337D02*
X788172Y808805D01*
Y808941*
X788337Y809350*
X788337D02*
X788669Y809623D01*
X789331Y809759*
X790159*
X790987Y809623*
X790987D02*
X791484Y809350D01*
X791650Y808941*
Y808668*
X791484Y808259*
X791153Y808123*
X818172Y772759D02*
X821650Y771395D01*
X818172Y770850D02*
Y772759D01*
Y775350D02*
X820491Y773986D01*
Y776032*
X818172Y775350D02*
X821650D01*
X808172Y772759D02*
X811650Y771395D01*
X808172Y770850D02*
Y772759D01*
X808669Y775623D02*
X808337Y775486D01*
X808337D02*
X808172Y775077D01*
Y774805*
X808337Y774395*
X808337D02*
X808834Y774123D01*
X809662Y773986*
X809662D02*
X810491D01*
X811153Y774123*
X811484Y774395*
X811650Y774805*
Y774941*
X811484Y775350*
X811153Y775623*
X810656Y775759*
X810491*
X809994Y775623*
X809662Y775350*
X809662D02*
X809497Y774941D01*
Y774805*
X809662Y774395*
X809662D02*
X809994Y774123D01*
X810491Y773986*
X798172Y772759D02*
X801650Y771395D01*
X798172Y770850D02*
Y772759D01*
Y774668D02*
X798337Y774259D01*
X798337D02*
X798669Y774123D01*
X799000*
X799331Y774259*
X799497Y774532*
X799662Y775077*
X799662D02*
X799828Y775486D01*
X800159Y775759*
X800491Y775895*
X800987*
X800987D02*
X801319Y775759D01*
X801484Y775623*
X801650Y775214*
Y774668*
X801484Y774259*
X801319Y774123*
X800987Y773986*
X800987D02*
X800491D01*
X800159Y774123*
X799828Y774395*
X799662Y774805*
X799662D02*
X799497Y775350D01*
X799331Y775623*
X799000Y775759*
X798669*
X798337Y775623*
X798337D02*
X798172Y775214D01*
Y774668*
X838014Y753169D02*
X838150Y752837D01*
X838150D02*
X838559Y752672D01*
X838832*
X839241Y752837*
X839241D02*
X839514Y753334D01*
X839650Y754162*
X839650D02*
Y754991D01*
X839514Y755653*
X839241Y755984*
X838832Y756150*
X838695*
X838286Y755984*
X838014Y755653*
X837877Y755156*
Y754991*
X838014Y754494*
X838286Y754162*
X838286D02*
X838695Y753997D01*
X838832*
X839241Y754162*
X839241D02*
X839514Y754494D01*
X839650Y754991*
X835286Y752672D02*
X836650Y754991D01*
X834605*
X835286Y752672D02*
Y756150D01*
X838014Y743169D02*
X838150Y742837D01*
X838150D02*
X838559Y742672D01*
X838832*
X839241Y742837*
X839241D02*
X839514Y743334D01*
X839650Y744162*
X839650D02*
Y744991D01*
X839514Y745653*
X839241Y745984*
X838832Y746150*
X838695*
X838286Y745984*
X838014Y745653*
X837877Y745156*
Y744991*
X838014Y744494*
X838286Y744162*
X838286D02*
X838695Y743997D01*
X838832*
X839241Y744162*
X839241D02*
X839514Y744494D01*
X839650Y744991*
X836514Y743500D02*
Y743334D01*
X836377Y743003*
X836241Y742837*
X836241D02*
X835968Y742672D01*
X835423*
X835150Y742837*
X835150D02*
X835014Y743003D01*
X834877Y743334*
Y743666*
X835014Y743997*
X835286Y744494*
X836650Y746150*
X834741*
X838014Y733169D02*
X838150Y732837D01*
X838150D02*
X838559Y732672D01*
X838832*
X839241Y732837*
X839241D02*
X839514Y733334D01*
X839650Y734162*
X839650D02*
Y734991D01*
X839514Y735653*
X839241Y735984*
X838832Y736150*
X838695*
X838286Y735984*
X838014Y735653*
X837877Y735156*
Y734991*
X838014Y734494*
X838286Y734162*
X838286D02*
X838695Y733997D01*
X838832*
X839241Y734162*
X839241D02*
X839514Y734494D01*
X839650Y734991*
X835832Y732672D02*
X836241Y732837D01*
X836241D02*
X836514Y733334D01*
X836650Y734162*
X836650D02*
Y734659D01*
X836514Y735487*
X836514D02*
X836241Y735984D01*
X835832Y736150*
X835559*
X835150Y735984*
X834877Y735487*
X834877D02*
X834741Y734659D01*
Y734162*
X834741D02*
X834877Y733334D01*
X835150Y732837*
X835150D02*
X835559Y732672D01*
X835832*
X869877Y722672D02*
X871241D01*
X871377Y724162*
X871377D02*
X871241Y723997D01*
X870832Y723831*
X870423*
X870014Y723997*
X869741Y724328*
X869605Y724825*
X869741Y725156*
X869877Y725653*
X870150Y725984*
X870559Y726150*
X870968*
X871377Y725984*
X871514Y725819*
X871650Y725487*
X866468Y722672D02*
X867832Y726150D01*
X868377Y722672D02*
X866468D01*
X869877Y732672D02*
X871241D01*
X871377Y734162*
X871377D02*
X871241Y733997D01*
X870832Y733831*
X870423*
X870014Y733997*
X869741Y734328*
X869605Y734825*
X869741Y735156*
X869877Y735653*
X870150Y735984*
X870559Y736150*
X870968*
X871377Y735984*
X871514Y735819*
X871650Y735487*
X866605Y733831D02*
X866741Y734328D01*
X867014Y734659*
X867423Y734825*
X867559*
X867968Y734659*
X868241Y734328*
X868377Y733831*
Y733666*
X868241Y733169*
X867968Y732837*
X867968D02*
X867559Y732672D01*
X867423*
X867014Y732837*
X867014D02*
X866741Y733169D01*
X866605Y733831*
Y734659*
X866741Y735487*
X866741D02*
X867014Y735984D01*
X867423Y736150*
X867695*
X868105Y735984*
X868241Y735653*
X870014Y743169D02*
X870150Y742837D01*
X870150D02*
X870559Y742672D01*
X870832*
X871241Y742837*
X871241D02*
X871514Y743334D01*
X871650Y744162*
X871650D02*
Y744991D01*
X871514Y745653*
X871241Y745984*
X870832Y746150*
X870695*
X870286Y745984*
X870014Y745653*
X869877Y745156*
Y744991*
X870014Y744494*
X870286Y744162*
X870286D02*
X870695Y743997D01*
X870832*
X871241Y744162*
X871241D02*
X871514Y744494D01*
X871650Y744991*
X868650Y743334D02*
X868377Y743169D01*
X867968Y742672*
Y746150*
X870014Y753169D02*
X870150Y752837D01*
X870150D02*
X870559Y752672D01*
X870832*
X871241Y752837*
X871241D02*
X871514Y753334D01*
X871650Y754162*
X871650D02*
Y754991D01*
X871514Y755653*
X871241Y755984*
X870832Y756150*
X870695*
X870286Y755984*
X870014Y755653*
X869877Y755156*
Y754991*
X870014Y754494*
X870286Y754162*
X870286D02*
X870695Y753997D01*
X870832*
X871241Y754162*
X871241D02*
X871514Y754494D01*
X871650Y754991*
X868377Y752672D02*
X866877D01*
X867695Y753997*
X867286*
X867014Y754162*
X867014D02*
X866877Y754328D01*
X866741Y754825*
Y755156*
X866877Y755653*
X867150Y755984*
X867559Y756150*
X867968*
X868377Y755984*
X868514Y755819*
X868650Y755487*
X837877Y712672D02*
X839241D01*
X839377Y714162*
X839377D02*
X839241Y713997D01*
X838832Y713831*
X838423*
X838014Y713997*
X837741Y714328*
X837605Y714825*
X837741Y715156*
X837877Y715653*
X838150Y715984*
X838559Y716150*
X838968*
X839377Y715984*
X839514Y715819*
X839650Y715487*
X834741Y713169D02*
X834877Y712837D01*
X834877D02*
X835286Y712672D01*
X835559*
X835968Y712837*
X835968D02*
X836241Y713334D01*
X836377Y714162*
X836377D02*
Y714991D01*
X836241Y715653*
X835968Y715984*
X835559Y716150*
X835423*
X835014Y715984*
X834741Y715653*
X834605Y715156*
Y714991*
X834741Y714494*
X835014Y714162*
X835014D02*
X835423Y713997D01*
X835559*
X835968Y714162*
X835968D02*
X836241Y714494D01*
X836377Y714991*
X837877Y722672D02*
X839241D01*
X839377Y724162*
X839377D02*
X839241Y723997D01*
X838832Y723831*
X838423*
X838014Y723997*
X837741Y724328*
X837605Y724825*
X837741Y725156*
X837877Y725653*
X838150Y725984*
X838559Y726150*
X838968*
X839377Y725984*
X839514Y725819*
X839650Y725487*
X835695Y722672D02*
X836105Y722837D01*
X836105D02*
X836241Y723169D01*
Y723500*
X836105Y723831*
X835832Y723997*
X835286Y724162*
X835286D02*
X834877Y724328D01*
X834605Y724659*
X834468Y724991*
Y725487*
X834468D02*
X834605Y725819D01*
X834741Y725984*
X835150Y726150*
X835695*
X836105Y725984*
X836241Y725819*
X836377Y725487*
X836377D02*
Y724991D01*
X836241Y724659*
X835968Y724328*
X835559Y724162*
X835559D02*
X835014Y723997D01*
X834741Y723831*
X834605Y723500*
Y723169*
X834741Y722837*
X834741D02*
X835150Y722672D01*
X835695*
X869877Y712672D02*
X871241D01*
X871377Y714162*
X871377D02*
X871241Y713997D01*
X870832Y713831*
X870423*
X870014Y713997*
X869741Y714328*
X869605Y714825*
X869741Y715156*
X869877Y715653*
X870150Y715984*
X870559Y716150*
X870968*
X871377Y715984*
X871514Y715819*
X871650Y715487*
X866605Y712672D02*
X867968D01*
X868105Y714162*
X868105D02*
X867968Y713997D01*
X867559Y713831*
X867150*
X866741Y713997*
X866468Y714328*
X866332Y714825*
X866468Y715156*
X866605Y715653*
X866877Y715984*
X867286Y716150*
X867695*
X868105Y715984*
X868241Y715819*
X868377Y715487*
X869877Y702672D02*
X871241D01*
X871377Y704162*
X871377D02*
X871241Y703997D01*
X870832Y703831*
X870423*
X870014Y703997*
X869741Y704328*
X869605Y704825*
X869741Y705156*
X869877Y705653*
X870150Y705984*
X870559Y706150*
X870968*
X871377Y705984*
X871514Y705819*
X871650Y705487*
X868105Y702672D02*
X866605D01*
X867423Y703997*
X867014*
X866741Y704162*
X866741D02*
X866605Y704328D01*
X866468Y704825*
Y705156*
X866605Y705653*
X866877Y705984*
X867286Y706150*
X867695*
X868105Y705984*
X868241Y705819*
X868377Y705487*
X837877Y702672D02*
X839241D01*
X839377Y704162*
X839377D02*
X839241Y703997D01*
X838832Y703831*
X838423*
X838014Y703997*
X837741Y704328*
X837605Y704825*
X837741Y705156*
X837877Y705653*
X838150Y705984*
X838559Y706150*
X838968*
X839377Y705984*
X839514Y705819*
X839650Y705487*
X835014Y702672D02*
X836377Y704991D01*
X834332*
X835014Y702672D02*
Y706150D01*
X837877Y692672D02*
X839241D01*
X839377Y694162*
X839377D02*
X839241Y693997D01*
X838832Y693831*
X838423*
X838014Y693997*
X837741Y694328*
X837605Y694825*
X837741Y695156*
X837877Y695653*
X838150Y695984*
X838559Y696150*
X838968*
X839377Y695984*
X839514Y695819*
X839650Y695487*
X836241Y693500D02*
Y693334D01*
X836105Y693003*
X835968Y692837*
X835968D02*
X835695Y692672D01*
X835150*
X834877Y692837*
X834877D02*
X834741Y693003D01*
X834605Y693334*
Y693666*
X834741Y693997*
X835014Y694494*
X836377Y696150*
X834468*
X869877Y692672D02*
X871241D01*
X871377Y694162*
X871377D02*
X871241Y693997D01*
X870832Y693831*
X870423*
X870014Y693997*
X869741Y694328*
X869605Y694825*
X869741Y695156*
X869877Y695653*
X870150Y695984*
X870559Y696150*
X870968*
X871377Y695984*
X871514Y695819*
X871650Y695487*
X868377Y693334D02*
X868105Y693169D01*
X867695Y692672*
Y696150*
X870286Y682672D02*
X871650Y684991D01*
X869605*
X870286Y682672D02*
Y686150D01*
X866605Y683831D02*
X866741Y684328D01*
X867014Y684659*
X867423Y684825*
X867559*
X867968Y684659*
X868241Y684328*
X868377Y683831*
Y683666*
X868241Y683169*
X867968Y682837*
X867968D02*
X867559Y682672D01*
X867423*
X867014Y682837*
X867014D02*
X866741Y683169D01*
X866605Y683831*
Y684659*
X866741Y685487*
X866741D02*
X867014Y685984D01*
X867423Y686150*
X867695*
X868105Y685984*
X868241Y685653*
X838286Y672672D02*
X839650Y674991D01*
X837605*
X838286Y672672D02*
Y676150D01*
X835695Y672672D02*
X836105Y672837D01*
X836105D02*
X836241Y673169D01*
Y673500*
X836105Y673831*
X835832Y673997*
X835286Y674162*
X835286D02*
X834877Y674328D01*
X834605Y674659*
X834468Y674991*
Y675487*
X834468D02*
X834605Y675819D01*
X834741Y675984*
X835150Y676150*
X835695*
X836105Y675984*
X836241Y675819*
X836377Y675487*
X836377D02*
Y674991D01*
X836241Y674659*
X835968Y674328*
X835559Y674162*
X835559D02*
X835014Y673997D01*
X834741Y673831*
X834605Y673500*
Y673169*
X834741Y672837*
X834741D02*
X835150Y672672D01*
X835695*
X837877Y682672D02*
X839241D01*
X839377Y684162*
X839377D02*
X839241Y683997D01*
X838832Y683831*
X838423*
X838014Y683997*
X837741Y684328*
X837605Y684825*
X837741Y685156*
X837877Y685653*
X838150Y685984*
X838559Y686150*
X838968*
X839377Y685984*
X839514Y685819*
X839650Y685487*
X835559Y682672D02*
X835968Y682837D01*
X835968D02*
X836241Y683334D01*
X836377Y684162*
X836377D02*
Y684659D01*
X836241Y685487*
X836241D02*
X835968Y685984D01*
X835559Y686150*
X835286*
X834877Y685984*
X834605Y685487*
X834605D02*
X834468Y684659D01*
Y684162*
X834468D02*
X834605Y683334D01*
X834877Y682837*
X834877D02*
X835286Y682672D01*
X835559*
X870286Y672672D02*
X871650Y674991D01*
X869605*
X870286Y672672D02*
Y676150D01*
X866468Y672672D02*
X867832Y676150D01*
X868377Y672672D02*
X866468D01*
X870286Y662672D02*
X871650Y664991D01*
X869605*
X870286Y662672D02*
Y666150D01*
X866605Y662672D02*
X867968D01*
X868105Y664162*
X868105D02*
X867968Y663997D01*
X867559Y663831*
X867150*
X866741Y663997*
X866468Y664328*
X866332Y664825*
X866468Y665156*
X866605Y665653*
X866877Y665984*
X867286Y666150*
X867695*
X868105Y665984*
X868241Y665819*
X868377Y665487*
X870286Y652672D02*
X871650Y654991D01*
X869605*
X870286Y652672D02*
Y656150D01*
X868105Y652672D02*
X866605D01*
X867423Y653997*
X867014*
X866741Y654162*
X866741D02*
X866605Y654328D01*
X866468Y654825*
Y655156*
X866605Y655653*
X866877Y655984*
X867286Y656150*
X867695*
X868105Y655984*
X868241Y655819*
X868377Y655487*
X870286Y642672D02*
X871650Y644991D01*
X869605*
X870286Y642672D02*
Y646150D01*
X868377Y643334D02*
X868105Y643169D01*
X867695Y642672*
Y646150*
X838286Y652672D02*
X839650Y654991D01*
X837605*
X838286Y652672D02*
Y656150D01*
X835014Y652672D02*
X836377Y654991D01*
X834332*
X835014Y652672D02*
Y656150D01*
X838286Y662672D02*
X839650Y664991D01*
X837605*
X838286Y662672D02*
Y666150D01*
X834741Y663169D02*
X834877Y662837D01*
X834877D02*
X835286Y662672D01*
X835559*
X835968Y662837*
X835968D02*
X836241Y663334D01*
X836377Y664162*
X836377D02*
Y664991D01*
X836241Y665653*
X835968Y665984*
X835559Y666150*
X835423*
X835014Y665984*
X834741Y665653*
X834605Y665156*
Y664991*
X834741Y664494*
X835014Y664162*
X835014D02*
X835423Y663997D01*
X835559*
X835968Y664162*
X835968D02*
X836241Y664494D01*
X836377Y664991*
X838286Y642672D02*
X839650Y644991D01*
X837605*
X838286Y642672D02*
Y646150D01*
X836241Y643500D02*
Y643334D01*
X836105Y643003*
X835968Y642837*
X835968D02*
X835695Y642672D01*
X835150*
X834877Y642837*
X834877D02*
X834741Y643003D01*
X834605Y643334*
Y643666*
X834741Y643997*
X835014Y644494*
X836377Y646150*
X834468*
X838286Y632672D02*
X839650Y634991D01*
X837605*
X838286Y632672D02*
Y636150D01*
X835559Y632672D02*
X835968Y632837D01*
X835968D02*
X836241Y633334D01*
X836377Y634162*
X836377D02*
Y634659D01*
X836241Y635487*
X836241D02*
X835968Y635984D01*
X835559Y636150*
X835286*
X834877Y635984*
X834605Y635487*
X834605D02*
X834468Y634659D01*
Y634162*
X834468D02*
X834605Y633334D01*
X834877Y632837*
X834877D02*
X835286Y632672D01*
X835559*
X839377Y622672D02*
X837877D01*
X838695Y623997*
X838286*
X838014Y624162*
X838014D02*
X837877Y624328D01*
X837741Y624825*
Y625156*
X837877Y625653*
X838150Y625984*
X838559Y626150*
X838968*
X839377Y625984*
X839514Y625819*
X839650Y625487*
X835832Y622672D02*
X836241Y622837D01*
X836241D02*
X836377Y623169D01*
Y623500*
X836241Y623831*
X835968Y623997*
X835423Y624162*
X835423D02*
X835014Y624328D01*
X834741Y624659*
X834605Y624991*
Y625487*
X834605D02*
X834741Y625819D01*
X834877Y625984*
X835286Y626150*
X835832*
X836241Y625984*
X836377Y625819*
X836514Y625487*
X836514D02*
Y624991D01*
X836377Y624659*
X836105Y624328*
X835695Y624162*
X835695D02*
X835150Y623997D01*
X834877Y623831*
X834741Y623500*
Y623169*
X834877Y622837*
X834877D02*
X835286Y622672D01*
X835832*
X871377Y632672D02*
X869877D01*
X870695Y633997*
X870286*
X870014Y634162*
X870014D02*
X869877Y634328D01*
X869741Y634825*
Y635156*
X869877Y635653*
X870150Y635984*
X870559Y636150*
X870968*
X871377Y635984*
X871514Y635819*
X871650Y635487*
X866741Y633831D02*
X866877Y634328D01*
X867150Y634659*
X867559Y634825*
X867695*
X868105Y634659*
X868377Y634328*
X868514Y633831*
Y633666*
X868377Y633169*
X868105Y632837*
X868105D02*
X867695Y632672D01*
X867559*
X867150Y632837*
X867150D02*
X866877Y633169D01*
X866741Y633831*
Y634659*
X866877Y635487*
X866877D02*
X867150Y635984D01*
X867559Y636150*
X867832*
X868241Y635984*
X868377Y635653*
X871377Y622672D02*
X869877D01*
X870695Y623997*
X870286*
X870014Y624162*
X870014D02*
X869877Y624328D01*
X869741Y624825*
Y625156*
X869877Y625653*
X870150Y625984*
X870559Y626150*
X870968*
X871377Y625984*
X871514Y625819*
X871650Y625487*
X866605Y622672D02*
X867968Y626150D01*
X868514Y622672D02*
X866605D01*
X871377Y612672D02*
X869877D01*
X870695Y613997*
X870286*
X870014Y614162*
X870014D02*
X869877Y614328D01*
X869741Y614825*
Y615156*
X869877Y615653*
X870150Y615984*
X870559Y616150*
X870968*
X871377Y615984*
X871514Y615819*
X871650Y615487*
X866741Y612672D02*
X868105D01*
X868241Y614162*
X868241D02*
X868105Y613997D01*
X867695Y613831*
X867286*
X866877Y613997*
X866605Y614328*
X866468Y614825*
X866605Y615156*
X866741Y615653*
X867014Y615984*
X867423Y616150*
X867832*
X868241Y615984*
X868377Y615819*
X868514Y615487*
X871377Y602672D02*
X869877D01*
X870695Y603997*
X870286*
X870014Y604162*
X870014D02*
X869877Y604328D01*
X869741Y604825*
Y605156*
X869877Y605653*
X870150Y605984*
X870559Y606150*
X870968*
X871377Y605984*
X871514Y605819*
X871650Y605487*
X868241Y602672D02*
X866741D01*
X867559Y603997*
X867150*
X866877Y604162*
X866877D02*
X866741Y604328D01*
X866605Y604825*
Y605156*
X866741Y605653*
X867014Y605984*
X867423Y606150*
X867832*
X868241Y605984*
X868377Y605819*
X868514Y605487*
X839377Y602672D02*
X837877D01*
X838695Y603997*
X838286*
X838014Y604162*
X838014D02*
X837877Y604328D01*
X837741Y604825*
Y605156*
X837877Y605653*
X838150Y605984*
X838559Y606150*
X838968*
X839377Y605984*
X839514Y605819*
X839650Y605487*
X835150Y602672D02*
X836514Y604991D01*
X834468*
X835150Y602672D02*
Y606150D01*
X839377Y612672D02*
X837877D01*
X838695Y613997*
X838286*
X838014Y614162*
X838014D02*
X837877Y614328D01*
X837741Y614825*
Y615156*
X837877Y615653*
X838150Y615984*
X838559Y616150*
X838968*
X839377Y615984*
X839514Y615819*
X839650Y615487*
X834877Y613169D02*
X835014Y612837D01*
X835014D02*
X835423Y612672D01*
X835695*
X836105Y612837*
X836105D02*
X836377Y613334D01*
X836514Y614162*
X836514D02*
Y614991D01*
X836377Y615653*
X836105Y615984*
X835695Y616150*
X835559*
X835150Y615984*
X834877Y615653*
X834741Y615156*
Y614991*
X834877Y614494*
X835150Y614162*
X835150D02*
X835559Y613997D01*
X835695*
X836105Y614162*
X836105D02*
X836377Y614494D01*
X836514Y614991*
X817516Y599168D02*
Y600918D01*
X819091Y599964*
Y600441*
X819287Y600759*
X819287D02*
X819484Y600918D01*
X820075Y601077*
X820469*
X821059Y600918*
X821453Y600600*
X821650Y600123*
Y599645*
X821453Y599168*
X821256Y599009*
X820862Y598850*
X818500Y602668D02*
X818303D01*
X817909Y602827*
X817712Y602986*
X817712D02*
X817516Y603305D01*
Y603941*
X817712Y604259*
X817712D02*
X817909Y604418D01*
X818303Y604577*
X818697*
X819091Y604418*
X819681Y604100*
X821650Y602509*
Y604736*
X718303Y598850D02*
X718106Y599168D01*
X717516Y599645*
X721650*
X718500Y601236D02*
X718303D01*
X717909Y601395*
X717712Y601555*
X717712D02*
X717516Y601873D01*
Y602509*
X717712Y602827*
X717712D02*
X717909Y602986D01*
X718303Y603145*
X718697*
X719091Y602986*
X719681Y602668*
X721650Y601077*
Y603305*
X708303Y598850D02*
X708106Y599168D01*
X707516Y599645*
X711650*
X707516Y602032D02*
X707712Y601555D01*
X707712D02*
X708303Y601236D01*
X709287Y601077*
X709287D02*
X709878D01*
X710862Y601236*
X710862D02*
X711453Y601555D01*
X711650Y602032*
Y602350*
X711453Y602827*
X710862Y603145*
X710862D02*
X709878Y603305D01*
X709287*
X709287D02*
X708303Y603145D01*
X707712Y602827*
X707712D02*
X707516Y602350D01*
Y602032*
X788172Y771532D02*
X788337Y771123D01*
X788337D02*
X788669Y770986D01*
X789000*
X789331Y771123*
X789497Y771395*
X789662Y771941*
X789662D02*
X789828Y772350D01*
X790159Y772623*
X790491Y772759*
X790987*
X790987D02*
X791319Y772623D01*
X791484Y772486*
X791650Y772077*
Y771532*
X791484Y771123*
X791319Y770986*
X790987Y770850*
X790987D02*
X790491D01*
X790159Y770986*
X789828Y771259*
X789662Y771668*
X789662D02*
X789497Y772214D01*
X789331Y772486*
X789000Y772623*
X788669*
X788337Y772486*
X788337D02*
X788172Y772077D01*
Y771532*
Y774805D02*
X788337Y774395D01*
X788337D02*
X788834Y774123D01*
X789662Y773986*
X789662D02*
X790159D01*
X790987Y774123*
X790987D02*
X791484Y774395D01*
X791650Y774805*
Y775077*
X791484Y775486*
X790987Y775759*
X790987D02*
X790159Y775895D01*
X789662*
X789662D02*
X788834Y775759D01*
X788337Y775486*
X788337D02*
X788172Y775077D01*
Y774805*
X778172Y805532D02*
X778337Y805123D01*
X778337D02*
X778669Y804986D01*
X779000*
X779331Y805123*
X779497Y805395*
X779662Y805941*
X779662D02*
X779828Y806350D01*
X780159Y806623*
X780491Y806759*
X780987*
X780987D02*
X781319Y806623D01*
X781484Y806486*
X781650Y806077*
Y805532*
X781484Y805123*
X781319Y804986*
X780987Y804850*
X780987D02*
X780491D01*
X780159Y804986*
X779828Y805259*
X779662Y805668*
X779662D02*
X779497Y806214D01*
X779331Y806486*
X779000Y806623*
X778669*
X778337Y806486*
X778337D02*
X778172Y806077D01*
Y805532*
X778834Y807986D02*
X778669Y808259D01*
X778172Y808668*
X781650*
X768172Y805532D02*
X768337Y805123D01*
X768337D02*
X768669Y804986D01*
X769000*
X769331Y805123*
X769497Y805395*
X769662Y805941*
X769662D02*
X769828Y806350D01*
X770159Y806623*
X770491Y806759*
X770987*
X770987D02*
X771319Y806623D01*
X771484Y806486*
X771650Y806077*
Y805532*
X771484Y805123*
X771319Y804986*
X770987Y804850*
X770987D02*
X770491D01*
X770159Y804986*
X769828Y805259*
X769662Y805668*
X769662D02*
X769497Y806214D01*
X769331Y806486*
X769000Y806623*
X768669*
X768337Y806486*
X768337D02*
X768172Y806077D01*
Y805532*
Y808259D02*
Y809759D01*
X769497Y808941*
Y809350*
X769662Y809623*
X769662D02*
X769828Y809759D01*
X770325Y809895*
X770656*
X771153Y809759*
X771484Y809486*
X771650Y809077*
Y808668*
X771484Y808259*
X771319Y808123*
X770987Y807986*
X758172Y805532D02*
X758337Y805123D01*
X758337D02*
X758669Y804986D01*
X759000*
X759331Y805123*
X759497Y805395*
X759662Y805941*
X759662D02*
X759828Y806350D01*
X760159Y806623*
X760491Y806759*
X760987*
X760987D02*
X761319Y806623D01*
X761484Y806486*
X761650Y806077*
Y805532*
X761484Y805123*
X761319Y804986*
X760987Y804850*
X760987D02*
X760491D01*
X760159Y804986*
X759828Y805259*
X759662Y805668*
X759662D02*
X759497Y806214D01*
X759331Y806486*
X759000Y806623*
X758669*
X758337Y806486*
X758337D02*
X758172Y806077D01*
Y805532*
Y809759D02*
Y808395D01*
X759662Y808259*
X759662D02*
X759497Y808395D01*
X759331Y808805*
Y809214*
X759497Y809623*
X759828Y809895*
X760325Y810032*
X760656Y809895*
X761153Y809759*
X761484Y809486*
X761650Y809077*
Y808668*
X761484Y808259*
X761319Y808123*
X760987Y807986*
X748172Y805532D02*
X748337Y805123D01*
X748337D02*
X748669Y804986D01*
X749000*
X749331Y805123*
X749497Y805395*
X749662Y805941*
X749662D02*
X749828Y806350D01*
X750159Y806623*
X750491Y806759*
X750987*
X750987D02*
X751319Y806623D01*
X751484Y806486*
X751650Y806077*
Y805532*
X751484Y805123*
X751319Y804986*
X750987Y804850*
X750987D02*
X750491D01*
X750159Y804986*
X749828Y805259*
X749662Y805668*
X749662D02*
X749497Y806214D01*
X749331Y806486*
X749000Y806623*
X748669*
X748337Y806486*
X748337D02*
X748172Y806077D01*
Y805532*
Y809895D02*
X751650Y808532D01*
X748172Y807986D02*
Y809895D01*
X738172Y805532D02*
X738337Y805123D01*
X738337D02*
X738669Y804986D01*
X739000*
X739331Y805123*
X739497Y805395*
X739662Y805941*
X739662D02*
X739828Y806350D01*
X740159Y806623*
X740491Y806759*
X740987*
X740987D02*
X741319Y806623D01*
X741484Y806486*
X741650Y806077*
Y805532*
X741484Y805123*
X741319Y804986*
X740987Y804850*
X740987D02*
X740491D01*
X740159Y804986*
X739828Y805259*
X739662Y805668*
X739662D02*
X739497Y806214D01*
X739331Y806486*
X739000Y806623*
X738669*
X738337Y806486*
X738337D02*
X738172Y806077D01*
Y805532*
X739331Y809759D02*
X739828Y809623D01*
X740159Y809350*
X740325Y808941*
Y808805*
X740159Y808395*
X739828Y808123*
X739331Y807986*
X739166*
X738669Y808123*
X738337Y808395*
X738337D02*
X738172Y808805D01*
Y808941*
X738337Y809350*
X738337D02*
X738669Y809623D01*
X739331Y809759*
X740159*
X740987Y809623*
X740987D02*
X741484Y809350D01*
X741650Y808941*
Y808668*
X741484Y808259*
X741153Y808123*
X729331Y806623D02*
X729828Y806486D01*
X730159Y806214*
X730325Y805805*
Y805668*
X730159Y805259*
X729828Y804986*
X729331Y804850*
X729166*
X728669Y804986*
X728337Y805259*
X728337D02*
X728172Y805668D01*
Y805805*
X728337Y806214*
X728337D02*
X728669Y806486D01*
X729331Y806623*
X730159*
X730987Y806486*
X730987D02*
X731484Y806214D01*
X731650Y805805*
Y805532*
X731484Y805123*
X731153Y804986*
X728834Y807850D02*
X728669Y808123D01*
X728172Y808532*
X731650*
X719331Y806623D02*
X719828Y806486D01*
X720159Y806214*
X720325Y805805*
Y805668*
X720159Y805259*
X719828Y804986*
X719331Y804850*
X719166*
X718669Y804986*
X718337Y805259*
X718337D02*
X718172Y805668D01*
Y805805*
X718337Y806214*
X718337D02*
X718669Y806486D01*
X719331Y806623*
X720159*
X720987Y806486*
X720987D02*
X721484Y806214D01*
X721650Y805805*
Y805532*
X721484Y805123*
X721153Y804986*
X718172Y808123D02*
Y809623D01*
X719497Y808805*
Y809214*
X719662Y809486*
X719662D02*
X719828Y809623D01*
X720325Y809759*
X720656*
X721153Y809623*
X721484Y809350*
X721650Y808941*
Y808532*
X721484Y808123*
X721319Y807986*
X720987Y807850*
X709331Y806623D02*
X709828Y806486D01*
X710159Y806214*
X710325Y805805*
Y805668*
X710159Y805259*
X709828Y804986*
X709331Y804850*
X709166*
X708669Y804986*
X708337Y805259*
X708337D02*
X708172Y805668D01*
Y805805*
X708337Y806214*
X708337D02*
X708669Y806486D01*
X709331Y806623*
X710159*
X710987Y806486*
X710987D02*
X711484Y806214D01*
X711650Y805805*
Y805532*
X711484Y805123*
X711153Y804986*
X708172Y809623D02*
Y808259D01*
X709662Y808123*
X709662D02*
X709497Y808259D01*
X709331Y808668*
Y809077*
X709497Y809486*
X709828Y809759*
X710325Y809895*
X710656Y809759*
X711153Y809623*
X711484Y809350*
X711650Y808941*
Y808532*
X711484Y808123*
X711319Y807986*
X710987Y807850*
X778172Y771532D02*
X778337Y771123D01*
X778337D02*
X778669Y770986D01*
X779000*
X779331Y771123*
X779497Y771395*
X779662Y771941*
X779662D02*
X779828Y772350D01*
X780159Y772623*
X780491Y772759*
X780987*
X780987D02*
X781319Y772623D01*
X781484Y772486*
X781650Y772077*
Y771532*
X781484Y771123*
X781319Y770986*
X780987Y770850*
X780987D02*
X780491D01*
X780159Y770986*
X779828Y771259*
X779662Y771668*
X779662D02*
X779497Y772214D01*
X779331Y772486*
X779000Y772623*
X778669*
X778337Y772486*
X778337D02*
X778172Y772077D01*
Y771532*
X779000Y774123D02*
X778834D01*
X778503Y774259*
X778337Y774395*
X778337D02*
X778172Y774668D01*
Y775214*
X778337Y775486*
X778337D02*
X778503Y775623D01*
X778834Y775759*
X779166*
X779497Y775623*
X779994Y775350*
X781650Y773986*
Y775895*
X768172Y771532D02*
X768337Y771123D01*
X768337D02*
X768669Y770986D01*
X769000*
X769331Y771123*
X769497Y771395*
X769662Y771941*
X769662D02*
X769828Y772350D01*
X770159Y772623*
X770491Y772759*
X770987*
X770987D02*
X771319Y772623D01*
X771484Y772486*
X771650Y772077*
Y771532*
X771484Y771123*
X771319Y770986*
X770987Y770850*
X770987D02*
X770491D01*
X770159Y770986*
X769828Y771259*
X769662Y771668*
X769662D02*
X769497Y772214D01*
X769331Y772486*
X769000Y772623*
X768669*
X768337Y772486*
X768337D02*
X768172Y772077D01*
Y771532*
Y775350D02*
X770491Y773986D01*
Y776032*
X768172Y775350D02*
X771650D01*
X758172Y771532D02*
X758337Y771123D01*
X758337D02*
X758669Y770986D01*
X759000*
X759331Y771123*
X759497Y771395*
X759662Y771941*
X759662D02*
X759828Y772350D01*
X760159Y772623*
X760491Y772759*
X760987*
X760987D02*
X761319Y772623D01*
X761484Y772486*
X761650Y772077*
Y771532*
X761484Y771123*
X761319Y770986*
X760987Y770850*
X760987D02*
X760491D01*
X760159Y770986*
X759828Y771259*
X759662Y771668*
X759662D02*
X759497Y772214D01*
X759331Y772486*
X759000Y772623*
X758669*
X758337Y772486*
X758337D02*
X758172Y772077D01*
Y771532*
X758669Y775623D02*
X758337Y775486D01*
X758337D02*
X758172Y775077D01*
Y774805*
X758337Y774395*
X758337D02*
X758834Y774123D01*
X759662Y773986*
X759662D02*
X760491D01*
X761153Y774123*
X761484Y774395*
X761650Y774805*
Y774941*
X761484Y775350*
X761153Y775623*
X760656Y775759*
X760491*
X759994Y775623*
X759662Y775350*
X759662D02*
X759497Y774941D01*
Y774805*
X759662Y774395*
X759662D02*
X759994Y774123D01*
X760491Y773986*
X748172Y771532D02*
X748337Y771123D01*
X748337D02*
X748669Y770986D01*
X749000*
X749331Y771123*
X749497Y771395*
X749662Y771941*
X749662D02*
X749828Y772350D01*
X750159Y772623*
X750491Y772759*
X750987*
X750987D02*
X751319Y772623D01*
X751484Y772486*
X751650Y772077*
Y771532*
X751484Y771123*
X751319Y770986*
X750987Y770850*
X750987D02*
X750491D01*
X750159Y770986*
X749828Y771259*
X749662Y771668*
X749662D02*
X749497Y772214D01*
X749331Y772486*
X749000Y772623*
X748669*
X748337Y772486*
X748337D02*
X748172Y772077D01*
Y771532*
Y774668D02*
X748337Y774259D01*
X748337D02*
X748669Y774123D01*
X749000*
X749331Y774259*
X749497Y774532*
X749662Y775077*
X749662D02*
X749828Y775486D01*
X750159Y775759*
X750491Y775895*
X750987*
X750987D02*
X751319Y775759D01*
X751484Y775623*
X751650Y775214*
Y774668*
X751484Y774259*
X751319Y774123*
X750987Y773986*
X750987D02*
X750491D01*
X750159Y774123*
X749828Y774395*
X749662Y774805*
X749662D02*
X749497Y775350D01*
X749331Y775623*
X749000Y775759*
X748669*
X748337Y775623*
X748337D02*
X748172Y775214D01*
Y774668*
X739331Y772623D02*
X739828Y772486D01*
X740159Y772214*
X740325Y771805*
Y771668*
X740159Y771259*
X739828Y770986*
X739331Y770850*
X739166*
X738669Y770986*
X738337Y771259*
X738337D02*
X738172Y771668D01*
Y771805*
X738337Y772214*
X738337D02*
X738669Y772486D01*
X739331Y772623*
X740159*
X740987Y772486*
X740987D02*
X741484Y772214D01*
X741650Y771805*
Y771532*
X741484Y771123*
X741153Y770986*
X738172Y774668D02*
X738337Y774259D01*
X738337D02*
X738834Y773986D01*
X739662Y773850*
X739662D02*
X740159D01*
X740987Y773986*
X740987D02*
X741484Y774259D01*
X741650Y774668*
Y774941*
X741484Y775350*
X740987Y775623*
X740987D02*
X740159Y775759D01*
X739662*
X739662D02*
X738834Y775623D01*
X738337Y775350*
X738337D02*
X738172Y774941D01*
Y774668*
X729331Y772623D02*
X729828Y772486D01*
X730159Y772214*
X730325Y771805*
Y771668*
X730159Y771259*
X729828Y770986*
X729331Y770850*
X729166*
X728669Y770986*
X728337Y771259*
X728337D02*
X728172Y771668D01*
Y771805*
X728337Y772214*
X728337D02*
X728669Y772486D01*
X729331Y772623*
X730159*
X730987Y772486*
X730987D02*
X731484Y772214D01*
X731650Y771805*
Y771532*
X731484Y771123*
X731153Y770986*
X729000Y773986D02*
X728834D01*
X728503Y774123*
X728337Y774259*
X728337D02*
X728172Y774532D01*
Y775077*
X728337Y775350*
X728337D02*
X728503Y775486D01*
X728834Y775623*
X729166*
X729497Y775486*
X729994Y775214*
X731650Y773850*
Y775759*
X719331Y772623D02*
X719828Y772486D01*
X720159Y772214*
X720325Y771805*
Y771668*
X720159Y771259*
X719828Y770986*
X719331Y770850*
X719166*
X718669Y770986*
X718337Y771259*
X718337D02*
X718172Y771668D01*
Y771805*
X718337Y772214*
X718337D02*
X718669Y772486D01*
X719331Y772623*
X720159*
X720987Y772486*
X720987D02*
X721484Y772214D01*
X721650Y771805*
Y771532*
X721484Y771123*
X721153Y770986*
X718172Y775214D02*
X720491Y773850D01*
Y775895*
X718172Y775214D02*
X721650D01*
X709331Y772623D02*
X709828Y772486D01*
X710159Y772214*
X710325Y771805*
Y771668*
X710159Y771259*
X709828Y770986*
X709331Y770850*
X709166*
X708669Y770986*
X708337Y771259*
X708337D02*
X708172Y771668D01*
Y771805*
X708337Y772214*
X708337D02*
X708669Y772486D01*
X709331Y772623*
X710159*
X710987Y772486*
X710987D02*
X711484Y772214D01*
X711650Y771805*
Y771532*
X711484Y771123*
X711153Y770986*
X708669Y775486D02*
X708337Y775350D01*
X708337D02*
X708172Y774941D01*
Y774668*
X708337Y774259*
X708337D02*
X708834Y773986D01*
X709662Y773850*
X709662D02*
X710491D01*
X711153Y773986*
X711484Y774259*
X711650Y774668*
Y774805*
X711484Y775214*
X711153Y775486*
X710656Y775623*
X710491*
X709994Y775486*
X709662Y775214*
X709662D02*
X709497Y774805D01*
Y774668*
X709662Y774259*
X709662D02*
X709994Y773986D01*
X710491Y773850*
X616350Y797666D02*
X616623Y797831D01*
X617032Y798328*
Y794850*
X619077Y798328D02*
X618668Y798162D01*
X618668D02*
X618395Y797666D01*
X618259Y796837*
X618259D02*
Y796341D01*
X618395Y795512*
X618395D02*
X618668Y795016D01*
X619077Y794850*
X619350*
X619759Y795016*
X620032Y795512*
X620032D02*
X620168Y796341D01*
Y796837*
X620168D02*
X620032Y797666D01*
X619759Y798162*
X619759D02*
X619350Y798328D01*
X619077*
X623168D02*
X621805D01*
X621668Y796837*
X621668D02*
X621805Y797003D01*
X622214Y797169*
X622623*
X623032Y797003*
X623305Y796672*
X623441Y796175*
X623305Y795844*
X623168Y795347*
X622895Y795016*
X622486Y794850*
X622077*
X621668Y795016*
X621532Y795181*
X621395Y795512*
X616350Y787666D02*
X616623Y787831D01*
X617032Y788328*
Y784850*
X619077Y788328D02*
X618668Y788162D01*
X618668D02*
X618395Y787666D01*
X618259Y786837*
X618259D02*
Y786341D01*
X618395Y785512*
X618395D02*
X618668Y785016D01*
X619077Y784850*
X619350*
X619759Y785016*
X620032Y785512*
X620032D02*
X620168Y786341D01*
Y786837*
X620168D02*
X620032Y787666D01*
X619759Y788162*
X619759D02*
X619350Y788328D01*
X619077*
X623305D02*
X621941Y784850D01*
X621395Y788328D02*
X623305D01*
X616350Y777666D02*
X616623Y777831D01*
X617032Y778328*
Y774850*
X619077Y778328D02*
X618668Y778162D01*
X618668D02*
X618395Y777666D01*
X618259Y776837*
X618259D02*
Y776341D01*
X618395Y775512*
X618395D02*
X618668Y775016D01*
X619077Y774850*
X619350*
X619759Y775016*
X620032Y775512*
X620032D02*
X620168Y776341D01*
Y776837*
X620168D02*
X620032Y777666D01*
X619759Y778162*
X619759D02*
X619350Y778328D01*
X619077*
X623168Y777169D02*
X623032Y776672D01*
X622759Y776341*
X622350Y776175*
X622214*
X621805Y776341*
X621532Y776672*
X621395Y777169*
Y777334*
X621532Y777831*
X621805Y778162*
X621805D02*
X622214Y778328D01*
X622350*
X622759Y778162*
X622759D02*
X623032Y777831D01*
X623168Y777169*
Y776341*
X623032Y775512*
X623032D02*
X622759Y775016D01*
X622350Y774850*
X622077*
X621668Y775016*
X621532Y775347*
X616350Y767666D02*
X616623Y767831D01*
X617032Y768328*
Y764850*
X618259Y767666D02*
X618532Y767831D01*
X618941Y768328*
Y764850*
X620168Y767666D02*
X620441Y767831D01*
X620850Y768328*
Y764850*
X616350Y757666D02*
X616623Y757831D01*
X617032Y758328*
Y754850*
X618259Y757666D02*
X618532Y757831D01*
X618941Y758328*
Y754850*
X620441Y758328D02*
X621941D01*
X621123Y757003*
X621532*
X621805Y756837*
X621805D02*
X621941Y756672D01*
X622077Y756175*
Y755844*
X621941Y755347*
X621668Y755016*
X621259Y754850*
X620850*
X620441Y755016*
X620305Y755181*
X620168Y755512*
X616350Y747666D02*
X616623Y747831D01*
X617032Y748328*
Y744850*
X618259Y747666D02*
X618532Y747831D01*
X618941Y748328*
Y744850*
X621941Y748328D02*
X620577D01*
X620441Y746837*
X620441D02*
X620577Y747003D01*
X620986Y747169*
X621395*
X621805Y747003*
X622077Y746672*
X622214Y746175*
X622077Y745844*
X621941Y745347*
X621668Y745016*
X621259Y744850*
X620850*
X620441Y745016*
X620305Y745181*
X620168Y745512*
X616350Y737666D02*
X616623Y737831D01*
X617032Y738328*
Y734850*
X618259Y737666D02*
X618532Y737831D01*
X618941Y738328*
Y734850*
X622077Y738328D02*
X620714Y734850D01*
X620168Y738328D02*
X622077D01*
X616350Y727666D02*
X616623Y727831D01*
X617032Y728328*
Y724850*
X618259Y727666D02*
X618532Y727831D01*
X618941Y728328*
Y724850*
X621941Y727169D02*
X621805Y726672D01*
X621532Y726341*
X621123Y726175*
X620986*
X620577Y726341*
X620305Y726672*
X620168Y727169*
Y727334*
X620305Y727831*
X620577Y728162*
X620577D02*
X620986Y728328D01*
X621123*
X621532Y728162*
X621532D02*
X621805Y727831D01*
X621941Y727169*
Y726341*
X621805Y725512*
X621805D02*
X621532Y725016D01*
X621123Y724850*
X620850*
X620441Y725016*
X620305Y725347*
X650350Y797666D02*
X650623Y797831D01*
X651032Y798328*
Y794850*
X653077Y798328D02*
X652668Y798162D01*
X652668D02*
X652395Y797666D01*
X652259Y796837*
X652259D02*
Y796341D01*
X652395Y795512*
X652395D02*
X652668Y795016D01*
X653077Y794850*
X653350*
X653759Y795016*
X654032Y795512*
X654032D02*
X654168Y796341D01*
Y796837*
X654168D02*
X654032Y797666D01*
X653759Y798162*
X653759D02*
X653350Y798328D01*
X653077*
X657032Y797831D02*
X656895Y798162D01*
X656895D02*
X656486Y798328D01*
X656214*
X655805Y798162*
X655805D02*
X655532Y797666D01*
X655395Y796837*
X655395D02*
Y796009D01*
X655532Y795347*
X655805Y795016*
X656214Y794850*
X656350*
X656759Y795016*
X657032Y795347*
X657168Y795844*
Y796009*
X657032Y796506*
X656759Y796837*
X656759D02*
X656350Y797003D01*
X656214*
X655805Y796837*
X655805D02*
X655532Y796506D01*
X655395Y796009*
X650350Y787666D02*
X650623Y787831D01*
X651032Y788328*
Y784850*
X653077Y788328D02*
X652668Y788162D01*
X652668D02*
X652395Y787666D01*
X652259Y786837*
X652259D02*
Y786341D01*
X652395Y785512*
X652395D02*
X652668Y785016D01*
X653077Y784850*
X653350*
X653759Y785016*
X654032Y785512*
X654032D02*
X654168Y786341D01*
Y786837*
X654168D02*
X654032Y787666D01*
X653759Y788162*
X653759D02*
X653350Y788328D01*
X653077*
X656077D02*
X655668Y788162D01*
X655668D02*
X655532Y787831D01*
Y787500*
X655668Y787169*
X655941Y787003*
X656486Y786837*
X656486D02*
X656895Y786672D01*
X657168Y786341*
X657305Y786009*
Y785512*
X657305D02*
X657168Y785181D01*
X657032Y785016*
X656623Y784850*
X656077*
X655668Y785016*
X655532Y785181*
X655395Y785512*
X655395D02*
Y786009D01*
X655532Y786341*
X655805Y786672*
X656214Y786837*
X656214D02*
X656759Y787003D01*
X657032Y787169*
X657168Y787500*
Y787831*
X657032Y788162*
X657032D02*
X656623Y788328D01*
X656077*
X650350Y777666D02*
X650623Y777831D01*
X651032Y778328*
Y774850*
X652259Y777666D02*
X652532Y777831D01*
X652941Y778328*
Y774850*
X654986Y778328D02*
X654577Y778162D01*
X654577D02*
X654305Y777666D01*
X654168Y776837*
X654168D02*
Y776341D01*
X654305Y775512*
X654305D02*
X654577Y775016D01*
X654986Y774850*
X655259*
X655668Y775016*
X655941Y775512*
X655941D02*
X656077Y776341D01*
Y776837*
X656077D02*
X655941Y777666D01*
X655668Y778162*
X655668D02*
X655259Y778328D01*
X654986*
X650350Y767666D02*
X650623Y767831D01*
X651032Y768328*
Y764850*
X652259Y767666D02*
X652532Y767831D01*
X652941Y768328*
Y764850*
X654305Y767500D02*
Y767666D01*
X654441Y767997*
X654577Y768162*
X654577D02*
X654850Y768328D01*
X655395*
X655668Y768162*
X655668D02*
X655805Y767997D01*
X655941Y767666*
Y767334*
X655805Y767003*
X655532Y766506*
X654168Y764850*
X656077*
X650350Y747666D02*
X650623Y747831D01*
X651032Y748328*
Y744850*
X652259Y747666D02*
X652532Y747831D01*
X652941Y748328*
Y744850*
X655805Y747831D02*
X655668Y748162D01*
X655668D02*
X655259Y748328D01*
X654986*
X654577Y748162*
X654577D02*
X654305Y747666D01*
X654168Y746837*
X654168D02*
Y746009D01*
X654305Y745347*
X654577Y745016*
X654986Y744850*
X655123*
X655532Y745016*
X655805Y745347*
X655941Y745844*
Y746009*
X655805Y746506*
X655532Y746837*
X655532D02*
X655123Y747003D01*
X654986*
X654577Y746837*
X654577D02*
X654305Y746506D01*
X654168Y746009*
X650350Y757666D02*
X650623Y757831D01*
X651032Y758328*
Y754850*
X652259Y757666D02*
X652532Y757831D01*
X652941Y758328*
Y754850*
X655532Y758328D02*
X654168Y756009D01*
X656214*
X655532Y758328D02*
Y754850D01*
X650350Y737666D02*
X650623Y737831D01*
X651032Y738328*
Y734850*
X652259Y737666D02*
X652532Y737831D01*
X652941Y738328*
Y734850*
X654850Y738328D02*
X654441Y738162D01*
X654441D02*
X654305Y737831D01*
Y737500*
X654441Y737169*
X654714Y737003*
X655259Y736837*
X655259D02*
X655668Y736672D01*
X655941Y736341*
X656077Y736009*
Y735512*
X656077D02*
X655941Y735181D01*
X655805Y735016*
X655395Y734850*
X654850*
X654441Y735016*
X654305Y735181*
X654168Y735512*
X654168D02*
Y736009D01*
X654305Y736341*
X654577Y736672*
X654986Y736837*
X654986D02*
X655532Y737003D01*
X655805Y737169*
X655941Y737500*
Y737831*
X655805Y738162*
X655805D02*
X655395Y738328D01*
X654850*
X650350Y727666D02*
X650623Y727831D01*
X651032Y728328*
Y724850*
X652395Y727500D02*
Y727666D01*
X652532Y727997*
X652668Y728162*
X652668D02*
X652941Y728328D01*
X653486*
X653759Y728162*
X653759D02*
X653895Y727997D01*
X654032Y727666*
Y727334*
X653895Y727003*
X653623Y726506*
X652259Y724850*
X654168*
X656214Y728328D02*
X655805Y728162D01*
X655805D02*
X655532Y727666D01*
X655395Y726837*
X655395D02*
Y726341D01*
X655532Y725512*
X655532D02*
X655805Y725016D01*
X656214Y724850*
X656486*
X656895Y725016*
X657168Y725512*
X657168D02*
X657305Y726341D01*
Y726837*
X657305D02*
X657168Y727666D01*
X656895Y728162*
X656895D02*
X656486Y728328D01*
X656214*
X650350Y717666D02*
X650623Y717831D01*
X651032Y718328*
Y714850*
X652395Y717500D02*
Y717666D01*
X652532Y717997*
X652668Y718162*
X652668D02*
X652941Y718328D01*
X653486*
X653759Y718162*
X653759D02*
X653895Y717997D01*
X654032Y717666*
Y717334*
X653895Y717003*
X653623Y716506*
X652259Y714850*
X654168*
X655532Y717500D02*
Y717666D01*
X655668Y717997*
X655805Y718162*
X655805D02*
X656077Y718328D01*
X656623*
X656895Y718162*
X656895D02*
X657032Y717997D01*
X657168Y717666*
Y717334*
X657032Y717003*
X656759Y716506*
X655395Y714850*
X657305*
X616350Y717666D02*
X616623Y717831D01*
X617032Y718328*
Y714850*
X618395Y717500D02*
Y717666D01*
X618532Y717997*
X618668Y718162*
X618668D02*
X618941Y718328D01*
X619486*
X619759Y718162*
X619759D02*
X619895Y717997D01*
X620032Y717666*
Y717334*
X619895Y717003*
X619623Y716506*
X618259Y714850*
X620168*
X621395Y717666D02*
X621668Y717831D01*
X622077Y718328*
Y714850*
X650350Y707666D02*
X650623Y707831D01*
X651032Y708328*
Y704850*
X652395Y707500D02*
Y707666D01*
X652532Y707997*
X652668Y708162*
X652668D02*
X652941Y708328D01*
X653486*
X653759Y708162*
X653759D02*
X653895Y707997D01*
X654032Y707666*
Y707334*
X653895Y707003*
X653623Y706506*
X652259Y704850*
X654168*
X656759Y708328D02*
X655395Y706009D01*
X657441*
X656759Y708328D02*
Y704850D01*
X650350Y697666D02*
X650623Y697831D01*
X651032Y698328*
Y694850*
X652395Y697500D02*
Y697666D01*
X652532Y697997*
X652668Y698162*
X652668D02*
X652941Y698328D01*
X653486*
X653759Y698162*
X653759D02*
X653895Y697997D01*
X654032Y697666*
Y697334*
X653895Y697003*
X653623Y696506*
X652259Y694850*
X654168*
X657032Y697831D02*
X656895Y698162D01*
X656895D02*
X656486Y698328D01*
X656214*
X655805Y698162*
X655805D02*
X655532Y697666D01*
X655395Y696837*
X655395D02*
Y696009D01*
X655532Y695347*
X655805Y695016*
X656214Y694850*
X656350*
X656759Y695016*
X657032Y695347*
X657168Y695844*
Y696009*
X657032Y696506*
X656759Y696837*
X656759D02*
X656350Y697003D01*
X656214*
X655805Y696837*
X655805D02*
X655532Y696506D01*
X655395Y696009*
X650350Y687666D02*
X650623Y687831D01*
X651032Y688328*
Y684850*
X652395Y687500D02*
Y687666D01*
X652532Y687997*
X652668Y688162*
X652668D02*
X652941Y688328D01*
X653486*
X653759Y688162*
X653759D02*
X653895Y687997D01*
X654032Y687666*
Y687334*
X653895Y687003*
X653623Y686506*
X652259Y684850*
X654168*
X656077Y688328D02*
X655668Y688162D01*
X655668D02*
X655532Y687831D01*
Y687500*
X655668Y687169*
X655941Y687003*
X656486Y686837*
X656486D02*
X656895Y686672D01*
X657168Y686341*
X657305Y686009*
Y685512*
X657305D02*
X657168Y685181D01*
X657032Y685016*
X656623Y684850*
X656077*
X655668Y685016*
X655532Y685181*
X655395Y685512*
X655395D02*
Y686009D01*
X655532Y686341*
X655805Y686672*
X656214Y686837*
X656214D02*
X656759Y687003D01*
X657032Y687169*
X657168Y687500*
Y687831*
X657032Y688162*
X657032D02*
X656623Y688328D01*
X656077*
X616350Y707666D02*
X616623Y707831D01*
X617032Y708328*
Y704850*
X618395Y707500D02*
Y707666D01*
X618532Y707997*
X618668Y708162*
X618668D02*
X618941Y708328D01*
X619486*
X619759Y708162*
X619759D02*
X619895Y707997D01*
X620032Y707666*
Y707334*
X619895Y707003*
X619623Y706506*
X618259Y704850*
X620168*
X621668Y708328D02*
X623168D01*
X622350Y707003*
X622759*
X623032Y706837*
X623032D02*
X623168Y706672D01*
X623305Y706175*
Y705844*
X623168Y705347*
X622895Y705016*
X622486Y704850*
X622077*
X621668Y705016*
X621532Y705181*
X621395Y705512*
X616350Y697666D02*
X616623Y697831D01*
X617032Y698328*
Y694850*
X618395Y697500D02*
Y697666D01*
X618532Y697997*
X618668Y698162*
X618668D02*
X618941Y698328D01*
X619486*
X619759Y698162*
X619759D02*
X619895Y697997D01*
X620032Y697666*
Y697334*
X619895Y697003*
X619623Y696506*
X618259Y694850*
X620168*
X623168Y698328D02*
X621805D01*
X621668Y696837*
X621668D02*
X621805Y697003D01*
X622214Y697169*
X622623*
X623032Y697003*
X623305Y696672*
X623441Y696175*
X623305Y695844*
X623168Y695347*
X622895Y695016*
X622486Y694850*
X622077*
X621668Y695016*
X621532Y695181*
X621395Y695512*
X616350Y687666D02*
X616623Y687831D01*
X617032Y688328*
Y684850*
X618395Y687500D02*
Y687666D01*
X618532Y687997*
X618668Y688162*
X618668D02*
X618941Y688328D01*
X619486*
X619759Y688162*
X619759D02*
X619895Y687997D01*
X620032Y687666*
Y687334*
X619895Y687003*
X619623Y686506*
X618259Y684850*
X620168*
X623305Y688328D02*
X621941Y684850D01*
X621395Y688328D02*
X623305D01*
X669000Y598986D02*
X668834D01*
X668503Y599123*
X668337Y599259*
X668337D02*
X668172Y599532D01*
Y600077*
X668337Y600350*
X668337D02*
X668503Y600486D01*
X668834Y600623*
X669166*
X669497Y600486*
X669994Y600214*
X671650Y598850*
Y600759*
X668834Y566850D02*
X668669Y567123D01*
X668172Y567532*
X671650*
X678172Y567123D02*
Y568623D01*
X679497Y567805*
Y568214*
X679662Y568486*
X679662D02*
X679828Y568623D01*
X680325Y568759*
X680656*
X681153Y568623*
X681484Y568350*
X681650Y567941*
Y567532*
X681484Y567123*
X681319Y566986*
X680987Y566850*
X688172Y568623D02*
Y567259D01*
X689662Y567123*
X689662D02*
X689497Y567259D01*
X689331Y567668*
Y568077*
X689497Y568486*
X689828Y568759*
X690325Y568895*
X690656Y568759*
X691153Y568623*
X691484Y568350*
X691650Y567941*
Y567532*
X691484Y567123*
X691319Y566986*
X690987Y566850*
X818172Y567123D02*
Y568623D01*
X819497Y567805*
Y568214*
X819662Y568486*
X819662D02*
X819828Y568623D01*
X820325Y568759*
X820656*
X821153Y568623*
X821484Y568350*
X821650Y567941*
Y567532*
X821484Y567123*
X821319Y566986*
X820987Y566850*
X818834Y569986D02*
X818669Y570259D01*
X818172Y570668*
X821650*
G74*
X0Y0D02*
M02*
