*
*
G04 PADS Layout (Build Number 2005.266.2) generated Gerber (RS-274-X) file*
G04 PC Version=2.1*
*
%IN "ATS2825_CHIPID_CORE_V1."*%
*
%MOIN*%
*
%FSLAX35Y35*%
*
*
*
*
G04 PC Standard Apertures*
*
*
G04 Thermal Relief Aperture macro.*
%AMTER*
1,1,$1,0,0*
1,0,$1-$2,0,0*
21,0,$3,$4,0,0,45*
21,0,$3,$4,0,0,135*
%
*
*
G04 Annular Aperture macro.*
%AMANN*
1,1,$1,0,0*
1,0,$2,0,0*
%
*
*
G04 Odd Aperture macro.*
%AMODD*
1,1,$1,0,0*
1,0,$1-0.005,0,0*
%
*
*
G04 PC Custom Aperture Macros*
*
*
*
*
*
*
G04 PC Aperture Table*
*
%ADD049C,0.01*%
%ADD123C,0.04043*%
%ADD140R,0.075X0.075*%
%ADD142C,0.13098*%
%ADD143C,0.09555*%
%ADD144C,0.06799*%
%ADD145C,0.055*%
%ADD146C,0.075*%
%ADD147R,0.02468X0.02468*%
%ADD148R,0.06799X0.06799*%
%ADD149C,0.04043*%
%ADD150R,0.06406X0.06406*%
*
*
*
*
G04 PC Copper Outlines (0)*
G04 Layer Name ATS2825_CHIPID_CORE_V1. - dark (0)*
%LPD*%
*
*
G04 PC Area=DRW83515280*
G75*
G36*
G01*
X805500Y658500D02*
X891900D01*
Y548100D01*
X805500D01*
Y658500D01*
G37*
G74*
*
*
G04 PC Copper Outlines (1)*
G04 Layer Name ATS2825_CHIPID_CORE_V1. - dark (1)*
%LPD*%
*
*
G04 PC Area=Custom_Thermal*
*
G04 PC Custom Flashes*
G04 Layer Name ATS2825_CHIPID_CORE_V1. - flashes*
%LPD*%
*
*
G04 PC Circuitry*
G04 Layer Name ATS2825_CHIPID_CORE_V1. - circuitry*
%LPD*%
*
G54D49*
G01X805500Y658500D02*
X891900D01*
Y548100*
X805500*
Y658500*
X565898Y829500D02*
G75*
G03X554700Y819506I-663J-10528D01*
G01X565900Y829500D02*
X871000D01*
X881000Y819501D02*
G03X871001Y829500I-11107J-1108D01*
G01X881000Y819500D02*
Y562100D01*
X870984Y552097D02*
G03X880999Y562094I-2734J12753D01*
G01X871000Y552100D02*
X565900D01*
X554699Y562107D02*
G03X565891Y552100I11332J1411D01*
G01X554700Y562100D02*
Y819500D01*
G54D123*
X732902Y670240D03*
X734476Y664256D03*
X736051Y658232D03*
X737626Y670240D03*
X739201Y664256D03*
X740776Y658232D03*
X742350Y670240D03*
X743925Y664256D03*
X745500Y658232D03*
X747075Y670240D03*
X748650Y664256D03*
X750224Y658232D03*
X751799Y670240D03*
X753374Y664256D03*
X754949Y658232D03*
X756524Y670240D03*
X758098Y664256D03*
X762626Y674768D03*
X768610Y676343D03*
X774634Y677917D03*
X762626Y679492D03*
X768610Y681067D03*
X774634Y682642D03*
X762626Y684217D03*
X768610Y685791D03*
X774634Y687366D03*
X762626Y688941D03*
X768610Y690516D03*
X774634Y692091D03*
X762626Y693665D03*
X768610Y695240D03*
X774634Y696815D03*
X762626Y698390D03*
X768610Y699965D03*
X758098Y704492D03*
X756524Y710476D03*
X754949Y716500D03*
X753374Y704492D03*
X751799Y710476D03*
X750224Y716500D03*
X748650Y704492D03*
X747075Y710476D03*
X745500Y716500D03*
X743925Y704492D03*
X742350Y710476D03*
X740776Y716500D03*
X739201Y704492D03*
X737626Y710476D03*
X736051Y716500D03*
X734476Y704492D03*
X732902Y710476D03*
X728374Y699965D03*
X722390Y698390D03*
X716366Y696815D03*
X728374Y695240D03*
X722390Y693665D03*
X716366Y692091D03*
X728374Y690516D03*
X722390Y688941D03*
X716366Y687366D03*
X728374Y685791D03*
X722390Y684217D03*
X716366Y682642D03*
X728374Y681067D03*
X722390Y679492D03*
X716366Y677917D03*
X728374Y676343D03*
X722390Y674768D03*
G54D140*
X602000Y566000D03*
Y599000D03*
G54D142*
X745500Y687366D03*
G54D143*
X702193Y659807D03*
Y714925D03*
X788807D03*
Y659807D03*
G54D144*
X719909Y716894D03*
X771091Y657839D03*
G54D145*
X669000Y579000D02*
Y581000D01*
Y589000D02*
Y591000D01*
X679000Y579000D02*
Y581000D01*
Y589000D02*
Y591000D01*
X689000Y579000D02*
Y581000D01*
Y589000D02*
Y591000D01*
X699000Y579000D02*
Y581000D01*
Y589000D02*
Y591000D01*
X709000Y579000D02*
Y581000D01*
Y589000D02*
Y591000D01*
X719000Y579000D02*
Y581000D01*
Y589000D02*
Y591000D01*
X729000Y579000D02*
Y581000D01*
Y589000D02*
Y591000D01*
X739000Y579000D02*
Y581000D01*
Y589000D02*
Y591000D01*
X749000Y579000D02*
Y581000D01*
Y589000D02*
Y591000D01*
X759000Y579000D02*
Y581000D01*
Y589000D02*
Y591000D01*
X769000Y579000D02*
Y581000D01*
Y589000D02*
Y591000D01*
X779000Y579000D02*
Y581000D01*
Y589000D02*
Y591000D01*
X789000Y579000D02*
Y581000D01*
Y589000D02*
Y591000D01*
X799000Y579000D02*
Y581000D01*
Y589000D02*
Y591000D01*
X809000Y579000D02*
Y581000D01*
Y589000D02*
Y591000D01*
X819000Y579000D02*
Y581000D01*
Y589000D02*
Y591000D01*
X857500Y604500D02*
X859500D01*
X847500D02*
X849500D01*
X857500Y614500D02*
X859500D01*
X847500D02*
X849500D01*
X857500Y624500D02*
X859500D01*
X847500D02*
X849500D01*
X857500Y634500D02*
X859500D01*
X847500D02*
X849500D01*
X857500Y644500D02*
X859500D01*
X847500D02*
X849500D01*
X857500Y654500D02*
X859500D01*
X847500D02*
X849500D01*
X857500Y664500D02*
X859500D01*
X847500D02*
X849500D01*
X857500Y674500D02*
X859500D01*
X847500D02*
X849500D01*
X857500Y684500D02*
X859500D01*
X847500D02*
X849500D01*
X857500Y694500D02*
X859500D01*
X847500D02*
X849500D01*
X857500Y704500D02*
X859500D01*
X847500D02*
X849500D01*
X857500Y714500D02*
X859500D01*
X847500D02*
X849500D01*
X857500Y724500D02*
X859500D01*
X847500D02*
X849500D01*
X857500Y734500D02*
X859500D01*
X847500D02*
X849500D01*
X857500Y744500D02*
X859500D01*
X847500D02*
X849500D01*
X857500Y754500D02*
X859500D01*
X847500D02*
X849500D01*
X857500Y764500D02*
X859500D01*
X847500D02*
X849500D01*
X857500Y774500D02*
X859500D01*
X847500D02*
X849500D01*
X857500Y784500D02*
X859500D01*
X847500D02*
X849500D01*
X857500Y794500D02*
X859500D01*
X847500D02*
X849500D01*
X819000Y795000D02*
Y797000D01*
Y785000D02*
Y787000D01*
X809000Y795000D02*
Y797000D01*
Y785000D02*
Y787000D01*
X799000Y795000D02*
Y797000D01*
Y785000D02*
Y787000D01*
X789000Y795000D02*
Y797000D01*
Y785000D02*
Y787000D01*
X779000Y795000D02*
Y797000D01*
Y785000D02*
Y787000D01*
X769000Y795000D02*
Y797000D01*
Y785000D02*
Y787000D01*
X759000Y795000D02*
Y797000D01*
Y785000D02*
Y787000D01*
X749000Y795000D02*
Y797000D01*
Y785000D02*
Y787000D01*
X739000Y795000D02*
Y797000D01*
Y785000D02*
Y787000D01*
X729000Y795000D02*
Y797000D01*
Y785000D02*
Y787000D01*
X719000Y795000D02*
Y797000D01*
Y785000D02*
Y787000D01*
X709000Y795000D02*
Y797000D01*
Y785000D02*
Y787000D01*
X699000Y795000D02*
Y797000D01*
Y785000D02*
Y787000D01*
X689000Y795000D02*
Y797000D01*
Y785000D02*
Y787000D01*
X679000Y795000D02*
Y797000D01*
Y785000D02*
Y787000D01*
X669000Y795000D02*
Y797000D01*
Y785000D02*
Y787000D01*
X631000Y794500D02*
X633000D01*
X641000D02*
X643000D01*
X631000Y784500D02*
X633000D01*
X641000D02*
X643000D01*
X631000Y774500D02*
X633000D01*
X641000D02*
X643000D01*
X631000Y764500D02*
X633000D01*
X641000D02*
X643000D01*
X631000Y754500D02*
X633000D01*
X641000D02*
X643000D01*
X631000Y744500D02*
X633000D01*
X641000D02*
X643000D01*
X631000Y734500D02*
X633000D01*
X641000D02*
X643000D01*
X631000Y724500D02*
X633000D01*
X641000D02*
X643000D01*
X631000Y714500D02*
X633000D01*
X641000D02*
X643000D01*
X631000Y704500D02*
X633000D01*
X641000D02*
X643000D01*
X631000Y694500D02*
X633000D01*
X641000D02*
X643000D01*
X631000Y684500D02*
X633000D01*
X641000D02*
X643000D01*
X631000Y674500D02*
X633000D01*
X641000D02*
X643000D01*
X631000Y664500D02*
X633000D01*
X641000D02*
X643000D01*
X631000Y654500D02*
X633000D01*
X641000D02*
X643000D01*
X631000Y644500D02*
X633000D01*
X641000D02*
X643000D01*
X631000Y634500D02*
X633000D01*
X641000D02*
X643000D01*
X631000Y624500D02*
X633000D01*
X641000D02*
X643000D01*
X631000Y614500D02*
X633000D01*
X641000D02*
X643000D01*
X631000Y604500D02*
X633000D01*
X641000D02*
X643000D01*
G54D146*
X602000Y583700D03*
X576400Y566000D03*
Y583700D03*
X602000Y616700D03*
X576400Y599000D03*
Y616700D03*
G54D147*
X589946Y787786D02*
X595064D01*
X589946Y790935D02*
X595064D01*
X589946Y794085D02*
X595064D01*
X589946Y797235D02*
X595064D01*
X589946Y800384D02*
X595064D01*
G54D148*
X567730Y776698D02*
X572849D01*
X585053Y812131D02*
X590171D01*
X585053Y776698D02*
X590171D01*
X567730Y812131D02*
X572849D01*
G54D149*
X580300Y785577D03*
Y802900D03*
G54D150*
X576200Y717969D02*
Y714031D01*
X588011Y717969D02*
Y714031D01*
X603759Y717969D02*
Y714031D01*
X607696Y693165D02*
Y689228D01*
G74*
X0Y0D02*
M02*
