*
*
G04 PADS 9.5 Build Number: 522968 generated Gerber (RS-274-X) file*
G04 PC Version=2.1*
*
%IN "ATS2825_MODULE_TEST_V1."*%
*
%MOIN*%
*
%FSLAX35Y35*%
*
*
*
*
G04 PC Standard Apertures*
*
*
G04 Thermal Relief Aperture macro.*
%AMTER*
1,1,$1,0,0*
1,0,$1-$2,0,0*
21,0,$3,$4,0,0,45*
21,0,$3,$4,0,0,135*
%
*
*
G04 Annular Aperture macro.*
%AMANN*
1,1,$1,0,0*
1,0,$2,0,0*
%
*
*
G04 Odd Aperture macro.*
%AMODD*
1,1,$1,0,0*
1,0,$1-0.005,0,0*
%
*
*
G04 PC Custom Aperture Macros*
*
*
*
*
*
*
G04 PC Aperture Table*
*
%ADD018C,0.005*%
%ADD049C,0.01*%
%ADD059C,0.001*%
%ADD061C,0.00787*%
%ADD160C,0.00787*%
*
*
*
*
G04 PC Circuitry*
G04 Layer Name ATS2825_MODULE_TEST_V1. - circuitry*
%LPD*%
*
G54D59*
G01X788512Y554950D02*
X787166D01*
Y554761*
X787653*
X787703Y554711*
Y552686*
X787653Y552636*
X787166*
Y552447*
X787364*
X787382Y552443*
X787589Y552360*
X787606Y552349*
X787730Y552225*
X787743Y552200*
X787777Y552033*
X787975*
Y554711*
X788025Y554761*
X788512*
Y554950*
X786487Y553512D02*
X786406Y554160D01*
X786287Y554437*
X786128Y554636*
X785928Y554836*
X785735Y554952*
X785174Y555032*
X784892Y554992*
X784657Y554953*
X784259Y554634*
X784101Y554437*
X783983Y554160*
X783902Y553512*
X783942Y553146*
X783982Y552825*
X784101Y552587*
X784260Y552348*
X784458Y552190*
X784657Y552070*
X784896Y551991*
X785174Y551951*
X785493Y551991*
X785733Y552071*
X785970Y552190*
X786126Y552346*
X786287Y552587*
X786406Y552825*
X786446Y553147*
X786487Y553512*
X786174D02*
X786173Y553505D01*
X786091Y552927*
X786087Y552914*
X785922Y552542*
X785909Y552524*
X785619Y552276*
X785598Y552265*
X785226Y552183*
X785205Y552182*
X784792Y552265*
X784779Y552269*
X784614Y552352*
X784596Y552367*
X784472Y552532*
X784468Y552540*
X784385Y552705*
X784382Y552711*
X784300Y552959*
X784298Y552968*
X784215Y553505*
X784214Y553512*
X784215Y553520*
X784298Y554057*
X784301Y554070*
X784467Y554442*
X784480Y554459*
X784769Y554707*
X784783Y554716*
X784990Y554798*
X785008Y554802*
X785380*
X785399Y554798*
X785605Y554716*
X785619Y554707*
X785909Y554459*
X785920Y554446*
X786126Y554074*
X786132Y554053*
X786132D02*
X786174Y553516D01*
Y553512*
X783429Y554165D02*
X783350Y554404D01*
X783270Y554603*
X783154Y554758*
X782998Y554875*
X782839Y554954*
X782643Y555033*
X782368*
X781927Y554953*
X781613Y554756*
X781499Y554603*
X781419Y554404*
X781339Y554165*
Y552033*
X781652*
Y553884*
X781653Y553890*
X781694Y554262*
X781696Y554272*
X781779Y554520*
X781791Y554539*
X781998Y554746*
X782027Y554760*
X782357Y554802*
X782370*
X782700Y554760*
X782726Y554749*
X782974Y554543*
X782990Y554520*
X783072Y554272*
X783074Y554262*
X783116Y553890*
Y553884*
Y552033*
X783429*
Y554165*
X679081Y541182D02*
X678952Y541827D01*
X678698Y542336*
X678254Y542589*
X677676Y542718*
X677295Y542654*
X676979Y542528*
X676723Y542272*
X676461Y541944*
X676381Y541945*
X676187Y542204*
X675932Y542395*
X675679Y542522*
X675300Y542585*
X674856Y542458*
X674473Y542203*
X674156Y541758*
X674092Y541182*
X674156Y540669*
X674411Y540223*
X674789Y539907*
X675296Y539844*
X675614Y539908*
X675934Y540036*
X676185Y540224*
X676379Y540546*
X676463Y540548*
X676725Y540156*
X676979Y539902*
X677295Y539776*
X677676Y539712*
X678252Y539840*
X678698Y540158*
X678953Y540605*
X679081Y541182*
X678719D02*
X678718Y541172D01*
X678652Y540841*
X678643Y540821*
X678445Y540557*
X678435Y540547*
X678170Y540348*
X678149Y540339*
X677752Y540273*
X677730Y540274*
X677267Y540406*
X677253Y540413*
X677055Y540545*
X677043Y540557*
X676844Y540821*
X676838Y540833*
X676706Y541163*
X676705Y541166*
X676572Y541563*
X676584Y541614*
X676981Y542011*
X677007Y542024*
X677336Y542090*
X677599Y542156*
X677619Y542157*
X678081Y542091*
X678100Y542084*
X678431Y541886*
X678445Y541873*
X678643Y541609*
X678653Y541587*
X678719Y541190*
Y541182*
X676319Y540811D02*
X676058Y540615D01*
X675862Y540419*
X675833Y540405*
X675304Y540339*
X675288*
X674957Y540406*
X674945Y540410*
X674680Y540542*
X674658Y540564*
X674526Y540829*
X674521Y540841*
X674455Y541172*
Y541192*
X674521Y541522*
X674526Y541535*
X674658Y541799*
X674680Y541822*
X674945Y541954*
X674955Y541958*
X675219Y542024*
X675247Y542023*
X675644Y541890*
X675663Y541878*
X675994Y541548*
X676003Y541535*
X676334Y540874*
X676319Y540811*
X678950Y546931D02*
X674224Y545377D01*
Y544656*
X678950Y543102*
Y543723*
X677598Y544109*
X677562Y544157*
Y545876*
X677598Y545924*
X678950Y546310*
Y546931*
X677133Y545678D02*
Y544355D01*
X677068Y544308*
X674952Y544969*
Y545064*
X677068Y545725*
X677133Y545678*
X667082Y542167D02*
X667027Y542388D01*
X666535*
X666586Y542186*
X666587Y542182*
X666653Y541785*
Y541777*
X666652Y541765*
X666520Y541236*
X666514Y541223*
X666250Y540760*
X666229Y540740*
X665700Y540476*
X665687Y540471*
X664959Y540339*
X664906Y540411*
X665167Y540932*
X665231Y541381*
X665166Y541894*
X664977Y542273*
X664467Y542656*
X664148Y542719*
X663761Y542784*
X663051Y542655*
X662539Y542335*
X662220Y541888*
X662093Y541314*
X662220Y540740*
X662540Y540292*
X662795Y540101*
X663183Y539907*
X663700Y539777*
X664879*
X665464Y539907*
X665921Y540103*
X666309Y540297*
X666632Y540620*
X666889Y540941*
X667017Y541390*
X667082Y541912*
Y542167*
X664802Y541579D02*
Y541248D01*
Y541241*
X664735Y540778*
X664731Y540763*
X664532Y540366*
X664488Y540338*
X663694*
X663684Y540339*
X663354Y540406*
X663341Y540410*
X662812Y540674*
X662795Y540689*
X662596Y540953*
X662587Y540974*
X662521Y541304*
Y541324*
X662587Y541654*
X662601Y541680*
X662865Y541944*
X662875Y541952*
X663206Y542150*
X663224Y542157*
X663687Y542223*
X663700*
X664229Y542157*
X664254Y542146*
X664585Y541882*
X664594Y541873*
X664792Y541609*
X664802Y541579*
X666950Y546931D02*
X662224Y545377D01*
Y544656*
X666950Y543102*
Y543723*
X665598Y544109*
X665562Y544157*
Y545876*
X665598Y545924*
X666950Y546310*
Y546931*
X665133Y545678D02*
Y544355D01*
X665068Y544308*
X662952Y544969*
Y545064*
X665068Y545725*
X665133Y545678*
X655082Y537612D02*
X655017Y537998D01*
X654954Y538251*
X654766Y538501*
X654511Y538693*
X654121Y538888*
X653733Y539017*
X653212Y539082*
X651962*
X651441Y539017*
X651052Y538888*
X650663Y538693*
X650408Y538501*
X650220Y538252*
X650092Y537611*
X650156Y537225*
X650220Y536972*
X650406Y536724*
X651053Y536336*
X651506Y536206*
X652028Y536141*
X653212*
X653733Y536206*
X654121Y536336*
X654511Y536530*
X654766Y536722*
X654954Y536972*
X655017Y537225*
X655082Y537612*
X654653Y537876D02*
Y537347D01*
X654645Y537319*
X654513Y537121*
X654506Y537113*
X654374Y536981*
X654351Y536968*
X654092Y536903*
X653832Y536773*
X653810Y536768*
X653483*
X653091Y536703*
X653083Y536702*
X652620*
X652616*
X651691Y536768*
X651683Y536769*
X651088Y536902*
X651077Y536906*
X650680Y537104*
X650654Y537135*
X650522Y537598*
X650520Y537612*
X650523Y537627*
X650655Y538024*
X650670Y538047*
X651067Y538377*
X651094Y538389*
X651755Y538455*
X651756*
X652616Y538521*
X652620*
X653479*
X653490Y538520*
X654085Y538388*
X654102Y538380*
X654499Y538116*
X654513Y538102*
X654645Y537904*
X654653Y537876*
X654950Y542256D02*
X654587D01*
Y541446*
X654537Y541396*
X651298*
X651248Y541446*
Y542256*
X650885*
Y541909*
X650881Y541891*
X650749Y541560*
X650738Y541543*
X650539Y541345*
X650514Y541331*
X650224Y541273*
Y540901*
X654537*
X654587Y540851*
Y540042*
X654950*
Y542256*
Y546931D02*
X650224Y545377D01*
Y544656*
X654950Y543102*
Y543723*
X653598Y544109*
X653562Y544157*
Y545876*
X653598Y545924*
X654950Y546310*
Y546931*
X653133Y545678D02*
Y544355D01*
X653068Y544308*
X650952Y544969*
Y545064*
X653068Y545725*
X653133Y545678*
X642950Y538619D02*
X642587D01*
Y537810*
X642537Y537760*
X639298*
X639248Y537810*
Y538619*
X638885*
Y538273*
X638881Y538254*
X638749Y537924*
X638738Y537907*
X638539Y537708*
X638514Y537695*
X638224Y537637*
Y537265*
X642537*
X642587Y537215*
Y536405*
X642950*
Y538619*
Y542256D02*
X642587D01*
Y541446*
X642537Y541396*
X639298*
X639248Y541446*
Y542256*
X638885*
Y541909*
X638881Y541891*
X638749Y541560*
X638738Y541543*
X638539Y541345*
X638514Y541331*
X638224Y541273*
Y540901*
X642537*
X642587Y540851*
Y540042*
X642950*
Y542256*
Y546931D02*
X638224Y545377D01*
Y544656*
X642950Y543102*
Y543723*
X641598Y544109*
X641562Y544157*
Y545876*
X641598Y545924*
X642950Y546310*
Y546931*
X641133Y545678D02*
Y544355D01*
X641068Y544308*
X638952Y544969*
Y545064*
X641068Y545725*
X641133Y545678*
X630950Y539016D02*
X630360D01*
X629184Y537841*
X629182Y537838*
X628653Y537376*
X628645Y537370*
X628182Y537105*
X628173Y537101*
X627776Y536969*
X627769Y536967*
X627372Y536901*
X627354*
X627023Y536968*
X627023D02*
X627003Y536977D01*
X626739Y537175*
X626727Y537187*
X626595Y537385*
X626587Y537403*
X626521Y537734*
Y537754*
X626587Y538084*
X626589Y538090*
X626721Y538487*
X626727Y538499*
X626983Y538883*
Y538884*
X626403*
X626287Y538652*
X626222Y538394*
X626092Y537676*
X626155Y537103*
X626474Y536721*
X626855Y536403*
X627364Y536340*
X627879Y536404*
X628333Y536599*
X628788Y536858*
X630436Y538506*
X630521Y538471*
Y536141*
X630950*
Y539016*
Y542256D02*
X630587D01*
Y541446*
X630537Y541396*
X627298*
X627248Y541446*
Y542256*
X626885*
Y541909*
X626881Y541891*
X626749Y541560*
X626738Y541543*
X626539Y541345*
X626514Y541331*
X626224Y541273*
Y540901*
X630537*
X630587Y540851*
Y540042*
X630950*
Y542256*
Y546931D02*
X626224Y545377D01*
Y544656*
X630950Y543102*
Y543723*
X629598Y544109*
X629562Y544157*
Y545876*
X629598Y545924*
X630950Y546310*
Y546931*
X629133Y545678D02*
Y544355D01*
X629068Y544308*
X626952Y544969*
Y545064*
X629068Y545725*
X629133Y545678*
X619082Y537746D02*
X619017Y538461D01*
X618832Y539016*
X618195*
X618374Y538837*
X618385Y538820*
X618650Y538159*
X618653Y538140*
Y537810*
Y537802*
X618587Y537405*
X618580Y537387*
X618580D02*
X618382Y537057D01*
X618365Y537040*
X618034Y536841*
X618015Y536835*
X617553Y536769*
X617538*
X617076Y536835*
X617053Y536844*
X616788Y537043*
X616772Y537064*
X616640Y537395*
X616637Y537405*
X616571Y537802*
X616570Y537810*
Y538024*
X616141*
Y537876*
X616140Y537868*
X616074Y537471*
X616071Y537461*
X615939Y537130*
X615923Y537109*
X615658Y536910*
X615636Y536901*
X615240Y536835*
X615219Y536836*
X614955Y536902*
X614937Y536910*
X614672Y537109*
X614654Y537137*
X614588Y537401*
X614587Y537403*
X614521Y537734*
Y537754*
X614587Y538084*
X614590Y538093*
X614722Y538424*
X614724Y538427*
X614856Y538692*
X614859Y538697*
X614983Y538883*
Y538884*
X614403*
X614287Y538653*
X614092Y537675*
X614156Y537097*
X614346Y536718*
X614726Y536401*
X615233Y536274*
X615611Y536337*
X615925Y536525*
X616112Y536776*
X616242Y537165*
X616289Y537199*
X616355*
X616402Y537167*
X616533Y536840*
X616724Y536521*
X617036Y536271*
X617609Y536208*
X618188Y536336*
X618634Y536591*
X618953Y537101*
X619082Y537746*
X618950Y542256D02*
X618587D01*
Y541446*
X618537Y541396*
X615298*
X615248Y541446*
Y542256*
X614885*
Y541909*
X614881Y541891*
X614749Y541560*
X614738Y541543*
X614539Y541345*
X614514Y541331*
X614224Y541273*
Y540901*
X618537*
X618587Y540851*
Y540042*
X618950*
Y542256*
Y546931D02*
X614224Y545377D01*
Y544656*
X618950Y543102*
Y543723*
X617598Y544109*
X617562Y544157*
Y545876*
X617598Y545924*
X618950Y546310*
Y546931*
X617133Y545678D02*
Y544355D01*
X617068Y544308*
X614952Y544969*
Y545064*
X617068Y545725*
X617133Y545678*
X607082Y541383D02*
X607017Y542031D01*
X606832Y542586*
X606257*
Y542585*
X606380Y542400*
X606384Y542394*
X606516Y542130*
X606519Y542123*
X606651Y541727*
X606653Y541711*
Y541380*
Y541372*
X606587Y540975*
X606573Y540948*
X606308Y540684*
X606298Y540676*
X605968Y540478*
X605949Y540471*
X605486Y540405*
X605471*
X605074Y540471*
X605053Y540481*
X604788Y540679*
X604775Y540693*
X604577Y541024*
X604570Y541043*
X604504Y541505*
Y541512*
Y541519*
X604570Y542048*
X604571Y542050*
X604627Y542388*
X602224*
Y539843*
X602652*
Y541843*
X602702Y541893*
X604025*
X604075Y541843*
Y541383*
X604140Y540800*
X604395Y540290*
X604844Y539969*
X605094Y539843*
X605474*
X606124Y539973*
X606634Y540229*
X606953Y540738*
X607082Y541383*
X606950Y546931D02*
X602224Y545377D01*
Y544656*
X606950Y543102*
Y543723*
X605598Y544109*
X605562Y544157*
Y545876*
X605598Y545924*
X606950Y546310*
Y546931*
X605133Y545678D02*
Y544355D01*
X605068Y544308*
X602952Y544969*
Y545064*
X605068Y545725*
X605133Y545678*
X594950Y538619D02*
X594587D01*
Y537810*
X594537Y537760*
X591298*
X591248Y537810*
Y538619*
X590885*
Y538273*
X590881Y538254*
X590749Y537924*
X590738Y537907*
X590539Y537708*
X590514Y537695*
X590224Y537637*
Y537265*
X594537*
X594587Y537215*
Y536405*
X594950*
Y538619*
Y542652D02*
X594360D01*
X593184Y541477*
X593182Y541475*
X592653Y541012*
X592645Y541006*
X592182Y540742*
X592173Y540738*
X591776Y540605*
X591769Y540604*
X591372Y540537*
X591354Y540538*
X591023Y540604*
X591003Y540613*
X590739Y540811*
X590727Y540824*
X590595Y541022*
X590587Y541040*
X590521Y541370*
Y541390*
X590587Y541721*
X590589Y541727*
X590721Y542123*
X590727Y542135*
X590983Y542519*
Y542520*
X590403*
X590287Y542288*
X590222Y542031*
X590092Y541312*
X590155Y540739*
X590474Y540358*
X590855Y540040*
X591364Y539976*
X591879Y540040*
X592333Y540235*
X592788Y540495*
X594436Y542143*
X594521Y542107*
Y539777*
X594950*
Y542652*
Y546931D02*
X590224Y545377D01*
Y544656*
X594950Y543102*
Y543723*
X593598Y544109*
X593562Y544157*
Y545876*
X593598Y545924*
X594950Y546310*
Y546931*
X593133Y545678D02*
Y544355D01*
X593068Y544308*
X590952Y544969*
Y545064*
X593068Y545725*
X593133Y545678*
X583082Y536781D02*
X583017Y537174D01*
Y537175*
X582952Y537628*
X582762Y537944*
X582438Y538268*
X582115Y538527*
X581664Y538720*
X581209Y538785*
X580620Y538851*
X580030Y538785*
X579511Y538720*
X579124Y538527*
X578737Y538268*
X578479Y537947*
X578286Y537625*
X578156Y537171*
X578092Y536720*
X578222Y535939*
X578472Y535314*
X579177*
X578998Y535494*
X578990Y535503*
X578792Y535834*
X578790Y535837*
X578592Y536234*
X578587Y536249*
X578521Y536712*
X578520Y536719*
X578521Y536730*
X578654Y537325*
X578662Y537344*
X579059Y537873*
X579081Y537889*
X579742Y538154*
X579753Y538157*
X580612Y538289*
X580620Y538290*
X581083*
X581098Y538287*
X581495Y538155*
X581504Y538151*
X582099Y537821*
X582104Y537817*
X582369Y537619*
X582384Y537601*
X582648Y537072*
X582653Y537050*
Y536719*
Y536712*
X582587Y536249*
X582583Y536237*
X582385Y535774*
X582379Y535763*
X582180Y535499*
X582176Y535494*
X581997Y535314*
X582705*
X582821Y535548*
X582953Y535941*
X582954Y535944*
X583082Y536266*
Y536781*
Y540748D02*
X583017Y541141D01*
Y541142*
X582952Y541595*
X582762Y541911*
X582438Y542235*
X582115Y542494*
X581664Y542687*
X581209Y542752*
X580620Y542817*
X580030Y542752*
X579511Y542687*
X579124Y542494*
X578737Y542235*
X578479Y541914*
X578286Y541591*
X578286D02*
X578156Y541138D01*
X578092Y540687*
X578222Y539906*
X578472Y539281*
X579177*
X578998Y539461*
X578990Y539470*
X578792Y539801*
X578790Y539804*
X578592Y540201*
X578587Y540216*
X578521Y540679*
X578520Y540686*
X578521Y540697*
X578654Y541292*
X578662Y541311*
X579059Y541840*
X579081Y541856*
X579742Y542121*
X579753Y542124*
X580612Y542256*
X580620Y542257*
X581083*
X581098Y542254*
X581495Y542122*
X581504Y542118*
X582099Y541788*
X582104Y541784*
X582369Y541585*
X582384Y541568*
X582648Y541039*
X582653Y541017*
Y540686*
Y540679*
X582587Y540216*
X582583Y540203*
X582385Y539741*
X582379Y539730*
X582180Y539466*
X582176Y539461*
X581997Y539281*
X582705*
X582821Y539515*
X582953Y539908*
X582954Y539911*
X583082Y540233*
Y540748*
X582950Y545344D02*
X578224Y546963D01*
Y546342*
X582090Y545097*
Y545002*
X578224Y543757*
Y543136*
X582950Y544755*
Y545344*
Y550931D02*
X578224Y549377D01*
Y548656*
X582950Y547102*
Y547723*
X581598Y548109*
X581562Y548157*
Y549876*
X581598Y549924*
X582950Y550310*
Y550931*
X581133Y549678D02*
Y548355D01*
X581068Y548308*
X578952Y548969*
Y549064*
X581068Y549725*
X581133Y549678*
X570950Y537212D02*
X566224Y538831D01*
Y538210*
X570090Y536965*
Y536870*
X566224Y535625*
Y535004*
X570950Y536623*
Y537212*
X571082Y540887D02*
X571017Y541535D01*
X570832Y542090*
X570257*
X570257*
X570380Y541904*
X570384Y541898*
X570516Y541634*
X570519Y541627*
X570651Y541231*
X570653Y541215*
Y540884*
Y540876*
X570587Y540479*
X570573Y540452*
X570308Y540188*
X570298Y540180*
X569968Y539982*
X569949Y539975*
X569486Y539909*
X569471*
X569074Y539975*
X569053Y539985*
X568788Y540183*
X568775Y540197*
X568577Y540528*
X568570Y540547*
X568504Y541009*
Y541017*
Y541023*
X568570Y541552*
X568571Y541554*
X568627Y541892*
X566224*
Y539348*
X566652*
Y541347*
X566702Y541397*
X568025*
X568075Y541347*
Y540887*
X568140Y540304*
X568395Y539794*
X568844Y539473*
X569094Y539348*
X569474*
X570124Y539477*
X570634Y539733*
X570953Y540242*
X571082Y540887*
Y544186D02*
X571017Y544579D01*
Y544580*
X570952Y545033*
X570762Y545349*
X570438Y545673*
X570115Y545932*
X569664Y546125*
X569209Y546190*
X568620Y546255*
X568030Y546190*
X567511Y546125*
X567124Y545932*
X566737Y545673*
X566479Y545352*
X566286Y545030*
X566156Y544576*
X566092Y544125*
X566222Y543344*
X566472Y542719*
X567177*
X566998Y542899*
X566990Y542908*
X566792Y543239*
X566790Y543242*
X566592Y543639*
X566587Y543654*
X566521Y544117*
X566520Y544124*
X566521Y544135*
X566654Y544730*
X566662Y544749*
X567059Y545278*
X567081Y545294*
X567742Y545559*
X567753Y545562*
X568612Y545694*
X568620Y545695*
X569083*
X569098Y545692*
X569495Y545560*
X569504Y545556*
X570099Y545226*
X570104Y545222*
X570369Y545023*
X570384Y545006*
X570648Y544477*
X570653Y544455*
Y544124*
Y544117*
X570587Y543654*
X570583Y543641*
X570385Y543179*
X570379Y543168*
X570180Y542904*
X570176Y542899*
X569997Y542719*
X570705*
X570821Y542953*
X570953Y543346*
X570954Y543349*
X571082Y543671*
Y544186*
X570950Y550487D02*
X566224D01*
Y548825*
X566353Y548372*
X566614Y547720*
X566935Y547334*
X567387Y547012*
X567969Y546818*
X568620Y546753*
X569204Y546818*
X569787Y547012*
X570238Y547334*
X570561Y547722*
X570756Y548111*
X570885Y548434*
X570950Y548888*
Y550487*
X570521Y549876D02*
Y549413D01*
Y549409*
X570455Y548616*
X570454Y548610*
X570388Y548279*
X570379Y548259*
X570180Y547995*
X570176Y547989*
X569911Y547725*
X569902Y547717*
X569571Y547519*
X569559Y547514*
X569096Y547382*
X569089Y547380*
X568560Y547314*
X568547*
X568084Y547380*
X568077Y547382*
X567614Y547514*
X567602Y547519*
X567272Y547717*
X567258Y547729*
X566994Y548060*
X566988Y548069*
X566724Y548597*
X566720Y548610*
X566653Y548941*
X566652Y548950*
Y549876*
X566702Y549926*
X570471*
X570521Y549876*
X566100Y544076D02*
Y544181D01*
X566200Y543476D02*
Y544729D01*
X566300Y535030D02*
Y535649D01*
Y538185D02*
Y538805D01*
Y539348D02*
Y541892D01*
Y543149D02*
Y545053D01*
Y548558D02*
Y550487D01*
X566400Y535064D02*
Y535682D01*
Y538153D02*
Y538770D01*
Y539348D02*
Y541892D01*
Y542899D02*
Y545220D01*
Y548254D02*
Y550487D01*
X566500Y535099D02*
Y535714D01*
Y538121D02*
Y538736D01*
Y539348D02*
Y541892D01*
Y542719D02*
Y545378D01*
Y548004D02*
Y550487D01*
X566600Y535133D02*
Y535746D01*
Y538089D02*
Y538702D01*
Y539348D02*
Y541892D01*
Y542719D02*
Y543622D01*
Y544488D02*
Y545503D01*
Y547754D02*
Y550487D01*
X566700Y535167D02*
Y535778D01*
Y538057D02*
Y538668D01*
Y541397D02*
Y541892D01*
Y542719D02*
Y543422D01*
Y544799D02*
Y545628D01*
Y547617D02*
Y548708D01*
Y549926D02*
Y550487D01*
X566800Y535201D02*
Y535810D01*
Y538024D02*
Y538633D01*
Y541397D02*
Y541892D01*
Y542719D02*
Y543225D01*
Y544932D02*
Y545716D01*
Y547497D02*
Y548445D01*
Y549926D02*
Y550487D01*
X566900Y535236D02*
Y535843D01*
Y537992D02*
Y538599D01*
Y541397D02*
Y541892D01*
Y542719D02*
Y543058D01*
Y545066D02*
Y545782D01*
Y547377D02*
Y548245D01*
Y549926D02*
Y550487D01*
X567000Y535270D02*
Y535875D01*
Y537960D02*
Y538565D01*
Y541397D02*
Y541892D01*
Y542719D02*
Y542896D01*
Y545199D02*
Y545849D01*
Y547288D02*
Y548052D01*
Y549926D02*
Y550487D01*
X567100Y535304D02*
Y535907D01*
Y537928D02*
Y538531D01*
Y541397D02*
Y541892D01*
Y542719D02*
Y542796D01*
Y545302D02*
Y545916D01*
Y547217D02*
Y547927D01*
Y549926D02*
Y550487D01*
X567200Y535338D02*
Y535939D01*
Y537896D02*
Y538496D01*
Y541397D02*
Y541892D01*
Y545342D02*
Y545970D01*
Y547145D02*
Y547802D01*
Y549926D02*
Y550487D01*
X567300Y535373D02*
Y535971D01*
Y537863D02*
Y538462D01*
Y541397D02*
Y541892D01*
Y545382D02*
Y546020D01*
Y547074D02*
Y547701D01*
Y549926D02*
Y550487D01*
X567400Y535407D02*
Y536004D01*
Y537831D02*
Y538428D01*
Y541397D02*
Y541892D01*
Y545422D02*
Y546070D01*
Y547008D02*
Y547641D01*
Y549926D02*
Y550487D01*
X567500Y535441D02*
Y536036D01*
Y537799D02*
Y538394D01*
Y541397D02*
Y541892D01*
Y545462D02*
Y546120D01*
Y546974D02*
Y547581D01*
Y549926D02*
Y550487D01*
X567600Y535475D02*
Y536068D01*
Y537767D02*
Y538359D01*
Y541397D02*
Y541892D01*
Y545502D02*
Y546136D01*
Y546941D02*
Y547521D01*
Y549926D02*
Y550487D01*
X567700Y535509D02*
Y536100D01*
Y537735D02*
Y538325D01*
Y541397D02*
Y541892D01*
Y545542D02*
Y546149D01*
Y546908D02*
Y547489D01*
Y549926D02*
Y550487D01*
X567800Y535544D02*
Y536132D01*
Y537702D02*
Y538291D01*
Y541397D02*
Y541892D01*
Y545569D02*
Y546161D01*
Y546874D02*
Y547461D01*
Y549926D02*
Y550487D01*
X567900Y535578D02*
Y536165D01*
Y537670D02*
Y538257D01*
Y541397D02*
Y541892D01*
Y545584D02*
Y546174D01*
Y546841D02*
Y547432D01*
Y549926D02*
Y550487D01*
X568000Y535612D02*
Y536197D01*
Y537638D02*
Y538222D01*
Y541397D02*
Y541892D01*
Y545600D02*
Y546186D01*
Y546815D02*
Y547404D01*
Y549926D02*
Y550487D01*
X568100Y535646D02*
Y536229D01*
Y537606D02*
Y538188D01*
Y540660D02*
Y541892D01*
Y545615D02*
Y546198D01*
Y546805D02*
Y547378D01*
Y549926D02*
Y550487D01*
X568200Y535681D02*
Y536261D01*
Y537573D02*
Y538154D01*
Y540183D02*
Y541892D01*
Y545631D02*
Y546209D01*
Y546795D02*
Y547364D01*
Y549926D02*
Y550487D01*
X568300Y535715D02*
Y536293D01*
Y537541D02*
Y538120D01*
Y539983D02*
Y541892D01*
Y545646D02*
Y546220D01*
Y546785D02*
Y547349D01*
Y549926D02*
Y550487D01*
X568400Y535749D02*
Y536326D01*
Y537509D02*
Y538085D01*
Y539790D02*
Y541892D01*
Y545661D02*
Y546231D01*
Y546775D02*
Y547335D01*
Y549926D02*
Y550487D01*
X568500Y535783D02*
Y536358D01*
Y537477D02*
Y538051D01*
Y539718D02*
Y541892D01*
Y545677D02*
Y546242D01*
Y546765D02*
Y547321D01*
Y549926D02*
Y550487D01*
X568600Y535818D02*
Y536390D01*
Y537445D02*
Y538017D01*
Y539647D02*
Y540490D01*
Y541731D02*
Y541892D01*
Y545692D02*
Y546253D01*
Y546755D02*
Y547319D01*
Y549926D02*
Y550487D01*
X568700Y535852D02*
Y536422D01*
Y537412D02*
Y537983D01*
Y539576D02*
Y540323D01*
Y545695D02*
Y546247D01*
Y546762D02*
Y547332D01*
Y549926D02*
Y550487D01*
X568800Y535886D02*
Y536454D01*
Y537380D02*
Y537949D01*
Y539504D02*
Y540174D01*
Y545695D02*
Y546235D01*
Y546773D02*
Y547344D01*
Y549926D02*
Y550487D01*
X568900Y535920D02*
Y536487D01*
Y537348D02*
Y537914D01*
Y539445D02*
Y540099D01*
Y545695D02*
Y546224D01*
Y546784D02*
Y547357D01*
Y549926D02*
Y550487D01*
X569000Y535955D02*
Y536519D01*
Y537316D02*
Y537880D01*
Y539395D02*
Y540024D01*
Y545695D02*
Y546213D01*
Y546795D02*
Y547369D01*
Y549926D02*
Y550487D01*
X569100Y535989D02*
Y536551D01*
Y537284D02*
Y537846D01*
Y539348D02*
Y539971D01*
Y545692D02*
Y546202D01*
Y546806D02*
Y547383D01*
Y549926D02*
Y550487D01*
X569200Y536023D02*
Y536583D01*
Y537251D02*
Y537812D01*
Y539348D02*
Y539955D01*
Y545658D02*
Y546191D01*
Y546817D02*
Y547411D01*
Y549926D02*
Y550487D01*
X569300Y536057D02*
Y536615D01*
Y537219D02*
Y537777D01*
Y539348D02*
Y539938D01*
Y545625D02*
Y546177D01*
Y546850D02*
Y547440D01*
Y549926D02*
Y550487D01*
X569400Y536092D02*
Y536648D01*
Y537187D02*
Y537743D01*
Y539348D02*
Y539921D01*
Y545592D02*
Y546163D01*
Y546883D02*
Y547468D01*
Y549926D02*
Y550487D01*
X569500Y536126D02*
Y536680D01*
Y537155D02*
Y537709D01*
Y539353D02*
Y539911D01*
Y545558D02*
Y546148D01*
Y546916D02*
Y547497D01*
Y549926D02*
Y550487D01*
X569600Y536160D02*
Y536712D01*
Y537123D02*
Y537675D01*
Y539373D02*
Y539925D01*
Y545503D02*
Y546134D01*
Y546950D02*
Y547536D01*
Y549926D02*
Y550487D01*
X569700Y536194D02*
Y536744D01*
Y537090D02*
Y537640D01*
Y539393D02*
Y539940D01*
Y545447D02*
Y546110D01*
Y546983D02*
Y547596D01*
Y549926D02*
Y550487D01*
X569800Y536229D02*
Y536776D01*
Y537058D02*
Y537606D01*
Y539413D02*
Y539954D01*
Y545391D02*
Y546067D01*
Y547021D02*
Y547656D01*
Y549926D02*
Y550487D01*
X569900Y536263D02*
Y536809D01*
Y537026D02*
Y537572D01*
Y539433D02*
Y539968D01*
Y545336D02*
Y546024D01*
Y547093D02*
Y547716D01*
Y549926D02*
Y550487D01*
X570000Y536297D02*
Y536841D01*
Y536994D02*
Y537538D01*
Y539453D02*
Y540001D01*
Y542719D02*
Y542723D01*
Y545280D02*
Y545981D01*
Y547164D02*
Y547814D01*
Y549926D02*
Y550487D01*
X570100Y536331D02*
Y536874D01*
Y536960D02*
Y537503D01*
Y539473D02*
Y540061D01*
Y542719D02*
Y542823D01*
Y545225D02*
Y545938D01*
Y547236D02*
Y547914D01*
Y549926D02*
Y550487D01*
X570200Y536366D02*
Y537469D01*
Y539515D02*
Y540121D01*
Y542719D02*
Y542930D01*
Y545150D02*
Y545864D01*
Y547307D02*
Y548021D01*
Y549926D02*
Y550487D01*
X570300Y536400D02*
Y537435D01*
Y539565D02*
Y540181D01*
Y542024D02*
Y542090D01*
Y542719D02*
Y543063D01*
Y545075D02*
Y545784D01*
Y547408D02*
Y548154D01*
Y549926D02*
Y550487D01*
X570400Y536434D02*
Y537401D01*
Y539615D02*
Y540280D01*
Y541866D02*
Y542090D01*
Y542719D02*
Y543214D01*
Y544973D02*
Y545704D01*
Y547528D02*
Y548340D01*
Y549926D02*
Y550487D01*
X570500Y536468D02*
Y537366D01*
Y539665D02*
Y540380D01*
Y541666D02*
Y542090D01*
Y542719D02*
Y543447D01*
Y544773D02*
Y545611D01*
Y547648D02*
Y549158D01*
Y549917D02*
Y550487D01*
X570600Y536503D02*
Y537332D01*
Y539715D02*
Y540560D01*
Y541383D02*
Y542090D01*
Y542719D02*
Y543747D01*
Y544573D02*
Y545511D01*
Y547799D02*
Y550487D01*
X570700Y536537D02*
Y537298D01*
Y539837D02*
Y542090D01*
Y542719D02*
Y545411D01*
Y547999D02*
Y550487D01*
X570800Y536571D02*
Y537264D01*
Y539997D02*
Y542090D01*
Y542910D02*
Y545286D01*
Y548221D02*
Y550487D01*
X570900Y536605D02*
Y537229D01*
Y540157D02*
Y541886D01*
Y543189D02*
Y545119D01*
Y548538D02*
Y550487D01*
X571000Y540478D02*
Y541586D01*
Y543465D02*
Y544696D01*
X578100Y536671D02*
Y536776D01*
Y540638D02*
Y540743D01*
X578200Y536071D02*
Y537324D01*
Y540038D02*
Y541291D01*
X578300Y535744D02*
Y537648D01*
Y539711D02*
Y541615D01*
Y543162D02*
Y543782D01*
Y546318D02*
Y546937D01*
Y548631D02*
Y549402D01*
X578400Y535494D02*
Y537815D01*
Y539461D02*
Y541782D01*
Y543197D02*
Y543814D01*
Y546285D02*
Y546903D01*
Y548598D02*
Y549435D01*
X578500Y535314D02*
Y537973D01*
Y539281D02*
Y541940D01*
Y543231D02*
Y543846D01*
Y546253D02*
Y546868D01*
Y548565D02*
Y549468D01*
X578600Y535314D02*
Y536217D01*
Y537083D02*
Y538098D01*
Y539281D02*
Y540184D01*
Y541050D02*
Y542065D01*
Y543265D02*
Y543878D01*
Y546221D02*
Y546834D01*
Y548532D02*
Y549501D01*
X578700Y535314D02*
Y536017D01*
Y537394D02*
Y538223D01*
Y539281D02*
Y539984D01*
Y541361D02*
Y542190D01*
Y543299D02*
Y543910D01*
Y546189D02*
Y546800D01*
Y548499D02*
Y549534D01*
X578800Y535314D02*
Y535820D01*
Y537527D02*
Y538311D01*
Y539281D02*
Y539787D01*
Y541494D02*
Y542278D01*
Y543334D02*
Y543943D01*
Y546157D02*
Y546766D01*
Y548467D02*
Y549567D01*
X578900Y535314D02*
Y535654D01*
Y537661D02*
Y538377D01*
Y539281D02*
Y539620D01*
Y541628D02*
Y542344D01*
Y543368D02*
Y543975D01*
Y546124D02*
Y546731D01*
Y548434D02*
Y549599D01*
X579000Y535314D02*
Y535491D01*
Y537794D02*
Y538444D01*
Y539281D02*
Y539458D01*
Y541761D02*
Y542411D01*
Y543402D02*
Y544007D01*
Y546092D02*
Y546697D01*
Y548401D02*
Y548954D01*
Y549079D02*
Y549632D01*
X579100Y535314D02*
Y535391D01*
Y537897D02*
Y538511D01*
Y539281D02*
Y539358D01*
Y541864D02*
Y542478D01*
Y543436D02*
Y544039D01*
Y546060D02*
Y546663D01*
Y548368D02*
Y548923D01*
Y549110D02*
Y549665D01*
X579200Y537937D02*
Y538565D01*
Y541904D02*
Y542532D01*
Y543470D02*
Y544071D01*
Y546028D02*
Y546629D01*
Y548335D02*
Y548891D01*
Y549142D02*
Y549698D01*
X579300Y537977D02*
Y538615D01*
Y541944D02*
Y542582D01*
Y543505D02*
Y544104D01*
Y545996D02*
Y546594D01*
Y548302D02*
Y548860D01*
Y549173D02*
Y549731D01*
X579400Y538017D02*
Y538665D01*
Y541984D02*
Y542632D01*
Y543539D02*
Y544136D01*
Y545963D02*
Y546560D01*
Y548269D02*
Y548829D01*
Y549204D02*
Y549764D01*
X579500Y538057D02*
Y538715D01*
Y542024D02*
Y542682D01*
Y543573D02*
Y544168D01*
Y545931D02*
Y546526D01*
Y548236D02*
Y548798D01*
Y549235D02*
Y549797D01*
X579600Y538097D02*
Y538731D01*
Y542064D02*
Y542698D01*
Y543607D02*
Y544200D01*
Y545899D02*
Y546492D01*
Y548203D02*
Y548766D01*
Y549267D02*
Y549830D01*
X579700Y538137D02*
Y538744D01*
Y542104D02*
Y542711D01*
Y543642D02*
Y544232D01*
Y545867D02*
Y546457D01*
Y548171D02*
Y548735D01*
Y549298D02*
Y549862D01*
X579800Y538164D02*
Y538756D01*
Y542131D02*
Y542723D01*
Y543676D02*
Y544265D01*
Y545835D02*
Y546423D01*
Y548138D02*
Y548704D01*
Y549329D02*
Y549895D01*
X579900Y538180D02*
Y538769D01*
Y542146D02*
Y542736D01*
Y543710D02*
Y544297D01*
Y545802D02*
Y546389D01*
Y548105D02*
Y548673D01*
Y549360D02*
Y549928D01*
X580000Y538195D02*
Y538781D01*
Y542162D02*
Y542748D01*
Y543744D02*
Y544329D01*
Y545770D02*
Y546355D01*
Y548072D02*
Y548641D01*
Y549392D02*
Y549961D01*
X580100Y538210D02*
Y538793D01*
Y542177D02*
Y542760D01*
Y543779D02*
Y544361D01*
Y545738D02*
Y546320D01*
Y548039D02*
Y548610D01*
Y549423D02*
Y549994D01*
X580200Y538226D02*
Y538804D01*
Y542193D02*
Y542771D01*
Y543813D02*
Y544393D01*
Y545706D02*
Y546286D01*
Y548006D02*
Y548579D01*
Y549454D02*
Y550027D01*
X580300Y538241D02*
Y538815D01*
Y542208D02*
Y542782D01*
Y543847D02*
Y544426D01*
Y545674D02*
Y546252D01*
Y547973D02*
Y548548D01*
Y549485D02*
Y550060D01*
X580400Y538256D02*
Y538826D01*
Y542223D02*
Y542793D01*
Y543881D02*
Y544458D01*
Y545641D02*
Y546218D01*
Y547940D02*
Y548516D01*
Y549517D02*
Y550093D01*
X580500Y538272D02*
Y538837D01*
Y542239D02*
Y542804D01*
Y543916D02*
Y544490D01*
Y545609D02*
Y546183D01*
Y547908D02*
Y548485D01*
Y549548D02*
Y550125D01*
X580600Y538287D02*
Y538848D01*
Y542254D02*
Y542815D01*
Y543950D02*
Y544522D01*
Y545577D02*
Y546149D01*
Y547875D02*
Y548454D01*
Y549579D02*
Y550158D01*
X580700Y538290D02*
Y538842D01*
Y542257D02*
Y542809D01*
Y543984D02*
Y544554D01*
Y545545D02*
Y546115D01*
Y547842D02*
Y548423D01*
Y549610D02*
Y550191D01*
X580800Y538290D02*
Y538831D01*
Y542257D02*
Y542797D01*
Y544018D02*
Y544587D01*
Y545513D02*
Y546081D01*
Y547809D02*
Y548391D01*
Y549642D02*
Y550224D01*
X580900Y538290D02*
Y538819D01*
Y542257D02*
Y542786D01*
Y544053D02*
Y544619D01*
Y545480D02*
Y546046D01*
Y547776D02*
Y548360D01*
Y549673D02*
Y550257D01*
X581000Y538290D02*
Y538808D01*
Y542257D02*
Y542775D01*
Y544087D02*
Y544651D01*
Y545448D02*
Y546012D01*
Y547743D02*
Y548329D01*
Y549704D02*
Y550290D01*
X581100Y538287D02*
Y538797D01*
Y542254D02*
Y542764D01*
Y544121D02*
Y544683D01*
Y545416D02*
Y545978D01*
Y547710D02*
Y548308D01*
Y549725D02*
Y550323D01*
X581200Y538253D02*
Y538786D01*
Y542220D02*
Y542753D01*
Y544155D02*
Y544715D01*
Y545384D02*
Y545944D01*
Y547677D02*
Y550356D01*
X581300Y538220D02*
Y538772D01*
Y542187D02*
Y542739D01*
Y544190D02*
Y544748D01*
Y545351D02*
Y545910D01*
Y547645D02*
Y550388D01*
X581400Y538187D02*
Y538758D01*
Y542154D02*
Y542725D01*
Y544224D02*
Y544780D01*
Y545319D02*
Y545875D01*
Y547612D02*
Y550421D01*
X581500Y538153D02*
Y538743D01*
Y542120D02*
Y542710D01*
Y544258D02*
Y544812D01*
Y545287D02*
Y545841D01*
Y547579D02*
Y550454D01*
X581600Y538098D02*
Y538729D01*
Y542065D02*
Y542696D01*
Y544292D02*
Y544844D01*
Y545255D02*
Y545807D01*
Y547546D02*
Y548108D01*
Y549925D02*
Y550487D01*
X581700Y538042D02*
Y538705D01*
Y542009D02*
Y542672D01*
Y544327D02*
Y544876D01*
Y545223D02*
Y545773D01*
Y547513D02*
Y548080D01*
Y549953D02*
Y550520D01*
X581800Y537986D02*
Y538662D01*
Y541953D02*
Y542629D01*
Y544361D02*
Y544909D01*
Y545190D02*
Y545738D01*
Y547480D02*
Y548051D01*
Y549982D02*
Y550553D01*
X581900Y537931D02*
Y538619D01*
Y541898D02*
Y542586D01*
Y544395D02*
Y544941D01*
Y545158D02*
Y545704D01*
Y547447D02*
Y548023D01*
Y550010D02*
Y550586D01*
X582000Y535314D02*
Y535318D01*
Y537875D02*
Y538576D01*
Y539281D02*
Y539285D01*
Y541842D02*
Y542543D01*
Y544429D02*
Y544973D01*
Y545126D02*
Y545670D01*
Y547414D02*
Y547994D01*
Y550039D02*
Y550619D01*
X582100Y535314D02*
Y535418D01*
Y537820D02*
Y538533D01*
Y539281D02*
Y539385D01*
Y541787D02*
Y542500D01*
Y544464D02*
Y545007D01*
Y545093D02*
Y545636D01*
Y547382D02*
Y547965D01*
Y550068D02*
Y550651D01*
X582200Y535314D02*
Y535525D01*
Y537745D02*
Y538459D01*
Y539281D02*
Y539492D01*
Y541712D02*
Y542426D01*
Y544498D02*
Y545601D01*
Y547349D02*
Y547937D01*
Y550096D02*
Y550684D01*
X582300Y535314D02*
Y535658D01*
Y537670D02*
Y538379D01*
Y539281D02*
Y539625D01*
Y541637D02*
Y542346D01*
Y544532D02*
Y545567D01*
Y547316D02*
Y547908D01*
Y550125D02*
Y550717D01*
X582400Y535314D02*
Y535809D01*
Y537568D02*
Y538299D01*
Y539281D02*
Y539776D01*
Y541535D02*
Y542266D01*
Y544566D02*
Y545533D01*
Y547283D02*
Y547880D01*
Y550153D02*
Y550750D01*
X582500Y535314D02*
Y536042D01*
Y537368D02*
Y538206D01*
Y539281D02*
Y540009D01*
Y541335D02*
Y542173D01*
Y544601D02*
Y545499D01*
Y547250D02*
Y547851D01*
Y550182D02*
Y550783D01*
X582600Y535314D02*
Y536342D01*
Y537168D02*
Y538106D01*
Y539281D02*
Y540309D01*
Y541135D02*
Y542073D01*
Y544635D02*
Y545464D01*
Y547217D02*
Y547823D01*
Y550210D02*
Y550816D01*
X582700Y535314D02*
Y538006D01*
Y539281D02*
Y541973D01*
Y544669D02*
Y545430D01*
Y547184D02*
Y547794D01*
Y550239D02*
Y550849D01*
X582800Y535505D02*
Y537881D01*
Y539472D02*
Y541848D01*
Y544703D02*
Y545396D01*
Y547151D02*
Y547765D01*
Y550268D02*
Y550882D01*
X582900Y535784D02*
Y537714D01*
Y539751D02*
Y541681D01*
Y544738D02*
Y545362D01*
Y547119D02*
Y547737D01*
Y550296D02*
Y550914D01*
X583000Y536060D02*
Y537291D01*
Y540027D02*
Y541258D01*
X590100Y541239D02*
Y541357D01*
X590200Y540686D02*
Y541907D01*
X590300Y537265D02*
Y537652D01*
Y540566D02*
Y542315D01*
Y544631D02*
Y545402D01*
X590400Y537265D02*
Y537672D01*
Y540446D02*
Y542515D01*
Y544598D02*
Y545435D01*
X590500Y537265D02*
Y537692D01*
Y540336D02*
Y542520D01*
Y544565D02*
Y545468D01*
X590600Y537265D02*
Y537769D01*
Y540252D02*
Y541014D01*
Y541760D02*
Y542520D01*
Y544532D02*
Y545501D01*
X590700Y537265D02*
Y537869D01*
Y540169D02*
Y540864D01*
Y542060D02*
Y542520D01*
Y544499D02*
Y545534D01*
X590800Y537265D02*
Y538051D01*
Y540086D02*
Y540765D01*
Y542245D02*
Y542520D01*
Y544467D02*
Y545567D01*
X590900Y537265D02*
Y538619D01*
Y540034D02*
Y540690D01*
Y542395D02*
Y542520D01*
Y544434D02*
Y545599D01*
X591000Y537265D02*
Y538619D01*
Y540021D02*
Y540615D01*
Y544401D02*
Y544954D01*
Y545079D02*
Y545632D01*
X591100Y537265D02*
Y538619D01*
Y540009D02*
Y540589D01*
Y544368D02*
Y544923D01*
Y545110D02*
Y545665D01*
X591200Y537265D02*
Y538619D01*
Y539996D02*
Y540569D01*
Y544335D02*
Y544891D01*
Y545142D02*
Y545698D01*
X591300Y537265D02*
Y537760D01*
Y539984D02*
Y540549D01*
Y544302D02*
Y544860D01*
Y545173D02*
Y545731D01*
X591400Y537265D02*
Y537760D01*
Y539981D02*
Y540542D01*
Y544269D02*
Y544829D01*
Y545204D02*
Y545764D01*
X591500Y537265D02*
Y537760D01*
Y539993D02*
Y540559D01*
Y544236D02*
Y544798D01*
Y545235D02*
Y545797D01*
X591600Y537265D02*
Y537760D01*
Y540006D02*
Y540575D01*
Y544203D02*
Y544766D01*
Y545267D02*
Y545830D01*
X591700Y537265D02*
Y537760D01*
Y540018D02*
Y540592D01*
Y544171D02*
Y544735D01*
Y545298D02*
Y545862D01*
X591800Y537265D02*
Y537760D01*
Y540031D02*
Y540613D01*
Y544138D02*
Y544704D01*
Y545329D02*
Y545895D01*
X591900Y537265D02*
Y537760D01*
Y540049D02*
Y540647D01*
Y544105D02*
Y544673D01*
Y545360D02*
Y545928D01*
X592000Y537265D02*
Y537760D01*
Y540092D02*
Y540680D01*
Y544072D02*
Y544641D01*
Y545392D02*
Y545961D01*
X592100Y537265D02*
Y537760D01*
Y540135D02*
Y540713D01*
Y544039D02*
Y544610D01*
Y545423D02*
Y545994D01*
X592200Y537265D02*
Y537760D01*
Y540178D02*
Y540752D01*
Y544006D02*
Y544579D01*
Y545454D02*
Y546027D01*
X592300Y537265D02*
Y537760D01*
Y540221D02*
Y540809D01*
Y543973D02*
Y544548D01*
Y545485D02*
Y546060D01*
X592400Y537265D02*
Y537760D01*
Y540273D02*
Y540866D01*
Y543940D02*
Y544516D01*
Y545517D02*
Y546093D01*
X592500Y537265D02*
Y537760D01*
Y540330D02*
Y540924D01*
Y543908D02*
Y544485D01*
Y545548D02*
Y546125D01*
X592600Y537265D02*
Y537760D01*
Y540387D02*
Y540981D01*
Y543875D02*
Y544454D01*
Y545579D02*
Y546158D01*
X592700Y537265D02*
Y537760D01*
Y540445D02*
Y541053D01*
Y543842D02*
Y544423D01*
Y545610D02*
Y546191D01*
X592800Y537265D02*
Y537760D01*
Y540507D02*
Y541141D01*
Y543809D02*
Y544391D01*
Y545642D02*
Y546224D01*
X592900Y537265D02*
Y537760D01*
Y540607D02*
Y541228D01*
Y543776D02*
Y544360D01*
Y545673D02*
Y546257D01*
X593000Y537265D02*
Y537760D01*
Y540707D02*
Y541316D01*
Y543743D02*
Y544329D01*
Y545704D02*
Y546290D01*
X593100Y537265D02*
Y537760D01*
Y540807D02*
Y541403D01*
Y543710D02*
Y544308D01*
Y545725D02*
Y546323D01*
X593200Y537265D02*
Y537760D01*
Y540907D02*
Y541493D01*
Y543677D02*
Y546356D01*
X593300Y537265D02*
Y537760D01*
Y541007D02*
Y541593D01*
Y543645D02*
Y546388D01*
X593400Y537265D02*
Y537760D01*
Y541107D02*
Y541693D01*
Y543612D02*
Y546421D01*
X593500Y537265D02*
Y537760D01*
Y541207D02*
Y541793D01*
Y543579D02*
Y546454D01*
X593600Y537265D02*
Y537760D01*
Y541307D02*
Y541893D01*
Y543546D02*
Y544108D01*
Y545925D02*
Y546487D01*
X593700Y537265D02*
Y537760D01*
Y541407D02*
Y541993D01*
Y543513D02*
Y544080D01*
Y545953D02*
Y546520D01*
X593800Y537265D02*
Y537760D01*
Y541507D02*
Y542093D01*
Y543480D02*
Y544051D01*
Y545982D02*
Y546553D01*
X593900Y537265D02*
Y537760D01*
Y541607D02*
Y542193D01*
Y543447D02*
Y544023D01*
Y546010D02*
Y546586D01*
X594000Y537265D02*
Y537760D01*
Y541707D02*
Y542293D01*
Y543414D02*
Y543994D01*
Y546039D02*
Y546619D01*
X594100Y537265D02*
Y537760D01*
Y541807D02*
Y542393D01*
Y543382D02*
Y543965D01*
Y546068D02*
Y546651D01*
X594200Y537265D02*
Y537760D01*
Y541907D02*
Y542493D01*
Y543349D02*
Y543937D01*
Y546096D02*
Y546684D01*
X594300Y537265D02*
Y537760D01*
Y542007D02*
Y542593D01*
Y543316D02*
Y543908D01*
Y546125D02*
Y546717D01*
X594400Y537265D02*
Y537760D01*
Y542107D02*
Y542652D01*
Y543283D02*
Y543880D01*
Y546153D02*
Y546750D01*
X594500Y537265D02*
Y537760D01*
Y542148D02*
Y542652D01*
Y543250D02*
Y543851D01*
Y546182D02*
Y546783D01*
X594600Y536405D02*
Y538619D01*
Y539777D02*
Y542652D01*
Y543217D02*
Y543823D01*
Y546210D02*
Y546816D01*
X594700Y536405D02*
Y538619D01*
Y539777D02*
Y542652D01*
Y543184D02*
Y543794D01*
Y546239D02*
Y546849D01*
X594800Y536405D02*
Y538619D01*
Y539777D02*
Y542652D01*
Y543151D02*
Y543765D01*
Y546268D02*
Y546882D01*
X594900Y536405D02*
Y538619D01*
Y539777D02*
Y542652D01*
Y543119D02*
Y543737D01*
Y546296D02*
Y546914D01*
X602300Y539843D02*
Y542388D01*
Y544631D02*
Y545402D01*
X602400Y539843D02*
Y542388D01*
Y544598D02*
Y545435D01*
X602500Y539843D02*
Y542388D01*
Y544565D02*
Y545468D01*
X602600Y539843D02*
Y542388D01*
Y544532D02*
Y545501D01*
X602700Y541893D02*
Y542388D01*
Y544499D02*
Y545534D01*
X602800Y541893D02*
Y542388D01*
Y544467D02*
Y545567D01*
X602900Y541893D02*
Y542388D01*
Y544434D02*
Y545599D01*
X603000Y541893D02*
Y542388D01*
Y544401D02*
Y544954D01*
Y545079D02*
Y545632D01*
X603100Y541893D02*
Y542388D01*
Y544368D02*
Y544923D01*
Y545110D02*
Y545665D01*
X603200Y541893D02*
Y542388D01*
Y544335D02*
Y544891D01*
Y545142D02*
Y545698D01*
X603300Y541893D02*
Y542388D01*
Y544302D02*
Y544860D01*
Y545173D02*
Y545731D01*
X603400Y541893D02*
Y542388D01*
Y544269D02*
Y544829D01*
Y545204D02*
Y545764D01*
X603500Y541893D02*
Y542388D01*
Y544236D02*
Y544798D01*
Y545235D02*
Y545797D01*
X603600Y541893D02*
Y542388D01*
Y544203D02*
Y544766D01*
Y545267D02*
Y545830D01*
X603700Y541893D02*
Y542388D01*
Y544171D02*
Y544735D01*
Y545298D02*
Y545862D01*
X603800Y541893D02*
Y542388D01*
Y544138D02*
Y544704D01*
Y545329D02*
Y545895D01*
X603900Y541893D02*
Y542388D01*
Y544105D02*
Y544673D01*
Y545360D02*
Y545928D01*
X604000Y541893D02*
Y542388D01*
Y544072D02*
Y544641D01*
Y545392D02*
Y545961D01*
X604100Y541156D02*
Y542388D01*
Y544039D02*
Y544610D01*
Y545423D02*
Y545994D01*
X604200Y540679D02*
Y542388D01*
Y544006D02*
Y544579D01*
Y545454D02*
Y546027D01*
X604300Y540479D02*
Y542388D01*
Y543973D02*
Y544548D01*
Y545485D02*
Y546060D01*
X604400Y540286D02*
Y542388D01*
Y543940D02*
Y544516D01*
Y545517D02*
Y546093D01*
X604500Y540214D02*
Y542388D01*
Y543908D02*
Y544485D01*
Y545548D02*
Y546125D01*
X604600Y540143D02*
Y540985D01*
Y542226D02*
Y542388D01*
Y543875D02*
Y544454D01*
Y545579D02*
Y546158D01*
X604700Y540071D02*
Y540819D01*
Y543842D02*
Y544423D01*
Y545610D02*
Y546191D01*
X604800Y540000D02*
Y540670D01*
Y543809D02*
Y544391D01*
Y545642D02*
Y546224D01*
X604900Y539941D02*
Y540595D01*
Y543776D02*
Y544360D01*
Y545673D02*
Y546257D01*
X605000Y539891D02*
Y540520D01*
Y543743D02*
Y544329D01*
Y545704D02*
Y546290D01*
X605100Y539843D02*
Y540467D01*
Y543710D02*
Y544308D01*
Y545725D02*
Y546323D01*
X605200Y539843D02*
Y540450D01*
Y543677D02*
Y546356D01*
X605300Y539843D02*
Y540434D01*
Y543645D02*
Y546388D01*
X605400Y539843D02*
Y540417D01*
Y543612D02*
Y546421D01*
X605500Y539849D02*
Y540407D01*
Y543579D02*
Y546454D01*
X605600Y539869D02*
Y540421D01*
Y543546D02*
Y544108D01*
Y545925D02*
Y546487D01*
X605700Y539889D02*
Y540436D01*
Y543513D02*
Y544080D01*
Y545953D02*
Y546520D01*
X605800Y539909D02*
Y540450D01*
Y543480D02*
Y544051D01*
Y545982D02*
Y546553D01*
X605900Y539929D02*
Y540464D01*
Y543447D02*
Y544023D01*
Y546010D02*
Y546586D01*
X606000Y539949D02*
Y540497D01*
Y543414D02*
Y543994D01*
Y546039D02*
Y546619D01*
X606100Y539969D02*
Y540557D01*
Y543382D02*
Y543965D01*
Y546068D02*
Y546651D01*
X606200Y540011D02*
Y540617D01*
Y543349D02*
Y543937D01*
Y546096D02*
Y546684D01*
X606300Y540061D02*
Y540677D01*
Y542520D02*
Y542586D01*
Y543316D02*
Y543908D01*
Y546125D02*
Y546717D01*
X606400Y540111D02*
Y540776D01*
Y542361D02*
Y542586D01*
Y543283D02*
Y543880D01*
Y546153D02*
Y546750D01*
X606500Y540161D02*
Y540876D01*
Y542161D02*
Y542586D01*
Y543250D02*
Y543851D01*
Y546182D02*
Y546783D01*
X606600Y540211D02*
Y541056D01*
Y541879D02*
Y542586D01*
Y543217D02*
Y543823D01*
Y546210D02*
Y546816D01*
X606700Y540333D02*
Y542586D01*
Y543184D02*
Y543794D01*
Y546239D02*
Y546849D01*
X606800Y540493D02*
Y542586D01*
Y543151D02*
Y543765D01*
Y546268D02*
Y546882D01*
X606900Y540653D02*
Y542382D01*
Y543119D02*
Y543737D01*
Y546296D02*
Y546914D01*
X607000Y540974D02*
Y542082D01*
X614100Y537602D02*
Y537716D01*
X614200Y537009D02*
Y538216D01*
X614300Y536809D02*
Y538678D01*
Y540901D02*
Y541288D01*
Y544631D02*
Y545402D01*
X614400Y536673D02*
Y538878D01*
Y540901D02*
Y541308D01*
Y544598D02*
Y545435D01*
X614500Y536589D02*
Y538884D01*
Y540901D02*
Y541328D01*
Y544565D02*
Y545468D01*
X614600Y536506D02*
Y537353D01*
Y538118D02*
Y538884D01*
Y540901D02*
Y541405D01*
Y544532D02*
Y545501D01*
X614700Y536423D02*
Y537088D01*
Y538368D02*
Y538884D01*
Y540901D02*
Y541505D01*
Y544499D02*
Y545534D01*
X614800Y536383D02*
Y537013D01*
Y538580D02*
Y538884D01*
Y540901D02*
Y541688D01*
Y544467D02*
Y545567D01*
X614900Y536358D02*
Y536938D01*
Y538758D02*
Y538884D01*
Y540901D02*
Y542256D01*
Y544434D02*
Y545599D01*
X615000Y536333D02*
Y536891D01*
Y540901D02*
Y542256D01*
Y544401D02*
Y544954D01*
Y545079D02*
Y545632D01*
X615100Y536308D02*
Y536866D01*
Y540901D02*
Y542256D01*
Y544368D02*
Y544923D01*
Y545110D02*
Y545665D01*
X615200Y536283D02*
Y536841D01*
Y540901D02*
Y542256D01*
Y544335D02*
Y544891D01*
Y545142D02*
Y545698D01*
X615300Y536285D02*
Y536845D01*
Y540901D02*
Y541396D01*
Y544302D02*
Y544860D01*
Y545173D02*
Y545731D01*
X615400Y536302D02*
Y536862D01*
Y540901D02*
Y541396D01*
Y544269D02*
Y544829D01*
Y545204D02*
Y545764D01*
X615500Y536319D02*
Y536878D01*
Y540901D02*
Y541396D01*
Y544236D02*
Y544798D01*
Y545235D02*
Y545797D01*
X615600Y536335D02*
Y536895D01*
Y540901D02*
Y541396D01*
Y544203D02*
Y544766D01*
Y545267D02*
Y545830D01*
X615700Y536391D02*
Y536942D01*
Y540901D02*
Y541396D01*
Y544171D02*
Y544735D01*
Y545298D02*
Y545862D01*
X615800Y536451D02*
Y537017D01*
Y540901D02*
Y541396D01*
Y544138D02*
Y544704D01*
Y545329D02*
Y545895D01*
X615900Y536511D02*
Y537092D01*
Y540901D02*
Y541396D01*
Y544105D02*
Y544673D01*
Y545360D02*
Y545928D01*
X616000Y536626D02*
Y537283D01*
Y540901D02*
Y541396D01*
Y544072D02*
Y544641D01*
Y545392D02*
Y545961D01*
X616100Y536759D02*
Y537626D01*
Y540901D02*
Y541396D01*
Y544039D02*
Y544610D01*
Y545423D02*
Y545994D01*
X616200Y537039D02*
Y538024D01*
Y540901D02*
Y541396D01*
Y544006D02*
Y544579D01*
Y545454D02*
Y546027D01*
X616300Y537199D02*
Y538024D01*
Y540901D02*
Y541396D01*
Y543973D02*
Y544548D01*
Y545485D02*
Y546060D01*
X616400Y537171D02*
Y538024D01*
Y540901D02*
Y541396D01*
Y543940D02*
Y544516D01*
Y545517D02*
Y546093D01*
X616500Y536922D02*
Y538024D01*
Y540901D02*
Y541396D01*
Y543908D02*
Y544485D01*
Y545548D02*
Y546125D01*
X616600Y536728D02*
Y537625D01*
Y540901D02*
Y541396D01*
Y543875D02*
Y544454D01*
Y545579D02*
Y546158D01*
X616700Y536561D02*
Y537243D01*
Y540901D02*
Y541396D01*
Y543842D02*
Y544423D01*
Y545610D02*
Y546191D01*
X616800Y536460D02*
Y537034D01*
Y540901D02*
Y541396D01*
Y543809D02*
Y544391D01*
Y545642D02*
Y546224D01*
X616900Y536380D02*
Y536959D01*
Y540901D02*
Y541396D01*
Y543776D02*
Y544360D01*
Y545673D02*
Y546257D01*
X617000Y536300D02*
Y536884D01*
Y540901D02*
Y541396D01*
Y543743D02*
Y544329D01*
Y545704D02*
Y546290D01*
X617100Y536264D02*
Y536831D01*
Y540901D02*
Y541396D01*
Y543710D02*
Y544308D01*
Y545725D02*
Y546323D01*
X617200Y536253D02*
Y536817D01*
Y540901D02*
Y541396D01*
Y543677D02*
Y546356D01*
X617300Y536242D02*
Y536803D01*
Y540901D02*
Y541396D01*
Y543645D02*
Y546388D01*
X617400Y536231D02*
Y536788D01*
Y540901D02*
Y541396D01*
Y543612D02*
Y546421D01*
X617500Y536220D02*
Y536774D01*
Y540901D02*
Y541396D01*
Y543579D02*
Y546454D01*
X617600Y536209D02*
Y536775D01*
Y540901D02*
Y541396D01*
Y543546D02*
Y544108D01*
Y545925D02*
Y546487D01*
X617700Y536228D02*
Y536790D01*
Y540901D02*
Y541396D01*
Y543513D02*
Y544080D01*
Y545953D02*
Y546520D01*
X617800Y536250D02*
Y536804D01*
Y540901D02*
Y541396D01*
Y543480D02*
Y544051D01*
Y545982D02*
Y546553D01*
X617900Y536272D02*
Y536818D01*
Y540901D02*
Y541396D01*
Y543447D02*
Y544023D01*
Y546010D02*
Y546586D01*
X618000Y536295D02*
Y536833D01*
Y540901D02*
Y541396D01*
Y543414D02*
Y543994D01*
Y546039D02*
Y546619D01*
X618100Y536317D02*
Y536881D01*
Y540901D02*
Y541396D01*
Y543382D02*
Y543965D01*
Y546068D02*
Y546651D01*
X618200Y536343D02*
Y536941D01*
Y539011D02*
Y539016D01*
Y540901D02*
Y541396D01*
Y543349D02*
Y543937D01*
Y546096D02*
Y546684D01*
X618300Y536400D02*
Y537001D01*
Y538911D02*
Y539016D01*
Y540901D02*
Y541396D01*
Y543316D02*
Y543908D01*
Y546125D02*
Y546717D01*
X618400Y536457D02*
Y537087D01*
Y538783D02*
Y539016D01*
Y540901D02*
Y541396D01*
Y543283D02*
Y543880D01*
Y546153D02*
Y546750D01*
X618500Y536514D02*
Y537254D01*
Y538533D02*
Y539016D01*
Y540901D02*
Y541396D01*
Y543250D02*
Y543851D01*
Y546182D02*
Y546783D01*
X618600Y536572D02*
Y537486D01*
Y538283D02*
Y539016D01*
Y540042D02*
Y542256D01*
Y543217D02*
Y543823D01*
Y546210D02*
Y546816D01*
X618700Y536697D02*
Y539016D01*
Y540042D02*
Y542256D01*
Y543184D02*
Y543794D01*
Y546239D02*
Y546849D01*
X618800Y536857D02*
Y539016D01*
Y540042D02*
Y542256D01*
Y543151D02*
Y543765D01*
Y546268D02*
Y546882D01*
X618900Y537017D02*
Y538811D01*
Y540042D02*
Y542256D01*
Y543119D02*
Y543737D01*
Y546296D02*
Y546914D01*
X619000Y537338D02*
Y538511D01*
X626100Y537602D02*
Y537721D01*
X626200Y537050D02*
Y538271D01*
X626300Y536930D02*
Y538678D01*
Y540901D02*
Y541288D01*
Y544631D02*
Y545402D01*
X626400Y536810D02*
Y538878D01*
Y540901D02*
Y541308D01*
Y544598D02*
Y545435D01*
X626500Y536699D02*
Y538884D01*
Y540901D02*
Y541328D01*
Y544565D02*
Y545468D01*
X626600Y536616D02*
Y537378D01*
Y538123D02*
Y538884D01*
Y540901D02*
Y541405D01*
Y544532D02*
Y545501D01*
X626700Y536533D02*
Y537228D01*
Y538423D02*
Y538884D01*
Y540901D02*
Y541505D01*
Y544499D02*
Y545534D01*
X626800Y536449D02*
Y537129D01*
Y538608D02*
Y538884D01*
Y540901D02*
Y541688D01*
Y544467D02*
Y545567D01*
X626900Y536398D02*
Y537054D01*
Y538758D02*
Y538884D01*
Y540901D02*
Y542256D01*
Y544434D02*
Y545599D01*
X627000Y536385D02*
Y536979D01*
Y540901D02*
Y542256D01*
Y544401D02*
Y544954D01*
Y545079D02*
Y545632D01*
X627100Y536373D02*
Y536952D01*
Y540901D02*
Y542256D01*
Y544368D02*
Y544923D01*
Y545110D02*
Y545665D01*
X627200Y536360D02*
Y536932D01*
Y540901D02*
Y542256D01*
Y544335D02*
Y544891D01*
Y545142D02*
Y545698D01*
X627300Y536348D02*
Y536912D01*
Y540901D02*
Y541396D01*
Y544302D02*
Y544860D01*
Y545173D02*
Y545731D01*
X627400Y536344D02*
Y536906D01*
Y540901D02*
Y541396D01*
Y544269D02*
Y544829D01*
Y545204D02*
Y545764D01*
X627500Y536357D02*
Y536922D01*
Y540901D02*
Y541396D01*
Y544236D02*
Y544798D01*
Y545235D02*
Y545797D01*
X627600Y536369D02*
Y536939D01*
Y540901D02*
Y541396D01*
Y544203D02*
Y544766D01*
Y545267D02*
Y545830D01*
X627700Y536382D02*
Y536956D01*
Y540901D02*
Y541396D01*
Y544171D02*
Y544735D01*
Y545298D02*
Y545862D01*
X627800Y536394D02*
Y536977D01*
Y540901D02*
Y541396D01*
Y544138D02*
Y544704D01*
Y545329D02*
Y545895D01*
X627900Y536413D02*
Y537010D01*
Y540901D02*
Y541396D01*
Y544105D02*
Y544673D01*
Y545360D02*
Y545928D01*
X628000Y536456D02*
Y537044D01*
Y540901D02*
Y541396D01*
Y544072D02*
Y544641D01*
Y545392D02*
Y545961D01*
X628100Y536499D02*
Y537077D01*
Y540901D02*
Y541396D01*
Y544039D02*
Y544610D01*
Y545423D02*
Y545994D01*
X628200Y536542D02*
Y537116D01*
Y540901D02*
Y541396D01*
Y544006D02*
Y544579D01*
Y545454D02*
Y546027D01*
X628300Y536584D02*
Y537173D01*
Y540901D02*
Y541396D01*
Y543973D02*
Y544548D01*
Y545485D02*
Y546060D01*
X628400Y536637D02*
Y537230D01*
Y540901D02*
Y541396D01*
Y543940D02*
Y544516D01*
Y545517D02*
Y546093D01*
X628500Y536694D02*
Y537287D01*
Y540901D02*
Y541396D01*
Y543908D02*
Y544485D01*
Y545548D02*
Y546125D01*
X628600Y536751D02*
Y537344D01*
Y540901D02*
Y541396D01*
Y543875D02*
Y544454D01*
Y545579D02*
Y546158D01*
X628700Y536808D02*
Y537417D01*
Y540901D02*
Y541396D01*
Y543842D02*
Y544423D01*
Y545610D02*
Y546191D01*
X628800Y536871D02*
Y537504D01*
Y540901D02*
Y541396D01*
Y543809D02*
Y544391D01*
Y545642D02*
Y546224D01*
X628900Y536971D02*
Y537592D01*
Y540901D02*
Y541396D01*
Y543776D02*
Y544360D01*
Y545673D02*
Y546257D01*
X629000Y537071D02*
Y537679D01*
Y540901D02*
Y541396D01*
Y543743D02*
Y544329D01*
Y545704D02*
Y546290D01*
X629100Y537171D02*
Y537767D01*
Y540901D02*
Y541396D01*
Y543710D02*
Y544308D01*
Y545725D02*
Y546323D01*
X629200Y537271D02*
Y537857D01*
Y540901D02*
Y541396D01*
Y543677D02*
Y546356D01*
X629300Y537371D02*
Y537957D01*
Y540901D02*
Y541396D01*
Y543645D02*
Y546388D01*
X629400Y537471D02*
Y538057D01*
Y540901D02*
Y541396D01*
Y543612D02*
Y546421D01*
X629500Y537571D02*
Y538157D01*
Y540901D02*
Y541396D01*
Y543579D02*
Y546454D01*
X629600Y537671D02*
Y538257D01*
Y540901D02*
Y541396D01*
Y543546D02*
Y544108D01*
Y545925D02*
Y546487D01*
X629700Y537771D02*
Y538357D01*
Y540901D02*
Y541396D01*
Y543513D02*
Y544080D01*
Y545953D02*
Y546520D01*
X629800Y537871D02*
Y538457D01*
Y540901D02*
Y541396D01*
Y543480D02*
Y544051D01*
Y545982D02*
Y546553D01*
X629900Y537971D02*
Y538557D01*
Y540901D02*
Y541396D01*
Y543447D02*
Y544023D01*
Y546010D02*
Y546586D01*
X630000Y538071D02*
Y538657D01*
Y540901D02*
Y541396D01*
Y543414D02*
Y543994D01*
Y546039D02*
Y546619D01*
X630100Y538171D02*
Y538757D01*
Y540901D02*
Y541396D01*
Y543382D02*
Y543965D01*
Y546068D02*
Y546651D01*
X630200Y538271D02*
Y538857D01*
Y540901D02*
Y541396D01*
Y543349D02*
Y543937D01*
Y546096D02*
Y546684D01*
X630300Y538371D02*
Y538957D01*
Y540901D02*
Y541396D01*
Y543316D02*
Y543908D01*
Y546125D02*
Y546717D01*
X630400Y538471D02*
Y539016D01*
Y540901D02*
Y541396D01*
Y543283D02*
Y543880D01*
Y546153D02*
Y546750D01*
X630500Y538512D02*
Y539016D01*
Y540901D02*
Y541396D01*
Y543250D02*
Y543851D01*
Y546182D02*
Y546783D01*
X630600Y536141D02*
Y539016D01*
Y540042D02*
Y542256D01*
Y543217D02*
Y543823D01*
Y546210D02*
Y546816D01*
X630700Y536141D02*
Y539016D01*
Y540042D02*
Y542256D01*
Y543184D02*
Y543794D01*
Y546239D02*
Y546849D01*
X630800Y536141D02*
Y539016D01*
Y540042D02*
Y542256D01*
Y543151D02*
Y543765D01*
Y546268D02*
Y546882D01*
X630900Y536141D02*
Y539016D01*
Y540042D02*
Y542256D01*
Y543119D02*
Y543737D01*
Y546296D02*
Y546914D01*
X638300Y537265D02*
Y537652D01*
Y540901D02*
Y541288D01*
Y544631D02*
Y545402D01*
X638400Y537265D02*
Y537672D01*
Y540901D02*
Y541308D01*
Y544598D02*
Y545435D01*
X638500Y537265D02*
Y537692D01*
Y540901D02*
Y541328D01*
Y544565D02*
Y545468D01*
X638600Y537265D02*
Y537769D01*
Y540901D02*
Y541405D01*
Y544532D02*
Y545501D01*
X638700Y537265D02*
Y537869D01*
Y540901D02*
Y541505D01*
Y544499D02*
Y545534D01*
X638800Y537265D02*
Y538051D01*
Y540901D02*
Y541688D01*
Y544467D02*
Y545567D01*
X638900Y537265D02*
Y538619D01*
Y540901D02*
Y542256D01*
Y544434D02*
Y545599D01*
X639000Y537265D02*
Y538619D01*
Y540901D02*
Y542256D01*
Y544401D02*
Y544954D01*
Y545079D02*
Y545632D01*
X639100Y537265D02*
Y538619D01*
Y540901D02*
Y542256D01*
Y544368D02*
Y544923D01*
Y545110D02*
Y545665D01*
X639200Y537265D02*
Y538619D01*
Y540901D02*
Y542256D01*
Y544335D02*
Y544891D01*
Y545142D02*
Y545698D01*
X639300Y537265D02*
Y537760D01*
Y540901D02*
Y541396D01*
Y544302D02*
Y544860D01*
Y545173D02*
Y545731D01*
X639400Y537265D02*
Y537760D01*
Y540901D02*
Y541396D01*
Y544269D02*
Y544829D01*
Y545204D02*
Y545764D01*
X639500Y537265D02*
Y537760D01*
Y540901D02*
Y541396D01*
Y544236D02*
Y544798D01*
Y545235D02*
Y545797D01*
X639600Y537265D02*
Y537760D01*
Y540901D02*
Y541396D01*
Y544203D02*
Y544766D01*
Y545267D02*
Y545830D01*
X639700Y537265D02*
Y537760D01*
Y540901D02*
Y541396D01*
Y544171D02*
Y544735D01*
Y545298D02*
Y545862D01*
X639800Y537265D02*
Y537760D01*
Y540901D02*
Y541396D01*
Y544138D02*
Y544704D01*
Y545329D02*
Y545895D01*
X639900Y537265D02*
Y537760D01*
Y540901D02*
Y541396D01*
Y544105D02*
Y544673D01*
Y545360D02*
Y545928D01*
X640000Y537265D02*
Y537760D01*
Y540901D02*
Y541396D01*
Y544072D02*
Y544641D01*
Y545392D02*
Y545961D01*
X640100Y537265D02*
Y537760D01*
Y540901D02*
Y541396D01*
Y544039D02*
Y544610D01*
Y545423D02*
Y545994D01*
X640200Y537265D02*
Y537760D01*
Y540901D02*
Y541396D01*
Y544006D02*
Y544579D01*
Y545454D02*
Y546027D01*
X640300Y537265D02*
Y537760D01*
Y540901D02*
Y541396D01*
Y543973D02*
Y544548D01*
Y545485D02*
Y546060D01*
X640400Y537265D02*
Y537760D01*
Y540901D02*
Y541396D01*
Y543940D02*
Y544516D01*
Y545517D02*
Y546093D01*
X640500Y537265D02*
Y537760D01*
Y540901D02*
Y541396D01*
Y543908D02*
Y544485D01*
Y545548D02*
Y546125D01*
X640600Y537265D02*
Y537760D01*
Y540901D02*
Y541396D01*
Y543875D02*
Y544454D01*
Y545579D02*
Y546158D01*
X640700Y537265D02*
Y537760D01*
Y540901D02*
Y541396D01*
Y543842D02*
Y544423D01*
Y545610D02*
Y546191D01*
X640800Y537265D02*
Y537760D01*
Y540901D02*
Y541396D01*
Y543809D02*
Y544391D01*
Y545642D02*
Y546224D01*
X640900Y537265D02*
Y537760D01*
Y540901D02*
Y541396D01*
Y543776D02*
Y544360D01*
Y545673D02*
Y546257D01*
X641000Y537265D02*
Y537760D01*
Y540901D02*
Y541396D01*
Y543743D02*
Y544329D01*
Y545704D02*
Y546290D01*
X641100Y537265D02*
Y537760D01*
Y540901D02*
Y541396D01*
Y543710D02*
Y544308D01*
Y545725D02*
Y546323D01*
X641200Y537265D02*
Y537760D01*
Y540901D02*
Y541396D01*
Y543677D02*
Y546356D01*
X641300Y537265D02*
Y537760D01*
Y540901D02*
Y541396D01*
Y543645D02*
Y546388D01*
X641400Y537265D02*
Y537760D01*
Y540901D02*
Y541396D01*
Y543612D02*
Y546421D01*
X641500Y537265D02*
Y537760D01*
Y540901D02*
Y541396D01*
Y543579D02*
Y546454D01*
X641600Y537265D02*
Y537760D01*
Y540901D02*
Y541396D01*
Y543546D02*
Y544108D01*
Y545925D02*
Y546487D01*
X641700Y537265D02*
Y537760D01*
Y540901D02*
Y541396D01*
Y543513D02*
Y544080D01*
Y545953D02*
Y546520D01*
X641800Y537265D02*
Y537760D01*
Y540901D02*
Y541396D01*
Y543480D02*
Y544051D01*
Y545982D02*
Y546553D01*
X641900Y537265D02*
Y537760D01*
Y540901D02*
Y541396D01*
Y543447D02*
Y544023D01*
Y546010D02*
Y546586D01*
X642000Y537265D02*
Y537760D01*
Y540901D02*
Y541396D01*
Y543414D02*
Y543994D01*
Y546039D02*
Y546619D01*
X642100Y537265D02*
Y537760D01*
Y540901D02*
Y541396D01*
Y543382D02*
Y543965D01*
Y546068D02*
Y546651D01*
X642200Y537265D02*
Y537760D01*
Y540901D02*
Y541396D01*
Y543349D02*
Y543937D01*
Y546096D02*
Y546684D01*
X642300Y537265D02*
Y537760D01*
Y540901D02*
Y541396D01*
Y543316D02*
Y543908D01*
Y546125D02*
Y546717D01*
X642400Y537265D02*
Y537760D01*
Y540901D02*
Y541396D01*
Y543283D02*
Y543880D01*
Y546153D02*
Y546750D01*
X642500Y537265D02*
Y537760D01*
Y540901D02*
Y541396D01*
Y543250D02*
Y543851D01*
Y546182D02*
Y546783D01*
X642600Y536405D02*
Y538619D01*
Y540042D02*
Y542256D01*
Y543217D02*
Y543823D01*
Y546210D02*
Y546816D01*
X642700Y536405D02*
Y538619D01*
Y540042D02*
Y542256D01*
Y543184D02*
Y543794D01*
Y546239D02*
Y546849D01*
X642800Y536405D02*
Y538619D01*
Y540042D02*
Y542256D01*
Y543151D02*
Y543765D01*
Y546268D02*
Y546882D01*
X642900Y536405D02*
Y538619D01*
Y540042D02*
Y542256D01*
Y543119D02*
Y543737D01*
Y546296D02*
Y546914D01*
X650100Y537564D02*
Y537650D01*
X650200Y537051D02*
Y538150D01*
X650300Y536865D02*
Y538358D01*
Y540901D02*
Y541288D01*
Y544631D02*
Y545402D01*
X650400Y536732D02*
Y538491D01*
Y540901D02*
Y541308D01*
Y544598D02*
Y545435D01*
X650500Y536667D02*
Y538571D01*
Y540901D02*
Y541328D01*
Y544565D02*
Y545468D01*
X650600Y536607D02*
Y537325D01*
Y537859D02*
Y538646D01*
Y540901D02*
Y541405D01*
Y544532D02*
Y545501D01*
X650700Y536547D02*
Y537094D01*
Y538071D02*
Y538711D01*
Y540901D02*
Y541505D01*
Y544499D02*
Y545534D01*
X650800Y536487D02*
Y537044D01*
Y538155D02*
Y538761D01*
Y540901D02*
Y541688D01*
Y544467D02*
Y545567D01*
X650900Y536427D02*
Y536994D01*
Y538238D02*
Y538811D01*
Y540901D02*
Y542256D01*
Y544434D02*
Y545599D01*
X651000Y536367D02*
Y536944D01*
Y538321D02*
Y538861D01*
Y540901D02*
Y542256D01*
Y544401D02*
Y544954D01*
Y545079D02*
Y545632D01*
X651100Y536322D02*
Y536899D01*
Y538389D02*
Y538903D01*
Y540901D02*
Y542256D01*
Y544368D02*
Y544923D01*
Y545110D02*
Y545665D01*
X651200Y536294D02*
Y536877D01*
Y538399D02*
Y538937D01*
Y540901D02*
Y542256D01*
Y544335D02*
Y544891D01*
Y545142D02*
Y545698D01*
X651300Y536265D02*
Y536855D01*
Y538409D02*
Y538970D01*
Y540901D02*
Y541396D01*
Y544302D02*
Y544860D01*
Y545173D02*
Y545731D01*
X651400Y536236D02*
Y536832D01*
Y538419D02*
Y539003D01*
Y540901D02*
Y541396D01*
Y544269D02*
Y544829D01*
Y545204D02*
Y545764D01*
X651500Y536208D02*
Y536810D01*
Y538429D02*
Y539025D01*
Y540901D02*
Y541396D01*
Y544236D02*
Y544798D01*
Y545235D02*
Y545797D01*
X651600Y536194D02*
Y536788D01*
Y538439D02*
Y539037D01*
Y540901D02*
Y541396D01*
Y544203D02*
Y544766D01*
Y545267D02*
Y545830D01*
X651700Y536182D02*
Y536768D01*
Y538449D02*
Y539050D01*
Y540901D02*
Y541396D01*
Y544171D02*
Y544735D01*
Y545298D02*
Y545862D01*
X651800Y536169D02*
Y536760D01*
Y538458D02*
Y539062D01*
Y540901D02*
Y541396D01*
Y544138D02*
Y544704D01*
Y545329D02*
Y545895D01*
X651900Y536157D02*
Y536753D01*
Y538466D02*
Y539075D01*
Y540901D02*
Y541396D01*
Y544105D02*
Y544673D01*
Y545360D02*
Y545928D01*
X652000Y536144D02*
Y536746D01*
Y538474D02*
Y539082D01*
Y540901D02*
Y541396D01*
Y544072D02*
Y544641D01*
Y545392D02*
Y545961D01*
X652100Y536141D02*
Y536739D01*
Y538481D02*
Y539082D01*
Y540901D02*
Y541396D01*
Y544039D02*
Y544610D01*
Y545423D02*
Y545994D01*
X652200Y536141D02*
Y536732D01*
Y538489D02*
Y539082D01*
Y540901D02*
Y541396D01*
Y544006D02*
Y544579D01*
Y545454D02*
Y546027D01*
X652300Y536141D02*
Y536725D01*
Y538497D02*
Y539082D01*
Y540901D02*
Y541396D01*
Y543973D02*
Y544548D01*
Y545485D02*
Y546060D01*
X652400Y536141D02*
Y536718D01*
Y538504D02*
Y539082D01*
Y540901D02*
Y541396D01*
Y543940D02*
Y544516D01*
Y545517D02*
Y546093D01*
X652500Y536141D02*
Y536710D01*
Y538512D02*
Y539082D01*
Y540901D02*
Y541396D01*
Y543908D02*
Y544485D01*
Y545548D02*
Y546125D01*
X652600Y536141D02*
Y536703D01*
Y538520D02*
Y539082D01*
Y540901D02*
Y541396D01*
Y543875D02*
Y544454D01*
Y545579D02*
Y546158D01*
X652700Y536141D02*
Y536702D01*
Y538521D02*
Y539082D01*
Y540901D02*
Y541396D01*
Y543842D02*
Y544423D01*
Y545610D02*
Y546191D01*
X652800Y536141D02*
Y536702D01*
Y538521D02*
Y539082D01*
Y540901D02*
Y541396D01*
Y543809D02*
Y544391D01*
Y545642D02*
Y546224D01*
X652900Y536141D02*
Y536702D01*
Y538521D02*
Y539082D01*
Y540901D02*
Y541396D01*
Y543776D02*
Y544360D01*
Y545673D02*
Y546257D01*
X653000Y536141D02*
Y536702D01*
Y538521D02*
Y539082D01*
Y540901D02*
Y541396D01*
Y543743D02*
Y544329D01*
Y545704D02*
Y546290D01*
X653100Y536141D02*
Y536704D01*
Y538521D02*
Y539082D01*
Y540901D02*
Y541396D01*
Y543710D02*
Y544308D01*
Y545725D02*
Y546323D01*
X653200Y536141D02*
Y536721D01*
Y538521D02*
Y539082D01*
Y540901D02*
Y541396D01*
Y543677D02*
Y546356D01*
X653300Y536152D02*
Y536738D01*
Y538521D02*
Y539071D01*
Y540901D02*
Y541396D01*
Y543645D02*
Y546388D01*
X653400Y536164D02*
Y536754D01*
Y538521D02*
Y539059D01*
Y540901D02*
Y541396D01*
Y543612D02*
Y546421D01*
X653500Y536177D02*
Y536768D01*
Y538518D02*
Y539046D01*
Y540901D02*
Y541396D01*
Y543579D02*
Y546454D01*
X653600Y536189D02*
Y536768D01*
Y538495D02*
Y539034D01*
Y540901D02*
Y541396D01*
Y543546D02*
Y544108D01*
Y545925D02*
Y546487D01*
X653700Y536202D02*
Y536768D01*
Y538473D02*
Y539021D01*
Y540901D02*
Y541396D01*
Y543513D02*
Y544080D01*
Y545953D02*
Y546520D01*
X653800Y536228D02*
Y536768D01*
Y538451D02*
Y538995D01*
Y540901D02*
Y541396D01*
Y543480D02*
Y544051D01*
Y545982D02*
Y546553D01*
X653900Y536262D02*
Y536807D01*
Y538429D02*
Y538961D01*
Y540901D02*
Y541396D01*
Y543447D02*
Y544023D01*
Y546010D02*
Y546586D01*
X654000Y536295D02*
Y536857D01*
Y538407D02*
Y538928D01*
Y540901D02*
Y541396D01*
Y543414D02*
Y543994D01*
Y546039D02*
Y546619D01*
X654100Y536328D02*
Y536905D01*
Y538382D02*
Y538895D01*
Y540901D02*
Y541396D01*
Y543382D02*
Y543965D01*
Y546068D02*
Y546651D01*
X654200Y536375D02*
Y536930D01*
Y538315D02*
Y538848D01*
Y540901D02*
Y541396D01*
Y543349D02*
Y543937D01*
Y546096D02*
Y546684D01*
X654300Y536425D02*
Y536955D01*
Y538249D02*
Y538798D01*
Y540901D02*
Y541396D01*
Y543316D02*
Y543908D01*
Y546125D02*
Y546717D01*
X654400Y536475D02*
Y537007D01*
Y538182D02*
Y538748D01*
Y540901D02*
Y541396D01*
Y543283D02*
Y543880D01*
Y546153D02*
Y546750D01*
X654500Y536525D02*
Y537107D01*
Y538115D02*
Y538698D01*
Y540901D02*
Y541396D01*
Y543250D02*
Y543851D01*
Y546182D02*
Y546783D01*
X654600Y536597D02*
Y537252D01*
Y537971D02*
Y538626D01*
Y540042D02*
Y542256D01*
Y543217D02*
Y543823D01*
Y546210D02*
Y546816D01*
X654700Y536672D02*
Y538551D01*
Y540042D02*
Y542256D01*
Y543184D02*
Y543794D01*
Y546239D02*
Y546849D01*
X654800Y536767D02*
Y538456D01*
Y540042D02*
Y542256D01*
Y543151D02*
Y543765D01*
Y546268D02*
Y546882D01*
X654900Y536900D02*
Y538323D01*
Y540042D02*
Y542256D01*
Y543119D02*
Y543737D01*
Y546296D02*
Y546914D01*
X655000Y537157D02*
Y538067D01*
X662100Y541280D02*
Y541348D01*
X662200Y540830D02*
Y541798D01*
X662300Y540628D02*
Y542000D01*
Y544631D02*
Y545402D01*
X662400Y540488D02*
Y542140D01*
Y544598D02*
Y545435D01*
X662500Y540348D02*
Y542280D01*
Y544565D02*
Y545468D01*
X662600Y540247D02*
Y540949D01*
Y541679D02*
Y542373D01*
Y544532D02*
Y545501D01*
X662700Y540172D02*
Y540815D01*
Y541779D02*
Y542435D01*
Y544499D02*
Y545534D01*
X662800Y540098D02*
Y540683D01*
Y541879D02*
Y542498D01*
Y544467D02*
Y545567D01*
X662900Y540048D02*
Y540630D01*
Y541967D02*
Y542560D01*
Y544434D02*
Y545599D01*
X663000Y539998D02*
Y540580D01*
Y542027D02*
Y542623D01*
Y544401D02*
Y544954D01*
Y545079D02*
Y545632D01*
X663100Y539948D02*
Y540530D01*
Y542087D02*
Y542664D01*
Y544368D02*
Y544923D01*
Y545110D02*
Y545665D01*
X663200Y539902D02*
Y540480D01*
Y542147D02*
Y542682D01*
Y544335D02*
Y544891D01*
Y545142D02*
Y545698D01*
X663300Y539877D02*
Y540430D01*
Y542168D02*
Y542700D01*
Y544302D02*
Y544860D01*
Y545173D02*
Y545731D01*
X663400Y539852D02*
Y540396D01*
Y542182D02*
Y542718D01*
Y544269D02*
Y544829D01*
Y545204D02*
Y545764D01*
X663500Y539827D02*
Y540376D01*
Y542196D02*
Y542737D01*
Y544236D02*
Y544798D01*
Y545235D02*
Y545797D01*
X663600Y539802D02*
Y540356D01*
Y542211D02*
Y542755D01*
Y544203D02*
Y544766D01*
Y545267D02*
Y545830D01*
X663700Y539777D02*
Y540338D01*
Y542223D02*
Y542773D01*
Y544171D02*
Y544735D01*
Y545298D02*
Y545862D01*
X663800Y539777D02*
Y540338D01*
Y542211D02*
Y542777D01*
Y544138D02*
Y544704D01*
Y545329D02*
Y545895D01*
X663900Y539777D02*
Y540338D01*
Y542198D02*
Y542761D01*
Y544105D02*
Y544673D01*
Y545360D02*
Y545928D01*
X664000Y539777D02*
Y540338D01*
Y542186D02*
Y542744D01*
Y544072D02*
Y544641D01*
Y545392D02*
Y545961D01*
X664100Y539777D02*
Y540338D01*
Y542173D02*
Y542727D01*
Y544039D02*
Y544610D01*
Y545423D02*
Y545994D01*
X664200Y539777D02*
Y540338D01*
Y542161D02*
Y542709D01*
Y544006D02*
Y544579D01*
Y545454D02*
Y546027D01*
X664300Y539777D02*
Y540338D01*
Y542110D02*
Y542689D01*
Y543973D02*
Y544548D01*
Y545485D02*
Y546060D01*
X664400Y539777D02*
Y540338D01*
Y542030D02*
Y542669D01*
Y543940D02*
Y544516D01*
Y545517D02*
Y546093D01*
X664500Y539777D02*
Y540340D01*
Y541950D02*
Y542631D01*
Y543908D02*
Y544485D01*
Y545548D02*
Y546125D01*
X664600Y539777D02*
Y540501D01*
Y541865D02*
Y542556D01*
Y543875D02*
Y544454D01*
Y545579D02*
Y546158D01*
X664700Y539777D02*
Y540701D01*
Y541731D02*
Y542481D01*
Y543842D02*
Y544423D01*
Y545610D02*
Y546191D01*
X664800Y539777D02*
Y541230D01*
Y541593D02*
Y542406D01*
Y543809D02*
Y544391D01*
Y545642D02*
Y546224D01*
X664900Y539782D02*
Y542331D01*
Y543776D02*
Y544360D01*
Y545673D02*
Y546257D01*
X665000Y539804D02*
Y540347D01*
Y540599D02*
Y542227D01*
Y543743D02*
Y544329D01*
Y545704D02*
Y546290D01*
X665100Y539826D02*
Y540365D01*
Y540799D02*
Y542027D01*
Y543710D02*
Y544308D01*
Y545725D02*
Y546323D01*
X665200Y539849D02*
Y540383D01*
Y541167D02*
Y541625D01*
Y543677D02*
Y546356D01*
X665300Y539871D02*
Y540401D01*
Y543645D02*
Y546388D01*
X665400Y539893D02*
Y540419D01*
Y543612D02*
Y546421D01*
X665500Y539923D02*
Y540438D01*
Y543579D02*
Y546454D01*
X665600Y539966D02*
Y540456D01*
Y543546D02*
Y544108D01*
Y545925D02*
Y546487D01*
X665700Y540008D02*
Y540476D01*
Y543513D02*
Y544080D01*
Y545953D02*
Y546520D01*
X665800Y540051D02*
Y540526D01*
Y543480D02*
Y544051D01*
Y545982D02*
Y546553D01*
X665900Y540094D02*
Y540576D01*
Y543447D02*
Y544023D01*
Y546010D02*
Y546586D01*
X666000Y540143D02*
Y540626D01*
Y543414D02*
Y543994D01*
Y546039D02*
Y546619D01*
X666100Y540193D02*
Y540676D01*
Y543382D02*
Y543965D01*
Y546068D02*
Y546651D01*
X666200Y540243D02*
Y540726D01*
Y543349D02*
Y543937D01*
Y546096D02*
Y546684D01*
X666300Y540293D02*
Y540848D01*
Y543316D02*
Y543908D01*
Y546125D02*
Y546717D01*
X666400Y540388D02*
Y541023D01*
Y543283D02*
Y543880D01*
Y546153D02*
Y546750D01*
X666500Y540488D02*
Y541198D01*
Y543250D02*
Y543851D01*
Y546182D02*
Y546783D01*
X666600Y540588D02*
Y541557D01*
Y542101D02*
Y542388D01*
Y543217D02*
Y543823D01*
Y546210D02*
Y546816D01*
X666700Y540705D02*
Y542388D01*
Y543184D02*
Y543794D01*
Y546239D02*
Y546849D01*
X666800Y540830D02*
Y542388D01*
Y543151D02*
Y543765D01*
Y546268D02*
Y546882D01*
X666900Y540981D02*
Y542388D01*
Y543119D02*
Y543737D01*
Y546296D02*
Y546914D01*
X667000Y541331D02*
Y542388D01*
X674100Y541116D02*
Y541257D01*
X674200Y540592D02*
Y541820D01*
X674300Y540417D02*
Y541960D01*
Y544631D02*
Y545402D01*
X674400Y540242D02*
Y542100D01*
Y544598D02*
Y545435D01*
X674500Y540148D02*
Y540948D01*
Y541416D02*
Y542221D01*
Y544565D02*
Y545468D01*
X674600Y540065D02*
Y540680D01*
Y541684D02*
Y542288D01*
Y544532D02*
Y545501D01*
X674700Y539982D02*
Y540532D01*
Y541832D02*
Y542354D01*
Y544499D02*
Y545534D01*
X674800Y539906D02*
Y540482D01*
Y541882D02*
Y542421D01*
Y544467D02*
Y545567D01*
X674900Y539893D02*
Y540432D01*
Y541932D02*
Y542471D01*
Y544434D02*
Y545599D01*
X675000Y539881D02*
Y540397D01*
Y541969D02*
Y542499D01*
Y544401D02*
Y544954D01*
Y545079D02*
Y545632D01*
X675100Y539868D02*
Y540377D01*
Y541994D02*
Y542528D01*
Y544368D02*
Y544923D01*
Y545110D02*
Y545665D01*
X675200Y539856D02*
Y540357D01*
Y542019D02*
Y542557D01*
Y544335D02*
Y544891D01*
Y545142D02*
Y545698D01*
X675300Y539845D02*
Y540338D01*
Y542005D02*
Y542585D01*
Y544302D02*
Y544860D01*
Y545173D02*
Y545731D01*
X675400Y539865D02*
Y540351D01*
Y541972D02*
Y542569D01*
Y544269D02*
Y544829D01*
Y545204D02*
Y545764D01*
X675500Y539885D02*
Y540363D01*
Y541938D02*
Y542552D01*
Y544236D02*
Y544798D01*
Y545235D02*
Y545797D01*
X675600Y539905D02*
Y540376D01*
Y541905D02*
Y542535D01*
Y544203D02*
Y544766D01*
Y545267D02*
Y545830D01*
X675700Y539942D02*
Y540388D01*
Y541842D02*
Y542511D01*
Y544171D02*
Y544735D01*
Y545298D02*
Y545862D01*
X675800Y539982D02*
Y540401D01*
Y541742D02*
Y542461D01*
Y544138D02*
Y544704D01*
Y545329D02*
Y545895D01*
X675900Y540022D02*
Y540457D01*
Y541642D02*
Y542411D01*
Y544105D02*
Y544673D01*
Y545360D02*
Y545928D01*
X676000Y540085D02*
Y540557D01*
Y541541D02*
Y542345D01*
Y544072D02*
Y544641D01*
Y545392D02*
Y545961D01*
X676100Y540160D02*
Y540647D01*
Y541342D02*
Y542270D01*
Y544039D02*
Y544610D01*
Y545423D02*
Y545994D01*
X676200Y540249D02*
Y540722D01*
Y541142D02*
Y542187D01*
Y544006D02*
Y544579D01*
Y545454D02*
Y546027D01*
X676300Y540415D02*
Y540797D01*
Y540942D02*
Y542054D01*
Y543973D02*
Y544548D01*
Y545485D02*
Y546060D01*
X676400Y540566D02*
Y541930D01*
Y543940D02*
Y544516D01*
Y545517D02*
Y546093D01*
X676500Y540493D02*
Y541993D01*
Y543908D02*
Y544485D01*
Y545548D02*
Y546125D01*
X676600Y540343D02*
Y541480D01*
Y541629D02*
Y542118D01*
Y543875D02*
Y544454D01*
Y545579D02*
Y546158D01*
X676700Y540193D02*
Y541180D01*
Y541729D02*
Y542243D01*
Y543842D02*
Y544423D01*
Y545610D02*
Y546191D01*
X676800Y540081D02*
Y540927D01*
Y541829D02*
Y542349D01*
Y543809D02*
Y544391D01*
Y545642D02*
Y546224D01*
X676900Y539981D02*
Y540747D01*
Y541929D02*
Y542449D01*
Y543776D02*
Y544360D01*
Y545673D02*
Y546257D01*
X677000Y539894D02*
Y540614D01*
Y542022D02*
Y542536D01*
Y543743D02*
Y544329D01*
Y545704D02*
Y546290D01*
X677100Y539854D02*
Y540515D01*
Y542043D02*
Y542576D01*
Y543710D02*
Y544308D01*
Y545725D02*
Y546323D01*
X677200Y539814D02*
Y540448D01*
Y542063D02*
Y542616D01*
Y543677D02*
Y546356D01*
X677300Y539775D02*
Y540397D01*
Y542083D02*
Y542655D01*
Y543645D02*
Y546388D01*
X677400Y539758D02*
Y540369D01*
Y542106D02*
Y542672D01*
Y543612D02*
Y546421D01*
X677500Y539741D02*
Y540340D01*
Y542131D02*
Y542688D01*
Y543579D02*
Y546454D01*
X677600Y539725D02*
Y540311D01*
Y542156D02*
Y542705D01*
Y543546D02*
Y544108D01*
Y545925D02*
Y546487D01*
X677700Y539717D02*
Y540283D01*
Y542145D02*
Y542712D01*
Y543513D02*
Y544080D01*
Y545953D02*
Y546520D01*
X677800Y539740D02*
Y540281D01*
Y542131D02*
Y542690D01*
Y543480D02*
Y544051D01*
Y545982D02*
Y546553D01*
X677900Y539762D02*
Y540298D01*
Y542117D02*
Y542668D01*
Y543447D02*
Y544023D01*
Y546010D02*
Y546586D01*
X678000Y539784D02*
Y540314D01*
Y542102D02*
Y542646D01*
Y543414D02*
Y543994D01*
Y546039D02*
Y546619D01*
X678100Y539806D02*
Y540331D01*
Y542084D02*
Y542624D01*
Y543382D02*
Y543965D01*
Y546068D02*
Y546651D01*
X678200Y539828D02*
Y540371D01*
Y542024D02*
Y542601D01*
Y543349D02*
Y543937D01*
Y546096D02*
Y546684D01*
X678300Y539874D02*
Y540446D01*
Y541964D02*
Y542563D01*
Y543316D02*
Y543908D01*
Y546125D02*
Y546717D01*
X678400Y539946D02*
Y540521D01*
Y541904D02*
Y542506D01*
Y543283D02*
Y543880D01*
Y546153D02*
Y546750D01*
X678500Y540017D02*
Y540630D01*
Y541800D02*
Y542449D01*
Y543250D02*
Y543851D01*
Y546182D02*
Y546783D01*
X678600Y540089D02*
Y540763D01*
Y541666D02*
Y542392D01*
Y543217D02*
Y543823D01*
Y546210D02*
Y546816D01*
X678700Y540163D02*
Y541080D01*
Y541302D02*
Y542331D01*
Y543184D02*
Y543794D01*
Y546239D02*
Y546849D01*
X678800Y540338D02*
Y542131D01*
Y543151D02*
Y543765D01*
Y546268D02*
Y546882D01*
X678900Y540513D02*
Y541931D01*
Y543119D02*
Y543737D01*
Y546296D02*
Y546914D01*
X679000Y540817D02*
Y541588D01*
X781400Y552033D02*
Y554348D01*
X781500Y552033D02*
Y554605D01*
X781600Y552033D02*
Y554739D01*
X781700Y554283D02*
Y554810D01*
X781800Y554548D02*
Y554873D01*
X781900Y554648D02*
Y554935D01*
X782000Y554748D02*
Y554966D01*
X782100Y554770D02*
Y554984D01*
X782200Y554782D02*
Y555002D01*
X782300Y554795D02*
Y555020D01*
X782400Y554798D02*
Y555033D01*
X782500Y554785D02*
Y555033D01*
X782600Y554773D02*
Y555033D01*
X782700Y554760D02*
Y555010D01*
X782800Y554688D02*
Y554970D01*
X782900Y554604D02*
Y554924D01*
X783000Y554489D02*
Y554873D01*
X783100Y554032D02*
Y554798D01*
X783200Y552033D02*
Y554697D01*
X783300Y552033D02*
Y554529D01*
X783400Y552033D02*
Y554253D01*
X784000Y552789D02*
Y554201D01*
X784100Y552589D02*
Y554434D01*
X784200Y552439D02*
Y554560D01*
X784300Y552317D02*
Y552958D01*
Y554066D02*
Y554667D01*
X784400Y552237D02*
Y552675D01*
Y554292D02*
Y554747D01*
X784500Y552165D02*
Y552495D01*
Y554477D02*
Y554827D01*
X784600Y552105D02*
Y552362D01*
Y554562D02*
Y554907D01*
X784700Y552056D02*
Y552309D01*
Y554648D02*
Y554960D01*
X784800Y552023D02*
Y552263D01*
Y554723D02*
Y554977D01*
X784900Y551990D02*
Y552243D01*
Y554763D02*
Y554993D01*
X785000Y551976D02*
Y552223D01*
Y554801D02*
Y555007D01*
X785100Y551962D02*
Y552203D01*
Y554802D02*
Y555022D01*
X785200Y551955D02*
Y552183D01*
Y554802D02*
Y555028D01*
X785300Y551967D02*
Y552199D01*
Y554802D02*
Y555014D01*
X785400Y551980D02*
Y552221D01*
Y554798D02*
Y555000D01*
X785500Y551993D02*
Y552244D01*
Y554758D02*
Y554986D01*
X785600Y552027D02*
Y552266D01*
Y554718D02*
Y554971D01*
X785700Y552060D02*
Y552345D01*
Y554638D02*
Y554957D01*
X785800Y552105D02*
Y552431D01*
Y554553D02*
Y554913D01*
X785900Y552155D02*
Y552517D01*
Y554467D02*
Y554853D01*
X786000Y552219D02*
Y552718D01*
Y554301D02*
Y554764D01*
X786100Y552319D02*
Y552991D01*
Y554121D02*
Y554664D01*
X786200Y552456D02*
Y554546D01*
X786300Y552613D02*
Y554407D01*
X786400Y552813D02*
Y554174D01*
X787200Y552447D02*
Y552636D01*
Y554761D02*
Y554950D01*
X787300Y552447D02*
Y552636D01*
Y554761D02*
Y554950D01*
X787400Y552436D02*
Y552636D01*
Y554761D02*
Y554950D01*
X787500Y552396D02*
Y552636D01*
Y554761D02*
Y554950D01*
X787600Y552354D02*
Y552636D01*
Y554761D02*
Y554950D01*
X787700Y552255D02*
Y552669D01*
Y554728D02*
Y554950D01*
X787800Y552033D02*
Y554950D01*
X787900Y552033D02*
Y554950D01*
X788000Y554754D02*
Y554950D01*
X788100Y554761D02*
Y554950D01*
X788200Y554761D02*
Y554950D01*
X788300Y554761D02*
Y554950D01*
X788400Y554761D02*
Y554950D01*
X788500Y554761D02*
Y554950D01*
*
G04 PC Custom Flashes*
G04 Layer Name ATS2825_MODULE_TEST_V1. - flashes*
%LPD*%
*
*
G04 PC Circuitry*
G04 Layer Name ATS2825_MODULE_TEST_V1. - circuitry*
%LPD*%
*
G54D18*
G54D49*
X500000Y681102D02*
X691008D01*
Y608268*
X757937*
Y681102*
X946000*
Y500000*
X757937*
Y535433*
X691008*
Y500000*
X500000*
Y681102*
X563000Y531600D02*
X683000D01*
Y526400*
X563000*
Y531600*
G54D59*
G54D61*
X783000Y598347D02*
X884000Y598346D01*
Y537346*
X783000*
Y548346*
X873000*
Y587346*
X783000Y587347*
Y598347*
X878913Y593346D02*
Y588346D01*
Y542846D02*
Y547346D01*
G54D160*
X800600Y542709D02*
X792000D01*
X0Y0D02*
M02*
