*
*
G04 PADS 9.5 Build Number: 522968 generated Gerber (RS-274-X) file*
G04 PC Version=2.1*
*
%IN "ATS2825_MODULE_TEST_V1."*%
*
%MOIN*%
*
%FSLAX35Y35*%
*
*
*
*
G04 PC Standard Apertures*
*
*
G04 Thermal Relief Aperture macro.*
%AMTER*
1,1,$1,0,0*
1,0,$1-$2,0,0*
21,0,$3,$4,0,0,45*
21,0,$3,$4,0,0,135*
%
*
*
G04 Annular Aperture macro.*
%AMANN*
1,1,$1,0,0*
1,0,$2,0,0*
%
*
*
G04 Odd Aperture macro.*
%AMODD*
1,1,$1,0,0*
1,0,$1-0.005,0,0*
%
*
*
G04 PC Custom Aperture Macros*
*
*
*
*
*
*
G04 PC Aperture Table*
*
%ADD027C,0.03937*%
%ADD049C,0.01*%
%ADD051C,0.008*%
%ADD052C,0.02*%
%ADD054C,0.025*%
%ADD059C,0.001*%
%ADD090C,0.015*%
%ADD118C,0.03543*%
%ADD137O,0.09449X0.05905*%
%ADD138O,0.08661X0.03346*%
%ADD139O,0.03346X0.07087*%
%ADD140O,0.03346X0.08661*%
%ADD141R,0.06X0.06*%
%ADD142C,0.06*%
%ADD145C,0.07874*%
%ADD146O,0.05905X0.09449*%
%ADD147C,0.25*%
%ADD151C,0.03543*%
%ADD154C,0.05512*%
*
*
*
*
G04 PC Circuitry*
G04 Layer Name ATS2825_MODULE_TEST_V1. - circuitry*
%LPD*%
*
*
G04 PC Custom Flashes*
G04 Layer Name ATS2825_MODULE_TEST_V1. - flashes*
%LPD*%
*
*
G04 PC Circuitry*
G04 Layer Name ATS2825_MODULE_TEST_V1. - circuitry*
%LPD*%
*
G54D27*
G01X898458Y663635D03*
X866962D03*
G54D49*
X878913Y569972D02*
Y570061D01*
X876167*
X637000Y591000D02*
X759600D01*
X775400Y606800*
X831400*
X840000Y615300*
X637000Y594500D02*
X758149D01*
X773449Y609800*
X829800*
X838100Y618100*
X846000*
X840000Y615300D02*
X852000D01*
X863600*
X877000Y603800D02*
X875100D01*
X863600Y615300*
X877100Y607300D02*
X874853D01*
X864053Y618100*
X863600*
X846000D02*
X858100D01*
X863600*
X902277Y663635D02*
G75*
G03X902277I-3819J0D01*
G01X870781D02*
G03X870781I-3819J0D01*
G01X545354Y589189D02*
G03X545354I-3622J0D01*
G01X544763Y634717D02*
G03X544763I-4606J0D01*
G01Y654402D02*
G03X544763I-4606J0D01*
G01X527622Y542677D02*
G03X527622I-3622J0D01*
G01Y560000D02*
G03X527622I-3622J0D01*
G01X517795Y589189D02*
G03X517795I-3622J0D01*
G01X807637Y515000D02*
G03X807637I-5637J0D01*
G01X944300Y502200D02*
Y678902D01*
G03X943800Y679402I-500J0*
G01X760137*
G03X759637Y678902I0J-500*
G01Y608268*
X757937Y606568D02*
G03X759637Y608268I0J1700D01*
G01X757937Y606568D02*
X691008D01*
X689308Y608268D02*
G03X691008Y606568I1700J-0D01*
G01X689308Y608268D02*
Y678902D01*
G03X688808Y679402I-500J0*
G01X502200*
G03X501700Y678902I0J-500*
G01Y502200*
G03X502200Y501700I500J0*
G01X688808*
G03X689308Y502200I-0J500*
G01Y535433*
X691008Y537133D02*
G03X689308Y535433I-0J-1700D01*
G01X691008Y537133D02*
X749000D01*
G03X749500Y537633I-0J500*
G01Y550000*
X750000Y550500D02*
G03X749500Y550000I0J-500D01*
G01X750000Y550500D02*
X788000D01*
X788500Y550000D02*
G03X788000Y550500I-500J0D01*
G01X788500Y550000D02*
Y547816D01*
G03X788613Y547500I500J0*
G01X789373Y545366D02*
G03X788613Y547500I-3373J0D01*
G01X789373Y545366D02*
Y540051D01*
X788613Y537918D02*
G03X789373Y540051I-2613J2133D01*
G01X788613Y537918D02*
G03X788500Y537601I387J-317D01*
G01Y502200*
G03X789000Y501700I500J0*
G01X943800*
G03X944300Y502200I-0J500*
G01X798430Y619916D02*
G03X798306Y620900I-124J484D01*
G01X787394*
G03X787270Y619916I-0J-500*
G01X787646Y619789D02*
G03X787270Y619916I-1046J-2489D01*
G01X787646Y619789D02*
G03X787840Y619750I194J461D01*
G01X797860*
G03X798054Y619789I0J500*
G01X798430Y619916D02*
G03X798054Y619789I670J-2616D01*
G01X909436Y524862D02*
G03X912538Y527964I2664J438D01*
G01X909436Y524862D02*
G03X909296Y525134I-494J-81D01*
G01X906415Y528015*
X905800Y529500D02*
G03X906415Y528015I2100J0D01*
G01X905800Y529500D02*
Y537229D01*
G03X905050Y537662I-500J-0*
G01X901024Y540356D02*
G03X905050Y537662I2676J-356D01*
G01X901024Y540356D02*
G03X900586Y540918I-496J66D01*
G01X898706Y545174D02*
G03X900586Y540918I2194J-1574D01*
G01X898706Y545174D02*
G03X898800Y545465I-406J291D01*
G01Y554025*
G03X898362Y554521I-500J0*
G01X896928Y555163D02*
G03X898362Y554521I1772J2037D01*
G01X896928Y555163D02*
G03X896100Y554785I-328J-378D01*
G01Y515077*
G03X896246Y514723I500J-0*
G01X902166Y508804*
G03X902438Y508664I353J354*
G01X899336Y505562D02*
G03X902438Y508664I2664J438D01*
G01X899336Y505562D02*
G03X899196Y505834I-494J-81D01*
G01X893277Y511754*
G03X892923Y511900I-354J-354*
G01X890677*
G03X890323Y511754I-0J-500*
G01X889640Y511071*
G03X889511Y510589I354J-354*
G01X887338Y507236D02*
G03X889511Y510589I-438J2664D01*
G01X887338Y507236D02*
G03X887066Y507096I81J-494D01*
G01X884485Y504515*
X883000Y503900D02*
G03X884485Y504515I0J2100D01*
G01X883000Y503900D02*
X850298D01*
X848813Y504515D02*
G03X850298Y503900I1485J1485D01*
G01X848813Y504515D02*
X835249Y518079D01*
G03X834447Y517947I-354J-353*
G01X833273Y516445D02*
G03X834447Y517947I-3001J3555D01*
G01X833273Y516445D02*
G03Y515681I323J-382D01*
G01X830272Y507473D02*
G03X833273Y515681I-0J4653D01*
G01X830272Y507473D02*
X826728D01*
X822711Y509778D02*
G03X826728Y507473I4017J2348D01*
G01X822711Y509778D02*
G03X822280Y510026I-431J-252D01*
G01X821738*
X821735*
X821726D02*
G03X821735I0J2100D01*
G01X821726D02*
X821701D01*
G03X821404Y509928I0J-500*
G01X821343Y514316D02*
G03X821404Y509928I-1543J-2216D01*
G01X821343Y514316D02*
G03X821629Y514226I286J410D01*
G01X821714*
X821717*
X821726D02*
G03X821717I0J-2100D01*
G01X821726D02*
X822280D01*
G03X822711Y514474I-0J500*
G01X823727Y515681D02*
G03X822711Y514474I3001J-3555D01*
G01X823727Y515681D02*
G03Y516445I-323J382D01*
G01X822560Y522068D02*
G03X823727Y516445I4168J-2068D01*
G01X822560Y522068D02*
G03X822452Y522657I-448J222D01*
G01X822392Y522715D02*
G03X822452Y522657I1485J1485D01*
G01X822392Y522715D02*
X816353Y528754D01*
G03X816000Y528900I-353J-354*
G01X809565*
G03X809274Y528806I0J-500*
G01Y533194D02*
G03Y528806I-1574J-2194D01*
G01Y533194D02*
G03X809565Y533100I291J406D01*
G01X817077*
X818562Y532485D02*
G03X817077Y533100I-1485J-1485D01*
G01X818562Y532485D02*
X821447Y529600D01*
G03X822300Y529961I353J353*
G01X826687Y532108D02*
G03X822300Y529961I-1687J-2108D01*
G01X826688Y532108D02*
G03X827312I312J390D01*
G01X830687D02*
G03X827313I-1687J-2108D01*
G01X830688D02*
G03X831312I312J390D01*
G01X834687D02*
G03X831313I-1687J-2108D01*
G01X834688D02*
G03X835312I312J390D01*
G01X839664Y530438D02*
G03X835313Y532108I-2664J-438D01*
G01X839664Y530438D02*
G03X839804Y530166I494J81D01*
G01X855323Y514646*
G03X855677Y514500I354J354*
G01X857102*
G03X857601Y514984I-0J500*
G01X861346Y517389D02*
G03X857601Y514984I-1046J-2489D01*
G01X861346Y517389D02*
G03X861540Y517350I194J461D01*
G01X872107*
G03X872433Y517470I0J500*
G01X874080Y518880*
G03X874109Y518906I-325J380*
G01X887404Y532201*
G03X887550Y532555I-354J354*
G01Y570000*
Y598300*
Y607908*
G03X887404Y608262I-500J-0*
G01X873638Y622027*
X872774Y624113D02*
G03X873638Y622027I2950J0D01*
G01X872774Y624113D02*
Y631872D01*
G03X872169Y632361I-500J-0*
G01X870026Y632806D02*
G03X872169Y632361I1574J2194D01*
G01X870026Y632806D02*
G03X869735Y632900I-291J-406D01*
G01X859177*
G03X858823Y632754I-0J-500*
G01X851723Y625654*
G03X852077Y624800I354J-354*
G01X859108*
G03X859399Y624894I-0J500*
G01X863397Y621511D02*
G03X859399Y624894I-2424J1189D01*
G01X863397Y621511D02*
G03X863807Y620792I449J-220D01*
G01X866033Y619271D02*
G03X863807Y620792I-2433J-1171D01*
G01X866033Y619271D02*
G03X866130Y619134I451J217D01*
G01X875410Y609854*
G03X875972Y609753I354J354*
G01X879317Y605759D02*
G03X875972Y609753I-2217J1541D01*
G01X879317Y605759D02*
G03X879301Y605212I411J-286D01*
G01X875551Y601522D02*
G03X879301Y605212I1449J2278D01*
G01X875551Y601522D02*
G03X875282Y601600I-269J-422D01*
G01X875100*
X873544Y602244D02*
G03X875100Y601600I1556J1556D01*
G01X873544Y602244D02*
X863259Y612530D01*
G03X863014Y612664I-354J-354*
G01X862151Y613022D02*
G03X863014Y612664I1449J2278D01*
G01X862151Y613022D02*
G03X861882Y613100I-269J-422D01*
G01X853718*
G03X853449Y613022I-0J-500*
G01X850551D02*
G03X853449I1449J2278D01*
G01X850551D02*
G03X850282Y613100I-269J-422D01*
G01X841718*
G03X841449Y613022I-0J-500*
G01X840571Y612661D02*
G03X841449Y613022I-571J2639D01*
G01X840571Y612661D02*
G03X840325Y612528I105J-489D01*
G01X832947Y605235*
X831400Y604600D02*
G03X832947Y605235I0J2200D01*
G01X831400Y604600D02*
X776518D01*
G03X776165Y604454I0J-500*
G01X761156Y589444*
X759600Y588800D02*
G03X761156Y589444I0J2200D01*
G01X759600Y588800D02*
X638718D01*
G03X638449Y588722I-0J-500*
G01X634740Y592477D02*
G03X638449Y588722I2260J-1477D01*
G01X634739Y592477D02*
G03Y593023I-418J273D01*
G01X638449Y596778D02*
G03X634740Y593023I-1449J-2278D01*
G01X638449Y596778D02*
G03X638718Y596700I269J422D01*
G01X757030*
G03X757384Y596846I0J500*
G01X771893Y611356*
X773449Y612000D02*
G03X771893Y611356I-0J-2200D01*
G01X773449Y612000D02*
X828682D01*
G03X829035Y612146I-0J500*
G01X836544Y619656*
X836622Y619730D02*
G03X836544Y619656I1478J-1630D01*
G01X836622Y619730D02*
G03X836286Y620600I-336J370D01*
G01X833977*
G03X833623Y620454I-0J-500*
G01X829804Y616634*
G03X829664Y616362I354J-353*
G01X826562Y619464D02*
G03X829664Y616362I438J-2664D01*
G01X826562Y619464D02*
G03X826834Y619604I-81J494D01*
G01X829477Y622246*
G03X829123Y623100I-354J354*
G01X826575*
G03X826079Y622662I-0J-500*
G01X821826Y620806D02*
G03X826079Y622662I1574J2194D01*
G01X821826Y620806D02*
G03X821535Y620900I-291J-406D01*
G01X799894*
G03X799770Y619916I-0J-500*
G01X798054Y614811D02*
G03X799770Y619916I1046J2489D01*
G01X798054Y614811D02*
G03X797860Y614850I-194J-461D01*
G01X787840*
G03X787646Y614811I-0J-500*
G01X785930Y619916D02*
G03X787646Y614811I670J-2616D01*
G01X785930Y619916D02*
G03X785806Y620900I-124J484D01*
G01X779565*
G03X779274Y620806I0J-500*
G01Y625194D02*
G03Y620806I-1574J-2194D01*
G01Y625194D02*
G03X779565Y625100I291J406D01*
G01X790402*
G03X790715Y625991I0J500*
G01X793795Y630412D02*
G03X790715Y625991I-1395J-2312D01*
G01X793795Y630412D02*
G03X794358Y630443I258J428D01*
G01X797574Y630494D02*
G03X794358Y630443I-1574J-2194D01*
G01X797574Y630494D02*
G03X797865Y630400I291J406D01*
G01X845223*
G03X845577Y630546I0J500*
G01X853696Y638666*
G03X853836Y638938I-354J353*
G01X859091Y637741D02*
G03X853836Y638938I-2591J759D01*
G01X859091Y637741D02*
G03X859571Y637100I480J-141D01*
G01X869735*
G03X870026Y637194I-0J500*
G01X872169Y637639D02*
G03X870026Y637194I-569J-2639D01*
G01X872169Y637639D02*
G03X872774Y638128I105J489D01*
G01Y644700*
X878674D02*
G03X872774I-2950J0D01*
G01X878674D02*
Y633875D01*
G03X879112Y633379I500J-0*
G01X880968Y629126D02*
G03X879112Y633379I-2194J1574D01*
G01X880968Y629126D02*
G03X880874Y628835I406J-291D01*
G01Y626203*
G03X881020Y625849I500J-0*
G01X884446Y622423*
G03X885300Y622777I354J354*
G01Y628835*
G03X885206Y629126I-500J-0*
G01X889594D02*
G03X885206I-2194J1574D01*
G01X889594D02*
G03X889500Y628835I406J-291D01*
G01Y620277*
G03X889646Y619923I500J-0*
G01X895746Y613823*
G03X896600Y614177I354J354*
G01Y627023*
G03X896454Y627377I-500J0*
G01X895934Y627896*
G03X895662Y628036I-353J-354*
G01X897956Y632661D02*
G03X895662Y628036I-1856J-1961D01*
G01X897956Y632661D02*
G03X898800Y633024I344J363D01*
G01Y650535*
G03X898706Y650826I-500J-0*
G01X903402Y651384D02*
G03X898706Y650826I-2502J1016D01*
G01X903402Y651384D02*
G03X903839Y650696I463J-188D01*
G01X905894Y646426D02*
G03X903839Y650696I-2194J1574D01*
G01X905894Y646426D02*
G03X905800Y646135I406J-291D01*
G01Y565871*
G03X906550Y565438I500J0*
G01X910094Y561526D02*
G03X906550Y565438I-2194J1574D01*
G01X910094Y561526D02*
G03X910000Y561235I406J-291D01*
G01Y530577*
G03X910146Y530223I500J-0*
G01X912266Y528104*
G03X912538Y527964I353J354*
G01X902277Y663635D02*
G03X902277I-3819J0D01*
G01X870781D02*
G03X870781I-3819J0D01*
G01X833896Y653485D02*
G03X832772Y662653I-1124J4515D01*
G01X833896Y653485D02*
G03Y652515I121J-485D01*
G01Y643485D02*
G03Y652515I-1124J4515D01*
G01Y643485D02*
G03Y642515I121J-485D01*
G01X832772Y633347D02*
G03X833896Y642515I-0J4653D01*
G01X832772Y633347D02*
X829228D01*
X828104Y642515D02*
G03X829228Y633347I1124J-4515D01*
G01X828104Y642515D02*
G03Y643485I-121J485D01*
G01Y652515D02*
G03Y643485I1124J-4515D01*
G01Y652515D02*
G03Y653485I-121J485D01*
G01X829228Y662653D02*
G03X828104Y653485I0J-4653D01*
G01X829228Y662653D02*
X832772D01*
X812527Y643772D02*
Y640228D01*
X804319Y637227D02*
G03X812527Y640228I3555J3001D01*
G01X804319Y637227D02*
G03X803555I-382J-323D01*
G01X795347Y640228D02*
G03X803555Y637227I4653J0D01*
G01X795347Y640228D02*
Y643772D01*
X803555Y646773D02*
G03X795347Y643772I-3555J-3001D01*
G01X803555Y646773D02*
G03X804319I382J323D01*
G01X812527Y643772D02*
G03X804319Y646773I-4653J-0D01*
G01X812527Y670772D02*
Y667228D01*
X803221D02*
G03X812527I4653J0D01*
G01X803221D02*
Y670772D01*
X812527D02*
G03X803221I-4653J-0D01*
G01X782527Y643772D02*
Y640228D01*
X773221D02*
G03X782527I4653J0D01*
G01X773221D02*
Y643772D01*
X782527D02*
G03X773221I-4653J-0D01*
G01X674072Y606521D02*
G03Y615827I-0J4653D01*
G01Y606521D02*
X670528D01*
Y615827D02*
G03Y606521I0J-4653D01*
G01Y615827D02*
X674072D01*
X673772Y624001D02*
G03X676773Y632209I-0J4653D01*
G01X673772Y624001D02*
X670228D01*
X667227Y632208D02*
G03X670228Y624001I3001J-3554D01*
G01X667227Y632208D02*
G03Y632973I-323J383D01*
G01X670228Y641180D02*
G03X667227Y632973I0J-4652D01*
G01X670228Y641180D02*
X673772D01*
X676773Y632973D02*
G03X673772Y641180I-3001J3555D01*
G01X676773Y632973D02*
G03Y632209I323J-382D01*
G01X612481Y550709D02*
G03Y553291I4519J1291D01*
G01Y550709D02*
G03X611519I-481J-137D01*
G01X602662Y550192D02*
G03X611519Y550709I4338J1808D01*
G01X602662Y550192D02*
G03X601700Y550000I-462J-192D01*
G01Y549000*
X600000Y547300D02*
G03X601700Y549000I0J1700D01*
G01X600000Y547300D02*
X594000D01*
X592300Y549000D02*
G03X594000Y547300I1700J0D01*
G01X592300Y549000D02*
Y555000D01*
X594000Y556700D02*
G03X592300Y555000I0J-1700D01*
G01X594000Y556700D02*
X600000D01*
X601700Y555000D02*
G03X600000Y556700I-1700J0D01*
G01X601700Y555000D02*
Y554000D01*
G03X602662Y553808I500J0*
G01X611519Y553291D02*
G03X602662Y553808I-4519J-1291D01*
G01X611519Y553291D02*
G03X612481I481J137D01*
G01Y561709D02*
G03Y564291I4519J1291D01*
G01Y561709D02*
G03X611519I-481J-137D01*
G01X602662Y561192D02*
G03X611519Y561709I4338J1808D01*
G01X602662Y561192D02*
G03X601700Y561000I-462J-192D01*
G01Y560000*
X600000Y558300D02*
G03X601700Y560000I0J1700D01*
G01X600000Y558300D02*
X594000D01*
X592300Y560000D02*
G03X594000Y558300I1700J0D01*
G01X592300Y560000D02*
Y566000D01*
X594000Y567700D02*
G03X592300Y566000I0J-1700D01*
G01X594000Y567700D02*
X600000D01*
X601700Y566000D02*
G03X600000Y567700I-1700J0D01*
G01X601700Y566000D02*
Y565000D01*
G03X602662Y564808I500J0*
G01X611519Y564291D02*
G03X602662Y564808I-4519J-1291D01*
G01X611519Y564291D02*
G03X612481I481J137D01*
G01X589294Y561426D02*
G03X586144Y565525I-2194J1574D01*
G01X589294Y561426D02*
G03X589200Y561135I406J-291D01*
G01Y544065*
G03X589294Y543774I500J0*
G01X584906D02*
G03X589294I2194J-1574D01*
G01X584906D02*
G03X585000Y544065I-406J291D01*
G01Y550755*
G03X584235Y551179I-500J-0*
G01X581772Y550473D02*
G03X584235Y551179I-0J4653D01*
G01X581772Y550473D02*
X578228D01*
X575227Y558681D02*
G03X578228Y550473I3001J-3555D01*
G01X575227Y558681D02*
G03Y559445I-323J382D01*
G01X576713Y567399D02*
G03X575227Y559445I1515J-4399D01*
G01X576713Y567399D02*
G03X577050Y567872I-163J473D01*
G01Y577000*
X582950D02*
G03X577050I-2950J0D01*
G01X582950D02*
Y567872D01*
G03X583287Y567399I500J-0*
G01X585559Y565702D02*
G03X583287Y567399I-3787J-2702D01*
G01X585559Y565702D02*
G03X586144Y565525I407J291D01*
G01X574494Y623026D02*
G03X571119Y627028I-2194J1574D01*
G01X574494Y623026D02*
G03X574400Y622735I406J-291D01*
G01Y622600*
X573915Y621258D02*
G03X574400Y622600I-1615J1342D01*
G01X573915Y621258D02*
G03X573800Y620939I385J-319D01*
G01Y588661*
G03X573915Y588342I500J0*
G01X574400Y587000D02*
G03X573915Y588342I-2100J0D01*
G01X574400Y587000D02*
Y586865D01*
G03X574494Y586574I500J0*
G01X571119Y582572D02*
G03X574494Y586574I1181J2428D01*
G01X571119Y582572D02*
G03X570681I-219J-450D01*
G01X567306Y586574D02*
G03X570681Y582572I2194J-1574D01*
G01X567306Y586574D02*
G03X567400Y586865I-406J291D01*
G01Y587000*
X567885Y588342D02*
G03X567400Y587000I1615J-1342D01*
G01X567885Y588342D02*
G03X568000Y588661I-385J319D01*
G01Y620939*
G03X567885Y621258I-500J-0*
G01X567400Y622600D02*
G03X567885Y621258I2100J0D01*
G01X567400Y622600D02*
Y622735D01*
G03X567306Y623026I-500J-0*
G01X570681Y627028D02*
G03X567306Y623026I-1181J-2428D01*
G01X570681Y627028D02*
G03X571119I219J450D01*
G01X545354Y589189D02*
G03X545354I-3622J0D01*
G01X544763Y634717D02*
G03X544763I-4606J0D01*
G01Y654402D02*
G03X544763I-4606J0D01*
G01X527622Y542677D02*
G03X527622I-3622J0D01*
G01Y560000D02*
G03X527622I-3622J0D01*
G01X517795Y589189D02*
G03X517795I-3622J0D01*
G01X807637Y515000D02*
G03X807637I-5637J0D01*
G01X884424Y576440D02*
G03X881571Y581614I-2853J1800D01*
G01X884424Y576440D02*
G03Y575907I422J-267D01*
G01Y572306D02*
G03Y575907I-2853J1800D01*
G01Y572306D02*
G03Y571773I423J-267D01*
G01Y568172D02*
G03Y571773I-2853J1800D01*
G01Y568172D02*
G03Y567639I423J-266D01*
G01Y564038D02*
G03Y567639I-2853J1801D01*
G01Y564038D02*
G03Y563505I423J-266D01*
G01Y559905D02*
G03Y563505I-2853J1800D01*
G01Y559905D02*
G03Y559371I423J-267D01*
G01Y555771D02*
G03Y559371I-2853J1800D01*
G01Y555771D02*
G03Y555237I423J-267D01*
G01Y551637D02*
G03Y555237I-2853J1800D01*
G01Y551637D02*
G03Y551103I423J-267D01*
G01X881571Y545930D02*
G03X884424Y551103I-0J3373D01*
G01X881571Y545930D02*
X876684D01*
G03X876184Y545422I-0J-500*
G01Y545366D02*
G03Y545422I-3373J0D01*
G01Y545366D02*
Y540051D01*
X871011Y537198D02*
G03X876184Y540051I1800J2853D01*
G01X871011Y537198D02*
G03X870477I-267J-422D01*
G01X866877D02*
G03X870477I1800J2853D01*
G01X866877D02*
G03X866343I-267J-422D01*
G01X862743D02*
G03X866343I1800J2853D01*
G01X862743D02*
G03X862210I-267J-422D01*
G01X858609D02*
G03X862210I1800J2853D01*
G01X858609D02*
G03X858076I-266J-422D01*
G01X854475D02*
G03X858076I1801J2853D01*
G01X854475D02*
G03X853942I-266J-422D01*
G01X850342D02*
G03X853942I1800J2853D01*
G01X850342D02*
G03X849808I-267J-422D01*
G01X846208D02*
G03X849808I1800J2853D01*
G01X846208D02*
G03X845674I-267J-422D01*
G01X842074D02*
G03X845674I1800J2853D01*
G01X842074D02*
G03X841540I-267J-422D01*
G01X837940D02*
G03X841540I1800J2853D01*
G01X837940D02*
G03X837406I-267J-422D01*
G01X833806D02*
G03X837406I1800J2853D01*
G01X833806D02*
G03X833273I-267J-422D01*
G01X829672D02*
G03X833273I1800J2853D01*
G01X829672D02*
G03X829139I-266J-422D01*
G01X825538D02*
G03X829139I1801J2853D01*
G01X825538D02*
G03X825005I-266J-422D01*
G01X821405D02*
G03X825005I1800J2853D01*
G01X821405D02*
G03X820871I-267J-422D01*
G01X817271D02*
G03X820871I1800J2853D01*
G01X817271D02*
G03X816737I-267J-422D01*
G01X813137D02*
G03X816737I1800J2853D01*
G01X813137D02*
G03X812603I-267J-422D01*
G01X809003D02*
G03X812603I1800J2853D01*
G01X809003D02*
G03X808469I-267J-422D01*
G01X804869D02*
G03X808469I1800J2853D01*
G01X804869D02*
G03X804336I-267J-422D01*
G01X799162Y540051D02*
G03X804336Y537198I3373J0D01*
G01X799162Y540051D02*
Y545366D01*
X804336Y548219D02*
G03X799162Y545366I-1801J-2853D01*
G01X804336Y548219D02*
G03X804869I266J423D01*
G01X808469D02*
G03X804869I-1800J-2853D01*
G01X808469D02*
G03X809003I267J423D01*
G01X812603D02*
G03X809003I-1800J-2853D01*
G01X812603D02*
G03X813137I267J423D01*
G01X816737D02*
G03X813137I-1800J-2853D01*
G01X816737D02*
G03X817271I267J423D01*
G01X820871D02*
G03X817271I-1800J-2853D01*
G01X820871D02*
G03X821405I267J423D01*
G01X825005D02*
G03X821405I-1800J-2853D01*
G01X825005D02*
G03X825538I267J423D01*
G01X829139D02*
G03X825538I-1800J-2853D01*
G01X829139D02*
G03X829672I267J423D01*
G01X833273D02*
G03X829672I-1801J-2853D01*
G01X833273D02*
G03X833806I266J423D01*
G01X837406D02*
G03X833806I-1800J-2853D01*
G01X837406D02*
G03X837940I267J423D01*
G01X841540D02*
G03X837940I-1800J-2853D01*
G01X841540D02*
G03X842074I267J423D01*
G01X845674D02*
G03X842074I-1800J-2853D01*
G01X845674D02*
G03X846208I267J423D01*
G01X849808D02*
G03X846208I-1800J-2853D01*
G01X849808D02*
G03X850342I267J423D01*
G01X850379Y548242D02*
G03X850342Y548219I1763J-2876D01*
G01X850379Y548242D02*
G03X850318Y549126I-262J426D01*
G01X848705Y551431D02*
G03X850318Y549126I2695J169D01*
G01X848705Y551431D02*
G03X848206Y551900I-499J-31D01*
G01X847865*
G03X847574Y551806I0J-500*
G01Y556194D02*
G03Y551806I-1574J-2194D01*
G01Y556194D02*
G03X847865Y556100I291J406D01*
G01X867782*
G03X868051Y556178I0J500*
G01X872113Y554581D02*
G03X868051Y556178I-2613J-681D01*
G01X872113Y554581D02*
G03X873069Y554543I484J126D01*
G01X873403Y555237D02*
G03X873069Y554543I2853J-1800D01*
G01X873403Y555237D02*
G03Y555771I-423J267D01*
G01Y559371D02*
G03Y555771I2853J-1800D01*
G01Y559371D02*
G03Y559905I-423J267D01*
G01Y563505D02*
G03Y559905I2853J-1800D01*
G01Y563505D02*
G03Y564038I-423J267D01*
G01Y567639D02*
G03Y564038I2853J-1800D01*
G01Y567639D02*
G03Y568172I-423J267D01*
G01Y571773D02*
G03Y568172I2853J-1801D01*
G01Y571773D02*
G03Y572306I-423J266D01*
G01Y575907D02*
G03Y572306I2853J-1801D01*
G01Y575907D02*
G03Y576440I-423J266D01*
G01X876256Y581614D02*
G03X873403Y576440I-0J-3374D01*
G01X876256Y581614D02*
X881571D01*
Y583134D02*
G03Y589881I-0J3373D01*
G01Y583134D02*
X876256D01*
X872884Y586584D02*
G03X876256Y583134I3372J-77D01*
G01X872884Y586584D02*
G03X872439Y587092I-500J11D01*
G01X871011Y587592D02*
G03X872439Y587092I1800J2853D01*
G01X871011Y587592D02*
G03X870477I-267J-423D01*
G01X866877D02*
G03X870477I1800J2853D01*
G01X866877D02*
G03X866343I-267J-423D01*
G01X862743D02*
G03X866343I1800J2853D01*
G01X862743D02*
G03X862210I-267J-423D01*
G01X858609D02*
G03X862210I1800J2853D01*
G01X858609D02*
G03X858076I-266J-423D01*
G01X852902Y590445D02*
G03X858076Y587592I3374J-0D01*
G01X852902Y590445D02*
Y595760D01*
X858076Y598613D02*
G03X852902Y595760I-1800J-2853D01*
G01X858076Y598613D02*
G03X858609I267J422D01*
G01X862210D02*
G03X858609I-1801J-2853D01*
G01X862210D02*
G03X862743I266J422D01*
G01X866343D02*
G03X862743I-1800J-2853D01*
G01X866343D02*
G03X866877I267J422D01*
G01X870477D02*
G03X866877I-1800J-2853D01*
G01X870477D02*
G03X871011I267J422D01*
G01X875141Y598199D02*
G03X871011Y598613I-2330J-2439D01*
G01X875141Y598199D02*
G03X875675Y598097I345J362D01*
G01X880318Y594972D02*
G03X875675Y598097I-3373J0D01*
G01X880318Y594972D02*
Y591232D01*
X880236Y590491D02*
G03X880318Y591232I-3291J741D01*
G01X880236Y590491D02*
G03X880723Y589881I487J-110D01*
G01X881571*
X833666Y577426D02*
G03X829278I-2194J1574D01*
G01X833666D02*
G03X833572Y577135I406J-291D01*
G01Y567997*
G03X833573Y567959I500J-0*
G01X833575Y567931D02*
G03X833573Y567959I-2096J-131D01*
G01X833575Y567931D02*
G03X833668Y567671I499J31D01*
G01X829278Y567674D02*
G03X833668Y567671I2194J-1574D01*
G01X829278Y567674D02*
G03X829372Y567965I-406J291D01*
G01Y577135*
G03X829278Y577426I-500J-0*
G01X851381Y595760D02*
Y590445D01*
X846208Y587592D02*
G03X851381Y590445I1800J2853D01*
G01X846208Y587592D02*
G03X845674I-267J-423D01*
G01X842074D02*
G03X845674I1800J2853D01*
G01X842074D02*
G03X841540I-267J-423D01*
G01X837940D02*
G03X841540I1800J2853D01*
G01X837940D02*
G03X837406I-267J-423D01*
G01X833806D02*
G03X837406I1800J2853D01*
G01X833806D02*
G03X833273I-267J-423D01*
G01X829672D02*
G03X833273I1800J2853D01*
G01X829672D02*
G03X829139I-266J-423D01*
G01X825538D02*
G03X829139I1801J2853D01*
G01X825538D02*
G03X825005I-266J-423D01*
G01X821405D02*
G03X825005I1800J2853D01*
G01X821405D02*
G03X820871I-267J-423D01*
G01X817271D02*
G03X820871I1800J2853D01*
G01X817271D02*
G03X816737I-267J-423D01*
G01X811564Y590445D02*
G03X816737Y587592I3373J-0D01*
G01X811564Y590445D02*
Y595760D01*
X816737Y598613D02*
G03X811564Y595760I-1800J-2853D01*
G01X816737Y598613D02*
G03X817271I267J422D01*
G01X820871D02*
G03X817271I-1800J-2853D01*
G01X820871D02*
G03X821405I267J422D01*
G01X825005D02*
G03X821405I-1800J-2853D01*
G01X825005D02*
G03X825538I267J422D01*
G01X829139D02*
G03X825538I-1800J-2853D01*
G01X829139D02*
G03X829672I267J422D01*
G01X833273D02*
G03X829672I-1801J-2853D01*
G01X833273D02*
G03X833806I266J422D01*
G01X837406D02*
G03X833806I-1800J-2853D01*
G01X837406D02*
G03X837940I267J422D01*
G01X841540D02*
G03X837940I-1800J-2853D01*
G01X841540D02*
G03X842074I267J422D01*
G01X845674D02*
G03X842074I-1800J-2853D01*
G01X845674D02*
G03X846208I267J422D01*
G01X851381Y595760D02*
G03X846208Y598613I-3373J-0D01*
G01X810043Y595760D02*
Y590445D01*
X804869Y587592D02*
G03X810043Y590445I1800J2853D01*
G01X804869Y587592D02*
G03X804336I-267J-423D01*
G01X800735D02*
G03X804336I1800J2853D01*
G01X800735D02*
G03X800202I-266J-423D01*
G01X796601D02*
G03X800202I1801J2853D01*
G01X796601D02*
G03X796068I-266J-423D01*
G01X792468D02*
G03X796068I1800J2853D01*
G01X792468D02*
G03X791934I-267J-423D01*
G01X788334D02*
G03X791934I1800J2853D01*
G01X788334D02*
G03X787800I-267J-423D01*
G01X782627Y590445D02*
G03X787800Y587592I3373J-0D01*
G01X782627Y590445D02*
Y595760D01*
X787800Y598613D02*
G03X782627Y595760I-1800J-2853D01*
G01X787800Y598613D02*
G03X788334I267J422D01*
G01X791934D02*
G03X788334I-1800J-2853D01*
G01X791934D02*
G03X792468I267J422D01*
G01X796068D02*
G03X792468I-1800J-2853D01*
G01X796068D02*
G03X796601I267J422D01*
G01X800202D02*
G03X796601I-1800J-2853D01*
G01X800202D02*
G03X800735I267J422D01*
G01X804336D02*
G03X800735I-1801J-2853D01*
G01X804336D02*
G03X804869I266J422D01*
G01X810043Y595760D02*
G03X804869Y598613I-3374J-0D01*
G01X684700Y531600D02*
Y526400D01*
X683000Y524700D02*
G03X684700Y526400I0J1700D01*
G01X683000Y524700D02*
X563000D01*
X561300Y526400D02*
G03X563000Y524700I1700J0D01*
G01X561300Y526400D02*
Y531600D01*
X563000Y533300D02*
G03X561300Y531600I0J-1700D01*
G01X563000Y533300D02*
X683000D01*
X684700Y531600D02*
G03X683000Y533300I-1700J0D01*
G01X787032Y620745D02*
X798668D01*
X787501Y619845D02*
X798199D01*
X759637Y678345D02*
X944300D01*
X759637Y677445D02*
X944300D01*
X759637Y676545D02*
X944300D01*
X759637Y675645D02*
X944300D01*
X810295Y674745D02*
X944300D01*
X811367Y673845D02*
X944300D01*
X811988Y672945D02*
X944300D01*
X812349Y672045D02*
X944300D01*
X812512Y671145D02*
X944300D01*
X812527Y670245D02*
X944300D01*
X812527Y669345D02*
X944300D01*
X812527Y668445D02*
X944300D01*
X812527Y667545D02*
X944300D01*
X900808Y666645D02*
X944300D01*
X901641Y665745D02*
X944300D01*
X902080Y664845D02*
X944300D01*
X902264Y663945D02*
X944300D01*
X902231Y663045D02*
X944300D01*
X901974Y662145D02*
X944300D01*
X901436Y661245D02*
X944300D01*
X900396Y660345D02*
X944300D01*
X837194Y659445D02*
X944300D01*
X837392Y658545D02*
X944300D01*
X837411Y657645D02*
X944300D01*
X837252Y656745D02*
X944300D01*
X836895Y655845D02*
X944300D01*
X901801Y654945D02*
X944300D01*
X903041Y654045D02*
X944300D01*
X903495Y653145D02*
X944300D01*
X903596Y652245D02*
X944300D01*
X903388Y651345D02*
X944300D01*
X904845Y650445D02*
X944300D01*
X905914Y649545D02*
X944300D01*
X906322Y648645D02*
X944300D01*
X906388Y647745D02*
X944300D01*
X906141Y646845D02*
X944300D01*
X905800Y645945D02*
X944300D01*
X905800Y645045D02*
X944300D01*
X905800Y644145D02*
X944300D01*
X905800Y643245D02*
X944300D01*
X905800Y642345D02*
X944300D01*
X905800Y641445D02*
X944300D01*
X905800Y640545D02*
X944300D01*
X905800Y639645D02*
X944300D01*
X905800Y638745D02*
X944300D01*
X905800Y637845D02*
X944300D01*
X905800Y636945D02*
X944300D01*
X905800Y636045D02*
X944300D01*
X905800Y635145D02*
X944300D01*
X905800Y634245D02*
X944300D01*
X905800Y633345D02*
X944300D01*
X905800Y632445D02*
X944300D01*
X905800Y631545D02*
X944300D01*
X905800Y630645D02*
X944300D01*
X905800Y629745D02*
X944300D01*
X905800Y628845D02*
X944300D01*
X905800Y627945D02*
X944300D01*
X905800Y627045D02*
X944300D01*
X905800Y626145D02*
X944300D01*
X905800Y625245D02*
X944300D01*
X905800Y624345D02*
X944300D01*
X905800Y623445D02*
X944300D01*
X905800Y622545D02*
X944300D01*
X905800Y621645D02*
X944300D01*
X905800Y620745D02*
X944300D01*
X905800Y619845D02*
X944300D01*
X905800Y618945D02*
X944300D01*
X905800Y618045D02*
X944300D01*
X905800Y617145D02*
X944300D01*
X905800Y616245D02*
X944300D01*
X905800Y615345D02*
X944300D01*
X905800Y614445D02*
X944300D01*
X905800Y613545D02*
X944300D01*
X905800Y612645D02*
X944300D01*
X905800Y611745D02*
X944300D01*
X905800Y610845D02*
X944300D01*
X905800Y609945D02*
X944300D01*
X905800Y609045D02*
X944300D01*
X905800Y608145D02*
X944300D01*
X905800Y607245D02*
X944300D01*
X905800Y606345D02*
X944300D01*
X905800Y605445D02*
X944300D01*
X905800Y604545D02*
X944300D01*
X905800Y603645D02*
X944300D01*
X905800Y602745D02*
X944300D01*
X905800Y601845D02*
X944300D01*
X905800Y600945D02*
X944300D01*
X905800Y600045D02*
X944300D01*
X905800Y599145D02*
X944300D01*
X905800Y598245D02*
X944300D01*
X905800Y597345D02*
X944300D01*
X905800Y596445D02*
X944300D01*
X905800Y595545D02*
X944300D01*
X905800Y594645D02*
X944300D01*
X905800Y593745D02*
X944300D01*
X905800Y592845D02*
X944300D01*
X905800Y591945D02*
X944300D01*
X905800Y591045D02*
X944300D01*
X905800Y590145D02*
X944300D01*
X905800Y589245D02*
X944300D01*
X905800Y588345D02*
X944300D01*
X905800Y587445D02*
X944300D01*
X905800Y586545D02*
X944300D01*
X905800Y585645D02*
X944300D01*
X905800Y584745D02*
X944300D01*
X905800Y583845D02*
X944300D01*
X905800Y582945D02*
X944300D01*
X905800Y582045D02*
X944300D01*
X905800Y581145D02*
X944300D01*
X905800Y580245D02*
X944300D01*
X905800Y579345D02*
X944300D01*
X905800Y578445D02*
X944300D01*
X905800Y577545D02*
X944300D01*
X905800Y576645D02*
X944300D01*
X905800Y575745D02*
X944300D01*
X905800Y574845D02*
X944300D01*
X905800Y573945D02*
X944300D01*
X905800Y573045D02*
X944300D01*
X905800Y572145D02*
X944300D01*
X905800Y571245D02*
X944300D01*
X905800Y570345D02*
X944300D01*
X905800Y569445D02*
X944300D01*
X905800Y568545D02*
X944300D01*
X905800Y567645D02*
X944300D01*
X905800Y566745D02*
X944300D01*
X905801Y565845D02*
X944300D01*
X909871Y564945D02*
X944300D01*
X910429Y564045D02*
X944300D01*
X910600Y563145D02*
X944300D01*
X910461Y562245D02*
X944300D01*
X910012Y561345D02*
X944300D01*
X910000Y560445D02*
X944300D01*
X910000Y559545D02*
X944300D01*
X910000Y558645D02*
X944300D01*
X910000Y557745D02*
X944300D01*
X910000Y556845D02*
X944300D01*
X910000Y555945D02*
X944300D01*
X910000Y555045D02*
X944300D01*
X910000Y554145D02*
X944300D01*
X910000Y553245D02*
X944300D01*
X910000Y552345D02*
X944300D01*
X910000Y551445D02*
X944300D01*
X910000Y550545D02*
X944300D01*
X910000Y549645D02*
X944300D01*
X910000Y548745D02*
X944300D01*
X910000Y547845D02*
X944300D01*
X910000Y546945D02*
X944300D01*
X910000Y546045D02*
X944300D01*
X910000Y545145D02*
X944300D01*
X910000Y544245D02*
X944300D01*
X910000Y543345D02*
X944300D01*
X910000Y542445D02*
X944300D01*
X910000Y541545D02*
X944300D01*
X910000Y540645D02*
X944300D01*
X910000Y539745D02*
X944300D01*
X910000Y538845D02*
X944300D01*
X910000Y537945D02*
X944300D01*
X910000Y537045D02*
X944300D01*
X910000Y536145D02*
X944300D01*
X910000Y535245D02*
X944300D01*
X910000Y534345D02*
X944300D01*
X910000Y533445D02*
X944300D01*
X910000Y532545D02*
X944300D01*
X910000Y531645D02*
X944300D01*
X910000Y530745D02*
X944300D01*
X910525Y529845D02*
X944300D01*
X911425Y528945D02*
X944300D01*
X912337Y528045D02*
X944300D01*
X914071Y527145D02*
X944300D01*
X914629Y526245D02*
X944300D01*
X914800Y525345D02*
X944300D01*
X914661Y524445D02*
X944300D01*
X914152Y523545D02*
X944300D01*
X912592Y522645D02*
X944300D01*
X896100Y521745D02*
X944300D01*
X896100Y520845D02*
X944300D01*
X896100Y519945D02*
X944300D01*
X896100Y519045D02*
X944300D01*
X896100Y518145D02*
X944300D01*
X896100Y517245D02*
X944300D01*
X896100Y516345D02*
X944300D01*
X896100Y515445D02*
X944300D01*
X896425Y514545D02*
X944300D01*
X897325Y513645D02*
X944300D01*
X898225Y512745D02*
X944300D01*
X899125Y511845D02*
X944300D01*
X900025Y510945D02*
X944300D01*
X900925Y510045D02*
X944300D01*
X901825Y509145D02*
X944300D01*
X903500Y508245D02*
X944300D01*
X904341Y507345D02*
X944300D01*
X904663Y506445D02*
X944300D01*
X904661Y505545D02*
X944300D01*
X904335Y504645D02*
X944300D01*
X903485Y503745D02*
X944300D01*
X788500Y502845D02*
X944300D01*
X788570Y501945D02*
X944230D01*
X759773Y679245D02*
X944164D01*
X896100Y522645D02*
X911608D01*
X896100Y523545D02*
X910048D01*
X896100Y524445D02*
X909539D01*
X896100Y525345D02*
X909085D01*
X896100Y526245D02*
X908185D01*
X896100Y527145D02*
X907285D01*
X896100Y528045D02*
X906386D01*
X896100Y528945D02*
X905875D01*
X896100Y537045D02*
X905800D01*
X896100Y536145D02*
X905800D01*
X896100Y535245D02*
X905800D01*
X896100Y534345D02*
X905800D01*
X896100Y533445D02*
X905800D01*
X896100Y532545D02*
X905800D01*
X896100Y531645D02*
X905800D01*
X896100Y530745D02*
X905800D01*
X896100Y529845D02*
X905800D01*
X896100Y537945D02*
X901949D01*
X896100Y538845D02*
X901259D01*
X896100Y539745D02*
X901012D01*
X896100Y540645D02*
X900975D01*
X788500Y503745D02*
X900515D01*
X836281Y654945D02*
X899999D01*
X884615Y504645D02*
X899665D01*
X885515Y505545D02*
X899339D01*
X896100Y541545D02*
X899149D01*
X836730Y650445D02*
X898800D01*
X837160Y649545D02*
X898800D01*
X837379Y648645D02*
X898800D01*
X837417Y647745D02*
X898800D01*
X877749Y646845D02*
X898800D01*
X878398Y645945D02*
X898800D01*
X878654Y645045D02*
X898800D01*
X878674Y644145D02*
X898800D01*
X878674Y643245D02*
X898800D01*
X878674Y642345D02*
X898800D01*
X878674Y641445D02*
X898800D01*
X878674Y640545D02*
X898800D01*
X878674Y639645D02*
X898800D01*
X878674Y638745D02*
X898800D01*
X878674Y637845D02*
X898800D01*
X878674Y636945D02*
X898800D01*
X878674Y636045D02*
X898800D01*
X878674Y635145D02*
X898800D01*
X878674Y634245D02*
X898800D01*
X896642Y633345D02*
X898800D01*
X896100Y553245D02*
X898800D01*
X896100Y552345D02*
X898800D01*
X896100Y551445D02*
X898800D01*
X896100Y550545D02*
X898800D01*
X896100Y549645D02*
X898800D01*
X896100Y548745D02*
X898800D01*
X896100Y547845D02*
X898800D01*
X896100Y546945D02*
X898800D01*
X896100Y546045D02*
X898800D01*
X896100Y554145D02*
X898785D01*
X835223Y654045D02*
X898759D01*
X896100Y545145D02*
X898686D01*
X886415Y506445D02*
X898585D01*
X896100Y542445D02*
X898459D01*
X836006Y651345D02*
X898415D01*
X833539Y653145D02*
X898305D01*
X896100Y544245D02*
X898278D01*
X896100Y543345D02*
X898212D01*
X834676Y652245D02*
X898204D01*
X887773Y507345D02*
X897685D01*
X896173Y555045D02*
X897073D01*
X889033Y508245D02*
X896785D01*
X889500Y626145D02*
X896600D01*
X889500Y625245D02*
X896600D01*
X889500Y624345D02*
X896600D01*
X889500Y623445D02*
X896600D01*
X889500Y622545D02*
X896600D01*
X889500Y621645D02*
X896600D01*
X889500Y620745D02*
X896600D01*
X889725Y619845D02*
X896600D01*
X890625Y618945D02*
X896600D01*
X891525Y618045D02*
X896600D01*
X892425Y617145D02*
X896600D01*
X893325Y616245D02*
X896600D01*
X894225Y615345D02*
X896600D01*
X895125Y614445D02*
X896600D01*
X889500Y627045D02*
X896599D01*
X868900Y660345D02*
X896520D01*
X869312Y666645D02*
X896108D01*
X889492Y509145D02*
X895885D01*
X889500Y627945D02*
X895877D01*
X887942Y633345D02*
X895558D01*
X869940Y661245D02*
X895480D01*
X870145Y665745D02*
X895275D01*
X889596Y510045D02*
X894985D01*
X870478Y662145D02*
X894943D01*
X870584Y664845D02*
X894836D01*
X870735Y663045D02*
X894686D01*
X870768Y663945D02*
X894652D01*
X889500Y628845D02*
X894138D01*
X889549Y510945D02*
X894085D01*
X889460Y632445D02*
X894040D01*
X889926Y629745D02*
X893574D01*
X889964Y631545D02*
X893536D01*
X890099Y630645D02*
X893401D01*
X890449Y511845D02*
X893151D01*
X879799Y607245D02*
X887550D01*
X879626Y606345D02*
X887550D01*
X879228Y605445D02*
X887550D01*
X879595Y604545D02*
X887550D01*
X879696Y603645D02*
X887550D01*
X879485Y602745D02*
X887550D01*
X878862Y601845D02*
X887550D01*
X772656Y600945D02*
X887550D01*
X771756Y600045D02*
X887550D01*
X770856Y599145D02*
X887550D01*
X877762Y598245D02*
X887550D01*
X879343Y597345D02*
X887550D01*
X879980Y596445D02*
X887550D01*
X880269Y595545D02*
X887550D01*
X880318Y594645D02*
X887550D01*
X880318Y593745D02*
X887550D01*
X880318Y592845D02*
X887550D01*
X880318Y591945D02*
X887550D01*
X880313Y591045D02*
X887550D01*
X880282Y590145D02*
X887550D01*
X883542Y589245D02*
X887550D01*
X884400Y588345D02*
X887550D01*
X884811Y587445D02*
X887550D01*
X884944Y586545D02*
X887550D01*
X884832Y585645D02*
X887550D01*
X884447Y584745D02*
X887550D01*
X883642Y583845D02*
X887550D01*
X574051Y582945D02*
X887550D01*
X501700Y582045D02*
X887550D01*
X883286Y581145D02*
X887550D01*
X884284Y580245D02*
X887550D01*
X884758Y579345D02*
X887550D01*
X884938Y578445D02*
X887550D01*
X884872Y577545D02*
X887550D01*
X884543Y576645D02*
X887550D01*
X884519Y575745D02*
X887550D01*
X884862Y574845D02*
X887550D01*
X884940Y573945D02*
X887550D01*
X884773Y573045D02*
X887550D01*
X884358Y572145D02*
X887550D01*
X884695Y571245D02*
X887550D01*
X884923Y570345D02*
X887550D01*
X884903Y569445D02*
X887550D01*
X884627Y568545D02*
X887550D01*
X884420Y567645D02*
X887550D01*
X884820Y566745D02*
X887550D01*
X884944Y565845D02*
X887550D01*
X884824Y564945D02*
X887550D01*
X884428Y564045D02*
X887550D01*
X884621Y563145D02*
X887550D01*
X884901Y562245D02*
X887550D01*
X884925Y561345D02*
X887550D01*
X884700Y560445D02*
X887550D01*
X884355Y559545D02*
X887550D01*
X884768Y558645D02*
X887550D01*
X884940Y557745D02*
X887550D01*
X884865Y556845D02*
X887550D01*
X884527Y555945D02*
X887550D01*
X884536Y555045D02*
X887550D01*
X884869Y554145D02*
X887550D01*
X884939Y553245D02*
X887550D01*
X884763Y552345D02*
X887550D01*
X884352Y551445D02*
X887550D01*
X884707Y550545D02*
X887550D01*
X884927Y549645D02*
X887550D01*
X884898Y548745D02*
X887550D01*
X884613Y547845D02*
X887550D01*
X883983Y546945D02*
X887550D01*
X882445Y546045D02*
X887550D01*
X876184Y545145D02*
X887550D01*
X876184Y544245D02*
X887550D01*
X876184Y543345D02*
X887550D01*
X876184Y542445D02*
X887550D01*
X876184Y541545D02*
X887550D01*
X876184Y540645D02*
X887550D01*
X876170Y539745D02*
X887550D01*
X875961Y538845D02*
X887550D01*
X875446Y537945D02*
X887550D01*
X874342Y537045D02*
X887550D01*
X788500Y536145D02*
X887550D01*
X788500Y535245D02*
X887550D01*
X788500Y534345D02*
X887550D01*
X808845Y533445D02*
X887550D01*
X837901Y532545D02*
X887550D01*
X879664Y608145D02*
X887490D01*
X879316Y633345D02*
X886858D01*
X839141Y531645D02*
X886847D01*
X879160Y609045D02*
X886620D01*
X839595Y530745D02*
X885947D01*
X877642Y609945D02*
X885720D01*
X880834Y632445D02*
X885340D01*
X880874Y627945D02*
X885300D01*
X880874Y627045D02*
X885300D01*
X880877Y626145D02*
X885300D01*
X881625Y625245D02*
X885300D01*
X882525Y624345D02*
X885300D01*
X883425Y623445D02*
X885300D01*
X880874Y628845D02*
X885300D01*
X884325Y622545D02*
X885243D01*
X840125Y529845D02*
X885047D01*
X881300Y629745D02*
X884874D01*
X881338Y631545D02*
X884836D01*
X874419Y610845D02*
X884820D01*
X881473Y630645D02*
X884701D01*
X841025Y528945D02*
X884147D01*
X873519Y611745D02*
X883920D01*
X841925Y528045D02*
X883247D01*
X872619Y612645D02*
X883020D01*
X842825Y527145D02*
X882347D01*
X871719Y613545D02*
X882120D01*
X843725Y526245D02*
X881447D01*
X870819Y614445D02*
X881220D01*
X844625Y525345D02*
X880547D01*
X869919Y615345D02*
X880320D01*
X845525Y524445D02*
X879647D01*
X869019Y616245D02*
X879420D01*
X846425Y523545D02*
X878747D01*
X868119Y617145D02*
X878520D01*
X847325Y522645D02*
X877847D01*
X867219Y618045D02*
X877620D01*
X848225Y521745D02*
X876947D01*
X866319Y618945D02*
X876720D01*
X875319Y609945D02*
X876558D01*
X875092Y598245D02*
X876127D01*
X849125Y520845D02*
X876047D01*
X865660Y619845D02*
X875820D01*
X850025Y519945D02*
X875147D01*
X864142Y620745D02*
X874920D01*
X833112Y581145D02*
X874541D01*
X850925Y519045D02*
X874247D01*
X574741Y583845D02*
X874184D01*
X773556Y601845D02*
X874091D01*
X863458Y621645D02*
X874020D01*
X837279Y646845D02*
X873699D01*
X833868Y580245D02*
X873543D01*
X620187Y559545D02*
X873472D01*
X833572Y572145D02*
X873469D01*
X833686Y567645D02*
X873407D01*
X833223Y564045D02*
X873399D01*
X574988Y584745D02*
X873380D01*
X833572Y575745D02*
X873308D01*
X871263Y555945D02*
X873300D01*
X871945Y555045D02*
X873291D01*
X833572Y576645D02*
X873284D01*
X863669Y622545D02*
X873225D01*
X851825Y518145D02*
X873221D01*
X621698Y563145D02*
X873206D01*
X833572Y568545D02*
X873199D01*
X833572Y571245D02*
X873132D01*
X620945Y560445D02*
X873127D01*
X834150Y579345D02*
X873069D01*
X618768Y558645D02*
X873058D01*
X833572Y573045D02*
X873054D01*
X836946Y645945D02*
X873050D01*
X774456Y602745D02*
X873044D01*
X834094Y566745D02*
X873007D01*
X833913Y564945D02*
X873003D01*
X574922Y585645D02*
X872995D01*
X833572Y574845D02*
X872965D01*
X589200Y556845D02*
X872962D01*
X833747Y577545D02*
X872955D01*
X621639Y562245D02*
X872926D01*
X833572Y569445D02*
X872924D01*
X833572Y570345D02*
X872903D01*
X621399Y561345D02*
X872902D01*
X834114Y578445D02*
X872889D01*
X589200Y557745D02*
X872887D01*
X833572Y573945D02*
X872887D01*
X574514Y586545D02*
X872883D01*
X834160Y565845D02*
X872883D01*
X863568Y623445D02*
X872851D01*
X836366Y645045D02*
X872794D01*
X835377Y644145D02*
X872774D01*
X833581Y643245D02*
X872774D01*
X834435Y642345D02*
X872774D01*
X835899Y641445D02*
X872774D01*
X858263Y640545D02*
X872774D01*
X858945Y639645D02*
X872774D01*
X859189Y638745D02*
X872774D01*
X857615Y631545D02*
X872774D01*
X856715Y630645D02*
X872774D01*
X855815Y629745D02*
X872774D01*
X854915Y628845D02*
X872774D01*
X854015Y627945D02*
X872774D01*
X853115Y627045D02*
X872774D01*
X852215Y626145D02*
X872774D01*
X861874Y625245D02*
X872774D01*
X863114Y624345D02*
X872774D01*
X859119Y637845D02*
X872686D01*
X775356Y603645D02*
X872144D01*
X870208Y537045D02*
X871280D01*
X870220Y587445D02*
X871268D01*
X776291Y604545D02*
X871244D01*
X858515Y632445D02*
X870727D01*
X833159Y605445D02*
X870344D01*
X834069Y606345D02*
X869444D01*
X834980Y607245D02*
X868544D01*
X835891Y608145D02*
X867644D01*
X866074Y537045D02*
X867147D01*
X866086Y587445D02*
X867134D01*
X836801Y609045D02*
X866744D01*
X837712Y609945D02*
X865844D01*
X836790Y660345D02*
X865024D01*
X838622Y610845D02*
X864944D01*
X812490Y666645D02*
X864612D01*
X839533Y611745D02*
X864044D01*
X836106Y661245D02*
X863984D01*
X812284Y665745D02*
X863779D01*
X834885Y662145D02*
X863447D01*
X811870Y664845D02*
X863340D01*
X809911Y663045D02*
X863190D01*
X811171Y663945D02*
X863156D01*
X852492Y612645D02*
X863079D01*
X861940Y537045D02*
X863013D01*
X861952Y587445D02*
X863000D01*
X851580Y625245D02*
X860072D01*
X852725Y517245D02*
X858962D01*
X857806Y537045D02*
X858879D01*
X857818Y587445D02*
X858867D01*
X853625Y516345D02*
X858019D01*
X854525Y515445D02*
X857656D01*
X855469Y514545D02*
X857309D01*
X853672Y537045D02*
X854745D01*
X836667Y640545D02*
X854737D01*
X849551Y587445D02*
X854733D01*
X837124Y639645D02*
X854055D01*
X850289Y598245D02*
X853995D01*
X837364Y638745D02*
X853760D01*
X850648Y588345D02*
X853636D01*
X850985Y597345D02*
X853298D01*
X851161Y589245D02*
X853123D01*
X851311Y596445D02*
X852973D01*
X851368Y590145D02*
X852916D01*
X851381Y595545D02*
X852902D01*
X851381Y594645D02*
X852902D01*
X851381Y593745D02*
X852902D01*
X851381Y592845D02*
X852902D01*
X851381Y591945D02*
X852902D01*
X851381Y591045D02*
X852902D01*
X837422Y637845D02*
X852875D01*
X837303Y636945D02*
X851975D01*
X840514Y612645D02*
X851508D01*
X836994Y636045D02*
X851075D01*
X788500Y548745D02*
X850611D01*
X849538Y537045D02*
X850611D01*
X836446Y635145D02*
X850175D01*
X788500Y549645D02*
X849538D01*
X835519Y634245D02*
X849275D01*
X621469Y550545D02*
X848915D01*
X846873Y551445D02*
X848704D01*
X788500Y504645D02*
X848683D01*
X759637Y633345D02*
X848375D01*
X788500Y505545D02*
X847783D01*
X759637Y632445D02*
X847475D01*
X788500Y506445D02*
X846883D01*
X759637Y631545D02*
X846575D01*
X845405Y537045D02*
X846477D01*
X845417Y587445D02*
X846465D01*
X788500Y507345D02*
X845983D01*
X797338Y630645D02*
X845675D01*
X621667Y551445D02*
X845127D01*
X832838Y508245D02*
X845083D01*
X833844Y509145D02*
X844183D01*
X619555Y555945D02*
X844127D01*
X621687Y552345D02*
X843867D01*
X620580Y555045D02*
X843510D01*
X621532Y553245D02*
X843408D01*
X621182Y554145D02*
X843304D01*
X834433Y510045D02*
X843283D01*
X834772Y510945D02*
X842383D01*
X841271Y537045D02*
X842343D01*
X841283Y587445D02*
X842331D01*
X834916Y511845D02*
X841483D01*
X834883Y512745D02*
X840583D01*
X834669Y513645D02*
X839683D01*
X834246Y514545D02*
X838783D01*
X837137Y537045D02*
X838210D01*
X837149Y587445D02*
X838197D01*
X833532Y515445D02*
X837883D01*
X833183Y516345D02*
X836983D01*
X833015Y619845D02*
X836716D01*
X833901Y532545D02*
X836099D01*
X834021Y517245D02*
X836083D01*
X832115Y618945D02*
X835834D01*
X834623Y518145D02*
X835168D01*
X831215Y618045D02*
X834934D01*
X833003Y537045D02*
X834076D01*
X833015Y587445D02*
X834063D01*
X830315Y617145D02*
X834034D01*
X829642Y616245D02*
X833134D01*
X829275Y615345D02*
X832234D01*
X829901Y532545D02*
X832099D01*
X828321Y614445D02*
X831334D01*
X759637Y613545D02*
X830434D01*
X828869Y537045D02*
X829942D01*
X828881Y587445D02*
X829930D01*
X501700Y581145D02*
X829832D01*
X621582Y564045D02*
X829721D01*
X826061Y622545D02*
X829620D01*
X759637Y612645D02*
X829534D01*
X582950Y576645D02*
X829372D01*
X582950Y575745D02*
X829372D01*
X582950Y574845D02*
X829372D01*
X582950Y573945D02*
X829372D01*
X582950Y573045D02*
X829372D01*
X582950Y572145D02*
X829372D01*
X582950Y571245D02*
X829372D01*
X582950Y570345D02*
X829372D01*
X582950Y569445D02*
X829372D01*
X582950Y568545D02*
X829372D01*
X617716Y567645D02*
X829258D01*
X582899Y577545D02*
X829197D01*
X501700Y580245D02*
X829076D01*
X621279Y564945D02*
X829031D01*
X825735Y621645D02*
X828875D01*
X619840Y566745D02*
X828850D01*
X582572Y578445D02*
X828830D01*
X581790Y579345D02*
X828794D01*
X620741Y565845D02*
X828784D01*
X759637Y653145D02*
X828461D01*
X812527Y643245D02*
X828419D01*
X825901Y532545D02*
X828099D01*
X824885Y620745D02*
X827975D01*
X812527Y642345D02*
X827565D01*
X759637Y652245D02*
X827324D01*
X759637Y662145D02*
X827115D01*
X800001Y619845D02*
X827075D01*
X759637Y654045D02*
X826777D01*
X812512Y644145D02*
X826623D01*
X759637Y634245D02*
X826481D01*
X812527Y641445D02*
X826101D01*
X759637Y651345D02*
X825994D01*
X759637Y661245D02*
X825894D01*
X824735Y537045D02*
X825808D01*
X824748Y587445D02*
X825796D01*
X759637Y654945D02*
X825719D01*
X759637Y614445D02*
X825679D01*
X812349Y645045D02*
X825634D01*
X759637Y635145D02*
X825554D01*
X801241Y618945D02*
X825360D01*
X812527Y640545D02*
X825333D01*
X759637Y650445D02*
X825270D01*
X759637Y660345D02*
X825210D01*
X759637Y655845D02*
X825105D01*
X811988Y645945D02*
X825054D01*
X809911Y636045D02*
X825006D01*
X812490Y639645D02*
X824876D01*
X759637Y649545D02*
X824840D01*
X759637Y659445D02*
X824806D01*
X759637Y656745D02*
X824748D01*
X800962Y615345D02*
X824725D01*
X811367Y646845D02*
X824721D01*
X811171Y636945D02*
X824697D01*
X812284Y638745D02*
X824636D01*
X759637Y648645D02*
X824621D01*
X759637Y658545D02*
X824608D01*
X801695Y618045D02*
X824604D01*
X759637Y657645D02*
X824589D01*
X810295Y647745D02*
X824583D01*
X811870Y637845D02*
X824578D01*
X801585Y616245D02*
X824358D01*
X801796Y617145D02*
X824322D01*
X788500Y508245D02*
X824162D01*
X818499Y532545D02*
X824099D01*
X807474Y516345D02*
X823817D01*
X807619Y515445D02*
X823468D01*
X788500Y509145D02*
X823156D01*
X807171Y517245D02*
X822979D01*
X819402Y531645D02*
X822859D01*
X820945Y514545D02*
X822754D01*
X788500Y522645D02*
X822465D01*
X806678Y518145D02*
X822461D01*
X788500Y521745D02*
X822415D01*
X820302Y530745D02*
X822405D01*
X821202Y529845D02*
X822288D01*
X805926Y519045D02*
X822175D01*
X788500Y520845D02*
X822153D01*
X804706Y519945D02*
X822076D01*
X799532Y620745D02*
X821915D01*
X820601Y537045D02*
X821674D01*
X820614Y587445D02*
X821662D01*
X788500Y523545D02*
X821562D01*
X788500Y524445D02*
X820662D01*
X788500Y525345D02*
X819762D01*
X788500Y526245D02*
X818862D01*
X807619Y514545D02*
X818655D01*
X804688Y510045D02*
X818049D01*
X788500Y527145D02*
X817962D01*
X807472Y513645D02*
X817586D01*
X816468Y537045D02*
X817540D01*
X816480Y587445D02*
X817528D01*
X805916Y510945D02*
X817359D01*
X807166Y512745D02*
X817178D01*
X806672Y511845D02*
X817112D01*
X788500Y528045D02*
X817062D01*
X812334Y537045D02*
X813406D01*
X808212Y587445D02*
X813394D01*
X808950Y598245D02*
X812656D01*
X809309Y588345D02*
X812297D01*
X809647Y597345D02*
X811959D01*
X809822Y589245D02*
X811784D01*
X809972Y596445D02*
X811634D01*
X810029Y590145D02*
X811577D01*
X810043Y595545D02*
X811564D01*
X810043Y594645D02*
X811564D01*
X810043Y593745D02*
X811564D01*
X810043Y592845D02*
X811564D01*
X810043Y591945D02*
X811564D01*
X810043Y591045D02*
X811564D01*
X808200Y537045D02*
X809273D01*
X788500Y533445D02*
X806555D01*
X788500Y528945D02*
X805949D01*
X759637Y663045D02*
X805837D01*
X802037Y636045D02*
X805837D01*
X788500Y532545D02*
X805486D01*
X759637Y674745D02*
X805453D01*
X802421Y647745D02*
X805453D01*
X788500Y529845D02*
X805259D01*
X804066Y537045D02*
X805139D01*
X804078Y587445D02*
X805126D01*
X788500Y531645D02*
X805078D01*
X788500Y530745D02*
X805012D01*
X759637Y663945D02*
X804577D01*
X803297Y636945D02*
X804577D01*
X759637Y673845D02*
X804381D01*
X803493Y646845D02*
X804381D01*
X759637Y664845D02*
X803878D01*
X759637Y672945D02*
X803760D01*
X759637Y665745D02*
X803464D01*
X759637Y672045D02*
X803399D01*
X759637Y666645D02*
X803258D01*
X759637Y671145D02*
X803236D01*
X759637Y670245D02*
X803221D01*
X759637Y669345D02*
X803221D01*
X759637Y668445D02*
X803221D01*
X759637Y667545D02*
X803221D01*
X788500Y537045D02*
X801005D01*
X799944Y587445D02*
X800993D01*
X788500Y547845D02*
X800248D01*
X788635Y537945D02*
X799900D01*
X788981Y546945D02*
X799555D01*
X789150Y538845D02*
X799385D01*
X788500Y510045D02*
X799312D01*
X788500Y519945D02*
X799294D01*
X789304Y546045D02*
X799231D01*
X789359Y539745D02*
X799176D01*
X789373Y545145D02*
X799162D01*
X789373Y544245D02*
X799162D01*
X789373Y543345D02*
X799162D01*
X789373Y542445D02*
X799162D01*
X789373Y541545D02*
X799162D01*
X789373Y540645D02*
X799162D01*
X788500Y510945D02*
X798084D01*
X788500Y519045D02*
X798074D01*
X779911Y636045D02*
X797963D01*
X780295Y647745D02*
X797579D01*
X788500Y511845D02*
X797328D01*
X788500Y518145D02*
X797322D01*
X795811Y587445D02*
X796859D01*
X788500Y512745D02*
X796834D01*
X788500Y517245D02*
X796829D01*
X781171Y636945D02*
X796703D01*
X788500Y513645D02*
X796528D01*
X788500Y516345D02*
X796526D01*
X781367Y646845D02*
X796507D01*
X788500Y514545D02*
X796381D01*
X788500Y515445D02*
X796381D01*
X781870Y637845D02*
X796004D01*
X781988Y645945D02*
X795886D01*
X782284Y638745D02*
X795590D01*
X782349Y645045D02*
X795525D01*
X782490Y639645D02*
X795384D01*
X782512Y644145D02*
X795362D01*
X782527Y643245D02*
X795347D01*
X782527Y642345D02*
X795347D01*
X782527Y641445D02*
X795347D01*
X782527Y640545D02*
X795347D01*
X793301Y630645D02*
X794662D01*
X791677Y587445D02*
X792725D01*
X759637Y630645D02*
X791499D01*
X779200Y625245D02*
X790755D01*
X759637Y626145D02*
X790538D01*
X759637Y629745D02*
X790259D01*
X759637Y627045D02*
X789915D01*
X759637Y628845D02*
X789805D01*
X759637Y627945D02*
X789704D01*
X787543Y587445D02*
X788591D01*
X779185Y620745D02*
X786168D01*
X759637Y619845D02*
X785699D01*
X759637Y615345D02*
X784738D01*
X759637Y618945D02*
X784459D01*
X574352Y587445D02*
X784457D01*
X759637Y616245D02*
X784115D01*
X759637Y618045D02*
X784005D01*
X759637Y617145D02*
X783904D01*
X769956Y598245D02*
X783719D01*
X637492Y588345D02*
X783360D01*
X769056Y597345D02*
X783022D01*
X760927Y589245D02*
X782847D01*
X768156Y596445D02*
X782697D01*
X761856Y590145D02*
X782640D01*
X767256Y595545D02*
X782627D01*
X766356Y594645D02*
X782627D01*
X765456Y593745D02*
X782627D01*
X764556Y592845D02*
X782627D01*
X763656Y591945D02*
X782627D01*
X762756Y591045D02*
X782627D01*
X759637Y620745D02*
X776215D01*
X759637Y625245D02*
X776200D01*
X759637Y636045D02*
X775837D01*
X759637Y647745D02*
X775453D01*
X759637Y621645D02*
X775365D01*
X759637Y624345D02*
X775359D01*
X759637Y622545D02*
X775039D01*
X759637Y623445D02*
X775037D01*
X759637Y636945D02*
X774577D01*
X759637Y646845D02*
X774381D01*
X759637Y637845D02*
X773878D01*
X759637Y645945D02*
X773760D01*
X759637Y638745D02*
X773464D01*
X759637Y645045D02*
X773399D01*
X759637Y639645D02*
X773258D01*
X759637Y644145D02*
X773236D01*
X759637Y643245D02*
X773221D01*
X759637Y642345D02*
X773221D01*
X759637Y641445D02*
X773221D01*
X759637Y640545D02*
X773221D01*
X759637Y611745D02*
X772421D01*
X759637Y610845D02*
X771383D01*
X759637Y609945D02*
X770483D01*
X759637Y609045D02*
X769583D01*
X759633Y608145D02*
X768683D01*
X759295Y607245D02*
X767783D01*
X573800Y606345D02*
X766883D01*
X573800Y605445D02*
X765983D01*
X573800Y604545D02*
X765083D01*
X573800Y603645D02*
X764183D01*
X573800Y602745D02*
X763283D01*
X573800Y601845D02*
X762383D01*
X573800Y600945D02*
X761483D01*
X573800Y600045D02*
X760583D01*
X573800Y599145D02*
X759683D01*
X573800Y598245D02*
X758783D01*
X573800Y597345D02*
X757883D01*
X621068Y549645D02*
X749500D01*
X620391Y548745D02*
X749500D01*
X619197Y547845D02*
X749500D01*
X589200Y546945D02*
X749500D01*
X589200Y546045D02*
X749500D01*
X589200Y545145D02*
X749500D01*
X589200Y544245D02*
X749500D01*
X589545Y543345D02*
X749500D01*
X589789Y542445D02*
X749500D01*
X589719Y541545D02*
X749500D01*
X589307Y540645D02*
X749500D01*
X588224Y539745D02*
X749500D01*
X501700Y538845D02*
X749500D01*
X501700Y537945D02*
X749500D01*
X501700Y537045D02*
X690468D01*
X676564Y607245D02*
X689650D01*
X501700Y536145D02*
X689464D01*
X677604Y608145D02*
X689312D01*
X501700Y678345D02*
X689308D01*
X501700Y677445D02*
X689308D01*
X501700Y676545D02*
X689308D01*
X501700Y675645D02*
X689308D01*
X501700Y674745D02*
X689308D01*
X501700Y673845D02*
X689308D01*
X501700Y672945D02*
X689308D01*
X501700Y672045D02*
X689308D01*
X501700Y671145D02*
X689308D01*
X501700Y670245D02*
X689308D01*
X501700Y669345D02*
X689308D01*
X501700Y668445D02*
X689308D01*
X501700Y667545D02*
X689308D01*
X501700Y666645D02*
X689308D01*
X501700Y665745D02*
X689308D01*
X501700Y664845D02*
X689308D01*
X501700Y663945D02*
X689308D01*
X501700Y663045D02*
X689308D01*
X501700Y662145D02*
X689308D01*
X501700Y661245D02*
X689308D01*
X501700Y660345D02*
X689308D01*
X501700Y659445D02*
X689308D01*
X542169Y658545D02*
X689308D01*
X543428Y657645D02*
X689308D01*
X544123Y656745D02*
X689308D01*
X544531Y655845D02*
X689308D01*
X544731Y654945D02*
X689308D01*
X544750Y654045D02*
X689308D01*
X544589Y653145D02*
X689308D01*
X544227Y652245D02*
X689308D01*
X543603Y651345D02*
X689308D01*
X542516Y650445D02*
X689308D01*
X501700Y649545D02*
X689308D01*
X501700Y648645D02*
X689308D01*
X501700Y647745D02*
X689308D01*
X501700Y646845D02*
X689308D01*
X501700Y645945D02*
X689308D01*
X501700Y645045D02*
X689308D01*
X501700Y644145D02*
X689308D01*
X501700Y643245D02*
X689308D01*
X501700Y642345D02*
X689308D01*
X501700Y641445D02*
X689308D01*
X676118Y640545D02*
X689308D01*
X677225Y639645D02*
X689308D01*
X677862Y638745D02*
X689308D01*
X678234Y637845D02*
X689308D01*
X678406Y636945D02*
X689308D01*
X678399Y636045D02*
X689308D01*
X678214Y635145D02*
X689308D01*
X677826Y634245D02*
X689308D01*
X677166Y633345D02*
X689308D01*
X676618Y632445D02*
X689308D01*
X677417Y631545D02*
X689308D01*
X677977Y630645D02*
X689308D01*
X678295Y629745D02*
X689308D01*
X678420Y628845D02*
X689308D01*
X678370Y627945D02*
X689308D01*
X678138Y627045D02*
X689308D01*
X677690Y626145D02*
X689308D01*
X676939Y625245D02*
X689308D01*
X675528Y624345D02*
X689308D01*
X574741Y623445D02*
X689308D01*
X574399Y622545D02*
X689308D01*
X574170Y621645D02*
X689308D01*
X573800Y620745D02*
X689308D01*
X573800Y619845D02*
X689308D01*
X573800Y618945D02*
X689308D01*
X573800Y618045D02*
X689308D01*
X573800Y617145D02*
X689308D01*
X573800Y616245D02*
X689308D01*
X676133Y615345D02*
X689308D01*
X677380Y614445D02*
X689308D01*
X678075Y613545D02*
X689308D01*
X678486Y612645D02*
X689308D01*
X678689Y611745D02*
X689308D01*
X678713Y610845D02*
X689308D01*
X678559Y609945D02*
X689308D01*
X678209Y609045D02*
X689308D01*
X501700Y535245D02*
X689308D01*
X501700Y534345D02*
X689308D01*
X501700Y533445D02*
X689308D01*
X684413Y532545D02*
X689308D01*
X684699Y531645D02*
X689308D01*
X684700Y530745D02*
X689308D01*
X684700Y529845D02*
X689308D01*
X684700Y528945D02*
X689308D01*
X684700Y528045D02*
X689308D01*
X684700Y527145D02*
X689308D01*
X684693Y526245D02*
X689308D01*
X684333Y525345D02*
X689308D01*
X501700Y524445D02*
X689308D01*
X501700Y523545D02*
X689308D01*
X501700Y522645D02*
X689308D01*
X501700Y521745D02*
X689308D01*
X501700Y520845D02*
X689308D01*
X501700Y519945D02*
X689308D01*
X501700Y519045D02*
X689308D01*
X501700Y518145D02*
X689308D01*
X501700Y517245D02*
X689308D01*
X501700Y516345D02*
X689308D01*
X501700Y515445D02*
X689308D01*
X501700Y514545D02*
X689308D01*
X501700Y513645D02*
X689308D01*
X501700Y512745D02*
X689308D01*
X501700Y511845D02*
X689308D01*
X501700Y510945D02*
X689308D01*
X501700Y510045D02*
X689308D01*
X501700Y509145D02*
X689308D01*
X501700Y508245D02*
X689308D01*
X501700Y507345D02*
X689308D01*
X501700Y506445D02*
X689308D01*
X501700Y505545D02*
X689308D01*
X501700Y504645D02*
X689308D01*
X501700Y503745D02*
X689308D01*
X501700Y502845D02*
X689308D01*
X501770Y501945D02*
X689238D01*
X501836Y679245D02*
X689172D01*
X574988Y624345D02*
X668472D01*
X573800Y615345D02*
X668467D01*
X573800Y607245D02*
X668036D01*
X501700Y640545D02*
X667882D01*
X544164Y632445D02*
X667382D01*
X573800Y614445D02*
X667220D01*
X574922Y625245D02*
X667061D01*
X573800Y608145D02*
X666996D01*
X544555Y633345D02*
X666834D01*
X501700Y639645D02*
X666775D01*
X543498Y631545D02*
X666583D01*
X573800Y613545D02*
X666525D01*
X573800Y609045D02*
X666391D01*
X574514Y626145D02*
X666310D01*
X544739Y634245D02*
X666174D01*
X542390Y638745D02*
X666138D01*
X573800Y612645D02*
X666114D01*
X573800Y609945D02*
X666041D01*
X542311Y630645D02*
X666023D01*
X573800Y611745D02*
X665911D01*
X573800Y610845D02*
X665887D01*
X573445Y627045D02*
X665862D01*
X544743Y635145D02*
X665786D01*
X543538Y637845D02*
X665766D01*
X501700Y629745D02*
X665705D01*
X501700Y627945D02*
X665630D01*
X544568Y636045D02*
X665601D01*
X544188Y636945D02*
X665594D01*
X501700Y628845D02*
X665580D01*
X573913Y588345D02*
X636508D01*
X573800Y596445D02*
X635127D01*
X573800Y589245D02*
X634948D01*
X573800Y592845D02*
X634812D01*
X573800Y595545D02*
X634510D01*
X573800Y591945D02*
X634471D01*
X573800Y590145D02*
X634439D01*
X573800Y593745D02*
X634408D01*
X573800Y594645D02*
X634304D01*
X573800Y591045D02*
X634300D01*
X607716Y567645D02*
X616284D01*
X608768Y558645D02*
X615232D01*
X609197Y547845D02*
X614803D01*
X609555Y555945D02*
X614445D01*
X609840Y566745D02*
X614160D01*
X610187Y559545D02*
X613813D01*
X610391Y548745D02*
X613609D01*
X610580Y555045D02*
X613420D01*
X610741Y565845D02*
X613259D01*
X610945Y560445D02*
X613055D01*
X611068Y549645D02*
X612932D01*
X611182Y554145D02*
X612818D01*
X611279Y564945D02*
X612721D01*
X611399Y561345D02*
X612601D01*
X611469Y550545D02*
X612531D01*
X611535Y553245D02*
X612465D01*
X611679Y564045D02*
X612321D01*
X600428Y567645D02*
X606284D01*
X601027Y558645D02*
X605232D01*
X601248Y547845D02*
X604803D01*
X601413Y555945D02*
X604445D01*
X601528Y566745D02*
X604160D01*
X601638Y559545D02*
X603813D01*
X601681Y548745D02*
X603609D01*
X601699Y555045D02*
X603420D01*
X601700Y565845D02*
X603259D01*
X601700Y560445D02*
X603055D01*
X601700Y549645D02*
X602932D01*
X601700Y554145D02*
X602818D01*
X601703Y564945D02*
X602721D01*
X601838Y561345D02*
X602562D01*
X583004Y567645D02*
X593572D01*
X589200Y558645D02*
X592973D01*
X589200Y547845D02*
X592752D01*
X589200Y555945D02*
X592587D01*
X584532Y566745D02*
X592472D01*
X589200Y559545D02*
X592362D01*
X589200Y548745D02*
X592319D01*
X589200Y555045D02*
X592301D01*
X585453Y565845D02*
X592300D01*
X588973Y564945D02*
X592300D01*
X589590Y564045D02*
X592300D01*
X589796Y563145D02*
X592300D01*
X589692Y562245D02*
X592300D01*
X589247Y561345D02*
X592300D01*
X589200Y560445D02*
X592300D01*
X589200Y554145D02*
X592300D01*
X589200Y553245D02*
X592300D01*
X589200Y552345D02*
X592300D01*
X589200Y551445D02*
X592300D01*
X589200Y550545D02*
X592300D01*
X589200Y549645D02*
X592300D01*
X526126Y539745D02*
X585976D01*
X582586Y550545D02*
X585000D01*
X501700Y549645D02*
X585000D01*
X501700Y548745D02*
X585000D01*
X501700Y547845D02*
X585000D01*
X501700Y546945D02*
X585000D01*
X525331Y546045D02*
X585000D01*
X526650Y545145D02*
X585000D01*
X527264Y544245D02*
X585000D01*
X526998Y540645D02*
X584893D01*
X527559Y543345D02*
X584655D01*
X527440Y541545D02*
X584481D01*
X527614Y542445D02*
X584411D01*
X501700Y579345D02*
X578210D01*
X501700Y578445D02*
X577428D01*
X501700Y550545D02*
X577414D01*
X501700Y577545D02*
X577101D01*
X501700Y576645D02*
X577050D01*
X501700Y575745D02*
X577050D01*
X501700Y574845D02*
X577050D01*
X501700Y573945D02*
X577050D01*
X501700Y573045D02*
X577050D01*
X501700Y572145D02*
X577050D01*
X501700Y571245D02*
X577050D01*
X501700Y570345D02*
X577050D01*
X501700Y569445D02*
X577050D01*
X501700Y568545D02*
X577050D01*
X501700Y567645D02*
X576996D01*
X501700Y566745D02*
X575468D01*
X501700Y551445D02*
X575382D01*
X527359Y558645D02*
X575185D01*
X527593Y559545D02*
X575112D01*
X501700Y565845D02*
X574547D01*
X501700Y552345D02*
X574498D01*
X526834Y557745D02*
X574383D01*
X527594Y560445D02*
X574340D01*
X501700Y564945D02*
X574002D01*
X501700Y553245D02*
X573973D01*
X525778Y556845D02*
X573905D01*
X527362Y561345D02*
X573880D01*
X501700Y564045D02*
X573694D01*
X501700Y554145D02*
X573680D01*
X501700Y555945D02*
X573648D01*
X526842Y562245D02*
X573637D01*
X525795Y563145D02*
X573578D01*
X501700Y555045D02*
X573576D01*
X570645Y627045D02*
X571155D01*
X501700D02*
X568355D01*
X501700Y620745D02*
X568000D01*
X501700Y619845D02*
X568000D01*
X501700Y618945D02*
X568000D01*
X501700Y618045D02*
X568000D01*
X501700Y617145D02*
X568000D01*
X501700Y616245D02*
X568000D01*
X501700Y615345D02*
X568000D01*
X501700Y614445D02*
X568000D01*
X501700Y613545D02*
X568000D01*
X501700Y612645D02*
X568000D01*
X501700Y611745D02*
X568000D01*
X501700Y610845D02*
X568000D01*
X501700Y609945D02*
X568000D01*
X501700Y609045D02*
X568000D01*
X501700Y608145D02*
X568000D01*
X501700Y607245D02*
X568000D01*
X501700Y606345D02*
X568000D01*
X501700Y605445D02*
X568000D01*
X501700Y604545D02*
X568000D01*
X501700Y603645D02*
X568000D01*
X501700Y602745D02*
X568000D01*
X501700Y601845D02*
X568000D01*
X501700Y600945D02*
X568000D01*
X501700Y600045D02*
X568000D01*
X501700Y599145D02*
X568000D01*
X501700Y598245D02*
X568000D01*
X501700Y597345D02*
X568000D01*
X501700Y596445D02*
X568000D01*
X501700Y595545D02*
X568000D01*
X501700Y594645D02*
X568000D01*
X501700Y593745D02*
X568000D01*
X501700Y592845D02*
X568000D01*
X544082Y591945D02*
X568000D01*
X544842Y591045D02*
X568000D01*
X545225Y590145D02*
X568000D01*
X545354Y589245D02*
X568000D01*
X545254Y588345D02*
X567887D01*
X501700Y582945D02*
X567749D01*
X501700Y621645D02*
X567630D01*
X544906Y587445D02*
X567448D01*
X501700Y622545D02*
X567401D01*
X501700Y626145D02*
X567286D01*
X544207Y586545D02*
X567286D01*
X501700Y623445D02*
X567059D01*
X501700Y583845D02*
X567059D01*
X501700Y625245D02*
X566878D01*
X542479Y585645D02*
X566878D01*
X501700Y624345D02*
X566812D01*
X501700Y584745D02*
X566812D01*
X501700Y525345D02*
X561667D01*
X501700Y532545D02*
X561587D01*
X501700Y526245D02*
X561307D01*
X501700Y531645D02*
X561301D01*
X501700Y530745D02*
X561300D01*
X501700Y529845D02*
X561300D01*
X501700Y528945D02*
X561300D01*
X501700Y528045D02*
X561300D01*
X501700Y527145D02*
X561300D01*
X514920Y585645D02*
X540985D01*
X516523Y591945D02*
X539383D01*
X516648Y586545D02*
X539257D01*
X517283Y591045D02*
X538622D01*
X517347Y587445D02*
X538558D01*
X517666Y590145D02*
X538239D01*
X517695Y588345D02*
X538210D01*
X501700Y658545D02*
X538146D01*
X517794Y589245D02*
X538111D01*
X501700Y630645D02*
X538004D01*
X501700Y638745D02*
X537925D01*
X501700Y650445D02*
X537799D01*
X501700Y657645D02*
X536887D01*
X501700Y631545D02*
X536817D01*
X501700Y637845D02*
X536777D01*
X501700Y651345D02*
X536712D01*
X501700Y656745D02*
X536192D01*
X501700Y632445D02*
X536151D01*
X501700Y636945D02*
X536127D01*
X501700Y652245D02*
X536088D01*
X501700Y655845D02*
X535784D01*
X501700Y633345D02*
X535760D01*
X501700Y636045D02*
X535747D01*
X501700Y653145D02*
X535726D01*
X501700Y654945D02*
X535584D01*
X501700Y634245D02*
X535576D01*
X501700Y635145D02*
X535572D01*
X501700Y654045D02*
X535565D01*
X501700Y546045D02*
X522669D01*
X501700Y556845D02*
X522222D01*
X501700Y563145D02*
X522205D01*
X501700Y539745D02*
X521874D01*
X501700Y545145D02*
X521350D01*
X501700Y557745D02*
X521166D01*
X501700Y562245D02*
X521158D01*
X501700Y540645D02*
X521002D01*
X501700Y544245D02*
X520736D01*
X501700Y558645D02*
X520641D01*
X501700Y561345D02*
X520638D01*
X501700Y541545D02*
X520560D01*
X501700Y543345D02*
X520441D01*
X501700Y559545D02*
X520407D01*
X501700Y560445D02*
X520406D01*
X501700Y542445D02*
X520386D01*
X501700Y585645D02*
X513426D01*
X501700Y591945D02*
X511824D01*
X501700Y586545D02*
X511698D01*
X501700Y591045D02*
X511063D01*
X501700Y587445D02*
X510999D01*
X501700Y590145D02*
X510680D01*
X501700Y588345D02*
X510651D01*
X501700Y589245D02*
X510552D01*
X500000Y681102D02*
X691008D01*
Y608268*
X757937*
Y681102*
X946000*
Y500000*
X757937*
Y535433*
X691008*
Y500000*
X500000*
Y681102*
X563000Y531600D02*
X683000D01*
Y526400*
X563000*
Y531600*
G54D51*
X819800Y512100D02*
Y512126D01*
X821726*
X821726*
X828500*
X877689Y512400D02*
X885489Y520200D01*
X886800*
X877689Y512400D02*
X854600D01*
X837000Y530000*
X886900Y509900D02*
X883000Y506000D01*
X850298*
X832098Y524200*
X823877*
X817077Y531000*
X807700*
X885200Y516800D02*
X879200Y510800D01*
X852572*
X833186Y530186*
X880113Y509200D02*
X884813Y513900D01*
X886300*
X887800Y515400*
X880113Y509200D02*
X851859D01*
X833459Y527600*
X831400*
X829000Y530000*
X881026Y507600D02*
X885526Y512100D01*
X887700*
X889600Y514000*
X894000*
X881026Y507600D02*
X851089D01*
X832789Y525900*
X829100*
X825000Y530000*
X894000Y514000D02*
Y609900D01*
X878774Y625126*
Y630700*
X902000Y506000D02*
X894000Y514000D01*
X833000Y530000D02*
X833186Y530186D01*
X912100Y525300D02*
X907900Y529500D01*
Y563100*
X587100Y542200D02*
Y563000D01*
X835606Y542709D02*
Y546093D01*
X851400Y551600D02*
X851500Y551700D01*
X867200*
X839740Y542709D02*
Y545366D01*
X843874Y542709D02*
Y545296D01*
X868677Y540051D02*
Y542709D01*
X860409Y540051D02*
Y542709D01*
X869500Y553900D02*
Y554000D01*
X846000*
X898700Y557200D02*
Y628100D01*
X896100Y630700*
X900900Y543600D02*
Y652400D01*
X903700Y540000D02*
Y648000D01*
X831479Y567800D02*
X831472Y567807D01*
Y579000*
Y566100D02*
X831479Y567800D01*
X896200Y565900D02*
Y610400D01*
X887400Y619200*
Y630700*
X569500Y585000D02*
Y587000D01*
X570100Y587600*
Y622000*
X572300Y585000D02*
Y587000D01*
X571700Y587600*
Y622000*
X827000Y616800D02*
X832900Y622700D01*
X860973*
X890400Y598300D02*
X890500D01*
X570100Y622000D02*
X569500Y622600D01*
Y624600*
X571700Y622000D02*
X572300Y622600D01*
Y624600*
X777700Y623000D02*
X823400D01*
X796000Y628300D02*
X846300D01*
X856500Y638500*
X848300Y625200D02*
X858100Y635000D01*
X871600*
X848300Y625200D02*
X795300D01*
X792400Y628100*
G54D52*
X532000Y504000D03*
Y513000D03*
X549000D03*
X541000D03*
Y504000D03*
X549000D03*
X563600Y506900D03*
X558800Y513000D03*
X560000Y504000D03*
X572000D03*
X575000Y507000D03*
X584000Y504000D03*
X599000Y503000D03*
X611000D03*
X623000D03*
X635000D03*
X647000D03*
X659000D03*
X671000D03*
X688000Y512000D03*
Y504000D03*
X792000Y515000D03*
Y512000D03*
X798000Y505000D03*
X802000D03*
X806000D03*
X812000Y512000D03*
Y515000D03*
X819800Y512100D03*
X837200Y511300D03*
X836000Y508000D03*
X873900Y514900D03*
X860300D03*
X886900Y509900D03*
X885200Y516800D03*
X887800Y515400D03*
X902000Y506000D03*
X532000Y522000D03*
X541000D03*
X549000D03*
X558800D03*
X682000Y537000D03*
X688000Y521000D03*
Y531000D03*
X792000Y518000D03*
X807700Y531000D03*
X812000Y518000D03*
X837000Y530000D03*
X825000D03*
X833000D03*
X829000D03*
X874700Y519700D03*
X870000Y520000D03*
X886800Y520200D03*
X912100Y525300D03*
X914000Y530000D03*
X936000Y536000D03*
X921000Y531000D03*
X929000D03*
X936000D03*
X942000Y528000D03*
Y536000D03*
X504000Y552000D03*
Y538000D03*
X530000Y548000D03*
Y544000D03*
X534000Y540000D03*
X538000D03*
X530000D03*
X542000Y542000D03*
X587100Y542200D03*
X633300Y556700D03*
X653300D03*
X643300D03*
X663300D03*
X691000Y545000D03*
X686000Y541000D03*
X695000Y545000D03*
Y549000D03*
X736000Y544000D03*
X720000Y538000D03*
X736000D03*
X728000D03*
X726000Y544000D03*
X744000D03*
Y538000D03*
X798000Y541000D03*
X795000D03*
X798000Y546000D03*
X795000D03*
X846000Y554000D03*
X851400Y551600D03*
X869500Y553900D03*
X867200Y551700D03*
X882000Y544000D03*
X886000D03*
X882000Y540000D03*
X886000D03*
X898700Y557200D03*
X900900Y543600D03*
X903700Y540000D03*
X942000Y544000D03*
X504000Y566000D03*
X555000Y567000D03*
X554100Y559500D03*
X562000Y574000D03*
X562400Y559800D03*
X580000Y577000D03*
X587100Y563000D03*
X592000Y576000D03*
X606000D03*
X633000D03*
Y568000D03*
X653000Y576000D03*
X643000D03*
Y568000D03*
X653000D03*
X663000Y576000D03*
Y568000D03*
X674000Y570000D03*
X680000Y576000D03*
X831472Y566100D03*
X826000Y576000D03*
X838000D03*
X850000D03*
X867000Y558000D03*
Y562000D03*
X871000D03*
Y558000D03*
X896200Y565900D03*
X890500Y570000D03*
X886000Y577000D03*
X907900Y563100D03*
X504000Y594000D03*
Y580000D03*
X569500Y585000D03*
X572300D03*
X578000Y586000D03*
Y582000D03*
X583000Y586000D03*
X592000Y582000D03*
X606000D03*
X637000Y591000D03*
Y594500D03*
X635000Y584000D03*
X646000D03*
X657000D03*
X668000D03*
X674000Y578000D03*
X696000Y588000D03*
Y582000D03*
X710000D03*
Y588000D03*
X738000Y582000D03*
X724200Y588200D03*
X737900Y588100D03*
X724000Y582000D03*
X752000D03*
X752100Y588100D03*
X775000Y588000D03*
X764000D03*
X775000Y582000D03*
X764000D03*
X786000D03*
X799000Y585000D03*
X804000D03*
X831472Y579000D03*
X838000Y582000D03*
X826000D03*
X850000D03*
X866000D03*
X862000D03*
X871000D03*
X885000Y592000D03*
X886000Y582000D03*
X504000Y608000D03*
X592000Y600000D03*
X584000Y612000D03*
X592000D03*
X600000Y600000D03*
X608000D03*
X616000D03*
Y612000D03*
X608000D03*
X600000D03*
X624000Y600000D03*
X632000D03*
Y612000D03*
X624000D03*
X655500Y605400D03*
X662100Y605300D03*
X680000Y601000D03*
Y604000D03*
X688000Y610000D03*
X696000Y606000D03*
Y600000D03*
X710000Y606000D03*
Y600000D03*
X724000Y606000D03*
X738000D03*
Y600000D03*
X724000D03*
X752000Y606000D03*
Y600000D03*
X762000Y606000D03*
X776000Y616300D03*
X786600Y617300D03*
X799100D03*
X814100Y615400D03*
X806800Y615900D03*
X827000Y616800D03*
X820000Y615400D03*
X840000Y615300D03*
X852000D03*
X877000Y603800D03*
X863600Y615300D03*
X877100Y607300D03*
X890400Y598300D03*
X885000Y598000D03*
X887100Y603100D03*
X911000Y615000D03*
X906800Y612200D03*
X930000Y608100D03*
X927300D03*
X942000Y617000D03*
X504000Y636000D03*
Y622000D03*
X518000Y636000D03*
Y622000D03*
X532000Y636000D03*
Y622000D03*
X558000Y626000D03*
X554000D03*
Y630000D03*
Y634000D03*
X569500Y624600D03*
X572300D03*
X562000Y626000D03*
X566000D03*
X588000Y636000D03*
X632000Y618000D03*
X624000D03*
X642700Y634100D03*
X656600Y634000D03*
X654000D03*
X688000D03*
Y622000D03*
X777700Y623000D03*
X768900Y617400D03*
X763400Y623100D03*
X796000Y628300D03*
X792400Y628100D03*
X792000Y632000D03*
X810400Y620100D03*
X814800D03*
X816000Y632000D03*
X823400Y623000D03*
X819800Y620100D03*
X832000Y632000D03*
X824000D03*
X846000Y618100D03*
X858100D03*
X860973Y622700D03*
X863600Y618100D03*
X871600Y635000D03*
X863000Y629000D03*
X858600Y629200D03*
X896100Y630700D03*
X887400D03*
X878774D03*
X892000D03*
Y628000D03*
X915000Y619000D03*
X914300Y624300D03*
X942000Y627000D03*
X504000Y650000D03*
X518000D03*
X532000D03*
X590900Y646700D03*
X602600Y642900D03*
X630000Y646000D03*
X622000D03*
Y652000D03*
X642000Y656000D03*
X656000D03*
X653400Y646600D03*
X645000Y650300D03*
X645100Y643600D03*
X648400Y646800D03*
X662000Y646000D03*
X688000D03*
X792000Y656000D03*
Y646000D03*
X816000D03*
Y656000D03*
X856500Y638500D03*
X875724Y644700D03*
X900900Y652400D03*
X903700Y648000D03*
X914000Y653000D03*
X942000Y638000D03*
Y650000D03*
X504000Y664000D03*
X586000Y666000D03*
X578500Y664800D03*
X600000Y666000D03*
X614000D03*
X628000D03*
X642000D03*
X656000D03*
X792000Y676000D03*
Y666000D03*
X816000D03*
Y676000D03*
X830000D03*
X844000Y668000D03*
Y676000D03*
X858000D03*
Y668000D03*
Y658000D03*
X872000Y676000D03*
Y668000D03*
Y658000D03*
X886000Y668000D03*
Y676000D03*
Y658000D03*
X900000Y676000D03*
X914000D03*
X900000Y668000D03*
X914000D03*
X900000Y658000D03*
X518000Y678000D03*
X504000D03*
X532000D03*
X572000D03*
X586000D03*
X614000D03*
X600000D03*
X628000D03*
X656000D03*
X642000D03*
G54D54*
X873928Y514867D02*
X876100Y516726D01*
X890500Y531126*
Y570000*
X873928Y514867D02*
X873900Y514900D01*
X580000Y563000D02*
Y577000D01*
X890500Y570000D02*
Y598300D01*
Y609337*
X875724Y624113*
Y644700*
G54D59*
G54D90*
X861400Y514867D02*
X861433Y514900D01*
X873900*
X861400Y514867D02*
X860300Y514900D01*
X786600Y617300D02*
X799100D01*
G54D118*
X514173Y589189D03*
X541732D03*
G54D137*
X828500Y512126D03*
Y520000D03*
X831000Y638000D03*
Y648000D03*
Y658000D03*
Y668000D03*
X672300Y611174D03*
Y603300D03*
X580000Y555126D03*
Y563000D03*
X672000Y636528D03*
Y628654D03*
G54D138*
X878913Y586507D03*
Y582374D03*
Y578240D03*
Y574106D03*
Y569972D03*
Y565839D03*
Y561705D03*
Y557571D03*
Y553437D03*
Y549303D03*
G54D139*
X876945Y542709D03*
Y593102D03*
G54D140*
X872811Y542709D03*
X868677D03*
X864543D03*
X860409D03*
X856276D03*
X852142D03*
X848008D03*
X843874D03*
X839740D03*
X835606D03*
X831472D03*
X827339D03*
X823205D03*
X819071D03*
X814937D03*
X810803D03*
X806669D03*
X802535D03*
X790134D03*
X786000D03*
Y593102D03*
X790134D03*
X794268D03*
X798402D03*
X802535D03*
X806669D03*
X810803D03*
X814937D03*
X819071D03*
X823205D03*
X827339D03*
X831472D03*
X835606D03*
X839740D03*
X843874D03*
X848008D03*
X852142D03*
X856276D03*
X860409D03*
X864543D03*
X868677D03*
X872811D03*
G54D141*
X597000Y552000D03*
Y563000D03*
G54D142*
X607000Y552000D03*
X617000D03*
X607000Y563000D03*
X617000D03*
G54D145*
X802000Y515000D03*
X792000Y525000D03*
Y505000D03*
X812000D03*
Y525000D03*
G54D146*
X777874Y642000D03*
X770000D03*
X807874Y669000D03*
X800000D03*
X807874Y642000D03*
X800000D03*
G54D147*
X930000Y665000D03*
Y516000D03*
X774000Y665000D03*
X515000Y516000D03*
X675000Y665000D03*
G54D151*
X524000Y542677D03*
Y560000D03*
G54D154*
X540157Y654402D03*
Y634717D03*
G74*
X0Y0D02*
M02*
