%
T1C.012F095S3
X0532Y0504
X0532Y0513
X0532Y0522
X0541Y0513
X0541Y0504
X0541Y0522
X0549Y0513
X0549Y0504
X0549Y0522
X05588Y0513
X05588Y0522
X056Y0504
X05636Y05069
X0572Y0504
X0575Y0507
X0584Y0504
X0599Y0503
X0611Y0503
X0623Y0503
X0635Y0503
X0647Y0503
X0659Y0503
X0671Y0503
X0688Y0504
X0688Y0512
X0688Y0521
X0792Y0515
X0792Y0512
X0792Y0518
X0798Y0505
X0802Y0505
X0806Y0505
X0812Y0512
X0812Y0515
X0812Y0518
X08198Y05121
X0836Y0508
X08372Y05113
X08603Y05149
X087Y052
X08739Y05149
X08747Y05197
X08852Y05168
X08868Y05202
X08869Y05099
X08878Y05154
X0902Y0506
X09121Y05253
X0942Y0528
X0942Y0536
X0942Y0544
X0936Y0536
X0936Y0531
X0929Y0531
X0921Y0531
X0914Y053
X09037Y054
X09009Y05436
X0886Y0544
X0886Y054
X0882Y0544
X0882Y054
X08672Y05517
X08514Y05516
X0837Y053
X0833Y053
X0829Y053
X0825Y053
X08077Y0531
X0798Y0541
X0798Y0546
X0795Y0541
X0795Y0546
X0744Y0544
X0744Y0538
X0736Y0544
X0736Y0538
X0728Y0538
X0726Y0544
X072Y0538
X0695Y0545
X0695Y0549
X0691Y0545
X0688Y0531
X0686Y0541
X0682Y0537
X05871Y05422
X0542Y0542
X0538Y054
X0534Y054
X053Y0544
X053Y054
X053Y0548
X0504Y0538
X0504Y0552
X0504Y0566
X05541Y05595
X0555Y0567
X0562Y0574
X05624Y05598
X058Y0577
X05871Y0563
X0592Y0576
X0606Y0576
X0633Y0576
X0633Y0568
X06333Y05567
X0643Y0576
X0643Y0568
X06433Y05567
X0653Y0576
X0653Y0568
X06533Y05567
X0663Y0576
X0663Y0568
X06633Y05567
X0674Y057
X068Y0576
X0826Y0576
X083147Y05661
X0838Y0576
X0846Y0554
X085Y0576
X0867Y0558
X0867Y0562
X08695Y05539
X0871Y0562
X0871Y0558
X0886Y0577
X08905Y057
X08962Y05659
X08987Y05572
X09079Y05631
X08904Y05983
X0886Y0582
X0885Y0592
X0885Y0598
X0871Y0582
X0866Y0582
X0862Y0582
X085Y0582
X0838Y0582
X083147Y0579
X0826Y0582
X0804Y0585
X0799Y0585
X0786Y0582
X0775Y0588
X0775Y0582
X0764Y0588
X0764Y0582
X07521Y05881
X0752Y0582
X0752Y06
X0738Y06
X0738Y0582
X07379Y05881
X07242Y05882
X0724Y06
X0724Y0582
X071Y06
X071Y0588
X071Y0582
X0696Y06
X0696Y0588
X0696Y0582
X068Y0601
X0674Y0578
X0668Y0584
X0657Y0584
X0646Y0584
X0637Y0591
X0637Y05945
X0635Y0584
X0632Y06
X0624Y06
X0616Y06
X0608Y06
X0606Y0582
X06Y06
X0592Y0582
X0592Y06
X0583Y0586
X0578Y0582
X0578Y0586
X05723Y0585
X05695Y0585
X0504Y0594
X0504Y058
X0504Y0608
X0504Y0622
X0518Y0622
X0532Y0622
X0554Y0626
X0558Y0626
X0562Y0626
X0566Y0626
X05695Y06246
X05723Y06246
X0584Y0612
X0592Y0612
X06Y0612
X0608Y0612
X0616Y0612
X0624Y0612
X0624Y0618
X0632Y0612
X0632Y0618
X06555Y06054
X06621Y06053
X068Y0604
X0688Y061
X0688Y0622
X0696Y0606
X071Y0606
X0724Y0606
X0738Y0606
X0752Y0606
X0762Y0606
X07634Y06231
X07689Y06174
X0776Y06163
X07777Y0623
X07866Y06173
X07991Y06173
X08068Y06159
X08104Y06201
X08141Y06154
X08148Y06201
X08198Y06201
X082Y06154
X08234Y0623
X0827Y06168
X084Y06153
X0846Y06181
X0852Y06153
X08581Y06181
X086097Y06227
X08636Y06153
X08636Y06181
X0877Y06038
X08771Y06073
X08871Y06031
X09068Y06122
X0911Y0615
X09143Y06243
X0915Y0619
X09273Y06081
X093Y06081
X0942Y0617
X0942Y0627
X0942Y0638
X0942Y065
X09037Y0648
X09009Y06524
X08961Y06307
X0892Y06307
X0892Y0628
X08874Y06307
X087877Y06307
X087572Y06447
X08716Y0635
X0863Y0629
X08586Y06292
X08565Y06385
X0832Y0632
X0824Y0632
X0816Y0632
X0816Y0646
X0796Y06283
X07924Y06281
X0792Y0646
X0792Y0632
X0688Y0646
X0688Y0634
X0662Y0646
X06566Y0634
X0654Y0634
X06534Y06466
X06484Y06468
X06451Y06436
X0645Y06503
X06427Y06341
X063Y0646
X0622Y0646
X0622Y0652
X06026Y06429
X05909Y06467
X0588Y0636
X0554Y0634
X0554Y063
X0532Y0636
X0532Y065
X0518Y0636
X0518Y065
X0504Y065
X0504Y0636
X0504Y0664
X05785Y06648
X0586Y0666
X06Y0666
X0614Y0666
X0628Y0666
X0642Y0656
X0642Y0666
X0656Y0656
X0656Y0666
X0792Y0656
X0792Y0676
X0792Y0666
X0816Y0656
X0816Y0666
X0816Y0676
X083Y0676
X0844Y0668
X0844Y0676
X0858Y0676
X0858Y0668
X0858Y0658
X0872Y0676
X0872Y0668
X0872Y0658
X0886Y0668
X0886Y0676
X0886Y0658
X09Y0676
X09Y0668
X09Y0658
X0914Y0653
X0914Y0668
X0914Y0676
X0656Y0678
X0642Y0678
X0628Y0678
X0614Y0678
X06Y0678
X0586Y0678
X0572Y0678
X0532Y0678
X0518Y0678
X0504Y0678
T2C.02362F197S55
X0786Y054271
X079013Y054271
X080254Y054271
X080667Y054271
X08108Y054271
X081494Y054271
X081907Y054271
X08232Y054271
X082734Y054271
X083147Y054271
X083561Y054271
X083974Y054271
X084387Y054271
X084801Y054271
X085214Y054271
X085628Y054271
X086041Y054271
X086454Y054271
X086868Y054271
X087281Y054271
X087694Y054271
X087891Y05493
X087891Y056997
X087891Y056584
X087891Y05617
X087891Y055757
X087891Y055344
X087891Y057411
X087891Y058237
X087891Y057824
X087891Y058651
X087694Y05931
X087281Y05931
X086868Y05931
X086454Y05931
X086041Y05931
X085628Y05931
X085214Y05931
X084801Y05931
X084387Y05931
X083974Y05931
X083561Y05931
X083147Y05931
X082734Y05931
X08232Y05931
X081907Y05931
X081494Y05931
X08108Y05931
X080667Y05931
X080254Y05931
X07984Y05931
X079427Y05931
X079013Y05931
X0786Y05931
T3C.0315F197S55
X058Y0563
X058Y055513
X06723Y061117
X06723Y06033
X08285Y052
X08285Y051213
X0831Y0638
X0831Y0648
X0831Y0658
X0831Y0668
X080787Y0642
X080787Y0669
X08Y0642
X08Y0669
X077787Y0642
X077Y0642
X0672Y062865
X0672Y063653
T4C.03543F197S55
X0524Y054268
X0524Y056
T5C.03543F197S55
X051417Y058919
X054173Y058919
T6C.03937F197S55
X086696Y066364
X089846Y066364
T7C.04F139S55
X0597Y0552
X0597Y0563
X0607Y0552
X0607Y0563
X0617Y0552
X0617Y0563
T8C.05512F107S55
X054016Y063472
X054016Y06544
X0802Y0515
T9C.05906F107S55
X0792Y0525
X0792Y0505
X0812Y0505
X0812Y0525
T10C.13F035S794
X0515Y0516
X0675Y0665
X0774Y0665
X093Y0665
X093Y0516
M30
