*
*
G04 PADS 9.5 Build Number: 522968 generated Gerber (RS-274-X) file*
G04 PC Version=2.1*
*
%IN "ATS2825_MODULE_TEST_V1."*%
*
%MOIN*%
*
%FSLAX35Y35*%
*
*
*
*
G04 PC Standard Apertures*
*
*
G04 Thermal Relief Aperture macro.*
%AMTER*
1,1,$1,0,0*
1,0,$1-$2,0,0*
21,0,$3,$4,0,0,45*
21,0,$3,$4,0,0,135*
%
*
*
G04 Annular Aperture macro.*
%AMANN*
1,1,$1,0,0*
1,0,$2,0,0*
%
*
*
G04 Odd Aperture macro.*
%AMODD*
1,1,$1,0,0*
1,0,$1-0.005,0,0*
%
*
*
G04 PC Custom Aperture Macros*
*
*
*
*
*
*
G04 PC Aperture Table*
*
%ADD023R,0.03346X0.03346*%
%ADD027C,0.03937*%
%ADD049C,0.01*%
%ADD051C,0.008*%
%ADD052C,0.02*%
%ADD054C,0.025*%
%ADD059C,0.001*%
%ADD062C,0.04*%
%ADD090C,0.015*%
%ADD118C,0.03543*%
%ADD129R,0.033X0.03*%
%ADD130R,0.05X0.036*%
%ADD131O,0.07874X0.02362*%
%ADD132R,0.02756X0.07874*%
%ADD133R,0.04724X0.05512*%
%ADD134R,0.04724X0.08661*%
%ADD135R,0.06299X0.05512*%
%ADD136R,0.03X0.033*%
%ADD137O,0.09449X0.05905*%
%ADD138O,0.08661X0.03346*%
%ADD139O,0.03346X0.07087*%
%ADD140O,0.03346X0.08661*%
%ADD141R,0.06X0.06*%
%ADD142C,0.06*%
%ADD143R,0.045X0.045*%
%ADD144R,0.06X0.05*%
%ADD145C,0.07874*%
%ADD146O,0.05905X0.09449*%
%ADD147C,0.25*%
%ADD148R,0.06299X0.11024*%
%ADD149R,0.07087X0.01968*%
%ADD150R,0.11417X0.06299*%
%ADD151C,0.03543*%
%ADD152R,0.09843X0.05906*%
%ADD153R,0.19685X0.07874*%
%ADD154C,0.05512*%
%ADD155R,0.05512X0.07874*%
%ADD156O,0.01969X0.07874*%
%ADD157C,0.01969*%
%ADD158C,0.01969*%
%ADD188R,0.05X0.06*%
*
*
*
*
G04 PC Circuitry*
G04 Layer Name ATS2825_MODULE_TEST_V1. - circuitry*
%LPD*%
*
*
G04 PC Custom Flashes*
G04 Layer Name ATS2825_MODULE_TEST_V1. - flashes*
%LPD*%
*
*
G04 PC Circuitry*
G04 Layer Name ATS2825_MODULE_TEST_V1. - circuitry*
%LPD*%
*
G54D23*
G01X575000Y665000D03*
Y659094D03*
X592000Y620000D03*
X597906D03*
X846000Y612000D03*
Y606094D03*
X645000Y647000D03*
X639094D03*
X903500Y612500D03*
Y606594D03*
X887500Y606500D03*
Y612406D03*
X870000Y612000D03*
Y606094D03*
X840000Y612000D03*
Y606094D03*
X783000Y606000D03*
Y611906D03*
X864000Y612000D03*
Y606094D03*
X858000Y606000D03*
Y611906D03*
X852000Y606000D03*
Y611906D03*
X834000Y606000D03*
Y611906D03*
X820000Y606000D03*
Y611906D03*
X814000Y606000D03*
Y611906D03*
X840500Y511200D03*
Y505294D03*
X651900Y611100D03*
Y605194D03*
X606000Y643000D03*
X611906D03*
X554000Y563000D03*
X548094D03*
X592000Y636000D03*
X597906D03*
X592000Y628000D03*
X597906D03*
G54D27*
X898458Y663635D03*
X866962D03*
G54D49*
X569000Y513000D02*
Y525000D01*
X581000Y513000D02*
Y525000D01*
X579500Y591000D02*
X575200Y595300D01*
Y619200*
X584000Y628000*
X592000*
X579500Y591000D02*
X637000D01*
X835606Y593102D02*
Y601701D01*
X840000Y606094*
X847939Y595939D02*
Y593102D01*
X848008*
Y599462*
X850303Y601758*
X853758*
X858000Y606000*
X839740Y593102D02*
Y600340D01*
X846000Y606600*
Y606094*
X872811Y595760D02*
Y601011D01*
X874600Y602800*
Y604800*
X877100Y607300*
X876945Y593102D02*
Y595445D01*
X877000Y595500*
Y603800*
X860409Y593102D02*
Y600509D01*
X864000Y604100*
Y606094*
X579500Y604000D02*
X580200D01*
X589700Y594500*
X637000*
X579500Y604000D02*
Y616500D01*
X583000Y620000*
X592000*
X856239Y600539D02*
X857300Y601600D01*
X858785*
X860973Y603788*
Y622700*
X856239Y600539D02*
Y593102D01*
X856276*
X843795Y601095D02*
X845100Y602400D01*
X848400*
X852000Y606000*
X843795Y601095D02*
Y593102D01*
X843874*
X852000Y611906D02*
Y615300D01*
X858000Y611906D02*
X858100D01*
Y618100*
X840000Y612000D02*
Y615300D01*
X846000Y612000D02*
Y618100D01*
X870000Y606094D02*
X864464Y600559D01*
Y593102*
X864543*
X863600Y615300D02*
Y612000D01*
X864000*
X870176D02*
X870000D01*
X870200*
X870000D02*
X870176D01*
X860973Y622700D02*
X860973D01*
X863600Y618100D02*
X864253D01*
X870176Y612176*
Y612000*
X863600Y618100D02*
X864253D01*
X870176Y612176*
Y612000*
X533500Y557500D02*
Y563400D01*
X550500*
Y557500*
X533500*
Y562899D02*
X550500D01*
X533500Y561999D02*
X550500D01*
X533500Y561099D02*
X550500D01*
X533500Y560199D02*
X550500D01*
X533500Y559299D02*
X550500D01*
X533500Y558399D02*
X550500D01*
X902277Y663635D02*
G75*
G03X902277I-3819J0D01*
G01X870781D02*
G03X870781I-3819J0D01*
G01X544763Y634717D02*
G03X544763I-4606J0D01*
G01X527622Y560000D02*
G03X527622I-3622J0D01*
G01X944300Y502200D02*
Y551663D01*
G03X943446Y552017I-500J0*
G01X924645Y533215*
X923160Y532600D02*
G03X924645Y533215I-0J2100D01*
G01X923160Y532600D02*
X911777D01*
G03X911423Y532454I-0J-500*
G01X905023Y526054*
G03X905377Y525200I354J-354*
G01X907650*
X908616Y524899D02*
G03X907650Y525200I-966J-1399D01*
G01X908616Y524899D02*
G03X909400Y525309I284J411D01*
G01X914786Y525025D02*
G03X909400Y525309I-2686J275D01*
G01X914786Y525025D02*
G03X914912Y524639I497J-51D01*
G01X915350Y523500D02*
G03X914912Y524639I-1700J0D01*
G01X915350Y523500D02*
Y520500D01*
X914384Y518967D02*
G03X915350Y520500I-734J1533D01*
G01X914384Y518967D02*
G03X914100Y518516I216J-451D01*
G01Y517484*
G03X914384Y517033I500J0*
G01X915350Y515500D02*
G03X914384Y517033I-1700J0D01*
G01X915350Y515500D02*
Y512500D01*
X914384Y510967D02*
G03X915350Y512500I-734J1533D01*
G01X914384Y510967D02*
G03X914100Y510516I216J-451D01*
G01Y509484*
G03X914384Y509033I500J0*
G01X915350Y507500D02*
G03X914384Y509033I-1700J0D01*
G01X915350Y507500D02*
Y504500D01*
X913650Y502800D02*
G03X915350Y504500I0J1700D01*
G01X913650Y502800D02*
X910350D01*
X909307Y503158D02*
G03X910350Y502800I1043J1342D01*
G01X909307Y503158D02*
G03X908693I-307J-395D01*
G01X907650Y502800D02*
G03X908693Y503158I0J1700D01*
G01X907650Y502800D02*
X904350D01*
X903175Y503271D02*
G03X904350Y502800I1175J1229D01*
G01X903175Y503271D02*
G03X902700Y503392I-345J-362D01*
G01X900677Y503646D02*
G03X902700Y503392I1323J2354D01*
G01X900677Y503646D02*
G03X900027Y503503I-245J-436D01*
G01X898650Y502800D02*
G03X900027Y503503I0J1700D01*
G01X898650Y502800D02*
X895350D01*
X894307Y503158D02*
G03X895350Y502800I1043J1342D01*
G01X894307Y503158D02*
G03X893693I-307J-395D01*
G01X892650Y502800D02*
G03X893693Y503158I0J1700D01*
G01X892650Y502800D02*
X889350D01*
X888328Y503141D02*
G03X889350Y502800I1022J1359D01*
G01X888328Y503141D02*
G03X887699Y503118I-300J-399D01*
G01X886894Y502681D02*
G03X887699Y503118I-576J2019D01*
G01X886894Y502681D02*
G03X887032Y501700I138J-481D01*
G01X943800*
G03X944300Y502200I-0J500*
G01Y614251D02*
Y678902D01*
G03X943800Y679402I-500J0*
G01X760137*
G03X759637Y678902I0J-500*
G01Y608268*
X757937Y606568D02*
G03X759637Y608268I0J1700D01*
G01X757937Y606568D02*
X691008D01*
X689308Y608268D02*
G03X691008Y606568I1700J-0D01*
G01X689308Y608268D02*
Y678902D01*
G03X688808Y679402I-500J0*
G01X502200*
G03X501700Y678902I0J-500*
G01Y502200*
G03X502200Y501700I500J0*
G01X688808*
G03X689308Y502200I-0J500*
G01Y535433*
X691008Y537133D02*
G03X689308Y535433I-0J-1700D01*
G01X691008Y537133D02*
X749000D01*
G03X749500Y537633I-0J500*
G01Y550000*
X749502Y550050D02*
G03X749500Y550000I498J-50D01*
G01X749502Y550050D02*
G03X749005Y550600I-497J50D01*
G01X694384*
G03X694030Y550454I-0J-500*
G01X680587Y537011*
G03X680557Y536338I354J-354*
G01X680950Y535250D02*
G03X680557Y536338I-1700J0D01*
G01X680950Y535250D02*
Y533800D01*
G03X681450Y533300I500J0*
G01X683000*
X684700Y531600D02*
G03X683000Y533300I-1700J0D01*
G01X684700Y531600D02*
Y526400D01*
X683000Y524700D02*
G03X684700Y526400I0J1700D01*
G01X683000Y524700D02*
X681450D01*
G03X680950Y524200I0J-500*
G01Y522750*
X679520Y521072D02*
G03X680950Y522750I-270J1678D01*
G01X679520Y521072D02*
G03X679100Y520578I80J-494D01*
G01Y516555*
G03X679350Y516122I500J0*
G01X680200Y514650D02*
G03X679350Y516122I-1700J0D01*
G01X680200Y514650D02*
Y511350D01*
X678500Y509650D02*
G03X680200Y511350I0J1700D01*
G01X678500Y509650D02*
X675500D01*
X673800Y511350D02*
G03X675500Y509650I1700J0D01*
G01X673800Y511350D02*
Y514650D01*
X674650Y516122D02*
G03X673800Y514650I850J-1472D01*
G01X674650Y516122D02*
G03X674900Y516555I-250J433D01*
G01Y520578*
G03X674480Y521072I-500J0*
G01X673050Y522750D02*
G03X674480Y521072I1700J0D01*
G01X673050Y522750D02*
Y524200D01*
G03X672550Y524700I-500J-0*
G01X669450*
G03X668950Y524200I0J-500*
G01Y522750*
X667520Y521072D02*
G03X668950Y522750I-270J1678D01*
G01X667520Y521072D02*
G03X667100Y520578I80J-494D01*
G01Y516555*
G03X667350Y516122I500J0*
G01X668200Y514650D02*
G03X667350Y516122I-1700J0D01*
G01X668200Y514650D02*
Y511350D01*
X666500Y509650D02*
G03X668200Y511350I0J1700D01*
G01X666500Y509650D02*
X663500D01*
X661800Y511350D02*
G03X663500Y509650I1700J0D01*
G01X661800Y511350D02*
Y514650D01*
X662650Y516122D02*
G03X661800Y514650I850J-1472D01*
G01X662650Y516122D02*
G03X662900Y516555I-250J433D01*
G01Y520578*
G03X662480Y521072I-500J0*
G01X661050Y522750D02*
G03X662480Y521072I1700J0D01*
G01X661050Y522750D02*
Y524200D01*
G03X660550Y524700I-500J-0*
G01X657450*
G03X656950Y524200I0J-500*
G01Y522750*
X655520Y521072D02*
G03X656950Y522750I-270J1678D01*
G01X655520Y521072D02*
G03X655100Y520578I80J-494D01*
G01Y516555*
G03X655350Y516122I500J0*
G01X656200Y514650D02*
G03X655350Y516122I-1700J0D01*
G01X656200Y514650D02*
Y511350D01*
X654500Y509650D02*
G03X656200Y511350I0J1700D01*
G01X654500Y509650D02*
X651500D01*
X649800Y511350D02*
G03X651500Y509650I1700J0D01*
G01X649800Y511350D02*
Y514650D01*
X650650Y516122D02*
G03X649800Y514650I850J-1472D01*
G01X650650Y516122D02*
G03X650900Y516555I-250J433D01*
G01Y520578*
G03X650480Y521072I-500J0*
G01X649050Y522750D02*
G03X650480Y521072I1700J0D01*
G01X649050Y522750D02*
Y524200D01*
G03X648550Y524700I-500J-0*
G01X645450*
G03X644950Y524200I0J-500*
G01Y522750*
X643520Y521072D02*
G03X644950Y522750I-270J1678D01*
G01X643520Y521072D02*
G03X643100Y520578I80J-494D01*
G01Y516555*
G03X643350Y516122I500J0*
G01X644200Y514650D02*
G03X643350Y516122I-1700J0D01*
G01X644200Y514650D02*
Y511350D01*
X642500Y509650D02*
G03X644200Y511350I0J1700D01*
G01X642500Y509650D02*
X639500D01*
X637800Y511350D02*
G03X639500Y509650I1700J0D01*
G01X637800Y511350D02*
Y514650D01*
X638650Y516122D02*
G03X637800Y514650I850J-1472D01*
G01X638650Y516122D02*
G03X638900Y516555I-250J433D01*
G01Y520578*
G03X638480Y521072I-500J0*
G01X637050Y522750D02*
G03X638480Y521072I1700J0D01*
G01X637050Y522750D02*
Y524200D01*
G03X636550Y524700I-500J-0*
G01X633450*
G03X632950Y524200I0J-500*
G01Y522750*
X631520Y521072D02*
G03X632950Y522750I-270J1678D01*
G01X631520Y521072D02*
G03X631100Y520578I80J-494D01*
G01Y516555*
G03X631350Y516122I500J0*
G01X632200Y514650D02*
G03X631350Y516122I-1700J0D01*
G01X632200Y514650D02*
Y511350D01*
X630500Y509650D02*
G03X632200Y511350I0J1700D01*
G01X630500Y509650D02*
X627500D01*
X625800Y511350D02*
G03X627500Y509650I1700J0D01*
G01X625800Y511350D02*
Y514650D01*
X626650Y516122D02*
G03X625800Y514650I850J-1472D01*
G01X626650Y516122D02*
G03X626900Y516555I-250J433D01*
G01Y520578*
G03X626480Y521072I-500J0*
G01X625050Y522750D02*
G03X626480Y521072I1700J0D01*
G01X625050Y522750D02*
Y524200D01*
G03X624550Y524700I-500J-0*
G01X621450*
G03X620950Y524200I0J-500*
G01Y522750*
X619520Y521072D02*
G03X620950Y522750I-270J1678D01*
G01X619520Y521072D02*
G03X619100Y520578I80J-494D01*
G01Y516555*
G03X619350Y516122I500J0*
G01X620200Y514650D02*
G03X619350Y516122I-1700J0D01*
G01X620200Y514650D02*
Y511350D01*
X618500Y509650D02*
G03X620200Y511350I0J1700D01*
G01X618500Y509650D02*
X615500D01*
X613800Y511350D02*
G03X615500Y509650I1700J0D01*
G01X613800Y511350D02*
Y514650D01*
X614650Y516122D02*
G03X613800Y514650I850J-1472D01*
G01X614650Y516122D02*
G03X614900Y516555I-250J433D01*
G01Y520578*
G03X614480Y521072I-500J0*
G01X613050Y522750D02*
G03X614480Y521072I1700J0D01*
G01X613050Y522750D02*
Y524200D01*
G03X612550Y524700I-500J-0*
G01X609450*
G03X608950Y524200I0J-500*
G01Y522750*
X607520Y521072D02*
G03X608950Y522750I-270J1678D01*
G01X607520Y521072D02*
G03X607100Y520578I80J-494D01*
G01Y516555*
G03X607350Y516122I500J0*
G01X608200Y514650D02*
G03X607350Y516122I-1700J0D01*
G01X608200Y514650D02*
Y511350D01*
X606500Y509650D02*
G03X608200Y511350I0J1700D01*
G01X606500Y509650D02*
X603500D01*
X601800Y511350D02*
G03X603500Y509650I1700J0D01*
G01X601800Y511350D02*
Y514650D01*
X602650Y516122D02*
G03X601800Y514650I850J-1472D01*
G01X602650Y516122D02*
G03X602900Y516555I-250J433D01*
G01Y520578*
G03X602480Y521072I-500J0*
G01X601050Y522750D02*
G03X602480Y521072I1700J0D01*
G01X601050Y522750D02*
Y524200D01*
G03X600550Y524700I-500J-0*
G01X597450*
G03X596950Y524200I0J-500*
G01Y522750*
X595520Y521072D02*
G03X596950Y522750I-270J1678D01*
G01X595520Y521072D02*
G03X595100Y520578I80J-494D01*
G01Y516555*
G03X595350Y516122I500J0*
G01X596200Y514650D02*
G03X595350Y516122I-1700J0D01*
G01X596200Y514650D02*
Y511350D01*
X594500Y509650D02*
G03X596200Y511350I0J1700D01*
G01X594500Y509650D02*
X591500D01*
X589800Y511350D02*
G03X591500Y509650I1700J0D01*
G01X589800Y511350D02*
Y514650D01*
X590650Y516122D02*
G03X589800Y514650I850J-1472D01*
G01X590650Y516122D02*
G03X590900Y516555I-250J433D01*
G01Y520578*
G03X590480Y521072I-500J0*
G01X589050Y522750D02*
G03X590480Y521072I1700J0D01*
G01X589050Y522750D02*
Y524200D01*
G03X588550Y524700I-500J-0*
G01X585450*
G03X584950Y524200I0J-500*
G01Y522750*
X583598Y521086D02*
G03X584950Y522750I-348J1664D01*
G01X583598Y521086D02*
G03X583200Y520596I102J-490D01*
G01X583200D02*
Y516494D01*
G03X583427Y516075I500J-0*
G01X584200Y514650D02*
G03X583427Y516075I-1700J0D01*
G01X584200Y514650D02*
Y511350D01*
X582500Y509650D02*
G03X584200Y511350I0J1700D01*
G01X582500Y509650D02*
X579500D01*
X577800Y511350D02*
G03X579500Y509650I1700J0D01*
G01X577800Y511350D02*
Y514650D01*
X578573Y516075D02*
G03X577800Y514650I927J-1425D01*
G01X578573Y516075D02*
G03X578800Y516494I-273J419D01*
G01Y520596*
X578800D02*
G03X578402Y521086I-500J0D01*
G01X577050Y522750D02*
G03X578402Y521086I1700J0D01*
G01X577050Y522750D02*
Y524200D01*
G03X576550Y524700I-500J-0*
G01X573450*
G03X572950Y524200I0J-500*
G01Y522750*
X571598Y521086D02*
G03X572950Y522750I-348J1664D01*
G01X571598Y521086D02*
G03X571200Y520596I102J-490D01*
G01X571200D02*
Y516494D01*
G03X571427Y516075I500J-0*
G01X572200Y514650D02*
G03X571427Y516075I-1700J0D01*
G01X572200Y514650D02*
Y511350D01*
X570500Y509650D02*
G03X572200Y511350I0J1700D01*
G01X570500Y509650D02*
X567500D01*
X565800Y511350D02*
G03X567500Y509650I1700J0D01*
G01X565800Y511350D02*
Y514650D01*
X566573Y516075D02*
G03X565800Y514650I927J-1425D01*
G01X566573Y516075D02*
G03X566800Y516494I-273J419D01*
G01Y520596*
X566800D02*
G03X566402Y521086I-500J0D01*
G01X565050Y522750D02*
G03X566402Y521086I1700J0D01*
G01X565050Y522750D02*
Y524200D01*
G03X564550Y524700I-500J-0*
G01X563000*
X561300Y526400D02*
G03X563000Y524700I1700J0D01*
G01X561300Y526400D02*
Y531600D01*
X563000Y533300D02*
G03X561300Y531600I0J-1700D01*
G01X563000Y533300D02*
X564550D01*
G03X565050Y533800I-0J500*
G01Y535250*
X566750Y536950D02*
G03X565050Y535250I0J-1700D01*
G01X566750Y536950D02*
X569773D01*
G03X570127Y537096I0J500*
G01X571015Y537985*
X571066Y538035D02*
G03X571015Y537985I1434J-1535D01*
G01X571066Y538035D02*
G03X570725Y538900I-341J365D01*
G01X550347*
X548862Y539515D02*
G03X550347Y538900I1485J1485D01*
G01X548862Y539515D02*
X540865Y547513D01*
G03X540550Y547658I-354J-354*
G01X539228Y548267D02*
G03X540550Y547658I1485J1484D01*
G01X539228Y548267D02*
X539140Y548355D01*
G03X538787Y548501I-353J-354*
G01X532662*
X530961Y550201D02*
G03X532662Y548501I1701J0D01*
G01X530961Y550201D02*
Y552169D01*
X531024Y552626D02*
G03X530961Y552169I1638J-457D01*
G01X531024Y552626D02*
G03Y552894I-482J134D01*
G01X530961Y553351D02*
G03X531024Y552894I1701J0D01*
G01X530961Y553351D02*
Y555319D01*
X531024Y555775D02*
G03X530961Y555319I1638J-456D01*
G01X531024Y555775D02*
G03Y556044I-482J135D01*
G01X530961Y556500D02*
G03X531024Y556044I1701J0D01*
G01X530961Y556500D02*
Y558468D01*
X531223Y559374D02*
G03X530961Y558468I1439J-906D01*
G01X531223Y559374D02*
G03X531300Y559641I-423J267D01*
G01Y563400*
X533500Y565600D02*
G03X531300Y563400I0J-2200D01*
G01X533500Y565600D02*
X544747D01*
G03X545127Y565776I-0J500*
G01X546421Y566373D02*
G03X545127Y565776I0J-1700D01*
G01X546421Y566373D02*
X549768D01*
X551201Y565587D02*
G03X549768Y566373I-1433J-914D01*
G01X551201Y565587D02*
G03X551415Y565401I422J268D01*
G01X552700Y563400D02*
G03X551415Y565401I-2200J0D01*
G01X552700Y563400D02*
Y557500D01*
X552501Y556586D02*
G03X552700Y557500I-2001J914D01*
G01X552501Y556586D02*
G03X552456Y556378I455J-208D01*
G01Y553803*
G03X552602Y553449I500J-0*
G01X555005Y551046*
G03X555359Y550900I354J354*
G01X568563*
G03X568916Y551046I-0J500*
G01X573501Y555632*
G03X573641Y555902I-353J353*
G01X575227Y558681D02*
G03X573641Y555902I3001J-3555D01*
G01X575227Y558681D02*
G03Y559445I-323J382D01*
G01X573750Y564262D02*
G03X575227Y559445I4478J-1262D01*
G01X573750Y564262D02*
G03X573622Y564751I-481J135D01*
G01X558319Y580054*
G03X557966Y580200I-353J-354*
G01X512785*
X510168Y581284D02*
G03X512785Y580200I2617J2616D01*
G01X510168Y581284D02*
X505784Y585668D01*
X504700Y588285D02*
G03X505784Y585668I3700J-0D01*
G01X504700Y588285D02*
Y596000D01*
Y655600*
X505784Y658216D02*
G03X504700Y655600I2616J-2616D01*
G01X505784Y658216D02*
X513484Y665916D01*
X516100Y667000D02*
G03X513484Y665916I0J-3700D01*
G01X516100Y667000D02*
X553500D01*
X556116Y665916D02*
G03X553500Y667000I-2616J-2616D01*
G01X556116Y665916D02*
X558899Y663134D01*
G03X559252Y662987I353J353*
G01X565933*
X566629Y662838D02*
G03X565933Y662987I-696J-1551D01*
G01X566629Y662838D02*
G03X566834Y662795I205J457D01*
G01X575000*
X587727*
G03X588017Y662887I0J500*
G01X589000Y663200D02*
G03X588017Y662887I0J-1700D01*
G01X589000Y663200D02*
X595000D01*
X596700Y661500D02*
G03X595000Y663200I-1700J0D01*
G01X596700Y661500D02*
Y656500D01*
X595000Y654800D02*
G03X596700Y656500I0J1700D01*
G01X595000Y654800D02*
X589000D01*
X587838Y655259D02*
G03X589000Y654800I1162J1241D01*
G01X587838Y655259D02*
G03X587496Y655394I-342J-365D01*
G01X575000*
X568078*
G03X567591Y655005I0J-500*
G01X566692Y653861D02*
G03X567591Y655005I-759J1521D01*
G01X566692Y653861D02*
G03Y652966I223J-448D01*
G01X567633Y651445D02*
G03X566692Y652966I-1700J-0D01*
G01X567633Y651445D02*
Y647955D01*
G03X568133Y647455I500J0*
G01X568976*
X570461Y646840D02*
G03X568976Y647455I-1485J-1485D01*
G01X570461Y646840D02*
X573185Y644116D01*
X573800Y642631D02*
G03X573185Y644116I-2100J0D01*
G01X573800Y642631D02*
Y628261D01*
G03X573915Y627942I500J0*
G01X574400Y626600D02*
G03X573915Y627942I-2100J0D01*
G01X574400Y626600D02*
Y626465D01*
G03X574494Y626174I500J0*
G01X574456Y622975D02*
G03X574494Y626174I-2156J1625D01*
G01X574456Y622975D02*
G03X574379Y622521I399J-301D01*
X573925Y622444I-153J-476*
G01X571119Y622172D02*
G03X573925Y622444I1181J2428D01*
G01X571119Y622172D02*
G03X570681I-219J-450D01*
G01X567306Y626174D02*
G03X570681Y622172I2194J-1574D01*
G01X567306Y626174D02*
G03X567400Y626465I-406J291D01*
G01Y626600*
X567885Y627942D02*
G03X567400Y626600I1615J-1342D01*
G01X567885Y627942D02*
G03X568000Y628261I-385J319D01*
G01Y636121*
G03X567144Y636472I-500J0*
G01X565933Y635965D02*
G03X567144Y636472I0J1700D01*
G01X565933Y635965D02*
X556091D01*
X554391Y637665D02*
G03X556091Y635965I1700J0D01*
G01X554391Y637665D02*
Y643571D01*
X554570Y644331D02*
G03X554391Y643571I1521J-760D01*
G01X554570Y644331D02*
G03Y644779I-447J224D01*
G01X554391Y645539D02*
G03X554570Y644779I1700J0D01*
G01X554391Y645539D02*
Y651445D01*
X555331Y652966D02*
G03X554391Y651445I760J-1521D01*
G01X555331Y652966D02*
G03Y653861I-223J447D01*
G01X554391Y655382D02*
G03X555331Y653861I1700J-0D01*
G01X554391Y655382D02*
Y656970D01*
G03X554244Y657323I-500J-0*
G01X552114Y659454*
G03X551760Y659600I-354J-354*
G01X542156*
G03X541961Y658640I0J-500*
G01X538354D02*
G03X541961I1803J-4238D01*
G01X538354D02*
G03X538159Y659600I-195J460D01*
G01X517840*
G03X517486Y659454I-0J-500*
G01X512246Y654214*
G03X512100Y653860I354J-354*
G01Y596000*
Y592999*
G03X512791Y592536I500J-0*
G01X517666Y588232D02*
G03X512791Y592536I-3493J957D01*
G01X517666Y588232D02*
G03X518148Y587600I482J-132D01*
G01X537757*
G03X538239Y588232I0J500*
G01X538553Y590924D02*
G03X538239Y588232I3179J-1735D01*
G01X538553Y590924D02*
G03X538162Y591661I-439J239D01*
G01X536664Y592368D02*
G03X538162Y591661I1732J1732D01*
G01X536664Y592368D02*
X533815Y595217D01*
G03X533461Y595363I-354J-354*
G01X529134*
X527434Y597063D02*
G03X529134Y595363I1700J-0D01*
G01X527434Y597063D02*
Y608087D01*
X529134Y609787D02*
G03X527434Y608087I-0J-1700D01*
G01X529134Y609787D02*
X535433D01*
X537133Y608087D02*
G03X535433Y609787I-1700J-0D01*
G01X537133Y608087D02*
Y599035D01*
G03X537280Y598681I500J-0*
G01X539264Y596696*
G03X539618Y596550I354J354*
G01X542682*
G03X543182Y597050I-0J500*
G01Y597053*
Y597063D02*
G03Y597053I1700J-0D01*
G01Y597063D02*
Y608087D01*
X544882Y609787D02*
G03X543182Y608087I-0J-1700D01*
G01X544882Y609787D02*
X551181D01*
X552881Y608087D02*
G03X551181Y609787I-1700J-0D01*
G01X552881Y608087D02*
Y605525D01*
G03X553381Y605025I500J-0*
G01X565300*
G03X565800Y605525I-0J500*
G01Y606500*
X567500Y608200D02*
G03X565800Y606500I0J-1700D01*
G01X567500Y608200D02*
X572500D01*
G03X573000Y608700I-0J500*
G01Y619200*
X573644Y620756D02*
G03X573000Y619200I1556J-1556D01*
G01X573644Y620756D02*
X574580Y621691D01*
G03X574702Y622198I-354J354*
X575209Y622320I153J476*
G01X582444Y629556*
X584000Y630200D02*
G03X582444Y629556I0J-2200D01*
G01X584000Y630200D02*
X588381D01*
G03X588823Y630467I0J500*
G01X590327Y631373D02*
G03X588823Y630467I-0J-1700D01*
G01X590327Y631373D02*
X593673D01*
X594662Y631056D02*
G03X593673Y631373I-989J-1383D01*
G01X594662Y631056D02*
G03X595244I291J407D01*
G01X596232Y631373D02*
G03X595244Y631056I0J-1700D01*
G01X596232Y631373D02*
X599579D01*
X601121Y630389D02*
G03X599579Y631373I-1542J-716D01*
G01X601121Y630389D02*
G03X601574Y630100I453J211D01*
G01X602445*
G03X602878Y630350I-0J500*
G01X604350Y631200D02*
G03X602878Y630350I0J-1700D01*
G01X604350Y631200D02*
X607650D01*
X608693Y630842D02*
G03X607650Y631200I-1043J-1342D01*
G01X608693Y630842D02*
G03X609307I307J395D01*
G01X610350Y631200D02*
G03X609307Y630842I0J-1700D01*
G01X610350Y631200D02*
X612773D01*
G03X613127Y632054I-0J500*
G01X612527Y632654*
G03X612173Y632800I-354J-354*
G01X610350*
X609307Y633158D02*
G03X610350Y632800I1043J1342D01*
G01X609307Y633158D02*
G03X608693I-307J-395D01*
G01X607650Y632800D02*
G03X608693Y633158I0J1700D01*
G01X607650Y632800D02*
X604350D01*
X602878Y633650D02*
G03X604350Y632800I1472J850D01*
G01X602878Y633650D02*
G03X602445Y633900I-433J-250D01*
G01X601574*
G03X601121Y633611I0J-500*
G01X599579Y632627D02*
G03X601121Y633611I-0J1700D01*
G01X599579Y632627D02*
X596232D01*
X594532Y634327D02*
G03X596232Y632627I1700J-0D01*
G01X594532Y634327D02*
Y637673D01*
X596232Y639373D02*
G03X594532Y637673I0J-1700D01*
G01X596232Y639373D02*
X599579D01*
X601121Y638389D02*
G03X599579Y639373I-1542J-716D01*
G01X601121Y638389D02*
G03X601574Y638100I453J211D01*
G01X602445*
G03X602878Y638350I-0J500*
G01X604350Y639200D02*
G03X602878Y638350I0J-1700D01*
G01X604350Y639200D02*
X607650D01*
X608693Y638842D02*
G03X607650Y639200I-1043J-1342D01*
G01X608693Y638842D02*
G03X609307I307J395D01*
G01X609467Y638953D02*
G03X609307Y638842I883J-1453D01*
G01X609467Y638953D02*
G03X609440Y639822I-260J427D01*
G01X608532Y641327D02*
G03X609440Y639822I1700J-0D01*
G01X608532Y641327D02*
Y644673D01*
X608536Y644780D02*
G03X608532Y644673I1696J-107D01*
G01X608536Y644780D02*
G03X608390Y645166I-499J32D01*
G01X606926Y646629*
G03X606573Y646776I-353J-353*
G01X604600*
X603128Y647626D02*
G03X604600Y646776I1472J850D01*
G01X603128Y647626D02*
G03X602695Y647876I-433J-250D01*
G01X602695D02*
X601637D01*
X601351Y647895D02*
G03X601637Y647876I286J2081D01*
G01X601351Y647895D02*
G03X601283Y647900I-68J-495D01*
G01X600555*
G03X600122Y647650I0J-500*
G01X598650Y646800D02*
G03X600122Y647650I0J1700D01*
G01X598650Y646800D02*
X595350D01*
X593650Y648500D02*
G03X595350Y646800I1700J0D01*
G01X593650Y648500D02*
Y651500D01*
X595350Y653200D02*
G03X593650Y651500I0J-1700D01*
G01X595350Y653200D02*
X598650D01*
X600122Y652350D02*
G03X598650Y653200I-1472J-850D01*
G01X600122Y652350D02*
G03X600555Y652100I433J250D01*
G01X601613*
X601898Y652080D02*
G03X601613Y652100I-285J-2080D01*
G01X601898Y652081D02*
G03X601967Y652076I69J495D01*
G01X601967D02*
X602695D01*
X602695D02*
G03X603128Y652326I-0J500D01*
G01X604600Y653176D02*
G03X603128Y652326I-0J-1700D01*
G01X604600Y653176D02*
X607900D01*
X608943Y652818D02*
G03X607900Y653176I-1043J-1342D01*
G01X608943Y652818D02*
G03X609557I307J395D01*
G01X609866Y653009D02*
G03X609557Y652818I734J-1533D01*
G01X609866Y653009D02*
G03X610150Y653460I-216J451D01*
G01Y654800*
G03X609650Y655300I-500J-0*
G01X607396*
G03X607079Y655186I0J-500*
G01X606000Y654800D02*
G03X607079Y655186I0J1700D01*
G01X606000Y654800D02*
X600000D01*
X598300Y656500D02*
G03X600000Y654800I1700J0D01*
G01X598300Y656500D02*
Y661500D01*
X600000Y663200D02*
G03X598300Y661500I0J-1700D01*
G01X600000Y663200D02*
X606000D01*
X607079Y662814D02*
G03X606000Y663200I-1079J-1314D01*
G01X607079Y662814D02*
G03X607396Y662700I317J386D01*
G01X612106*
X627094*
X629711Y661616D02*
G03X627094Y662700I-2617J-2616D01*
G01X629711Y661616D02*
X640851Y650476D01*
G03X641105Y650339I354J353*
G01X642468Y648673D02*
G03X641105Y650339I-1700J0D01*
G01X642468Y648673D02*
Y648624D01*
G03X642507Y648431I500J0*
G01X642535Y645639D02*
G03X642507Y648431I-3441J1361D01*
G01X642535Y645639D02*
G03X642500Y645455I465J-184D01*
G01Y641217*
G03X643378Y640889I500J-0*
G01X645553Y641881D02*
G03X643378Y640889I0J-2881D01*
G01X645553Y641881D02*
X647623D01*
G03X647722Y641891I-0J500*
G01X648309Y641950D02*
G03X647722Y641891I0J-2950D01*
G01X648309Y641950D02*
X658525D01*
X660611Y641086D02*
G03X658525Y641950I-2086J-2086D01*
G01X660611Y641086D02*
X662073Y639624D01*
G03X662426Y639478I353J354*
G01X666401*
G03X666772Y639643I0J500*
G01X670228Y641180D02*
G03X666772Y639643I0J-4652D01*
G01X670228Y641180D02*
X673772D01*
X676773Y632973D02*
G03X673772Y641180I-3001J3555D01*
G01X676773Y632973D02*
G03Y632209I323J-382D01*
G01X673772Y624001D02*
G03X676773Y632209I-0J4653D01*
G01X673772Y624001D02*
X670228D01*
X666772Y625538D02*
G03X670228Y624001I3456J3116D01*
G01X666772Y625538D02*
G03X666401Y625704I-371J-334D01*
G01X663517*
G03X663163Y625557I-0J-500*
G01X659520Y621914*
X657434Y621050D02*
G03X659520Y621914I0J2950D01*
G01X657434Y621050D02*
X648309D01*
X647722Y621109D02*
G03X648309Y621050I587J2891D01*
G01X647722Y621109D02*
G03X647623Y621119I-99J-490D01*
G01X645553*
X643378Y622111D02*
G03X645553Y621119I2175J1889D01*
G01X643378Y622111D02*
G03X642500Y621783I-378J-328D01*
G01Y616396*
G03X642614Y616079I500J0*
G01X643000Y615000D02*
G03X642614Y616079I-1700J0D01*
G01X643000Y615000D02*
Y609000D01*
X641300Y607300D02*
G03X643000Y609000I0J1700D01*
G01X641300Y607300D02*
X636300D01*
X634600Y609000D02*
G03X636300Y607300I1700J0D01*
G01X634600Y609000D02*
Y615000D01*
X634986Y616079D02*
G03X634600Y615000I1314J-1079D01*
G01X634986Y616079D02*
G03X635100Y616396I-386J317D01*
G01Y629000*
Y645555*
G03X634954Y645908I-500J-0*
G01X625708Y655154*
G03X625355Y655300I-353J-354*
G01X614850*
G03X614350Y654800I-0J-500*
G01Y653460*
G03X614634Y653009I500J0*
G01X615600Y651476D02*
G03X614634Y653009I-1700J-0D01*
G01X615600Y651476D02*
Y648870D01*
G03X615894Y648415I500J0*
G01X616516Y647985D02*
G03X615894Y648415I-1485J-1485D01*
G01X616516Y647985D02*
X623031Y641470D01*
G03X623660Y641406I354J354*
G01X625244Y641881D02*
G03X623660Y641406I0J-2881D01*
G01X625244Y641881D02*
X630756D01*
X632696Y636870D02*
G03X630756Y641881I-1940J2130D01*
G01X632696Y636870D02*
G03Y636130I336J-370D01*
G01Y631870D02*
G03Y636130I-1940J2130D01*
G01Y631870D02*
G03Y631130I336J-370D01*
G01Y626870D02*
G03Y631130I-1940J2130D01*
G01Y626870D02*
G03Y626130I336J-370D01*
G01X630756Y621119D02*
G03X632696Y626130I-0J2881D01*
G01X630756Y621119D02*
X625244D01*
X623402Y621784D02*
G03X625244Y621119I1842J2216D01*
G01X623402Y621784D02*
G03X623083Y621900I-319J-384D01*
G01X621933*
G03X621580Y621754I0J-500*
G01X618341Y618515*
X616856Y617900D02*
G03X618341Y618515I0J2100D01*
G01X616856Y617900D02*
X615555D01*
G03X615122Y617650I0J-500*
G01X613650Y616800D02*
G03X615122Y617650I0J1700D01*
G01X613650Y616800D02*
X610350D01*
X609307Y617158D02*
G03X610350Y616800I1043J1342D01*
G01X609307Y617158D02*
G03X608693I-307J-395D01*
G01X607650Y616800D02*
G03X608693Y617158I0J1700D01*
G01X607650Y616800D02*
X604350D01*
X602878Y617650D02*
G03X604350Y616800I1472J850D01*
G01X602878Y617650D02*
G03X602445Y617900I-433J-250D01*
G01X601574*
G03X601121Y617611I0J-500*
G01X599579Y616627D02*
G03X601121Y617611I-0J1700D01*
G01X599579Y616627D02*
X596232D01*
X595244Y616944D02*
G03X596232Y616627I988J1383D01*
G01X595244Y616944D02*
G03X594662I-291J-407D01*
G01X593673Y616627D02*
G03X594662Y616944I0J1700D01*
G01X593673Y616627D02*
X590327D01*
X588823Y617533D02*
G03X590327Y616627I1504J794D01*
G01X588823Y617533D02*
G03X588381Y617800I-442J-233D01*
G01X584118*
G03X583765Y617654I0J-500*
G01X581846Y615735*
G03X581700Y615382I354J-353*
G01Y608700*
G03X582200Y608200I500J0*
G01X582500*
X584200Y606500D02*
G03X582500Y608200I-1700J0D01*
G01X584200Y606500D02*
Y603318D01*
G03X584346Y602965I500J0*
G01X590465Y596846*
G03X590818Y596700I353J354*
G01X634251*
G03X634716Y597382I-0J500*
G01X634600Y598000D02*
G03X634716Y597382I1700J0D01*
G01X634600Y598000D02*
Y604000D01*
X636300Y605700D02*
G03X634600Y604000I0J-1700D01*
G01X636300Y605700D02*
X641300D01*
X643000Y604000D02*
G03X641300Y605700I-1700J0D01*
G01X643000Y604000D02*
Y601450D01*
G03X643500Y600950I500J0*
G01X644650*
G03X645150Y601450I-0J500*
G01Y607663*
X646014Y609749D02*
G03X645150Y607663I2086J-2086D01*
G01X646014Y609749D02*
X648380Y612115D01*
G03X648527Y612469I-353J354*
G01Y612773*
X650227Y614473D02*
G03X648527Y612773I-0J-1700D01*
G01X650227Y614473D02*
X653573D01*
X654797Y613953D02*
G03X653573Y614473I-1224J-1180D01*
G01X654797Y613953D02*
G03X655157Y613800I360J347D01*
G01X655839*
G03X656194Y613948I-0J500*
G01X657400Y614450D02*
G03X656194Y613948I0J-1700D01*
G01X657400Y614450D02*
X660400D01*
X661547Y614005D02*
G03X660400Y614450I-1147J-1255D01*
G01X661547Y614005D02*
G03X661884Y613874I337J369D01*
G01X666490*
G03X666882Y614063I-0J500*
G01X670528Y615827D02*
G03X666882Y614063I0J-4653D01*
G01X670528Y615827D02*
X674072D01*
Y606521D02*
G03Y615827I-0J4653D01*
G01Y606521D02*
X670528D01*
X666882Y608284D02*
G03X670528Y606521I3646J2890D01*
G01X666882Y608284D02*
G03X666490Y608474I-392J-310D01*
G01X662031*
G03X661661Y608309I0J-500*
G01X660400Y607750D02*
G03X661661Y608309I0J1700D01*
G01X660400Y607750D02*
X657400D01*
X656194Y608252D02*
G03X657400Y607750I1206J1198D01*
G01X656194Y608252D02*
G03X655839Y608400I-355J-352D01*
G01X655157*
G03X654797Y608247I0J-500*
G01X653573Y607727D02*
G03X654797Y608247I0J1700D01*
G01X653573Y607727D02*
X652543D01*
G03X652190Y607580I0J-500*
G01X651196Y606587*
G03X651050Y606234I354J-353*
G01Y601450*
G03X651550Y600950I500J0*
G01X670000*
X672086Y600086D02*
G03X670000Y600950I-2086J-2086D01*
G01X672086Y600086D02*
X691775Y580396D01*
G03X692129Y580250I354J354*
G01X808071*
G03X808425Y580396I-0J500*
G01X811841Y583812*
Y583813D02*
G03X811987Y584166I-354J353D01*
G01Y588684*
G03X811932Y588912I-500J0*
G01X811564Y590445D02*
G03X811932Y588912I3373J-0D01*
G01X811564Y590445D02*
Y595760D01*
X811932Y597293D02*
G03X811564Y595760I3005J-1533D01*
G01X811932Y597293D02*
G03X811987Y597520I-445J227D01*
G01Y598936*
G03X811851Y599279I-500J0*
G01X811050Y601300D02*
G03X811851Y599279I2950J0D01*
G01X811050Y601300D02*
Y603029D01*
G03X810954Y603324I-500J0*
G01X810843Y603497D02*
G03X810954Y603324I1484J830D01*
G01X810843Y603497D02*
G03X809973Y603502I-436J-244D01*
G01X809350Y602878D02*
G03X809973Y603502I-850J1472D01*
G01X809350Y602878D02*
G03X809100Y602445I250J-433D01*
G01Y598292*
G03X809222Y597965I500J0*
G01X810043Y595760D02*
G03X809222Y597965I-3374J-0D01*
G01X810043Y595760D02*
Y590445D01*
X804869Y587592D02*
G03X810043Y590445I1800J2853D01*
G01X804869Y587592D02*
G03X804336I-267J-423D01*
G01X800735D02*
G03X804336I1800J2853D01*
G01X800735D02*
G03X800202I-266J-423D01*
G01X796601D02*
G03X800202I1801J2853D01*
G01X796601D02*
G03X796068I-266J-423D01*
G01X792468D02*
G03X796068I1800J2853D01*
G01X792468D02*
G03X791934I-267J-423D01*
G01X788334D02*
G03X791934I1800J2853D01*
G01X788334D02*
G03X787800I-267J-423D01*
G01X782627Y590445D02*
G03X787800Y587592I3373J-0D01*
G01X782627Y590445D02*
Y595760D01*
X783431Y597946D02*
G03X782627Y595760I2569J-2186D01*
G01X783431Y597946D02*
G03X783550Y598270I-381J324D01*
G01Y601778*
G03X783404Y602132I-500J0*
G01X783055Y602480*
G03X782701Y602627I-354J-353*
G01X781327*
X779975Y603296D02*
G03X781327Y602627I1352J1031D01*
G01X779975Y603296D02*
G03X779584Y603492I-397J-303D01*
G01X778250Y603509*
G03X777848Y603314I-6J-500*
G01X776500Y602650D02*
G03X777848Y603314I0J1700D01*
G01X776500Y602650D02*
X773500D01*
X771800Y604350D02*
G03X773500Y602650I1700J0D01*
G01X771800Y604350D02*
Y607650D01*
X773500Y609350D02*
G03X771800Y607650I0J-1700D01*
G01X773500Y609350D02*
X776500D01*
X777894Y608623D02*
G03X776500Y609350I-1394J-973D01*
G01X777894Y608623D02*
G03X778298Y608409I410J286D01*
G01X779490Y608394*
G03X779913Y608617I7J500*
G01X781327Y609373D02*
G03X779913Y608617I-0J-1700D01*
G01X781327Y609373D02*
X782701D01*
G03X783055Y609520I0J500*
G01X784004Y610468*
G03X784150Y610822I-354J354*
G01Y616060*
G03X784111Y616254I-500J0*
G01X784532Y619036D02*
G03X784111Y616254I2068J-1736D01*
G01X784532Y619036D02*
G03X784036Y619844I-383J321D01*
G01X783650Y619800D02*
G03X784036Y619844I0J1700D01*
G01X783650Y619800D02*
X780350D01*
X779121Y620326D02*
G03X780350Y619800I1229J1174D01*
G01X779121Y620326D02*
G03X778594Y620452I-362J-346D01*
G01X776558Y620553D02*
G03X778594Y620452I1142J2447D01*
G01X776558Y620553D02*
G03X775961Y620418I-211J-453D01*
G01X774650Y619800D02*
G03X775961Y620418I0J1700D01*
G01X774650Y619800D02*
X771350D01*
X769650Y621500D02*
G03X771350Y619800I1700J0D01*
G01X769650Y621500D02*
Y624500D01*
X771350Y626200D02*
G03X769650Y624500I0J-1700D01*
G01X771350Y626200D02*
X774650D01*
X775961Y625582D02*
G03X774650Y626200I-1311J-1082D01*
G01X775961Y625582D02*
G03X776558Y625447I386J318D01*
G01X778594Y625548D02*
G03X776559Y625447I-894J-2548D01*
G01X778594Y625548D02*
G03X779121Y625674I165J472D01*
G01X780350Y626200D02*
G03X779121Y625674I0J-1700D01*
G01X780350Y626200D02*
X783650D01*
X784693Y625842D02*
G03X783650Y626200I-1043J-1342D01*
G01X784693Y625842D02*
G03X785307I307J395D01*
G01X785654Y626051D02*
G03X785307Y625842I696J-1551D01*
G01X785654Y626051D02*
G03X785950Y626500I-204J456D01*
G01X785985Y628934*
X785985D02*
G03X785838Y629294I-500J7D01*
G01X779535Y635598*
G03X779054Y635728I-354J-354*
G01X773221Y640228D02*
G03X779054Y635728I4653J0D01*
G01X773221Y640228D02*
Y643772D01*
X782527D02*
G03X773221I-4653J-0D01*
G01X782527D02*
Y640228D01*
X782375Y639048D02*
G03X782527Y640228I-4501J1180D01*
G01X782375Y639048D02*
G03X782505Y638568I483J-127D01*
G01X789585Y631487*
X790114Y630599D02*
G03X789585Y631487I-2014J-597D01*
G01X790114Y630599D02*
G03X790875Y630328I479J142D01*
G01X793795Y630412D02*
G03X790875Y630328I-1395J-2312D01*
G01X793795Y630412D02*
G03X794358Y630443I258J428D01*
G01X796842Y630866D02*
G03X794358Y630443I-842J-2566D01*
G01X796842Y630866D02*
G03X797497Y631341I155J475D01*
G01Y631344*
X797468Y636065*
G03X797262Y636466I-500J-3*
G01X795347Y640228D02*
G03X797262Y636466I4653J0D01*
G01X795347Y640228D02*
Y643772D01*
X803555Y646773D02*
G03X795347Y643772I-3555J-3001D01*
G01X803555Y646773D02*
G03X804319I382J323D01*
G01X805526Y647789D02*
G03X804319Y646773I2348J-4017D01*
G01X805526Y647789D02*
G03X805774Y648220I-252J431D01*
G01Y662780*
G03X805526Y663211I-500J-0*
G01X803221Y667228D02*
G03X805526Y663211I4653J0D01*
G01X803221Y667228D02*
Y670772D01*
X812527D02*
G03X803221I-4653J-0D01*
G01X812527D02*
Y667228D01*
X810222Y663211D02*
G03X812527Y667228I-2348J4017D01*
G01X810222Y663211D02*
G03X809974Y662780I252J-431D01*
G01Y648220*
G03X810222Y647789I500J0*
G01X812527Y643772D02*
G03X810222Y647789I-4653J-0D01*
G01X812527Y643772D02*
Y640228D01*
X810222Y636211D02*
G03X812527Y640228I-2348J4017D01*
G01X810222Y636211D02*
G03X809974Y635780I252J-431D01*
G01Y632775*
X809359Y631290D02*
G03X809974Y632775I-1485J1485D01*
G01X809359Y631290D02*
X808333Y630264D01*
G03X808187Y629917I354J-354*
G01X808144Y626469*
G03X808418Y626017I500J-6*
G01X809350Y624500D02*
G03X808418Y626017I-1700J0D01*
G01X809350Y624500D02*
Y621500D01*
X808453Y620002D02*
G03X809350Y621500I-803J1498D01*
G01X808453Y620002D02*
G03X808189Y619548I236J-441D01*
G01X808199Y619154*
X807585Y617615D02*
G03X808199Y619154I-1485J1485D01*
G01X807585Y617615D02*
X805246Y615277D01*
G03X805100Y614923I354J-354*
G01Y613000*
Y611377*
G03X805246Y611023I500J-0*
G01X806773Y609496*
G03X807127Y609350I354J354*
G01X808500*
X809973Y608498D02*
G03X808500Y609350I-1473J-848D01*
G01X809973Y608498D02*
G03X810843Y608503I434J249D01*
G01X812327Y609373D02*
G03X810843Y608503I-0J-1700D01*
G01X812327Y609373D02*
X815673D01*
X816698Y609029D02*
G03X815673Y609373I-1025J-1356D01*
G01X816698Y609029D02*
G03X817302I302J399D01*
G01X818327Y609373D02*
G03X817302Y609029I-0J-1700D01*
G01X818327Y609373D02*
X820800D01*
G03X821300Y609873I-0J500*
G01Y621135*
G03X821206Y621426I-500J-0*
G01X825594D02*
G03X821206I-2194J1574D01*
G01X825594D02*
G03X825500Y621135I406J-291D01*
G01Y619840*
G03X826156Y619365I500J-0*
G01X829288Y618234D02*
G03X826156Y619365I-2288J-1434D01*
G01X829288Y618234D02*
G03X830065Y618146I423J266D01*
G01X853315Y641396*
G03X852962Y642250I-353J354*
G01X849480*
G03X849127Y642104I0J-500*
G01X843291Y636268*
X841558Y635550D02*
G03X843291Y636268I0J2450D01*
G01X841558Y635550D02*
X836996D01*
G03X836586Y635336I0J-500*
G01X832772Y633347D02*
G03X836586Y635336I-0J4653D01*
G01X832772Y633347D02*
X829228D01*
X828104Y642515D02*
G03X829228Y633347I1124J-4515D01*
G01X828104Y642515D02*
G03Y643485I-121J485D01*
G01Y652515D02*
G03Y643485I1124J-4515D01*
G01Y652515D02*
G03Y653485I-121J485D01*
G01X829228Y662653D02*
G03X828104Y653485I0J-4653D01*
G01X829228Y662653D02*
X832772D01*
X837272Y656820D02*
G03X832772Y662653I-4500J1180D01*
G01X837272Y656820D02*
G03X837402Y656339I484J-127D01*
G01X839095Y654646*
G03X839449Y654500I354J354*
G01X899035*
G03X899326Y654594I-0J500*
G01X903402Y651384D02*
G03X899326Y654594I-2502J1016D01*
G01X903402Y651384D02*
G03X903839Y650696I463J-188D01*
G01X906128Y646819D02*
G03X903839Y650696I-2428J1181D01*
G01X906128Y646819D02*
G03X906578Y646100I450J-219D01*
G01X911445*
G03X911878Y646350I-0J500*
G01X913350Y647200D02*
G03X911878Y646350I0J-1700D01*
G01X913350Y647200D02*
X916650D01*
X917693Y646842D02*
G03X916650Y647200I-1043J-1342D01*
G01X917693Y646842D02*
G03X918307I307J395D01*
G01X919350Y647200D02*
G03X918307Y646842I0J-1700D01*
G01X919350Y647200D02*
X921523D01*
G03X921877Y647346I0J500*
G01X924015Y649485*
X925500Y650100D02*
G03X924015Y649485I0J-2100D01*
G01X925500Y650100D02*
X932700D01*
X934185Y649485D02*
G03X932700Y650100I-1485J-1485D01*
G01X934185Y649485D02*
X936323Y647346D01*
G03X936677Y647200I354J354*
G01X938650*
X940350Y645500D02*
G03X938650Y647200I-1700J0D01*
G01X940350Y645500D02*
Y642500D01*
X939384Y640967D02*
G03X940350Y642500I-734J1533D01*
G01X939384Y640967D02*
G03X939100Y640516I216J-451D01*
G01Y638484*
G03X939384Y638033I500J0*
G01X940350Y636500D02*
G03X939384Y638033I-1700J0D01*
G01X940350Y636500D02*
Y633500D01*
X939427Y631988D02*
G03X940350Y633500I-777J1512D01*
G01X939427Y631988D02*
G03X939155Y631535I228J-445D01*
G01X939183Y629786*
G03X939329Y629440I500J8*
G01X939540Y629230*
X940155Y627745D02*
G03X939540Y629230I-2100J0D01*
G01X940155Y627745D02*
Y625198D01*
G03X940632Y624698I500J-0*
G01X942255Y623000D02*
G03X940632Y624698I-1700J0D01*
G01X942255Y623000D02*
Y619400D01*
X940788Y617716D02*
G03X942255Y619400I-233J1684D01*
G01X940788Y617716D02*
G03X940503Y616867I68J-495D01*
G01X943240Y614130*
X943407Y613942D02*
G03X943240Y614130I-1652J-1297D01*
G01X943407Y613942D02*
G03X944300Y614251I393J309D01*
G01X683432Y572002D02*
G03Y572709I-353J354D01*
G01X672038Y584104*
G03X671684Y584250I-354J-354*
G01X591629*
G03X591275Y584104I0J-500*
G01X583026Y575854*
G03X583379Y575000I353J-354*
G01X610331*
X611816Y574385D02*
G03X610331Y575000I-1485J-1485D01*
G01X611816Y574385D02*
X614885Y571316D01*
X615500Y569831D02*
G03X614885Y571316I-2100J0D01*
G01X615500Y569831D02*
Y568103D01*
G03X616096Y567612I500J-0*
G01X621540Y561784D02*
G03X616096Y567612I-4540J1216D01*
G01X621540Y561784D02*
G03X621669Y561301I483J-130D01*
G01X627123Y555846*
G03X627477Y555700I354J354*
G01X666923*
G03X667277Y555846I0J500*
G01X683432Y572002*
X667227Y632208D02*
G03Y632973I-323J383D01*
G01X666772Y633412D02*
G03X667227Y632973I3456J3116D01*
G01X666772Y633412D02*
G03X666401Y633577I-371J-335D01*
G01X660997*
X658911Y634442D02*
G03X660997Y633577I2086J2086D01*
G01X658911Y634442D02*
X657449Y635904D01*
G03X657096Y636050I-353J-354*
G01X648309*
X647722Y636109D02*
G03X648309Y636050I587J2891D01*
G01X647722Y636109D02*
G03X647623Y636119I-99J-490D01*
G01X645553*
X643378Y637111D02*
G03X645553Y636119I2175J1889D01*
G01X643378Y637111D02*
G03X642500Y636783I-378J-328D01*
G01Y632450*
G03X643000Y631950I500J0*
G01X648309*
X648896Y631891D02*
G03X648309Y631950I-587J-2891D01*
G01X648896Y631891D02*
G03X648995Y631881I99J490D01*
G01X651065*
X653625Y627679D02*
G03X651065Y631881I-2560J1321D01*
G01X653625Y627679D02*
G03X654070Y626950I445J-229D01*
G01X656005*
G03X656359Y627096I-0J500*
G01X660002Y630740*
X662088Y631604D02*
G03X660002Y630740I-0J-2950D01*
G01X662088Y631604D02*
X666401D01*
G03X666772Y631769I0J500*
G01X667227Y632208D02*
G03X666772Y631769I3001J-3554D01*
G01X586774Y587946D02*
G03X586421Y588800I-353J354D01*
G01X584691*
G03X584193Y588345I-0J-500*
G01X582500Y586800D02*
G03X584193Y588345I0J1700D01*
G01X582500Y586800D02*
X576500D01*
X575341Y587256D02*
G03X576500Y586800I1159J1244D01*
G01X575341Y587256D02*
G03X574659I-341J-365D01*
G01X574603Y587207D02*
G03X574659Y587256I-1103J1293D01*
G01X574603Y587207D02*
G03X574517Y586541I325J-381D01*
G01X574494Y583426D02*
G03X574517Y586541I-2194J1574D01*
G01X574494Y583426D02*
G03X574400Y583135I406J-291D01*
G01Y583000*
X573915Y581658D02*
G03X574400Y583000I-1615J1342D01*
G01X573915Y581658D02*
G03X573800Y581339I385J-319D01*
G01Y581008*
G03X573946Y580655I500J0*
G01X576512Y578089*
G03X577320Y578233I354J353*
G01X577914Y579086D02*
G03X577320Y578233I2086J-2086D01*
G01X577914Y579086D02*
X586774Y587946D01*
X873403Y563505D02*
G03Y564038I-423J267D01*
G01X873052Y566894D02*
G03X873403Y564038I3204J-1055D01*
G01X873052Y566894D02*
G03X872577Y567550I-475J156D01*
G01X869222*
G03X868868Y567404I-0J-500*
G01X866496Y565032*
G03X866350Y564678I354J-354*
G01Y564500*
X864650Y562800D02*
G03X866350Y564500I0J1700D01*
G01X864650Y562800D02*
X861350D01*
X860307Y563158D02*
G03X861350Y562800I1043J1342D01*
G01X860307Y563158D02*
G03X859693I-307J-395D01*
G01X859384Y562967D02*
G03X859693Y563158I-734J1533D01*
G01X859384Y562967D02*
G03X859100Y562516I216J-451D01*
G01Y561484*
G03X859384Y561033I500J0*
G01X860350Y559500D02*
G03X859384Y561033I-1700J0D01*
G01X860350Y559500D02*
Y556500D01*
X859365Y554958D02*
G03X860350Y556500I-715J1542D01*
G01X859365Y554958D02*
G03X859075Y554508I210J-454D01*
G01X859038Y549144*
G03X859650Y548653I500J-4*
G01X862210Y548219D02*
G03X859650Y548653I-1801J-2853D01*
G01X862210Y548219D02*
G03X862743I266J423D01*
G01X865142Y548686D02*
G03X862743Y548219I-599J-3320D01*
G01X865142Y548686D02*
G03X865538Y549572I88J492D01*
G01X866551Y554321D02*
G03X865538Y549572I649J-2621D01*
G01X866551Y554321D02*
G03X866911Y554665I-120J485D01*
G01X872113Y554581D02*
G03X866911Y554665I-2613J-681D01*
G01X872113Y554581D02*
G03X873069Y554543I484J126D01*
G01X873403Y555237D02*
G03X873069Y554543I2853J-1800D01*
G01X873403Y555237D02*
G03Y555771I-423J267D01*
G01Y559371D02*
G03Y555771I2853J-1800D01*
G01Y559371D02*
G03Y559905I-423J267D01*
G01Y563505D02*
G03Y559905I2853J-1800D01*
G01X844056Y511830D02*
G03Y512570I-336J370D01*
G01X843884Y512740D02*
G03X844056Y512570I2112J1960D01*
G01X843884Y512740D02*
G03X843518Y512900I-366J-340D01*
G01X838866*
G03X838512Y512754I-0J-500*
G01X837246Y511488*
G03X837100Y511134I354J-354*
G01Y510981*
X836485Y509497D02*
G03X837100Y510981I-1485J1484D01*
G01X836485Y509497D02*
X832503Y505515D01*
X832257Y505304D02*
G03X832503Y505515I-1238J1696D01*
G01X832257Y505304D02*
G03X832552Y504400I295J-404D01*
G01X836627*
G03X837127Y504900I-0J500*
G01Y506968*
X838827Y508668D02*
G03X837127Y506968I-0J-1700D01*
G01X838827Y508668D02*
X842173D01*
X842554Y508624D02*
G03X842173Y508668I-381J-1656D01*
G01X842554Y508624D02*
G03X843159Y509199I113J488D01*
G01X844056Y511830D02*
G03X843159Y509199I1940J-2130D01*
G01X824674Y501700D02*
G03X825028Y502554I0J500D01*
G01X818315Y509266*
X817760Y510254D02*
G03X818315Y509266I2040J497D01*
G01X817760Y510254D02*
G03X817669Y510442I-486J-119D01*
G01X817606Y513674D02*
G03X817669Y510442I2194J-1574D01*
G01X817606Y513674D02*
G03X817700Y513965I-406J291D01*
G01Y523623*
G03X817554Y523977I-500J0*
G01X811113Y530417*
G03X810282Y530210I-353J-354*
G01X805575Y529334D02*
G03X810282Y530210I2125J1666D01*
G01X805575Y529334D02*
G03X804683Y528996I-393J-308D01*
G01X804700Y528400D02*
G03X804683Y528996I-10200J0D01*
G01X804700Y528400D02*
Y520237D01*
G03X804939Y519810I500J-0*
G01X799061D02*
G03X804939I2939J-4810D01*
G01X799061D02*
G03X799300Y520237I-261J427D01*
G01Y528400*
G03X794500Y533200I-4800J0*
G01X794484D02*
G03X794500I16J2700D01*
G01X794484D02*
X789003Y533233D01*
G03X788500Y532733I-3J-500*
G01Y502200*
G03X789000Y501700I500J0*
G01X824674*
X821200Y548880D02*
Y549123D01*
G03X821054Y549477I-500J0*
G01X820077Y550454*
G03X819723Y550600I-354J-354*
G01X788995*
G03X788498Y550050I0J-500*
G01X788500Y550000D02*
G03X788498Y550050I-500J0D01*
G01X788500Y550000D02*
Y547816D01*
G03X788613Y547500I500J0*
G01X789373Y545366D02*
G03X788613Y547500I-3373J0D01*
G01X789373Y545366D02*
Y540051D01*
X789276Y539248D02*
G03X789373Y540051I-3276J803D01*
G01X789276Y539248D02*
G03X789759Y538629I486J-119D01*
G01X794508Y538600*
X794510*
X799038Y537535D02*
G03X794510Y538600I-4538J-9135D01*
G01X799038Y537535D02*
G03X799684Y538250I223J448D01*
G01X799162Y540051D02*
G03X799684Y538250I3373J0D01*
G01X799162Y540051D02*
Y545366D01*
X804336Y548219D02*
G03X799162Y545366I-1801J-2853D01*
G01X804336Y548219D02*
G03X804869I266J423D01*
G01X808469D02*
G03X804869I-1800J-2853D01*
G01X808469D02*
G03X809003I267J423D01*
G01X812603D02*
G03X809003I-1800J-2853D01*
G01X812603D02*
G03X813137I267J423D01*
G01X816737D02*
G03X813137I-1800J-2853D01*
G01X816737D02*
G03X817271I267J423D01*
G01X820490Y548426D02*
G03X817271Y548219I-1419J-3060D01*
G01X820490Y548427D02*
G03X821200Y548880I210J453D01*
G01X893791Y615837D02*
G03X893954Y616780I-61J496D01*
G01X893019Y618298D02*
G03X893954Y616780I1700J0D01*
G01X893019Y618298D02*
Y626172D01*
X893777Y627588D02*
G03X893019Y626172I942J-1416D01*
G01X893777Y627588D02*
G03X894000Y628004I-277J416D01*
G01Y628835*
G03X893906Y629126I-500J-0*
G01X893812Y632134D02*
G03X893906Y629126I2288J-1434D01*
G01X893812Y632134D02*
G03X893389Y632900I-423J266D01*
G01X890111*
G03X889688Y632134I0J-500*
G01X889594Y629126D02*
G03X889688Y632134I-2194J1574D01*
G01X889594Y629126D02*
G03X889500Y628835I406J-291D01*
G01Y628025*
G03X889730Y627604I500J0*
G01X890513Y626172D02*
G03X889730Y627604I-1700J0D01*
G01X890513Y626172D02*
Y618298D01*
X889412Y616707D02*
G03X890513Y618298I-599J1591D01*
G01X889412Y616707D02*
G03X889494Y615748I176J-468D01*
G01X890558Y615065D02*
G03X889494Y615748I-1385J-986D01*
G01X890558Y615065D02*
G03X890965Y614856I407J291D01*
G01X892160*
G03X892578Y615082I-0J500*
G01X893791Y615837D02*
G03X892578Y615082I209J-1687D01*
G01X867165Y637346D02*
G03X866812Y638200I-353J354D01*
G01X859598*
G03X859114Y637825I0J-500*
G01X854844Y636367D02*
G03X859114Y637825I1656J2133D01*
G01X854844Y636367D02*
G03X854184Y636326I-306J-395D01*
G01X832646Y614788*
G03X832500Y614434I354J-354*
G01Y609873*
G03X833000Y609373I500J0*
G01X835673*
X836071Y609326D02*
G03X835673Y609373I-398J-1653D01*
G01X836071Y609326D02*
G03X836674Y609929I117J486D01*
G01X836627Y610327D02*
G03X836674Y609929I1700J-0D01*
G01X836627Y610327D02*
Y613673D01*
X837147Y614897D02*
G03X836627Y613673I1180J-1224D01*
G01X837147Y614897D02*
G03X837300Y615264I-347J360D01*
G01X842691Y615517D02*
G03X837300Y615264I-2691J-217D01*
G01X842691Y615517D02*
G03X843448Y615129I499J40D01*
G01X843533Y615177D02*
G03X843448Y615129I794J-1504D01*
G01X843533Y615177D02*
G03X843800Y615619I-233J442D01*
G01Y616382*
G03X843722Y616651I-500J0*
G01X848278D02*
G03X843722I-2278J1449D01*
G01X848278D02*
G03X848200Y616382I422J-269D01*
G01Y615619*
G03X848467Y615177I500J-0*
G01X848552Y615129D02*
G03X848467Y615177I-879J-1456D01*
G01X848552Y615129D02*
G03X849309Y615517I258J428D01*
G01X854696Y615440D02*
G03X849309Y615517I-2696J-140D01*
G01X854696Y615440D02*
G03X855453Y615037I500J26D01*
G01X855611Y615121D02*
G03X855453Y615037I716J-1542D01*
G01X855611Y615121D02*
G03X855900Y615574I-211J453D01*
G01Y616382*
G03X855822Y616651I-500J0*
G01X858096Y620800D02*
G03X855822Y616651I4J-2700D01*
G01X858096Y620800D02*
G03X858545Y621519I-1J500D01*
G01X863397Y621511D02*
G03X858545Y621519I-2424J1189D01*
G01X863397Y621511D02*
G03X863807Y620792I449J-220D01*
G01X864697Y620567D02*
G03X863807Y620792I-1097J-2467D01*
G01X864697Y620567D02*
G03X865400Y621024I203J457D01*
G01Y634711*
X866015Y636196D02*
G03X865400Y634711I1485J-1485D01*
G01X866015Y636196D02*
X867165Y637346D01*
X933855Y607877D02*
Y609017D01*
G03X932933Y609286I-500J0*
G01X931500Y608500D02*
G03X932933Y609286I0J1700D01*
G01X931500Y608500D02*
X926500D01*
X925141Y609178D02*
G03X926500Y608500I1359J1022D01*
G01X925141Y609178D02*
G03X924388Y609231I-399J-300D01*
G01X924168Y609011*
G03X924096Y608394I353J-354*
G01X924350Y607500D02*
G03X924096Y608394I-1700J0D01*
G01X924350Y607500D02*
Y606327D01*
G03X924496Y605973I500J-0*
G01X928023Y602446*
G03X928377Y602300I354J354*
G01X929823*
G03X930177Y602446I0J500*
G01X932601Y604871*
G03X932748Y605225I-353J354*
G01Y605693*
X933363Y607178D02*
G03X932748Y605693I1485J-1485D01*
G01X933363Y607178D02*
X933709Y607523D01*
G03X933855Y607877I-354J354*
G01X883897Y519165D02*
G03X884147Y519696I-241J438D01*
G01X884105Y520369D02*
G03X884147Y519696I2695J-169D01*
G01X884105Y520369D02*
G03X883606Y520900I-499J31D01*
G01X866877*
G03X866523Y520046I0J-500*
G01X870654Y515916*
G03X871460Y516055I354J353*
G01X875083Y517327D02*
G03X871460Y516055I-1183J-2427D01*
G01X875083Y517327D02*
G03X875274Y517277I219J450D01*
G01X875854Y517245*
G03X875882Y517244I28J499*
G01X876021*
G03X876238Y517294I-0J500*
G01X877492Y517581D02*
G03X876238Y517294I0J-2881D01*
G01X877492Y517581D02*
X882268D01*
G03X882726Y517881I-0J500*
G01X883897Y519165D02*
G03X882726Y517881I1303J-2365D01*
G01X897380Y546350D02*
G03X897026Y547203I-354J353D01*
G01X884442*
G03X884071Y547039I-0J-500*
G01X881571Y545930D02*
G03X884071Y547039I-0J3373D01*
G01X881571Y545930D02*
X876684D01*
G03X876184Y545422I-0J-500*
G01Y545366D02*
G03Y545422I-3373J0D01*
G01Y545366D02*
Y540051D01*
X875862Y538613D02*
G03X876184Y540051I-3051J1438D01*
G01X875862Y538613D02*
G03X876315Y537900I453J-213D01*
G01X888723*
G03X889077Y538046I0J500*
G01X897380Y546350*
X903700Y584377D02*
Y585150D01*
G03X903200Y585650I-500J-0*
G01X901908*
G03X901548Y585496I0J-500*
G01X901122Y585053*
X899607Y584407D02*
G03X901122Y585053I0J2100D01*
G01X899607Y584407D02*
X884442D01*
G03X884071Y584243I-0J-500*
G01X881571Y583134D02*
G03X884071Y584243I-0J3373D01*
G01X881571Y583134D02*
X876256D01*
X872884Y586584D02*
G03X876256Y583134I3372J-77D01*
G01X872884Y586584D02*
G03X872439Y587092I-500J11D01*
G01X871011Y587592D02*
G03X872439Y587092I1800J2853D01*
G01X871011Y587592D02*
G03X870477I-267J-423D01*
G01X866877D02*
G03X870477I1800J2853D01*
G01X866877D02*
G03X866343I-267J-423D01*
G01X862743D02*
G03X866343I1800J2853D01*
G01X862743D02*
G03X862210I-267J-423D01*
G01X858609D02*
G03X862210I1800J2853D01*
G01X858609D02*
G03X858076I-266J-423D01*
G01X852902Y590445D02*
G03X858076Y587592I3374J-0D01*
G01X852902Y590445D02*
Y595760D01*
X853892Y598147D02*
G03X852902Y595760I2384J-2387D01*
G01X853892Y598147D02*
G03X854039Y598501I-353J354D01*
G01Y599058*
G03X853539Y599558I-500J-0*
G01X851422*
G03X851068Y599411I-0J-500*
G01X850450Y598794*
G03X850443Y598094I354J-354*
G01X851381Y595760D02*
G03X850443Y598094I-3373J-0D01*
G01X851381Y595760D02*
Y590445D01*
X846208Y587592D02*
G03X851381Y590445I1800J2853D01*
G01X846208Y587592D02*
G03X845674I-267J-423D01*
G01X842074D02*
G03X845674I1800J2853D01*
G01X842074D02*
G03X841540I-267J-423D01*
G01X837940D02*
G03X841540I1800J2853D01*
G01X837940D02*
G03X837406I-267J-423D01*
G01X834270Y587347D02*
G03X837406Y587592I1336J3098D01*
G01X834270Y587347D02*
G03X833572Y586888I-198J-459D01*
G01Y584386*
Y584347D02*
G03Y584386I-2100J39D01*
G01Y584347D02*
G03Y584338I500J-9D01*
G01Y580865*
G03X833666Y580574I500J0*
G01X829278D02*
G03X833666I2194J-1574D01*
G01X829278D02*
G03X829372Y580865I-406J291D01*
G01Y584386*
Y584424D02*
G03Y584386I2100J-38D01*
G01Y584424D02*
G03Y584433I-500J9D01*
G01Y586888*
G03X828674Y587347I-500J0*
G01X825538Y587592D02*
G03X828674Y587347I1801J2853D01*
G01X825538Y587592D02*
G03X825005I-266J-423D01*
G01X822609Y587125D02*
G03X825005Y587592I596J3320D01*
G01X822609Y587125D02*
G03X822021Y586632I-88J-493D01*
G01Y582204*
X821157Y580118D02*
G03X822021Y582204I-2086J2086D01*
G01X821157Y580118D02*
X815492Y574454D01*
G03X815846Y573600I354J-354*
G01X852360*
G03X852714Y573746I0J500*
G01X857452Y578485*
X858937Y579100D02*
G03X857452Y578485I0J-2100D01*
G01X858937Y579100D02*
X870683D01*
G03X871036Y579246I-0J500*
G01X871515Y579725*
X873000Y580340D02*
G03X871515Y579725I0J-2100D01*
G01X873000Y580340D02*
X873385D01*
G03X873756Y580505I0J500*
G01X876256Y581614D02*
G03X873756Y580505I-0J-3374D01*
G01X876256Y581614D02*
X881571D01*
X884424Y576440D02*
G03X881571Y581614I-2853J1800D01*
G01X884424Y576440D02*
G03Y575907I422J-267D01*
G01X884892Y573517D02*
G03X884424Y575907I-3321J589D01*
G01X884892Y573517D02*
G03X885385Y572929I493J-88D01*
G01X890124*
G03X890178Y572932I-0J500*
G01X893450Y570000D02*
G03X890178Y572932I-2950J0D01*
G01X893450Y570000D02*
Y569979D01*
X893139Y568662D02*
G03X893450Y569979I-2639J1317D01*
G01X893139Y568662D02*
G03X893587Y567939I448J-223D01*
G01X894252*
G03X894556Y568042I-0J500*
G01X895762Y568564D02*
G03X894556Y568042I438J-2664D01*
G01X895762Y568564D02*
G03X896034Y568704I-81J494D01*
G01X898654Y571323*
G03X898800Y571677I-354J354*
G01Y574650*
X899158Y575693D02*
G03X898800Y574650I1342J-1043D01*
G01X899158Y575693D02*
G03Y576307I-395J307D01*
G01X898800Y577350D02*
G03X899158Y576307I1700J0D01*
G01X898800Y577350D02*
Y580650D01*
X900500Y582350D02*
G03X898800Y580650I0J-1700D01*
G01X900500Y582350D02*
X901673D01*
G03X902027Y582496I0J500*
G01X903554Y584023*
G03X903700Y584377I-354J354*
G01X909206Y603591D02*
G03X908595Y604316I-428J260D01*
G01X907694Y604144D02*
G03X908595Y604316I0J2450D01*
G01X907694Y604144D02*
X906965D01*
G03X906558Y603935I-0J-500*
G01X905173Y603221D02*
G03X906558Y603935I0J1700D01*
G01X905173Y603221D02*
X903799D01*
G03X903445Y603075I-0J-500*
G01X899466Y599096*
G03X899974Y598267I354J-354*
G01X900500Y598350D02*
G03X899974Y598267I0J-1700D01*
G01X900500Y598350D02*
X903500D01*
X905033Y597384D02*
G03X903500Y598350I-1533J-734D01*
G01X905033Y597384D02*
G03X905484Y597100I451J216D01*
G01X907516*
G03X907967Y597384I-0J500*
G01X908650Y598122D02*
G03X907967Y597384I850J-1472D01*
G01X908650Y598122D02*
G03X908900Y598555I-250J433D01*
G01Y602500*
X909206Y603591D02*
G03X908900Y602500I1794J-1091D01*
G01X899158Y591693D02*
G03Y592307I-395J307D01*
G01X898800Y593350D02*
G03X899158Y592307I1700J0D01*
G01X898800Y593350D02*
Y596650D01*
X898883Y597176D02*
G03X898800Y596650I1617J-526D01*
G01X898883Y597176D02*
G03X898054Y597684I-475J154D01*
G01X896938Y596568*
X895206Y595850D02*
G03X896938Y596568I-0J2450D01*
G01X895206Y595850D02*
X891640D01*
G03X891446Y595811I-0J-500*
G01Y600789D02*
G03Y595811I-1046J-2489D01*
G01Y600789D02*
G03X891640Y600750I194J461D01*
G01X893984*
G03X894337Y600896I-0J500*
G01X895737Y602296*
G03X895384Y603150I-353J354*
G01X894000*
X892300Y604850D02*
G03X894000Y603150I1700J0D01*
G01X892300Y604850D02*
Y608150D01*
X892632Y609159D02*
G03X892300Y608150I1368J-1009D01*
G01X892632Y609159D02*
G03X892229Y609955I-403J296D01*
G01X890965*
G03X890558Y609746I-0J-500*
G01X889173Y609032D02*
G03X890558Y609746I0J1700D01*
G01X889173Y609032D02*
X887304D01*
G03X886950Y608886I-0J-500*
G01X883846Y605782*
G03X883700Y605429I354J-353*
G01Y604850*
X882000Y603150D02*
G03X883700Y604850I0J1700D01*
G01X882000Y603150D02*
X879986D01*
G03X879520Y602830I0J-500*
G01X879278Y602351D02*
G03X879520Y602830I-2278J1449D01*
G01X879278Y602351D02*
G03X879200Y602082I422J-269D01*
G01Y597695*
G03X879344Y597343I500J-0*
G01X880318Y594972D02*
G03X879344Y597343I-3373J0D01*
G01X880318Y594972D02*
Y591232D01*
X880236Y590491D02*
G03X880318Y591232I-3291J741D01*
G01X880236Y590491D02*
G03X880723Y589881I487J-110D01*
G01X881571*
X884071Y588772D02*
G03X881571Y589881I-2500J-2265D01*
G01X884071Y588772D02*
G03X884442Y588607I371J335D01*
G01X898300*
G03X898800Y589107I-0J500*
G01Y590650*
X899158Y591693D02*
G03X898800Y590650I1342J-1043D01*
G01X923477Y623146D02*
G03Y623854I-354J354D01*
G01X915677Y631654*
G03X915323Y631800I-354J-354*
G01X913350*
X911878Y632650D02*
G03X913350Y631800I1472J850D01*
G01X911878Y632650D02*
G03X911445Y632900I-433J-250D01*
G01X898811*
G03X898388Y632134I0J-500*
G01X898294Y629126D02*
G03X898388Y632134I-2194J1574D01*
G01X898294Y629126D02*
G03X898200Y628835I406J-291D01*
G01Y628345*
G03X898779Y627851I500J-0*
G01X899050Y627872D02*
G03X898779Y627851I-0J-1700D01*
G01X899050Y627872D02*
X901806D01*
X902414Y627760D02*
G03X901806Y627872I-608J-1588D01*
G01X902414Y627760D02*
G03X902772I179J467D01*
G01X903380Y627872D02*
G03X902772Y627760I0J-1700D01*
G01X903380Y627872D02*
X906136D01*
X907836Y626172D02*
G03X906136Y627872I-1700J0D01*
G01X907836Y626172D02*
Y618298D01*
X906136Y616598D02*
G03X907836Y618298I0J1700D01*
G01X906136Y616598D02*
X903380D01*
X902772Y616711D02*
G03X903380Y616598I608J1587D01*
G01X902772Y616711D02*
G03X902414I-179J-467D01*
G01X901806Y616598D02*
G03X902414Y616711I-0J1700D01*
G01X901806Y616598D02*
X899050D01*
X898441Y616711D02*
G03X899050Y616598I609J1587D01*
G01X898441Y616711D02*
G03X898083I-179J-467D01*
G01X897824Y616635D02*
G03X898083Y616711I-349J1663D01*
G01X897824Y616635D02*
G03X897716Y615692I103J-490D01*
G01X898700Y614150D02*
G03X897716Y615692I-1700J0D01*
G01X898700Y614150D02*
Y610850D01*
X898368Y609841D02*
G03X898700Y610850I-1368J1009D01*
G01X898368Y609841D02*
G03X898771Y609045I403J-296D01*
G01X900035*
G03X900442Y609254I0J500*
G01X901827Y609968D02*
G03X900442Y609254I-0J-1700D01*
G01X901827Y609968D02*
X905173D01*
X906384Y609461D02*
G03X905173Y609968I-1211J-1193D01*
G01X906384Y609461D02*
G03X907094Y609459I356J351D01*
G01X909868Y612232*
X911600Y612950D02*
G03X909868Y612232I0J-2450D01*
G01X911600Y612950D02*
X917151D01*
G03X917650Y613461I-0J500*
G01Y613500D02*
G03Y613461I1700J0D01*
G01Y613500D02*
Y616500D01*
X919034Y618170D02*
G03X917650Y616500I316J-1670D01*
G01X919034Y618170D02*
G03X919433Y618573I-93J492D01*
G01X920015Y619685D02*
G03X919433Y618573I1485J-1485D01*
G01X920015Y619685D02*
X923477Y623146D01*
X902277Y663635D02*
G03X902277I-3819J0D01*
G01X870781D02*
G03X870781I-3819J0D01*
G01X544763Y634717D02*
G03X544763I-4606J0D01*
G01X538721Y536948D02*
Y530649D01*
X537021Y528948D02*
G03X538721Y530649I-0J1701D01*
G01X537021Y528948D02*
X525604D01*
X523903Y530649D02*
G03X525604Y528948I1701J-0D01*
G01X523903Y530649D02*
Y536948D01*
X524444Y538191D02*
G03X523903Y536948I1160J-1243D01*
G01X524444Y538191D02*
G03X524091Y539057I-341J366D01*
G01X525870Y539576D02*
G03X524091Y539057I-1870J3101D01*
G01X525870Y539576D02*
G03X526128Y538648I258J-428D01*
G01X537021*
X538721Y536948D02*
G03X537021Y538648I-1700J-0D01*
G01X527622Y560000D02*
G03X527622I-3622J0D01*
G01X521399Y572381D02*
Y566082D01*
X519699Y564381D02*
G03X521399Y566082I-0J1701D01*
G01X519699Y564381D02*
X508282D01*
X506581Y566082D02*
G03X508282Y564381I1701J-0D01*
G01X506581Y566082D02*
Y572381D01*
X508282Y574081D02*
G03X506581Y572381I-0J-1700D01*
G01X508282Y574081D02*
X519699D01*
X521399Y572381D02*
G03X519699Y574081I-1700J-0D01*
G01X907836Y623845D02*
X923485D01*
X907836Y622945D02*
X923275D01*
X907836Y624745D02*
X922585D01*
X907836Y622045D02*
X922375D01*
X907836Y625645D02*
X921685D01*
X907836Y621145D02*
X921475D01*
X907795Y626545D02*
X920785D01*
X907836Y620245D02*
X920575D01*
X907263Y627445D02*
X919885D01*
X907836Y619345D02*
X919740D01*
X907836Y618445D02*
X919392D01*
X898200Y628345D02*
X918985D01*
X898375Y629245D02*
X918085D01*
X907660Y617545D02*
X918009D01*
X906532Y616645D02*
X917656D01*
X897627Y615745D02*
X917650D01*
X898551Y614845D02*
X917650D01*
X898700Y613945D02*
X917650D01*
X898700Y613045D02*
X917444D01*
X898742Y630145D02*
X917185D01*
X898778Y631045D02*
X916285D01*
X898496Y631945D02*
X912663D01*
X898583Y632845D02*
X911672D01*
X898700Y612145D02*
X909780D01*
X898700Y611245D02*
X908880D01*
X898623Y610345D02*
X907980D01*
X906400Y609445D02*
X907080D01*
X902201Y616645D02*
X902984D01*
X898281Y609445D02*
X900601D01*
X897871Y616645D02*
X898654D01*
X880318Y592345D02*
X899129D01*
X880318Y591445D02*
X898997D01*
X897216Y596845D02*
X898811D01*
X880318Y593245D02*
X898803D01*
X895882Y595945D02*
X898800D01*
X880317Y595045D02*
X898800D01*
X880318Y594145D02*
X898800D01*
X880247Y590545D02*
X898800D01*
X882809Y589645D02*
X898800D01*
X898129Y597745D02*
X898687D01*
X884097Y588745D02*
X898645D01*
X879227Y602245D02*
X895686D01*
X879917Y603145D02*
X895453D01*
X879200Y601345D02*
X894786D01*
X890284Y609445D02*
X892729D01*
X883497Y604045D02*
X892503D01*
X886610Y608545D02*
X892347D01*
X885710Y607645D02*
X892300D01*
X884810Y606745D02*
X892300D01*
X883910Y605845D02*
X892300D01*
X883700Y604945D02*
X892300D01*
X880175Y595945D02*
X889079D01*
X879200Y600445D02*
X888760D01*
X879751Y596845D02*
X888125D01*
X879200Y599545D02*
X888004D01*
X879200Y597745D02*
X887758D01*
X879200Y598645D02*
X887722D01*
X906666Y604045D02*
X909239D01*
X903534Y603145D02*
X909002D01*
X902616Y602245D02*
X908900D01*
X901716Y601345D02*
X908900D01*
X900816Y600445D02*
X908900D01*
X899916Y599545D02*
X908900D01*
X899329Y598645D02*
X908900D01*
X904800Y597745D02*
X908200D01*
X901211Y585145D02*
X903700D01*
X884073Y584245D02*
X903682D01*
X882745Y583345D02*
X902875D01*
X833572Y582445D02*
X901966D01*
X884347Y576145D02*
X899241D01*
X882248Y581545D02*
X899055D01*
X884746Y575245D02*
X898908D01*
X884725Y577045D02*
X898828D01*
X883937Y580645D02*
X898800D01*
X884590Y579745D02*
X898800D01*
X884889Y578845D02*
X898800D01*
X884931Y577945D02*
X898800D01*
X884936Y574345D02*
X898800D01*
X884885Y573445D02*
X898800D01*
X891992Y572545D02*
X898800D01*
X892949Y571645D02*
X898799D01*
X893354Y570745D02*
X898075D01*
X893447Y569845D02*
X897175D01*
X893263Y568945D02*
X896275D01*
X893278Y568045D02*
X894560D01*
X833572Y581545D02*
X875579D01*
X833572Y583345D02*
X875082D01*
X833623Y580645D02*
X873890D01*
X833572Y584245D02*
X873754D01*
X833572Y585145D02*
X873170D01*
X833572Y586045D02*
X872914D01*
X833576Y586945D02*
X872741D01*
X834067Y579745D02*
X871535D01*
X834168Y578845D02*
X857934D01*
X833957Y577945D02*
X856913D01*
X833334Y577045D02*
X856013D01*
X817184Y576145D02*
X855113D01*
X816284Y575245D02*
X854213D01*
X850157Y587845D02*
X854126D01*
X850348Y598645D02*
X854039D01*
X851310Y599545D02*
X853651D01*
X850735Y597745D02*
X853548D01*
X850922Y588745D02*
X853362D01*
X815410Y574345D02*
X853313D01*
X851202Y596845D02*
X853082D01*
X851285Y589645D02*
X852999D01*
X851376Y595945D02*
X852907D01*
X851381Y595045D02*
X852902D01*
X851381Y594145D02*
X852902D01*
X851381Y593245D02*
X852902D01*
X851381Y592345D02*
X852902D01*
X851381Y591445D02*
X852902D01*
X851381Y590545D02*
X852902D01*
X818084Y577045D02*
X829610D01*
X822021Y586045D02*
X829372D01*
X822021Y585145D02*
X829372D01*
X822021Y584245D02*
X829372D01*
X822021Y583345D02*
X829372D01*
X822021Y582445D02*
X829372D01*
X821946Y581545D02*
X829372D01*
X822131Y586945D02*
X829369D01*
X821575Y580645D02*
X829321D01*
X818984Y577945D02*
X828987D01*
X820784Y579745D02*
X828877D01*
X819884Y578845D02*
X828776D01*
X883363Y546445D02*
X897454D01*
X876197Y545545D02*
X896575D01*
X876184Y544645D02*
X895675D01*
X876184Y543745D02*
X894775D01*
X876184Y542845D02*
X893875D01*
X876184Y541945D02*
X892975D01*
X876184Y541045D02*
X892075D01*
X876184Y540145D02*
X891175D01*
X876087Y539245D02*
X890275D01*
X875818Y538345D02*
X889375D01*
X867125Y519445D02*
X884131D01*
X866380Y520345D02*
X884104D01*
X868025Y518545D02*
X883140D01*
X868925Y517645D02*
X882512D01*
X869825Y516745D02*
X871929D01*
X870743Y515845D02*
X871273D01*
X931889Y608545D02*
X933855D01*
X924344Y607645D02*
X933798D01*
X933096Y609445D02*
X933613D01*
X924350Y606745D02*
X933031D01*
X924625Y605845D02*
X932753D01*
X925525Y604945D02*
X932662D01*
X926425Y604045D02*
X931775D01*
X927325Y603145D02*
X930875D01*
X924034Y608545D02*
X926111D01*
X858941Y637345D02*
X867164D01*
X858251Y636445D02*
X866264D01*
X853404Y635545D02*
X865573D01*
X852504Y634645D02*
X865400D01*
X851604Y633745D02*
X865400D01*
X850704Y632845D02*
X865400D01*
X849804Y631945D02*
X865400D01*
X848904Y631045D02*
X865400D01*
X848004Y630145D02*
X865400D01*
X847104Y629245D02*
X865400D01*
X846204Y628345D02*
X865400D01*
X845304Y627445D02*
X865400D01*
X844404Y626545D02*
X865400D01*
X843504Y625645D02*
X865400D01*
X862736Y624745D02*
X865400D01*
X863418Y623845D02*
X865400D01*
X863662Y622945D02*
X865400D01*
X863592Y622045D02*
X865400D01*
X863368Y621145D02*
X865400D01*
X842604Y624745D02*
X859210D01*
X839004Y621145D02*
X858571D01*
X841704Y623845D02*
X858528D01*
X839904Y622045D02*
X858354D01*
X840804Y622945D02*
X858284D01*
X847640Y620245D02*
X856460D01*
X854663Y615745D02*
X855900D01*
X854341Y616645D02*
X855825D01*
X848396Y619345D02*
X855704D01*
X853500Y617545D02*
X855458D01*
X848678Y618445D02*
X855422D01*
X854376Y636445D02*
X854700D01*
X848642Y617545D02*
X850500D01*
X848275Y616645D02*
X849659D01*
X848200Y615745D02*
X849337D01*
X838104Y620245D02*
X844360D01*
X842663Y615745D02*
X843800D01*
X842341Y616645D02*
X843725D01*
X837204Y619345D02*
X843604D01*
X841500Y617545D02*
X843358D01*
X836304Y618445D02*
X843322D01*
X835404Y617545D02*
X838500D01*
X834504Y616645D02*
X837659D01*
X833604Y615745D02*
X837337D01*
X832704Y614845D02*
X837095D01*
X832500Y613945D02*
X836649D01*
X832500Y613045D02*
X836627D01*
X832500Y612145D02*
X836627D01*
X832500Y611245D02*
X836627D01*
X832500Y610345D02*
X836627D01*
X832742Y609445D02*
X836527D01*
X889296Y616645D02*
X894121D01*
X889500Y628345D02*
X894000D01*
X889675Y629245D02*
X893825D01*
X889796Y631945D02*
X893704D01*
X889883Y632845D02*
X893617D01*
X889940Y627445D02*
X893592D01*
X890042Y630145D02*
X893458D01*
X890078Y631045D02*
X893422D01*
X889510Y615745D02*
X893412D01*
X890337Y617545D02*
X893195D01*
X890472Y626545D02*
X893060D01*
X890513Y625645D02*
X893019D01*
X890513Y624745D02*
X893019D01*
X890513Y623845D02*
X893019D01*
X890513Y622945D02*
X893019D01*
X890513Y622045D02*
X893019D01*
X890513Y621145D02*
X893019D01*
X890513Y620245D02*
X893019D01*
X890513Y619345D02*
X893019D01*
X890513Y618445D02*
X893019D01*
X788500Y549145D02*
X821199D01*
X788498Y550045D02*
X820485D01*
X816695Y548245D02*
X817313D01*
X812561D02*
X813179D01*
X808427D02*
X809045D01*
X804293D02*
X804911D01*
X788500D02*
X800778D01*
X788732Y547345D02*
X799804D01*
X796766Y538345D02*
X799625D01*
X789196Y546445D02*
X799339D01*
X789276Y539245D02*
X799260D01*
X789368Y545545D02*
X799167D01*
X789373Y544645D02*
X799162D01*
X789373Y543745D02*
X799162D01*
X789373Y542845D02*
X799162D01*
X789373Y541945D02*
X799162D01*
X789373Y541045D02*
X799162D01*
X789373Y540145D02*
X799162D01*
X788500Y502345D02*
X825153D01*
X788500Y503245D02*
X824336D01*
X788500Y504145D02*
X823436D01*
X788500Y505045D02*
X822536D01*
X788500Y505945D02*
X821636D01*
X788500Y506845D02*
X820736D01*
X788500Y507745D02*
X819836D01*
X788500Y508645D02*
X818936D01*
X803421Y509545D02*
X818081D01*
X804700Y523045D02*
X817700D01*
X804700Y522145D02*
X817700D01*
X804700Y521245D02*
X817700D01*
X804700Y520345D02*
X817700D01*
X805467Y519445D02*
X817700D01*
X806383Y518545D02*
X817700D01*
X806978Y517645D02*
X817700D01*
X807360Y516745D02*
X817700D01*
X807573Y515845D02*
X817700D01*
X807637Y514945D02*
X817700D01*
X807556Y514045D02*
X817700D01*
X805321Y510445D02*
X817667D01*
X804700Y523945D02*
X817582D01*
X807323Y513145D02*
X817310D01*
X806292Y511345D02*
X817208D01*
X806918Y512245D02*
X817104D01*
X804700Y524845D02*
X816685D01*
X804700Y525745D02*
X815785D01*
X804700Y526645D02*
X814885D01*
X804700Y527545D02*
X813985D01*
X808573Y528445D02*
X813085D01*
X809833Y529345D02*
X812185D01*
X810294Y530245D02*
X811285D01*
X804700Y528445D02*
X806827D01*
X804797Y529345D02*
X805566D01*
X788500Y509545D02*
X800579D01*
X788500Y527545D02*
X799300D01*
X788500Y526645D02*
X799300D01*
X788500Y525745D02*
X799300D01*
X788500Y524845D02*
X799300D01*
X788500Y523945D02*
X799300D01*
X788500Y523045D02*
X799300D01*
X788500Y522145D02*
X799300D01*
X788500Y521245D02*
X799300D01*
X788500Y520345D02*
X799300D01*
X788500Y528445D02*
X799300D01*
X788500Y529345D02*
X799206D01*
X788500Y530245D02*
X798931D01*
X788500Y510445D02*
X798679D01*
X788500Y519445D02*
X798533D01*
X788500Y531145D02*
X798438D01*
X788500Y511345D02*
X797708D01*
X788500Y532045D02*
X797623D01*
X788500Y518545D02*
X797617D01*
X788500Y512245D02*
X797082D01*
X788500Y517645D02*
X797022D01*
X788500Y513145D02*
X796677D01*
X788500Y516745D02*
X796640D01*
X788500Y514045D02*
X796444D01*
X788500Y515845D02*
X796427D01*
X788500Y514945D02*
X796363D01*
X788547Y532945D02*
X796043D01*
X838004Y512245D02*
X844218D01*
X837147Y511345D02*
X843631D01*
X837030Y510445D02*
X843213D01*
X836532Y509545D02*
X843119D01*
X842449Y508645D02*
X842846D01*
X835634D02*
X838551D01*
X834734Y507745D02*
X837315D01*
X833834Y506845D02*
X837127D01*
X832934Y505945D02*
X837127D01*
X832073Y505045D02*
X837127D01*
X871714Y555445D02*
X873477D01*
X866057Y563545D02*
X873426D01*
X860291Y559945D02*
X873378D01*
X860350Y559045D02*
X873222D01*
X866349Y564445D02*
X873184D01*
X870645Y556345D02*
X873113D01*
X872123Y554545D02*
X873070D01*
X868610Y567145D02*
X873068D01*
X859117Y562645D02*
X873016D01*
X859690Y560845D02*
X872994D01*
X860350Y558145D02*
X872932D01*
X866810Y565345D02*
X872919D01*
X867710Y566245D02*
X872907D01*
X860350Y557245D02*
X872898D01*
X859100Y561745D02*
X872883D01*
X860343Y556345D02*
X868355D01*
X859983Y555445D02*
X867286D01*
X859077Y554545D02*
X866857D01*
X859038Y549145D02*
X865729D01*
X859069Y553645D02*
X865327D01*
X859044Y550045D02*
X865067D01*
X859063Y552745D02*
X864710D01*
X859050Y550945D02*
X864608D01*
X859057Y551845D02*
X864504D01*
X862167Y548245D02*
X862785D01*
X584069Y587845D02*
X586673D01*
X584463Y588745D02*
X586649D01*
X583187Y586945D02*
X585773D01*
X574790Y586045D02*
X584873D01*
X574996Y585145D02*
X583973D01*
X574892Y584245D02*
X583073D01*
X574447Y583345D02*
X582173D01*
X574325Y582445D02*
X581273D01*
X573845Y581545D02*
X580373D01*
X573956Y580645D02*
X579473D01*
X574856Y579745D02*
X578573D01*
X575756Y578845D02*
X577698D01*
X576814Y577945D02*
X576918D01*
X574442Y586945D02*
X575813D01*
X642500Y632845D02*
X667334D01*
X648479Y631945D02*
X666940D01*
X653094Y631045D02*
X660360D01*
X642500Y633745D02*
X660017D01*
X653709Y630145D02*
X659407D01*
X642500Y634645D02*
X658707D01*
X653936Y629245D02*
X658507D01*
X642500Y635545D02*
X657807D01*
X653871Y628345D02*
X657607D01*
X653570Y627445D02*
X656707D01*
X642500Y636445D02*
X644221D01*
X613656Y572545D02*
X683541D01*
X614556Y571645D02*
X683075D01*
X612756Y573445D02*
X682696D01*
X615291Y570745D02*
X682175D01*
X611856Y574345D02*
X681796D01*
X615500Y569845D02*
X681275D01*
X582949Y575245D02*
X680896D01*
X615500Y568945D02*
X680375D01*
X583317Y576145D02*
X679996D01*
X615503Y568045D02*
X679475D01*
X584217Y577045D02*
X679096D01*
X619215Y567145D02*
X678575D01*
X585117Y577945D02*
X678196D01*
X620400Y566245D02*
X677675D01*
X586017Y578845D02*
X677296D01*
X621073Y565345D02*
X676775D01*
X586917Y579745D02*
X676396D01*
X621472Y564445D02*
X675875D01*
X587817Y580645D02*
X675496D01*
X621668Y563545D02*
X674975D01*
X588717Y581545D02*
X674596D01*
X621687Y562645D02*
X674075D01*
X589617Y582445D02*
X673696D01*
X621531Y561745D02*
X673175D01*
X590517Y583345D02*
X672796D01*
X622125Y560845D02*
X672275D01*
X591560Y584245D02*
X671754D01*
X623025Y559945D02*
X671375D01*
X623925Y559045D02*
X670475D01*
X624825Y558145D02*
X669575D01*
X625725Y557245D02*
X668675D01*
X626625Y556345D02*
X667775D01*
X759637Y678745D02*
X944300D01*
X759637Y677845D02*
X944300D01*
X759637Y676945D02*
X944300D01*
X759637Y676045D02*
X944300D01*
X809462Y675145D02*
X944300D01*
X810970Y674245D02*
X944300D01*
X811750Y673345D02*
X944300D01*
X812215Y672445D02*
X944300D01*
X812462Y671545D02*
X944300D01*
X812527Y670645D02*
X944300D01*
X812527Y669745D02*
X944300D01*
X812527Y668845D02*
X944300D01*
X812527Y667945D02*
X944300D01*
X900177Y667045D02*
X944300D01*
X901336Y666145D02*
X944300D01*
X901921Y665245D02*
X944300D01*
X902210Y664345D02*
X944300D01*
X902272Y663445D02*
X944300D01*
X902118Y662545D02*
X944300D01*
X901717Y661645D02*
X944300D01*
X900954Y660745D02*
X944300D01*
X898922Y659845D02*
X944300D01*
X837327Y658945D02*
X944300D01*
X837424Y658045D02*
X944300D01*
X837345Y657145D02*
X944300D01*
X837496Y656245D02*
X944300D01*
X838396Y655345D02*
X944300D01*
X902663Y654445D02*
X944300D01*
X903345Y653545D02*
X944300D01*
X903589Y652645D02*
X944300D01*
X903519Y651745D02*
X944300D01*
X903508Y650845D02*
X944300D01*
X933492Y649945D02*
X944300D01*
X934625Y649045D02*
X944300D01*
X935525Y648145D02*
X944300D01*
X936469Y647245D02*
X944300D01*
X940125Y646345D02*
X944300D01*
X940350Y645445D02*
X944300D01*
X940350Y644545D02*
X944300D01*
X940350Y643645D02*
X944300D01*
X940350Y642745D02*
X944300D01*
X940219Y641845D02*
X944300D01*
X939344Y640945D02*
X944300D01*
X939100Y640045D02*
X944300D01*
X939100Y639145D02*
X944300D01*
X939161Y638245D02*
X944300D01*
X940125Y637345D02*
X944300D01*
X940350Y636445D02*
X944300D01*
X940350Y635545D02*
X944300D01*
X940350Y634645D02*
X944300D01*
X940350Y633745D02*
X944300D01*
X940219Y632845D02*
X944300D01*
X939358Y631945D02*
X944300D01*
X939163Y631045D02*
X944300D01*
X939177Y630145D02*
X944300D01*
X939525Y629245D02*
X944300D01*
X940067Y628345D02*
X944300D01*
X940155Y627445D02*
X944300D01*
X940155Y626545D02*
X944300D01*
X940155Y625645D02*
X944300D01*
X940443Y624745D02*
X944300D01*
X942030Y623845D02*
X944300D01*
X942255Y622945D02*
X944300D01*
X942255Y622045D02*
X944300D01*
X942255Y621145D02*
X944300D01*
X942255Y620245D02*
X944300D01*
X942254Y619345D02*
X944300D01*
X941962Y618445D02*
X944300D01*
X940476Y617545D02*
X944300D01*
X940725Y616645D02*
X944300D01*
X941625Y615745D02*
X944300D01*
X942525Y614845D02*
X944300D01*
X943404Y613945D02*
X944196D01*
X905573Y649945D02*
X924708D01*
X906190Y649045D02*
X923575D01*
X906396Y648145D02*
X922675D01*
X906292Y647245D02*
X921731D01*
X906147Y646345D02*
X911875D01*
X867426Y659845D02*
X897995D01*
X868681Y667045D02*
X896739D01*
X869458Y660745D02*
X895963D01*
X869840Y666145D02*
X895580D01*
X870221Y661645D02*
X895199D01*
X870425Y665245D02*
X894996D01*
X870622Y662545D02*
X894799D01*
X870714Y664345D02*
X894706D01*
X870776Y663445D02*
X894644D01*
X837043Y659845D02*
X866499D01*
X812523Y667045D02*
X865243D01*
X836528Y660745D02*
X864467D01*
X812399Y666145D02*
X864084D01*
X835663Y661645D02*
X863703D01*
X812083Y665245D02*
X863500D01*
X833767Y662545D02*
X863303D01*
X811526Y664345D02*
X863210D01*
X810582Y663445D02*
X863148D01*
X848868Y641845D02*
X853453D01*
X847968Y640945D02*
X852864D01*
X847068Y640045D02*
X851964D01*
X846168Y639145D02*
X851064D01*
X845268Y638245D02*
X850164D01*
X844368Y637345D02*
X849264D01*
X843468Y636445D02*
X848364D01*
X836927Y635545D02*
X847464D01*
X835996Y634645D02*
X846564D01*
X834654Y633745D02*
X845664D01*
X809974Y632845D02*
X844764D01*
X809803Y631945D02*
X843864D01*
X809114Y631045D02*
X842964D01*
X808245Y630145D02*
X842064D01*
X808178Y629245D02*
X841164D01*
X808167Y628345D02*
X840264D01*
X808156Y627445D02*
X839364D01*
X808144Y626545D02*
X838464D01*
X823942Y625645D02*
X837564D01*
X825460Y624745D02*
X836664D01*
X825964Y623845D02*
X835764D01*
X826099Y622945D02*
X834864D01*
X825926Y622045D02*
X833964D01*
X825500Y621145D02*
X833064D01*
X825500Y620245D02*
X832164D01*
X827901Y619345D02*
X831264D01*
X829141Y618445D02*
X830364D01*
X812527Y642745D02*
X828413D01*
X809974Y652645D02*
X828335D01*
X809974Y662545D02*
X828233D01*
X809974Y653545D02*
X827886D01*
X812527Y643645D02*
X827590D01*
X809974Y633745D02*
X827346D01*
X812527Y641845D02*
X826609D01*
X809974Y651745D02*
X826468D01*
X809974Y661645D02*
X826337D01*
X809974Y654445D02*
X826226D01*
X812462Y644545D02*
X826112D01*
X825927Y619345D02*
X826073D01*
X809974Y634645D02*
X826004D01*
X812527Y640945D02*
X825626D01*
X809974Y650845D02*
X825547D01*
X809974Y660745D02*
X825472D01*
X809974Y655345D02*
X825407D01*
X812215Y645445D02*
X825340D01*
X809974Y635545D02*
X825276D01*
X812523Y640045D02*
X825049D01*
X809974Y649945D02*
X825002D01*
X809974Y659845D02*
X824957D01*
X809974Y656245D02*
X824919D01*
X811750Y646345D02*
X824880D01*
X810582Y636445D02*
X824843D01*
X812399Y639145D02*
X824719D01*
X809974Y649045D02*
X824694D01*
X809974Y658945D02*
X824673D01*
X809974Y657145D02*
X824655D01*
X810970Y647245D02*
X824637D01*
X811526Y637345D02*
X824622D01*
X812083Y638245D02*
X824582D01*
X809980Y648145D02*
X824578D01*
X809974Y658045D02*
X824576D01*
X808906Y625645D02*
X822858D01*
X809332Y624745D02*
X821340D01*
X808797Y620245D02*
X821300D01*
X808194Y619345D02*
X821300D01*
X808095Y618445D02*
X821300D01*
X807515Y617545D02*
X821300D01*
X806615Y616645D02*
X821300D01*
X805715Y615745D02*
X821300D01*
X805100Y614845D02*
X821300D01*
X805100Y613945D02*
X821300D01*
X805100Y613045D02*
X821300D01*
X805100Y612145D02*
X821300D01*
X805118Y611245D02*
X821300D01*
X805925Y610345D02*
X821300D01*
X809313Y621145D02*
X821300D01*
X806834Y609445D02*
X821058D01*
X809350Y622045D02*
X820874D01*
X809350Y623845D02*
X820836D01*
X809350Y622945D02*
X820701D01*
X809100Y598645D02*
X811987D01*
X809396Y597745D02*
X811987D01*
X808819Y587845D02*
X811987D01*
X685227Y586945D02*
X811987D01*
X686127Y586045D02*
X811987D01*
X687027Y585145D02*
X811987D01*
X687927Y584245D02*
X811987D01*
X809583Y588745D02*
X811983D01*
X809863Y596845D02*
X811743D01*
X809946Y589645D02*
X811660D01*
X809100Y599545D02*
X811629D01*
X810037Y595945D02*
X811569D01*
X810043Y595045D02*
X811564D01*
X810043Y594145D02*
X811564D01*
X810043Y593245D02*
X811564D01*
X810043Y592345D02*
X811564D01*
X810043Y591445D02*
X811564D01*
X810043Y590545D02*
X811564D01*
X688827Y583345D02*
X811373D01*
X809100Y600445D02*
X811177D01*
X809100Y602245D02*
X811050D01*
X809100Y601345D02*
X811050D01*
X809699Y603145D02*
X811036D01*
X809945Y608545D02*
X810867D01*
X689727Y582445D02*
X810473D01*
X690627Y581545D02*
X809573D01*
X691527Y580645D02*
X808673D01*
X759637Y675145D02*
X806286D01*
X759637Y662545D02*
X805774D01*
X759637Y661645D02*
X805774D01*
X759637Y660745D02*
X805774D01*
X759637Y659845D02*
X805774D01*
X759637Y658945D02*
X805774D01*
X759637Y658045D02*
X805774D01*
X759637Y657145D02*
X805774D01*
X759637Y656245D02*
X805774D01*
X759637Y655345D02*
X805774D01*
X759637Y654445D02*
X805774D01*
X759637Y653545D02*
X805774D01*
X759637Y652645D02*
X805774D01*
X759637Y651745D02*
X805774D01*
X759637Y650845D02*
X805774D01*
X759637Y649945D02*
X805774D01*
X759637Y649045D02*
X805774D01*
X801588Y648145D02*
X805768D01*
X759637Y663445D02*
X805166D01*
X759637Y674245D02*
X804778D01*
X803096Y647245D02*
X804778D01*
X759637Y664345D02*
X804222D01*
X759637Y673345D02*
X803998D01*
X759637Y665245D02*
X803665D01*
X759637Y672445D02*
X803533D01*
X759637Y666145D02*
X803349D01*
X759637Y671545D02*
X803286D01*
X759637Y667045D02*
X803225D01*
X759637Y670645D02*
X803221D01*
X759637Y669745D02*
X803221D01*
X759637Y668845D02*
X803221D01*
X759637Y667945D02*
X803221D01*
X779462Y648145D02*
X798412D01*
X789127Y631945D02*
X797494D01*
X788227Y632845D02*
X797488D01*
X787327Y633745D02*
X797482D01*
X786427Y634645D02*
X797477D01*
X785527Y635545D02*
X797471D01*
X789923Y631045D02*
X797401D01*
X784627Y636445D02*
X797289D01*
X780970Y647245D02*
X796904D01*
X783727Y637345D02*
X796348D01*
X781750Y646345D02*
X796124D01*
X782827Y638245D02*
X795791D01*
X782215Y645445D02*
X795659D01*
X782399Y639145D02*
X795475D01*
X782462Y644545D02*
X795412D01*
X782523Y640045D02*
X795351D01*
X782527Y643645D02*
X795347D01*
X782527Y642745D02*
X795347D01*
X782527Y641845D02*
X795347D01*
X782527Y640945D02*
X795347D01*
X759637Y628345D02*
X785976D01*
X759637Y627445D02*
X785963D01*
X759637Y626545D02*
X785950D01*
X759637Y629245D02*
X785881D01*
X759637Y630145D02*
X784987D01*
X759637Y619345D02*
X784649D01*
X759637Y618445D02*
X784155D01*
X759637Y615745D02*
X784150D01*
X759637Y614845D02*
X784150D01*
X759637Y613945D02*
X784150D01*
X759637Y613045D02*
X784150D01*
X759637Y612145D02*
X784150D01*
X759637Y611245D02*
X784150D01*
X759637Y631045D02*
X784087D01*
X759637Y616645D02*
X783981D01*
X759637Y617545D02*
X783911D01*
X759637Y610345D02*
X783880D01*
X684327Y587845D02*
X783851D01*
X651061Y601345D02*
X783550D01*
X671650Y600445D02*
X783550D01*
X672627Y599545D02*
X783550D01*
X673527Y598645D02*
X783550D01*
X651050Y602245D02*
X783290D01*
X674427Y597745D02*
X783273D01*
X759637Y631945D02*
X783187D01*
X683427Y588745D02*
X783086D01*
X759637Y609445D02*
X782960D01*
X675327Y596845D02*
X782806D01*
X682527Y589645D02*
X782723D01*
X676227Y595945D02*
X782632D01*
X677127Y595045D02*
X782627D01*
X678027Y594145D02*
X782627D01*
X678927Y593245D02*
X782627D01*
X679827Y592345D02*
X782627D01*
X680727Y591445D02*
X782627D01*
X681627Y590545D02*
X782627D01*
X759637Y632845D02*
X782287D01*
X759637Y633745D02*
X781387D01*
X759637Y634645D02*
X780487D01*
X777699Y603145D02*
X780105D01*
X777961Y608545D02*
X779855D01*
X759637Y635545D02*
X779587D01*
X775797Y620245D02*
X779203D01*
X778242Y625645D02*
X779090D01*
X775906D02*
X777158D01*
X759637Y648145D02*
X776286D01*
X759637Y636445D02*
X775166D01*
X759637Y647245D02*
X774778D01*
X759637Y637345D02*
X774222D01*
X759637Y646345D02*
X773998D01*
X759637Y638245D02*
X773665D01*
X759637Y645445D02*
X773533D01*
X759637Y639145D02*
X773349D01*
X759637Y644545D02*
X773286D01*
X759637Y640045D02*
X773225D01*
X759637Y643645D02*
X773221D01*
X759637Y642745D02*
X773221D01*
X759637Y641845D02*
X773221D01*
X759637Y640945D02*
X773221D01*
X651050Y603145D02*
X772301D01*
X759637Y608545D02*
X772055D01*
X651050Y604045D02*
X771828D01*
X759519Y607645D02*
X771800D01*
X758693Y606745D02*
X771800D01*
X651050Y605845D02*
X771800D01*
X651050Y604945D02*
X771800D01*
X759637Y620245D02*
X770203D01*
X759637Y625645D02*
X770094D01*
X759637Y621145D02*
X769687D01*
X759637Y624745D02*
X769668D01*
X759637Y623845D02*
X769650D01*
X759637Y622945D02*
X769650D01*
X759637Y622045D02*
X769650D01*
X693622Y550045D02*
X749502D01*
X692722Y549145D02*
X749500D01*
X691822Y548245D02*
X749500D01*
X690922Y547345D02*
X749500D01*
X690022Y546445D02*
X749500D01*
X689122Y545545D02*
X749500D01*
X688222Y544645D02*
X749500D01*
X687322Y543745D02*
X749500D01*
X686422Y542845D02*
X749500D01*
X685522Y541945D02*
X749500D01*
X684622Y541045D02*
X749500D01*
X683722Y540145D02*
X749500D01*
X682822Y539245D02*
X749500D01*
X681922Y538345D02*
X749500D01*
X681022Y537445D02*
X749463D01*
X675498Y606745D02*
X690252D01*
X680454Y536545D02*
X689722D01*
X677104Y607645D02*
X689426D01*
X680903Y535645D02*
X689321D01*
X501700Y678745D02*
X689308D01*
X501700Y677845D02*
X689308D01*
X501700Y676945D02*
X689308D01*
X501700Y676045D02*
X689308D01*
X501700Y675145D02*
X689308D01*
X501700Y674245D02*
X689308D01*
X501700Y673345D02*
X689308D01*
X501700Y672445D02*
X689308D01*
X501700Y671545D02*
X689308D01*
X501700Y670645D02*
X689308D01*
X501700Y669745D02*
X689308D01*
X501700Y668845D02*
X689308D01*
X501700Y667945D02*
X689308D01*
X501700Y667045D02*
X689308D01*
X555865Y666145D02*
X689308D01*
X556787Y665245D02*
X689308D01*
X557687Y664345D02*
X689308D01*
X558587Y663445D02*
X689308D01*
X628154Y662545D02*
X689308D01*
X629682Y661645D02*
X689308D01*
X630582Y660745D02*
X689308D01*
X631482Y659845D02*
X689308D01*
X632382Y658945D02*
X689308D01*
X633282Y658045D02*
X689308D01*
X634182Y657145D02*
X689308D01*
X635082Y656245D02*
X689308D01*
X635982Y655345D02*
X689308D01*
X636882Y654445D02*
X689308D01*
X637782Y653545D02*
X689308D01*
X638682Y652645D02*
X689308D01*
X639582Y651745D02*
X689308D01*
X640482Y650845D02*
X689308D01*
X641896Y649945D02*
X689308D01*
X642427Y649045D02*
X689308D01*
X642613Y648145D02*
X689308D01*
X642786Y647245D02*
X689308D01*
X642736Y646345D02*
X689308D01*
X642500Y645445D02*
X689308D01*
X642500Y644545D02*
X689308D01*
X642500Y643645D02*
X689308D01*
X642500Y642745D02*
X689308D01*
X659304Y641845D02*
X689308D01*
X675232Y640945D02*
X689308D01*
X676817Y640045D02*
X689308D01*
X677618Y639145D02*
X689308D01*
X678096Y638245D02*
X689308D01*
X678352Y637345D02*
X689308D01*
X678424Y636445D02*
X689308D01*
X678320Y635545D02*
X689308D01*
X678027Y634645D02*
X689308D01*
X677501Y633745D02*
X689308D01*
X676666Y632845D02*
X689308D01*
X677060Y631945D02*
X689308D01*
X677763Y631045D02*
X689308D01*
X678179Y630145D02*
X689308D01*
X678387Y629245D02*
X689308D01*
X678414Y628345D02*
X689308D01*
X678265Y627445D02*
X689308D01*
X677919Y626545D02*
X689308D01*
X677321Y625645D02*
X689308D01*
X676296Y624745D02*
X689308D01*
X661451Y623845D02*
X689308D01*
X660551Y622945D02*
X689308D01*
X659651Y622045D02*
X689308D01*
X658177Y621145D02*
X689308D01*
X642500Y620245D02*
X689308D01*
X642500Y619345D02*
X689308D01*
X642500Y618445D02*
X689308D01*
X642500Y617545D02*
X689308D01*
X642500Y616645D02*
X689308D01*
X674939Y615745D02*
X689308D01*
X676930Y614845D02*
X689308D01*
X677809Y613945D02*
X689308D01*
X678332Y613045D02*
X689308D01*
X678622Y612145D02*
X689308D01*
X678724Y611245D02*
X689308D01*
X678650Y610345D02*
X689308D01*
X678391Y609445D02*
X689308D01*
X677911Y608545D02*
X689308D01*
X680950Y534745D02*
X689308D01*
X680950Y533845D02*
X689308D01*
X684040Y532945D02*
X689308D01*
X684641Y532045D02*
X689308D01*
X684700Y531145D02*
X689308D01*
X684700Y530245D02*
X689308D01*
X684700Y529345D02*
X689308D01*
X684700Y528445D02*
X689308D01*
X684700Y527545D02*
X689308D01*
X684700Y526645D02*
X689308D01*
X684569Y525745D02*
X689308D01*
X683687Y524845D02*
X689308D01*
X680950Y523945D02*
X689308D01*
X680950Y523045D02*
X689308D01*
X680839Y522145D02*
X689308D01*
X680041Y521245D02*
X689308D01*
X679100Y520345D02*
X689308D01*
X679100Y519445D02*
X689308D01*
X679100Y518545D02*
X689308D01*
X679100Y517645D02*
X689308D01*
X679100Y516745D02*
X689308D01*
X679709Y515845D02*
X689308D01*
X680174Y514945D02*
X689308D01*
X680200Y514045D02*
X689308D01*
X680200Y513145D02*
X689308D01*
X680200Y512245D02*
X689308D01*
X680200Y511345D02*
X689308D01*
X679939Y510445D02*
X689308D01*
X501700Y509545D02*
X689308D01*
X501700Y508645D02*
X689308D01*
X501700Y507745D02*
X689308D01*
X501700Y506845D02*
X689308D01*
X501700Y505945D02*
X689308D01*
X501700Y505045D02*
X689308D01*
X501700Y504145D02*
X689308D01*
X501700Y503245D02*
X689308D01*
X501700Y502345D02*
X689308D01*
X667100Y520345D02*
X674900D01*
X667100Y519445D02*
X674900D01*
X667100Y518545D02*
X674900D01*
X667100Y517645D02*
X674900D01*
X667100Y516745D02*
X674900D01*
X667709Y515845D02*
X674291D01*
X667939Y510445D02*
X674061D01*
X668041Y521245D02*
X673959D01*
X668174Y514945D02*
X673826D01*
X668200Y511345D02*
X673800D01*
X668200Y514045D02*
X673800D01*
X668200Y513145D02*
X673800D01*
X668200Y512245D02*
X673800D01*
X668839Y522145D02*
X673161D01*
X668950Y523945D02*
X673050D01*
X668950Y523045D02*
X673050D01*
X642828Y615745D02*
X669661D01*
X651354Y606745D02*
X669102D01*
X660751Y640945D02*
X668768D01*
X662351Y624745D02*
X667704D01*
X643000Y614845D02*
X667670D01*
X652269Y607645D02*
X667496D01*
X661651Y640045D02*
X667183D01*
X661627Y613945D02*
X666747D01*
X663282Y625645D02*
X666635D01*
X655100Y520345D02*
X662900D01*
X655100Y519445D02*
X662900D01*
X655100Y518545D02*
X662900D01*
X655100Y517645D02*
X662900D01*
X655100Y516745D02*
X662900D01*
X655709Y515845D02*
X662291D01*
X655939Y510445D02*
X662061D01*
X656041Y521245D02*
X661959D01*
X656174Y514945D02*
X661826D01*
X656200Y511345D02*
X661800D01*
X656200Y514045D02*
X661800D01*
X656200Y513145D02*
X661800D01*
X656200Y512245D02*
X661800D01*
X656839Y522145D02*
X661161D01*
X656950Y523945D02*
X661050D01*
X656950Y523045D02*
X661050D01*
X654805Y613945D02*
X656191D01*
X643100Y520345D02*
X650900D01*
X643100Y519445D02*
X650900D01*
X643100Y518545D02*
X650900D01*
X643100Y517645D02*
X650900D01*
X643100Y516745D02*
X650900D01*
X643709Y515845D02*
X650291D01*
X643939Y510445D02*
X650061D01*
X644041Y521245D02*
X649959D01*
X644174Y514945D02*
X649826D01*
X644200Y511345D02*
X649800D01*
X644200Y514045D02*
X649800D01*
X644200Y513145D02*
X649800D01*
X644200Y512245D02*
X649800D01*
X644839Y522145D02*
X649161D01*
X644950Y523945D02*
X649050D01*
X644950Y523045D02*
X649050D01*
X643000Y613945D02*
X648995D01*
X643000Y613045D02*
X648549D01*
X643000Y612145D02*
X648408D01*
X643000Y611245D02*
X647510D01*
X643000Y610345D02*
X646610D01*
X643000Y609445D02*
X645749D01*
X642938Y608545D02*
X645285D01*
X642500Y621145D02*
X645165D01*
X642327Y607645D02*
X645150D01*
X584182Y606745D02*
X645150D01*
X584200Y605845D02*
X645150D01*
X642713Y604945D02*
X645150D01*
X642999Y604045D02*
X645150D01*
X643000Y603145D02*
X645150D01*
X643000Y602245D02*
X645150D01*
X643011Y601345D02*
X645139D01*
X642500Y641845D02*
X645099D01*
X642574Y622045D02*
X643437D01*
X642580Y640945D02*
X643428D01*
X631100Y520345D02*
X638900D01*
X631100Y519445D02*
X638900D01*
X631100Y518545D02*
X638900D01*
X631100Y517645D02*
X638900D01*
X631100Y516745D02*
X638900D01*
X631709Y515845D02*
X638291D01*
X631939Y510445D02*
X638061D01*
X632041Y521245D02*
X637959D01*
X632174Y514945D02*
X637826D01*
X632200Y511345D02*
X637800D01*
X632200Y514045D02*
X637800D01*
X632200Y513145D02*
X637800D01*
X632200Y512245D02*
X637800D01*
X632839Y522145D02*
X637161D01*
X632950Y523945D02*
X637050D01*
X632950Y523045D02*
X637050D01*
X583756Y607645D02*
X635273D01*
X619056Y645445D02*
X635100D01*
X619956Y644545D02*
X635100D01*
X620856Y643645D02*
X635100D01*
X621756Y642745D02*
X635100D01*
X631210Y641845D02*
X635100D01*
X632881Y640945D02*
X635100D01*
X633441Y640045D02*
X635100D01*
X633633Y639145D02*
X635100D01*
X633536Y638245D02*
X635100D01*
X633114Y637345D02*
X635100D01*
X632535Y636445D02*
X635100D01*
X633188Y635545D02*
X635100D01*
X633564Y634645D02*
X635100D01*
X633626Y633745D02*
X635100D01*
X633395Y632845D02*
X635100D01*
X632775Y631945D02*
X635100D01*
X632785Y631045D02*
X635100D01*
X633400Y630145D02*
X635100D01*
X633627Y629245D02*
X635100D01*
X633562Y628345D02*
X635100D01*
X633181Y627445D02*
X635100D01*
X632534Y626545D02*
X635100D01*
X633121Y625645D02*
X635100D01*
X633539Y624745D02*
X635100D01*
X633633Y623845D02*
X635100D01*
X633437Y622945D02*
X635100D01*
X632872Y622045D02*
X635100D01*
X631144Y621145D02*
X635100D01*
X620072Y620245D02*
X635100D01*
X619172Y619345D02*
X635100D01*
X618268Y618445D02*
X635100D01*
X615057Y617545D02*
X635100D01*
X599828Y616645D02*
X635100D01*
X584200Y604945D02*
X634887D01*
X581856Y615745D02*
X634772D01*
X581725Y608545D02*
X634662D01*
X589566Y597745D02*
X634619D01*
X590466Y596845D02*
X634603D01*
X584200Y604045D02*
X634601D01*
X581700Y614845D02*
X634600D01*
X581700Y613945D02*
X634600D01*
X581700Y613045D02*
X634600D01*
X581700Y612145D02*
X634600D01*
X581700Y611245D02*
X634600D01*
X581700Y610345D02*
X634600D01*
X581700Y609445D02*
X634600D01*
X584231Y603145D02*
X634600D01*
X585066Y602245D02*
X634600D01*
X585966Y601345D02*
X634600D01*
X586866Y600445D02*
X634600D01*
X587766Y599545D02*
X634600D01*
X588666Y598645D02*
X634600D01*
X618156Y646345D02*
X634517D01*
X617256Y647245D02*
X633617D01*
X616337Y648145D02*
X632717D01*
X615600Y649045D02*
X631817D01*
X615600Y649945D02*
X630917D01*
X615600Y650845D02*
X630017D01*
X615578Y651745D02*
X629117D01*
X615134Y652645D02*
X628217D01*
X614350Y653545D02*
X627317D01*
X619100Y520345D02*
X626900D01*
X619100Y519445D02*
X626900D01*
X619100Y518545D02*
X626900D01*
X619100Y517645D02*
X626900D01*
X619100Y516745D02*
X626900D01*
X614350Y654445D02*
X626417D01*
X619709Y515845D02*
X626291D01*
X619939Y510445D02*
X626061D01*
X620041Y521245D02*
X625959D01*
X620174Y514945D02*
X625826D01*
X620200Y511345D02*
X625800D01*
X620200Y514045D02*
X625800D01*
X620200Y513145D02*
X625800D01*
X620200Y512245D02*
X625800D01*
X620839Y522145D02*
X625161D01*
X620950Y523945D02*
X625050D01*
X620950Y523045D02*
X625050D01*
X620972Y621145D02*
X624856D01*
X622656Y641845D02*
X624790D01*
X607100Y520345D02*
X614900D01*
X607100Y519445D02*
X614900D01*
X607100Y518545D02*
X614900D01*
X607100Y517645D02*
X614900D01*
X607100Y516745D02*
X614900D01*
X607709Y515845D02*
X614291D01*
X607939Y510445D02*
X614061D01*
X608041Y521245D02*
X613959D01*
X608174Y514945D02*
X613826D01*
X608200Y511345D02*
X613800D01*
X608200Y514045D02*
X613800D01*
X608200Y513145D02*
X613800D01*
X608200Y512245D02*
X613800D01*
X573800Y631945D02*
X613209D01*
X608839Y522145D02*
X613161D01*
X608950Y523945D02*
X613050D01*
X608950Y523045D02*
X613050D01*
X567352Y654445D02*
X610150D01*
X566433Y653545D02*
X610150D01*
X608039Y632845D02*
X609961D01*
X608078Y639145D02*
X609649D01*
X608359Y631045D02*
X609641D01*
X573800Y640045D02*
X609115D01*
X573800Y640945D02*
X608576D01*
X572756Y644545D02*
X608532D01*
X573539Y643645D02*
X608532D01*
X573797Y642745D02*
X608532D01*
X573800Y641845D02*
X608532D01*
X571856Y645445D02*
X608111D01*
X570956Y646345D02*
X607211D01*
X600412Y632845D02*
X603961D01*
X600429Y639145D02*
X603922D01*
X600583Y631045D02*
X603641D01*
X599797Y647245D02*
X603427D01*
X599906Y652645D02*
X603366D01*
X601088Y617545D02*
X602943D01*
X595100Y520345D02*
X602900D01*
X595100Y519445D02*
X602900D01*
X595100Y518545D02*
X602900D01*
X595100Y517645D02*
X602900D01*
X595100Y516745D02*
X602900D01*
X601212Y633745D02*
X602806D01*
X601222Y638245D02*
X602797D01*
X601366Y630145D02*
X602652D01*
X595709Y515845D02*
X602291D01*
X595939Y510445D02*
X602061D01*
X596041Y521245D02*
X601959D01*
X596174Y514945D02*
X601826D01*
X596200Y511345D02*
X601800D01*
X596200Y514045D02*
X601800D01*
X596200Y513145D02*
X601800D01*
X596200Y512245D02*
X601800D01*
X596839Y522145D02*
X601161D01*
X596950Y523945D02*
X601050D01*
X596950Y523045D02*
X601050D01*
X596248Y655345D02*
X598752D01*
X596341Y662545D02*
X598659D01*
X596681Y656245D02*
X598319D01*
X596694Y661645D02*
X598306D01*
X596700Y660745D02*
X598300D01*
X596700Y659845D02*
X598300D01*
X596700Y658945D02*
X598300D01*
X596700Y658045D02*
X598300D01*
X596700Y657145D02*
X598300D01*
X593923Y616645D02*
X595983D01*
X573800Y632845D02*
X595399D01*
X573800Y639145D02*
X595382D01*
X594678Y631045D02*
X595228D01*
X573800Y633745D02*
X594635D01*
X573800Y638245D02*
X594631D01*
X573800Y637345D02*
X594532D01*
X573800Y636445D02*
X594532D01*
X573800Y635545D02*
X594532D01*
X573800Y634645D02*
X594532D01*
X569892Y647245D02*
X594203D01*
X567137Y652645D02*
X594094D01*
X567633Y648145D02*
X593687D01*
X567606Y651745D02*
X593668D01*
X567633Y650845D02*
X593650D01*
X567633Y649945D02*
X593650D01*
X567633Y649045D02*
X593650D01*
X583200Y520345D02*
X590900D01*
X583200Y519445D02*
X590900D01*
X583200Y518545D02*
X590900D01*
X583200Y517645D02*
X590900D01*
X583200Y516745D02*
X590900D01*
X583709Y515845D02*
X590291D01*
X582756Y616645D02*
X590077D01*
X583939Y510445D02*
X590061D01*
X584041Y521245D02*
X589959D01*
X584174Y514945D02*
X589826D01*
X584200Y511345D02*
X589800D01*
X584200Y514045D02*
X589800D01*
X584200Y513145D02*
X589800D01*
X584200Y512245D02*
X589800D01*
X573800Y631045D02*
X589323D01*
X584839Y522145D02*
X589161D01*
X584950Y523945D02*
X589050D01*
X584950Y523045D02*
X589050D01*
X583656Y617545D02*
X588817D01*
X567862Y655345D02*
X587712D01*
X573800Y630145D02*
X583512D01*
X573800Y629245D02*
X582134D01*
X573800Y628345D02*
X581234D01*
X574222Y627445D02*
X580334D01*
X574400Y626545D02*
X579434D01*
X571200Y520345D02*
X578800D01*
X571200Y519445D02*
X578800D01*
X571200Y518545D02*
X578800D01*
X571200Y517645D02*
X578800D01*
X571200Y516745D02*
X578800D01*
X574790Y625645D02*
X578534D01*
X571709Y515845D02*
X578291D01*
X571939Y510445D02*
X578061D01*
X572041Y521245D02*
X577959D01*
X572174Y514945D02*
X577826D01*
X572200Y511345D02*
X577800D01*
X572200Y514045D02*
X577800D01*
X572200Y513145D02*
X577800D01*
X572200Y512245D02*
X577800D01*
X574996Y624745D02*
X577634D01*
X572839Y522145D02*
X577161D01*
X572950Y523945D02*
X577050D01*
X572950Y523045D02*
X577050D01*
X574892Y623845D02*
X576734D01*
X574435Y622945D02*
X575834D01*
X552700Y559045D02*
X575404D01*
X573173Y622045D02*
X574726D01*
X552700Y559945D02*
X574719D01*
X552700Y558145D02*
X574688D01*
X552700Y560845D02*
X574105D01*
X552685Y557245D02*
X574086D01*
X512100Y621145D02*
X574034D01*
X552436Y564445D02*
X573766D01*
X552700Y561745D02*
X573748D01*
X552456Y556345D02*
X573738D01*
X552695Y563545D02*
X573608D01*
X552700Y562645D02*
X573589D01*
X552456Y555445D02*
X573315D01*
X512100Y620245D02*
X573264D01*
X551528Y565345D02*
X573028D01*
X512100Y619345D02*
X573005D01*
X512100Y618445D02*
X573000D01*
X512100Y617545D02*
X573000D01*
X512100Y616645D02*
X573000D01*
X512100Y615745D02*
X573000D01*
X512100Y614845D02*
X573000D01*
X512100Y613945D02*
X573000D01*
X512100Y613045D02*
X573000D01*
X512100Y612145D02*
X573000D01*
X512100Y611245D02*
X573000D01*
X512100Y610345D02*
X573000D01*
X552203Y609445D02*
X573000D01*
X552818Y608545D02*
X572975D01*
X552456Y554545D02*
X572415D01*
X550415Y566245D02*
X572128D01*
X552481Y553645D02*
X571515D01*
X570373Y622045D02*
X571427D01*
X521399Y567145D02*
X571228D01*
X537988Y538345D02*
X571222D01*
X553306Y552745D02*
X570615D01*
X538646Y537445D02*
X570475D01*
X521399Y568045D02*
X570328D01*
X554206Y551845D02*
X569715D01*
X521399Y568945D02*
X569428D01*
X555151Y550945D02*
X568770D01*
X512100Y622045D02*
X568627D01*
X521399Y569845D02*
X568528D01*
X544688Y635545D02*
X568000D01*
X544763Y634645D02*
X568000D01*
X544660Y633745D02*
X568000D01*
X544366Y632845D02*
X568000D01*
X543836Y631945D02*
X568000D01*
X542939Y631045D02*
X568000D01*
X540720Y630145D02*
X568000D01*
X512100Y629245D02*
X568000D01*
X512100Y628345D02*
X568000D01*
X567117Y636445D02*
X567881D01*
X521399Y570745D02*
X567628D01*
X512100Y627445D02*
X567578D01*
X512100Y626545D02*
X567400D01*
X512100Y622945D02*
X567367D01*
X512100Y625645D02*
X567010D01*
X512100Y623845D02*
X566908D01*
X512100Y624745D02*
X566804D01*
X501700Y520345D02*
X566800D01*
X501700Y519445D02*
X566800D01*
X501700Y518545D02*
X566800D01*
X501700Y517645D02*
X566800D01*
X501700Y516745D02*
X566800D01*
X521399Y571645D02*
X566728D01*
X501700Y515845D02*
X566291D01*
X552881Y607645D02*
X566244D01*
X501700Y510445D02*
X566061D01*
X501700Y521245D02*
X565959D01*
X521391Y572545D02*
X565828D01*
X501700Y514945D02*
X565826D01*
X552881Y606745D02*
X565818D01*
X501700Y511345D02*
X565800D01*
X552881Y605845D02*
X565800D01*
X501700Y514045D02*
X565800D01*
X501700Y513145D02*
X565800D01*
X501700Y512245D02*
X565800D01*
X538721Y536545D02*
X565649D01*
X501700Y522145D02*
X565161D01*
X538721Y535645D02*
X565097D01*
X538721Y534745D02*
X565050D01*
X538721Y533845D02*
X565050D01*
X501700Y523945D02*
X565050D01*
X501700Y523045D02*
X565050D01*
X521024Y573445D02*
X564928D01*
X501700Y574345D02*
X564028D01*
X501700Y575245D02*
X563128D01*
X501700Y524845D02*
X562313D01*
X501700Y576145D02*
X562228D01*
X538721Y532945D02*
X561960D01*
X501700Y525745D02*
X561431D01*
X538721Y532045D02*
X561359D01*
X501700Y577045D02*
X561328D01*
X538721Y531145D02*
X561300D01*
X538672Y530245D02*
X561300D01*
X538112Y529345D02*
X561300D01*
X501700Y528445D02*
X561300D01*
X501700Y527545D02*
X561300D01*
X501700Y526645D02*
X561300D01*
X501700Y577945D02*
X560428D01*
X501700Y578845D02*
X559528D01*
X501700Y579745D02*
X558628D01*
X544683Y653545D02*
X555590D01*
X544427Y636445D02*
X554907D01*
X544415Y652645D02*
X554887D01*
X544763Y654445D02*
X554672D01*
X512100Y644545D02*
X554623D01*
X543940Y637345D02*
X554421D01*
X543920Y651745D02*
X554417D01*
X512100Y645445D02*
X554393D01*
X512100Y643645D02*
X554392D01*
X544666Y655345D02*
X554391D01*
X544378Y656245D02*
X554391D01*
X543084Y650845D02*
X554391D01*
X541321Y649945D02*
X554391D01*
X512100Y649045D02*
X554391D01*
X512100Y648145D02*
X554391D01*
X512100Y647245D02*
X554391D01*
X512100Y646345D02*
X554391D01*
X512100Y642745D02*
X554391D01*
X512100Y641845D02*
X554391D01*
X512100Y640945D02*
X554391D01*
X512100Y640045D02*
X554391D01*
X541423Y639145D02*
X554391D01*
X543118Y638245D02*
X554391D01*
X543857Y657145D02*
X554359D01*
X542975Y658045D02*
X553522D01*
X541681Y658945D02*
X552622D01*
X525638Y539245D02*
X549194D01*
X526589Y540145D02*
X548232D01*
X527233Y541045D02*
X547332D01*
X527547Y541945D02*
X546432D01*
X521399Y566245D02*
X545774D01*
X527618Y542845D02*
X545532D01*
X527460Y543745D02*
X544632D01*
X536455Y609445D02*
X543860D01*
X527040Y544645D02*
X543732D01*
X537070Y608545D02*
X543245D01*
X537133Y607645D02*
X543182D01*
X537133Y606745D02*
X543182D01*
X537133Y605845D02*
X543182D01*
X537133Y604945D02*
X543182D01*
X537133Y604045D02*
X543182D01*
X537133Y603145D02*
X543182D01*
X537133Y602245D02*
X543182D01*
X537133Y601345D02*
X543182D01*
X537133Y600445D02*
X543182D01*
X537133Y599545D02*
X543182D01*
X537316Y598645D02*
X543182D01*
X538216Y597745D02*
X543182D01*
X539116Y596845D02*
X543138D01*
X526211Y545545D02*
X542832D01*
X501700Y546445D02*
X541932D01*
X501700Y547345D02*
X541032D01*
X512100Y630145D02*
X539595D01*
X501700Y548245D02*
X539250D01*
X512100Y649945D02*
X538994D01*
X512100Y639145D02*
X538892D01*
X516978Y658945D02*
X538634D01*
X517006Y591445D02*
X538527D01*
X517531Y590545D02*
X538374D01*
X517718Y587845D02*
X538187D01*
X517766Y589645D02*
X538139D01*
X517768Y588745D02*
X538138D01*
X512100Y631045D02*
X537376D01*
X516078Y658045D02*
X537340D01*
X512100Y650845D02*
X537231D01*
X512100Y638245D02*
X537197D01*
X515949Y592345D02*
X536686D01*
X512100Y631945D02*
X536479D01*
X515178Y657145D02*
X536458D01*
X512100Y651745D02*
X536395D01*
X512100Y637345D02*
X536375D01*
X512100Y632845D02*
X535949D01*
X514278Y656245D02*
X535937D01*
X512100Y652645D02*
X535900D01*
X512100Y636445D02*
X535888D01*
X512100Y593245D02*
X535786D01*
X512100Y633745D02*
X535655D01*
X513378Y655345D02*
X535649D01*
X512100Y653545D02*
X535632D01*
X512100Y635545D02*
X535627D01*
X512100Y634645D02*
X535552D01*
X512478Y654445D02*
X535552D01*
X512100Y594145D02*
X534886D01*
X512100Y595045D02*
X533986D01*
X521231Y565345D02*
X532472D01*
X520159Y564445D02*
X531564D01*
X501700Y549145D02*
X531329D01*
X524740Y563545D02*
X531305D01*
X526474Y562645D02*
X531300D01*
X527173Y561745D02*
X531300D01*
X527522Y560845D02*
X531300D01*
X527621Y559945D02*
X531300D01*
X527493Y559045D02*
X531062D01*
X501700Y552745D02*
X531042D01*
X501700Y550045D02*
X530969D01*
X501700Y556345D02*
X530969D01*
X501700Y555445D02*
X530966D01*
X527110Y558145D02*
X530961D01*
X526351Y557245D02*
X530961D01*
X501700Y554545D02*
X530961D01*
X501700Y553645D02*
X530961D01*
X501700Y551845D02*
X530961D01*
X501700Y550945D02*
X530961D01*
X512100Y609445D02*
X528112D01*
X512100Y595945D02*
X527853D01*
X512100Y608545D02*
X527497D01*
X512100Y596845D02*
X527448D01*
X512100Y607645D02*
X527434D01*
X512100Y606745D02*
X527434D01*
X512100Y605845D02*
X527434D01*
X512100Y604945D02*
X527434D01*
X512100Y604045D02*
X527434D01*
X512100Y603145D02*
X527434D01*
X512100Y602245D02*
X527434D01*
X512100Y601345D02*
X527434D01*
X512100Y600445D02*
X527434D01*
X512100Y599545D02*
X527434D01*
X512100Y598645D02*
X527434D01*
X512100Y597745D02*
X527434D01*
X501700Y538345D02*
X524556D01*
X501700Y529345D02*
X524512D01*
X501700Y537445D02*
X523978D01*
X501700Y530245D02*
X523952D01*
X501700Y536545D02*
X523903D01*
X501700Y535645D02*
X523903D01*
X501700Y534745D02*
X523903D01*
X501700Y533845D02*
X523903D01*
X501700Y532945D02*
X523903D01*
X501700Y532045D02*
X523903D01*
X501700Y531145D02*
X523903D01*
X501700Y563545D02*
X523260D01*
X501700Y539245D02*
X522843D01*
X501700Y545545D02*
X521789D01*
X501700Y557245D02*
X521649D01*
X501700Y562645D02*
X521526D01*
X501700Y540145D02*
X521411D01*
X501700Y544645D02*
X520960D01*
X501700Y558145D02*
X520890D01*
X501700Y561745D02*
X520827D01*
X501700Y541045D02*
X520767D01*
X501700Y543745D02*
X520540D01*
X501700Y559045D02*
X520507D01*
X501700Y560845D02*
X520478D01*
X501700Y541945D02*
X520453D01*
X501700Y542845D02*
X520382D01*
X501700Y559945D02*
X520379D01*
X501700Y666145D02*
X513735D01*
X501700Y665245D02*
X512813D01*
X501700Y664345D02*
X511913D01*
X501700Y580645D02*
X511025D01*
X501700Y663445D02*
X511013D01*
X501700Y662545D02*
X510113D01*
X501700Y581545D02*
X509907D01*
X501700Y661645D02*
X509213D01*
X501700Y582445D02*
X509007D01*
X501700Y660745D02*
X508313D01*
X501700Y583345D02*
X508107D01*
X501700Y564445D02*
X507821D01*
X501700Y659845D02*
X507413D01*
X501700Y584245D02*
X507207D01*
X501700Y573445D02*
X506956D01*
X501700Y565345D02*
X506749D01*
X501700Y572545D02*
X506589D01*
X501700Y571645D02*
X506581D01*
X501700Y570745D02*
X506581D01*
X501700Y569845D02*
X506581D01*
X501700Y568945D02*
X506581D01*
X501700Y568045D02*
X506581D01*
X501700Y567145D02*
X506581D01*
X501700Y566245D02*
X506581D01*
X501700Y658945D02*
X506513D01*
X501700Y585145D02*
X506307D01*
X501700Y658045D02*
X505623D01*
X501700Y586045D02*
X505455D01*
X501700Y657145D02*
X505038D01*
X501700Y586945D02*
X504951D01*
X501700Y656245D02*
X504757D01*
X501700Y587845D02*
X504726D01*
X501700Y655345D02*
X504700D01*
X501700Y654445D02*
X504700D01*
X501700Y653545D02*
X504700D01*
X501700Y652645D02*
X504700D01*
X501700Y651745D02*
X504700D01*
X501700Y650845D02*
X504700D01*
X501700Y649945D02*
X504700D01*
X501700Y649045D02*
X504700D01*
X501700Y648145D02*
X504700D01*
X501700Y647245D02*
X504700D01*
X501700Y646345D02*
X504700D01*
X501700Y645445D02*
X504700D01*
X501700Y644545D02*
X504700D01*
X501700Y643645D02*
X504700D01*
X501700Y642745D02*
X504700D01*
X501700Y641845D02*
X504700D01*
X501700Y640945D02*
X504700D01*
X501700Y640045D02*
X504700D01*
X501700Y639145D02*
X504700D01*
X501700Y638245D02*
X504700D01*
X501700Y637345D02*
X504700D01*
X501700Y636445D02*
X504700D01*
X501700Y635545D02*
X504700D01*
X501700Y634645D02*
X504700D01*
X501700Y633745D02*
X504700D01*
X501700Y632845D02*
X504700D01*
X501700Y631945D02*
X504700D01*
X501700Y631045D02*
X504700D01*
X501700Y630145D02*
X504700D01*
X501700Y629245D02*
X504700D01*
X501700Y628345D02*
X504700D01*
X501700Y627445D02*
X504700D01*
X501700Y626545D02*
X504700D01*
X501700Y625645D02*
X504700D01*
X501700Y624745D02*
X504700D01*
X501700Y623845D02*
X504700D01*
X501700Y622945D02*
X504700D01*
X501700Y622045D02*
X504700D01*
X501700Y621145D02*
X504700D01*
X501700Y620245D02*
X504700D01*
X501700Y619345D02*
X504700D01*
X501700Y618445D02*
X504700D01*
X501700Y617545D02*
X504700D01*
X501700Y616645D02*
X504700D01*
X501700Y615745D02*
X504700D01*
X501700Y614845D02*
X504700D01*
X501700Y613945D02*
X504700D01*
X501700Y613045D02*
X504700D01*
X501700Y612145D02*
X504700D01*
X501700Y611245D02*
X504700D01*
X501700Y610345D02*
X504700D01*
X501700Y609445D02*
X504700D01*
X501700Y608545D02*
X504700D01*
X501700Y607645D02*
X504700D01*
X501700Y606745D02*
X504700D01*
X501700Y605845D02*
X504700D01*
X501700Y604945D02*
X504700D01*
X501700Y604045D02*
X504700D01*
X501700Y603145D02*
X504700D01*
X501700Y602245D02*
X504700D01*
X501700Y601345D02*
X504700D01*
X501700Y600445D02*
X504700D01*
X501700Y599545D02*
X504700D01*
X501700Y598645D02*
X504700D01*
X501700Y597745D02*
X504700D01*
X501700Y596845D02*
X504700D01*
X501700Y595945D02*
X504700D01*
X501700Y595045D02*
X504700D01*
X501700Y594145D02*
X504700D01*
X501700Y593245D02*
X504700D01*
X501700Y592345D02*
X504700D01*
X501700Y591445D02*
X504700D01*
X501700Y590545D02*
X504700D01*
X501700Y589645D02*
X504700D01*
X501700Y588745D02*
X504700D01*
X942375Y550945D02*
X944300D01*
X941475Y550045D02*
X944300D01*
X940575Y549145D02*
X944300D01*
X939675Y548245D02*
X944300D01*
X938775Y547345D02*
X944300D01*
X937875Y546445D02*
X944300D01*
X936975Y545545D02*
X944300D01*
X936075Y544645D02*
X944300D01*
X935175Y543745D02*
X944300D01*
X934275Y542845D02*
X944300D01*
X933375Y541945D02*
X944300D01*
X932475Y541045D02*
X944300D01*
X931575Y540145D02*
X944300D01*
X930675Y539245D02*
X944300D01*
X929775Y538345D02*
X944300D01*
X928875Y537445D02*
X944300D01*
X927975Y536545D02*
X944300D01*
X927075Y535645D02*
X944300D01*
X926175Y534745D02*
X944300D01*
X925275Y533845D02*
X944300D01*
X924313Y532945D02*
X944300D01*
X911015Y532045D02*
X944300D01*
X910115Y531145D02*
X944300D01*
X909215Y530245D02*
X944300D01*
X908315Y529345D02*
X944300D01*
X907415Y528445D02*
X944300D01*
X913600Y527545D02*
X944300D01*
X914441Y526645D02*
X944300D01*
X914763Y525745D02*
X944300D01*
X914800Y524845D02*
X944300D01*
X915291Y523945D02*
X944300D01*
X915350Y523045D02*
X944300D01*
X915350Y522145D02*
X944300D01*
X915350Y521245D02*
X944300D01*
X915343Y520345D02*
X944300D01*
X914983Y519445D02*
X944300D01*
X914101Y518545D02*
X944300D01*
X914100Y517645D02*
X944300D01*
X914807Y516745D02*
X944300D01*
X915315Y515845D02*
X944300D01*
X915350Y514945D02*
X944300D01*
X915350Y514045D02*
X944300D01*
X915350Y513145D02*
X944300D01*
X915331Y512245D02*
X944300D01*
X914898Y511345D02*
X944300D01*
X914100Y510445D02*
X944300D01*
X914100Y509545D02*
X944300D01*
X914906Y508645D02*
X944300D01*
X915332Y507745D02*
X944300D01*
X915350Y506845D02*
X944300D01*
X915350Y505945D02*
X944300D01*
X915350Y505045D02*
X944300D01*
X915313Y504145D02*
X944300D01*
X914797Y503245D02*
X944300D01*
X886553Y502345D02*
X944300D01*
X943275Y551845D02*
X944266D01*
X906515Y527545D02*
X910600D01*
X905615Y526645D02*
X909759D01*
X904879Y525745D02*
X909437D01*
X908868Y503245D02*
X909132D01*
X908717Y524845D02*
X909083D01*
X899797Y503245D02*
X903203D01*
X893868D02*
X894132D01*
X500000Y681102D02*
X691008D01*
Y608268*
X757937*
Y681102*
X946000*
Y500000*
X757937*
Y535433*
X691008*
Y500000*
X500000*
Y681102*
X563000Y531600D02*
X683000D01*
Y526400*
X563000*
Y531600*
G54D51*
X593000Y513000D02*
Y525000D01*
X605000Y513000D02*
Y525000D01*
X617000Y513000D02*
Y525000D01*
X629000Y513000D02*
Y525000D01*
X641000Y513000D02*
Y525000D01*
X653000Y513000D02*
Y525000D01*
X665000Y513000D02*
Y525000D01*
X677000Y513000D02*
Y525000D01*
X819800Y512100D02*
Y510751D01*
X828251Y502300*
X873200*
X875600Y504700*
X880248*
X848752D02*
X871700D01*
X874300Y507300*
X887453*
X888853Y508700*
X894150*
X896850Y506000*
X897000*
X891000Y504900D02*
Y506000D01*
X886900Y509900D02*
X889750Y510900D01*
X891000*
Y512000*
X885200Y516800D02*
X886400Y518000D01*
X891000*
X887800Y515400D02*
Y515200D01*
X888200Y514800*
X900799*
X901599Y514000*
X906000*
X880248Y504700D02*
X886318D01*
X887218Y505600*
X891000*
Y506000*
X897000Y512000D02*
X897150D01*
X898550Y510600*
X907400*
X909718Y508282*
X911710Y506000*
X912000*
X911900D02*
X912000D01*
X902000D02*
X906000D01*
X912000Y522000D02*
Y514000D01*
Y506000*
X569000Y533000D02*
X572500Y536500D01*
X581400*
X587100Y542200*
X581000Y533000D02*
X585526D01*
X600326Y547800*
X670200*
X688500Y566100*
X831472*
X593000Y533000D02*
X606200Y546200D01*
X670966*
X688666Y563900*
X839211*
X851200Y551911*
Y551600*
X851400*
X617000Y533000D02*
X627000Y543000D01*
X672291*
X689991Y560700*
X836400*
X843874Y553226*
Y542709*
X605000Y533000D02*
X616600Y544600D01*
X671629*
X671629D02*
X689329Y562300D01*
X689329D02*
X837063D01*
X845363Y554000*
X846000*
X629000Y533000D02*
X637400Y541400D01*
X672955*
X690655Y559100*
X833000*
X839740Y552360*
Y542709*
X653000Y533000D02*
X658100Y538100D01*
X674181*
X691981Y555900*
X827700*
X831472Y552128*
Y542709*
X641000Y533000D02*
X647700Y539700D01*
X673518*
X691318Y557500*
X830300*
X835606Y552194*
Y542709*
X665000Y533000D02*
X668475Y536475D01*
X674819*
X692644Y554300*
X825300*
X827339Y552261*
Y542709*
X677000Y533000D02*
X678000Y534000D01*
Y537393*
X693307Y552700*
X820800*
X823300Y550200*
Y542709*
X828500Y520000D02*
X828800Y519700D01*
X848752*
X863900*
X873900Y509700*
X880248*
X886800Y520200D02*
X888800Y520700D01*
X899000*
X900300Y522000*
X906000*
X897000Y518000D02*
X907850D01*
X911850Y514000*
X912000*
Y522000D02*
X912100Y525300D01*
X536205Y554335D02*
Y554593D01*
X539022*
X540713Y552901*
Y552897*
X551010Y542600*
X576569*
X591460Y557491*
X591491*
X597000Y563000*
X536205Y551185D02*
Y551443D01*
X539022*
X540713Y549751*
X541596*
X550347Y541000*
X577231*
X588266Y552034*
X588300Y552000*
X597000*
X607000*
X617000D02*
X668700D01*
X686600Y569900*
X854100*
X859573Y575373*
X871733*
X873000Y574106*
X878913*
X785638Y542346D02*
X786000Y542709D01*
X802535D02*
Y536165D01*
X807700Y531000*
X806669Y542709D02*
Y537831D01*
X819800Y524700*
Y512100*
X810803Y542709D02*
Y535997D01*
X822000Y524800*
Y510982*
X825982Y507000*
X831019*
X835000Y510981*
Y512211*
X837789Y515000*
X846000*
X846300Y514700*
X848752*
X814937Y542709D02*
Y534963D01*
X824100Y525800*
Y523038*
X827138Y520000*
X828500*
X819071Y542709D02*
Y533429D01*
X822500Y530000*
X825000*
X823300Y542709D02*
X823205D01*
Y534095*
X824500Y532800*
X826200*
X829000Y530000*
X827339Y542709D02*
Y535661D01*
X833000Y530000*
X831472Y542709D02*
Y535528D01*
X837000Y530000*
X835606Y545366D02*
Y542709D01*
Y534594*
X847200Y523000*
X899000*
X910700Y534700*
X923160*
X942300Y553840*
X839740Y542709D02*
Y533760D01*
X848900Y524600*
X898327*
X910027Y536300*
X922497*
X940700Y554503*
X843874Y542709D02*
Y532426D01*
X850100Y526200*
X897654*
X909354Y537900*
X919623*
X935300Y553577*
Y553800*
X938000Y556500*
Y557000*
X848008Y542709D02*
Y532892D01*
X853100Y527800*
X896969*
X908669Y539500*
X918960*
X933300Y553840*
X852142Y542709D02*
Y533369D01*
X856111Y529400*
X896284*
X907984Y541100*
X918297*
X931700Y554503*
Y566600*
X856276Y542709D02*
Y543176D01*
X856900Y543800*
X857000Y558000*
X869500Y553900D02*
X872811Y550589D01*
Y542709*
X867200Y551700D02*
X868677Y550223D01*
Y542709*
X860409D02*
Y533591D01*
X863000Y531000*
X894588*
X903644Y540056*
X864543Y542709D02*
Y535107D01*
X867050Y532600*
X893100*
X904800Y544300*
X914760*
X924300Y553840*
Y581000*
X868677Y542709D02*
Y535723D01*
X870200Y534200*
X891500*
X900900Y543600*
X872811Y542709D02*
Y537378D01*
X874389Y535800*
X889800*
X901600Y547600*
X911323*
X917300Y553577*
Y553800*
X920000Y556500*
Y557000*
X878913Y549303D02*
X910763D01*
X915300Y553840*
X878913Y553437D02*
X896663D01*
X897900Y552200*
X911397*
X913700Y554503*
X903644Y540056D02*
X906288Y542700D01*
X915423*
X926300Y553577*
Y553800*
X929000Y556500*
Y557000*
X903644Y540056D02*
X903700Y540000D01*
X898700Y557200D02*
X902000D01*
Y557000*
X900900Y543600D02*
X903200Y545900D01*
X914097*
X922700Y554503*
X536205Y557484D02*
Y557742D01*
X539023*
X580000Y563000D02*
X587100D01*
X597000D02*
X607000D01*
X617000D02*
X626400Y553600D01*
X668000*
X685900Y571500*
X853437*
X858937Y577000*
X871760*
X857000Y558000D02*
Y566000D01*
X871733Y576973D02*
X871760Y577000D01*
X873000Y578240*
X878913*
X896200Y565900D02*
X902000Y571700D01*
Y573000*
X878913Y557571D02*
X895029D01*
X898800Y553800*
X904699*
X907799Y556900*
X911000Y557000*
X878913Y561705D02*
X894195D01*
X898700Y557200*
X878913Y565839D02*
X896139D01*
X896200Y565900*
X917300Y569100D02*
X920000Y566400D01*
Y563000*
X917300Y569100D02*
Y576400D01*
X917593Y576693*
X920000Y578363*
Y579000*
X907800Y574000D02*
Y566700D01*
X911000Y563500*
Y563000*
X907800Y574000D02*
Y575500D01*
X911000Y578700*
Y579000*
X907900Y563100D02*
X911000Y563000D01*
Y573000D02*
Y569099D01*
X913700Y566399*
Y554503*
X902000Y563000D02*
Y563500D01*
X905600Y567100*
X925900Y569500D02*
X929000Y566400D01*
Y563000*
X925900Y569500D02*
Y575941D01*
X929000Y579041*
Y579000*
X935000Y573700D02*
Y569000D01*
X938000Y566000*
Y563000*
X935000Y573700D02*
Y575700D01*
X938000Y578700*
Y579000*
X920000Y573000D02*
Y569300D01*
X922700Y566600*
Y554503*
X929000Y573000D02*
Y569300D01*
X931700Y566600*
X938000Y573000D02*
Y569100D01*
X940700Y566400*
Y554503*
X571700Y579931D02*
X578731Y572900D01*
X610331*
X613400Y569831*
Y566600*
X617000Y563000*
X571700Y579931D02*
Y582400D01*
X572300Y583000*
Y585000*
X569500D02*
Y583000D01*
X570100Y582400*
Y579269*
X578069Y571300*
X609669*
X611800Y569169*
Y557200*
X617000Y552000*
X798293Y595726D02*
X798402Y595372D01*
Y590445D02*
Y593102D01*
X806669D02*
Y595669D01*
X807000Y596000*
Y606000*
X798402Y593102D02*
Y595372D01*
X831472Y579000D02*
Y584386D01*
X831472*
Y593102*
X827339D02*
Y600050D01*
X830400Y603111*
Y615511*
X857089Y642200*
X883600*
X885400Y644000*
X915000*
X823205Y593102D02*
Y601705D01*
X827000Y605500*
Y606000*
X872811Y593102D02*
Y595760D01*
X868677Y593102D02*
Y599577D01*
X872900Y603800*
Y614144*
X878913Y586507D02*
X899607D01*
X902000Y589000*
X916800Y585600D02*
X920000Y582400D01*
Y579000*
X916800Y585600D02*
Y592200D01*
X920000Y594333*
Y595000*
X907300Y583200D02*
X911000Y579500D01*
Y579000*
X907300Y583200D02*
Y591000D01*
X911000Y594700*
Y595000*
X902000Y579000D02*
Y578700D01*
X905600Y575100*
Y567100*
X902000Y579000D02*
Y579500D01*
X905800Y583300*
X911000Y595000D02*
Y602500D01*
X914500Y606000*
X915000*
X911000Y595000D02*
X920000D01*
X911000Y589000D02*
Y585099D01*
X915300Y580799*
Y553840*
X911000Y595000D02*
X902000D01*
Y594700*
X905800Y590900*
Y583300*
X925000Y583500D02*
X929000Y579500D01*
Y579000*
X925000Y583500D02*
Y590700D01*
X929000Y594700*
Y595000*
X934200Y588900D02*
Y583300D01*
X938000Y579500*
Y579000*
X934200Y588900D02*
Y590900D01*
X938000Y594700*
Y595000*
X920000D02*
X929000D01*
X920000Y589000D02*
Y585300D01*
X924300Y581000*
X938000Y595000D02*
X929000D01*
Y595500*
X929500Y596000*
X929000Y589000D02*
Y585100D01*
X933300Y580800*
Y553840*
X938000Y595000D02*
Y595500D01*
X941755Y599255*
Y612645*
X938000Y589000D02*
Y585100D01*
X942300Y580800*
Y553840*
X651900Y611100D02*
X658900D01*
X803000Y613000D02*
Y610300D01*
X807000Y606300*
Y606000*
X803000Y613000D02*
Y616000D01*
X806100Y619100*
X799000Y606000D02*
Y605500D01*
X802535Y601965*
Y593102*
X827000Y612000D02*
Y616800D01*
X880500Y606500D02*
X881594D01*
X887500Y612406*
X880500Y612500D02*
X880655Y612600D01*
X921000Y606000D02*
X921500D01*
X927300Y600200*
X930900*
X934848Y604148*
Y605693*
X937355Y608200*
X938055*
X929000Y612000D02*
X929700D01*
X933500Y615800*
Y621200*
X921000Y615000D02*
X921500D01*
Y618200*
X928300Y625000*
X929000*
X569500Y624600D02*
Y626600D01*
X570100Y627200*
Y641969*
X597906Y628000D02*
X606000D01*
X597906Y636000D02*
X606000D01*
X597906Y620000D02*
X606000D01*
X612000D02*
X616856D01*
X620856Y624000*
X628000*
X612000Y620000D02*
Y628000D01*
Y636000D02*
X612150D01*
X619150Y629000*
X628000*
X782000Y623000D02*
X777700D01*
X773000*
X796000Y628300D02*
Y603700D01*
X798402Y601298*
Y595372*
X792400Y628100D02*
Y620400D01*
X794268Y618532*
Y593102*
X788000Y623000D02*
X788100Y630002D01*
X806000Y623000D02*
X806100Y631001D01*
X807874Y632775*
Y642000*
X806000Y623000D02*
X806100Y619100D01*
X823400Y623000D02*
Y609500D01*
X824593Y608307*
X827000Y606637*
Y606000*
X874288Y619521D02*
X880655Y613155D01*
Y612600*
X874288Y619521D02*
Y622235D01*
X874443*
X867500Y634711D02*
X870489Y637700D01*
X924400*
X927100Y635000*
X931000*
X867500Y634711D02*
Y617836D01*
X869336Y616000*
X871044*
X872900Y614144*
X871600Y635000D02*
X915000D01*
X887400Y630700D02*
Y622235D01*
X887435*
X878774Y630700D02*
X878774D01*
Y622235*
X896097D02*
X896100D01*
Y630700*
X915000Y635000D02*
X915300D01*
X925300Y625000*
X929000*
X921000Y635000D02*
X921500D01*
X926400Y630100*
X931800*
X936700Y635000*
X937000*
X937100Y628700*
X938055Y627745*
Y621200*
X937000Y635000D02*
Y644000D01*
X938055Y621200D02*
Y616345D01*
X941755Y612645*
X929000Y625000D02*
X929700D01*
X933500Y621200*
X564872Y646600D02*
X565555D01*
X566800Y645355*
X568976*
X571700Y642631*
Y627200*
X572300Y626600*
Y624600*
X564872Y646600D02*
X564872D01*
X561012Y640618D02*
X561824Y641431D01*
X564124*
X564300Y641255*
X566800Y643755*
X568314*
X570100Y641969*
X561012Y648492D02*
X562980D01*
X564872Y646600*
X597000Y650000D02*
X601613D01*
X601637Y649976*
X606250*
X606550*
X610026Y646500*
X615031*
X622531Y639000*
X628000*
X611906Y643000D02*
X620906Y634000D01*
X628000*
X777874Y642000D02*
Y640228D01*
X788100Y630002*
X807874Y642000D02*
Y669000D01*
X831000Y648000D02*
X903700D01*
X856500Y638500D02*
X858300Y640300D01*
X926800*
X930500Y644000*
X931000*
X921000D02*
X921500D01*
X925500Y648000*
X932700*
X936700Y644000*
X937000*
X590906Y659094D02*
X591000Y659000D01*
X592000*
X612106D02*
X612250Y658856D01*
Y649976*
X612200Y658600D02*
X612350Y658450D01*
X831000Y658000D02*
X832772D01*
X838372Y652400*
X900900*
G54D52*
X563600Y506900D02*
X569000Y507000D01*
X778000Y536000D02*
X794500Y535900D01*
X802000Y528400D02*
G03X794500Y535900I-7500J0D01*
G01X802000Y528400D02*
Y515000D01*
X762346Y542346D02*
X772000D01*
X778000D02*
X785638D01*
X651900Y611100D02*
X660500D01*
X660574Y611174*
X672300*
X674072*
X810400Y620100D02*
Y601500D01*
X810803Y601097*
Y593102*
X532000Y504000D03*
Y513000D03*
X549000D03*
X541000D03*
Y504000D03*
X549000D03*
X563600Y506900D03*
X558800Y513000D03*
X560000Y504000D03*
X572000D03*
X575000Y507000D03*
X584000Y504000D03*
X599000Y503000D03*
X611000D03*
X623000D03*
X635000D03*
X647000D03*
X659000D03*
X671000D03*
X688000Y512000D03*
Y504000D03*
X792000Y515000D03*
Y512000D03*
X798000Y505000D03*
X802000D03*
X806000D03*
X812000Y512000D03*
Y515000D03*
X819800Y512100D03*
X837200Y511300D03*
X836000Y508000D03*
X873900Y514900D03*
X860300D03*
X886900Y509900D03*
X885200Y516800D03*
X887800Y515400D03*
X902000Y506000D03*
X532000Y522000D03*
X541000D03*
X549000D03*
X558800D03*
X682000Y537000D03*
X688000Y521000D03*
Y531000D03*
X792000Y518000D03*
X807700Y531000D03*
X812000Y518000D03*
X837000Y530000D03*
X825000D03*
X833000D03*
X829000D03*
X874700Y519700D03*
X870000Y520000D03*
X886800Y520200D03*
X912100Y525300D03*
X914000Y530000D03*
X936000Y536000D03*
X921000Y531000D03*
X929000D03*
X936000D03*
X942000Y528000D03*
Y536000D03*
X504000Y552000D03*
Y538000D03*
X530000Y548000D03*
Y544000D03*
X534000Y540000D03*
X538000D03*
X530000D03*
X542000Y542000D03*
X587100Y542200D03*
X633300Y556700D03*
X653300D03*
X643300D03*
X663300D03*
X691000Y545000D03*
X686000Y541000D03*
X695000Y545000D03*
Y549000D03*
X736000Y544000D03*
X720000Y538000D03*
X736000D03*
X728000D03*
X726000Y544000D03*
X744000D03*
Y538000D03*
X798000Y541000D03*
X795000D03*
X798000Y546000D03*
X795000D03*
X846000Y554000D03*
X851400Y551600D03*
X869500Y553900D03*
X867200Y551700D03*
X882000Y544000D03*
X886000D03*
X882000Y540000D03*
X886000D03*
X898700Y557200D03*
X900900Y543600D03*
X903700Y540000D03*
X942000Y544000D03*
X504000Y566000D03*
X555000Y567000D03*
X554100Y559500D03*
X562000Y574000D03*
X562400Y559800D03*
X580000Y577000D03*
X587100Y563000D03*
X592000Y576000D03*
X606000D03*
X633000D03*
Y568000D03*
X653000Y576000D03*
X643000D03*
Y568000D03*
X653000D03*
X663000Y576000D03*
Y568000D03*
X674000Y570000D03*
X680000Y576000D03*
X831472Y566100D03*
X826000Y576000D03*
X838000D03*
X850000D03*
X867000Y558000D03*
Y562000D03*
X871000D03*
Y558000D03*
X896200Y565900D03*
X890500Y570000D03*
X886000Y577000D03*
X907900Y563100D03*
X504000Y594000D03*
Y580000D03*
X569500Y585000D03*
X572300D03*
X578000Y586000D03*
Y582000D03*
X583000Y586000D03*
X592000Y582000D03*
X606000D03*
X637000Y591000D03*
Y594500D03*
X635000Y584000D03*
X646000D03*
X657000D03*
X668000D03*
X674000Y578000D03*
X696000Y588000D03*
Y582000D03*
X710000D03*
Y588000D03*
X738000Y582000D03*
X724200Y588200D03*
X737900Y588100D03*
X724000Y582000D03*
X752000D03*
X752100Y588100D03*
X775000Y588000D03*
X764000D03*
X775000Y582000D03*
X764000D03*
X786000D03*
X799000Y585000D03*
X804000D03*
X831472Y579000D03*
X838000Y582000D03*
X826000D03*
X850000D03*
X866000D03*
X862000D03*
X871000D03*
X885000Y592000D03*
X886000Y582000D03*
X504000Y608000D03*
X592000Y600000D03*
X584000Y612000D03*
X592000D03*
X600000Y600000D03*
X608000D03*
X616000D03*
Y612000D03*
X608000D03*
X600000D03*
X624000Y600000D03*
X632000D03*
Y612000D03*
X624000D03*
X655500Y605400D03*
X662100Y605300D03*
X680000Y601000D03*
Y604000D03*
X688000Y610000D03*
X696000Y606000D03*
Y600000D03*
X710000Y606000D03*
Y600000D03*
X724000Y606000D03*
X738000D03*
Y600000D03*
X724000D03*
X752000Y606000D03*
Y600000D03*
X762000Y606000D03*
X776000Y616300D03*
X786600Y617300D03*
X799100D03*
X814100Y615400D03*
X806800Y615900D03*
X827000Y616800D03*
X820000Y615400D03*
X840000Y615300D03*
X852000D03*
X877000Y603800D03*
X863600Y615300D03*
X877100Y607300D03*
X890400Y598300D03*
X885000Y598000D03*
X887100Y603100D03*
X911000Y615000D03*
X906800Y612200D03*
X930000Y608100D03*
X927300D03*
X942000Y617000D03*
X504000Y636000D03*
Y622000D03*
X518000Y636000D03*
Y622000D03*
X532000Y636000D03*
Y622000D03*
X558000Y626000D03*
X554000D03*
Y630000D03*
Y634000D03*
X569500Y624600D03*
X572300D03*
X562000Y626000D03*
X566000D03*
X588000Y636000D03*
X632000Y618000D03*
X624000D03*
X642700Y634100D03*
X656600Y634000D03*
X654000D03*
X688000D03*
Y622000D03*
X777700Y623000D03*
X768900Y617400D03*
X763400Y623100D03*
X796000Y628300D03*
X792400Y628100D03*
X792000Y632000D03*
X810400Y620100D03*
X814800D03*
X816000Y632000D03*
X823400Y623000D03*
X819800Y620100D03*
X832000Y632000D03*
X824000D03*
X846000Y618100D03*
X858100D03*
X860973Y622700D03*
X863600Y618100D03*
X871600Y635000D03*
X863000Y629000D03*
X858600Y629200D03*
X896100Y630700D03*
X887400D03*
X878774D03*
X892000D03*
Y628000D03*
X915000Y619000D03*
X914300Y624300D03*
X942000Y627000D03*
X504000Y650000D03*
X518000D03*
X532000D03*
X590900Y646700D03*
X602600Y642900D03*
X630000Y646000D03*
X622000D03*
Y652000D03*
X642000Y656000D03*
X656000D03*
X653400Y646600D03*
X645000Y650300D03*
X645100Y643600D03*
X648400Y646800D03*
X662000Y646000D03*
X688000D03*
X792000Y656000D03*
Y646000D03*
X816000D03*
Y656000D03*
X856500Y638500D03*
X875724Y644700D03*
X900900Y652400D03*
X903700Y648000D03*
X914000Y653000D03*
X942000Y638000D03*
Y650000D03*
X504000Y664000D03*
X586000Y666000D03*
X578500Y664800D03*
X600000Y666000D03*
X614000D03*
X628000D03*
X642000D03*
X656000D03*
X792000Y676000D03*
Y666000D03*
X816000D03*
Y676000D03*
X830000D03*
X844000Y668000D03*
Y676000D03*
X858000D03*
Y668000D03*
Y658000D03*
X872000Y676000D03*
Y668000D03*
Y658000D03*
X886000Y668000D03*
Y676000D03*
Y658000D03*
X900000Y676000D03*
X914000D03*
X900000Y668000D03*
X914000D03*
X900000Y658000D03*
X518000Y678000D03*
X504000D03*
X532000D03*
X572000D03*
X586000D03*
X614000D03*
X600000D03*
X628000D03*
X656000D03*
X642000D03*
G54D54*
X580000Y577000D02*
X590200Y587200D01*
X673113*
X686313Y574000*
X810867*
X819071Y582204*
Y593102*
X878913Y569972D02*
Y569979D01*
X890500*
Y570000*
X819071Y593102D02*
Y600415D01*
X820000Y601344*
Y606000*
X648100Y598000D02*
Y607663D01*
X651719Y611281*
Y611100*
X651900*
X648100Y598000D02*
X670000D01*
X690700Y577300*
X809500*
X814937Y582737*
Y593102*
X638800Y601000D02*
X641800Y598000D01*
X648100*
X814000Y606000D02*
Y601300D01*
X814937Y600363*
Y593102*
X638800Y629000D02*
X648309D01*
Y624000D02*
X657434D01*
X662088Y628654*
X672000*
X648309Y639000D02*
X658525D01*
X660997Y636528*
X672000*
G54D59*
G54D62*
X548000Y554000D02*
Y552819D01*
X553619Y547200*
X570302*
X578228Y555126*
X580000*
X508400Y596000D02*
Y655600D01*
X516100Y663300*
X553500*
X558465Y658335*
X561012*
X508400Y596000D02*
Y588285D01*
X512785Y583900*
X559705*
X578228Y565377*
Y563000*
X580000*
X638800Y612000D02*
Y629000D01*
Y647000*
X638947Y647147*
X639094Y647000*
X561012Y658335D02*
Y659094D01*
X575000*
X590906*
X612106Y659000D02*
X627094D01*
X639094Y647000*
X603000Y659000D02*
X612106D01*
G54D90*
X848752Y504700D02*
Y509700D01*
X855100*
X860300Y514900*
X840500Y505294D02*
Y505040D01*
X848752*
Y504700*
X873900Y514900D02*
X875800Y514794D01*
X878606*
X878700Y514700*
X880248*
X863000Y566000D02*
X864000D01*
X868000Y570000*
X873105*
X873133Y569972*
X878913*
X831472Y593102D02*
X831170D01*
Y600031*
X833077Y601938*
Y606000*
X834000*
X532283Y602575D02*
Y600213D01*
X538396Y594100*
X567400*
X570500Y591000*
X548031Y602575D02*
X567875D01*
X569300Y604000*
X570500*
X775000Y606000D02*
X783000Y605900D01*
Y606000*
X786000Y603000*
Y593102*
X783000Y606000D02*
X786600Y609600D01*
Y617300*
X790000Y606000D02*
X790134Y605766D01*
Y593102*
X799000Y612000D02*
Y617300D01*
X799050Y617350*
X890400Y598300D02*
X895206D01*
X903500Y606594*
X895500Y606500D02*
Y606594D01*
X903500*
X887500Y612406D02*
X895500D01*
Y612500*
X903500Y606594D02*
X907694D01*
X911600Y610500*
X922192*
X924700Y613008*
Y614209*
X928145Y617655*
X929000*
Y617500*
X927300Y608100D02*
Y605500D01*
X927400Y605400*
X928100*
X929000Y604500*
Y604600*
X930000Y605600*
Y608100*
X799050Y617350D02*
X799900Y618200D01*
X800000Y623000*
X799050Y617350D02*
X799100Y617300D01*
X883105Y622235D02*
Y616801D01*
X887500Y612406*
X799900Y638900D02*
X800000Y639000D01*
Y642000*
X799900Y638900D02*
X800000Y623000D01*
X831000Y638000D02*
X841558D01*
X848258Y644700*
X875724*
G54D118*
X514173Y589189D03*
X541732D03*
G54D129*
X612000Y636000D03*
X606000D03*
X891000Y506000D03*
X897000D03*
X891000Y518000D03*
X897000D03*
X921000Y615000D03*
X915000D03*
Y606000D03*
X921000D03*
X863000Y558000D03*
X857000D03*
X863000Y566000D03*
X857000D03*
X800000Y623000D03*
X806000D03*
X931000Y635000D03*
X937000D03*
X915000D03*
X921000D03*
X931000Y644000D03*
X937000D03*
X915000D03*
X921000D03*
X891000Y512000D03*
X897000D03*
X906000Y506000D03*
X912000D03*
X906000Y514000D03*
X912000D03*
X906000Y522000D03*
X912000D03*
X782000Y623000D03*
X788000D03*
X767000D03*
X773000D03*
X772000Y542346D03*
X778000D03*
X591000Y650000D03*
X597000D03*
X612000Y620000D03*
X606000D03*
X612000Y628000D03*
X606000D03*
X612250Y649976D03*
X606250D03*
G54D130*
X929000Y625000D03*
Y617500D03*
X938055Y621200D03*
X929000Y612000D03*
Y604500D03*
X938055Y608200D03*
G54D131*
X628000Y639000D03*
Y634000D03*
Y629000D03*
Y624000D03*
X648309D03*
Y629000D03*
Y634000D03*
Y639000D03*
X880248Y504700D03*
Y509700D03*
Y514700D03*
Y519700D03*
X848752D03*
Y514700D03*
Y509700D03*
Y504700D03*
G54D132*
X870113Y622235D03*
X874443D03*
X878774D03*
X883105D03*
X887435D03*
X891766D03*
X896097D03*
X900428D03*
X904758D03*
G54D133*
X910158Y624935D03*
G54D134*
X910496Y661999D03*
X847504D03*
G54D135*
X853134Y624204D03*
G54D136*
X658900Y611100D03*
Y605100D03*
X629000Y513000D03*
Y507000D03*
X617000Y513000D03*
Y507000D03*
X605000Y513000D03*
Y507000D03*
X593000Y513000D03*
Y507000D03*
X938000Y589000D03*
Y595000D03*
Y573000D03*
Y579000D03*
X929000Y589000D03*
Y595000D03*
X880500Y612500D03*
Y606500D03*
X938000Y557000D03*
Y563000D03*
X902000Y589000D03*
Y595000D03*
X911000Y589000D03*
Y595000D03*
X920000Y589000D03*
Y595000D03*
X677000Y513000D03*
Y507000D03*
X569000Y513000D03*
Y507000D03*
X581000Y513000D03*
Y507000D03*
X653000Y513000D03*
Y507000D03*
X665000Y513000D03*
Y507000D03*
X641000Y513000D03*
Y507000D03*
X902000Y557000D03*
Y563000D03*
Y573000D03*
Y579000D03*
X799000Y612000D03*
Y606000D03*
X790000D03*
Y612000D03*
X775000Y606000D03*
Y612000D03*
X807000Y606000D03*
Y612000D03*
X827000D03*
Y606000D03*
X911000Y557000D03*
Y563000D03*
Y573000D03*
Y579000D03*
X920000Y557000D03*
Y563000D03*
X929000Y573000D03*
Y579000D03*
Y557000D03*
Y563000D03*
X920000Y573000D03*
Y579000D03*
X895500Y612500D03*
Y606500D03*
X778000Y542000D03*
Y536000D03*
G54D137*
X828500Y512126D03*
Y520000D03*
X831000Y638000D03*
Y648000D03*
Y658000D03*
Y668000D03*
X672300Y611174D03*
Y603300D03*
X580000Y555126D03*
Y563000D03*
X672000Y636528D03*
Y628654D03*
G54D138*
X878913Y586507D03*
Y582374D03*
Y578240D03*
Y574106D03*
Y569972D03*
Y565839D03*
Y561705D03*
Y557571D03*
Y553437D03*
Y549303D03*
G54D139*
X876945Y542709D03*
Y593102D03*
G54D140*
X872811Y542709D03*
X868677D03*
X864543D03*
X860409D03*
X856276D03*
X852142D03*
X848008D03*
X843874D03*
X839740D03*
X835606D03*
X831472D03*
X827339D03*
X823205D03*
X819071D03*
X814937D03*
X810803D03*
X806669D03*
X802535D03*
X790134D03*
X786000D03*
Y593102D03*
X790134D03*
X794268D03*
X798402D03*
X802535D03*
X806669D03*
X810803D03*
X814937D03*
X819071D03*
X823205D03*
X827339D03*
X831472D03*
X835606D03*
X839740D03*
X843874D03*
X848008D03*
X852142D03*
X856276D03*
X860409D03*
X864543D03*
X868677D03*
X872811D03*
G54D141*
X597000Y552000D03*
Y563000D03*
G54D142*
X607000Y552000D03*
X617000D03*
X607000Y563000D03*
X617000D03*
G54D143*
X593000Y533000D03*
Y525000D03*
X605000Y533000D03*
Y525000D03*
X617000Y533000D03*
Y525000D03*
X629000Y533000D03*
Y525000D03*
X677000Y533000D03*
Y525000D03*
X581000Y533000D03*
Y525000D03*
X665000Y533000D03*
Y525000D03*
X641000Y533000D03*
Y525000D03*
X653000Y533000D03*
Y525000D03*
X569000Y533000D03*
Y525000D03*
G54D144*
X570500Y591000D03*
X579500D03*
X592000Y659000D03*
X603000D03*
X570500Y604000D03*
X579500D03*
G54D145*
X802000Y515000D03*
X792000Y525000D03*
Y505000D03*
X812000D03*
Y525000D03*
G54D146*
X777874Y642000D03*
X770000D03*
X807874Y669000D03*
X800000D03*
X807874Y642000D03*
X800000D03*
G54D147*
X930000Y665000D03*
Y516000D03*
X774000Y665000D03*
X515000Y516000D03*
X675000Y665000D03*
G54D148*
X520472Y602575D03*
X532283D03*
X548031D03*
X551969Y575016D03*
G54D149*
X536205Y544886D03*
Y548035D03*
Y551185D03*
Y554335D03*
Y557484D03*
G54D150*
X513990Y533798D03*
X531312Y569231D03*
Y533798D03*
X513990Y569231D03*
G54D151*
X524000Y542677D03*
Y560000D03*
G54D152*
X561012Y658335D03*
Y648492D03*
Y640618D03*
Y630776D03*
G54D153*
X547232Y674083D03*
Y615028D03*
G54D154*
X540157Y654402D03*
Y634717D03*
G54D155*
X562937Y554000D03*
X548000D03*
G54D156*
X762000Y539005D03*
G54D157*
Y542000D02*
X762346Y542346D01*
G54D158*
X762000Y506522D02*
X773023D01*
Y512427*
X762000D02*
X773023D01*
X762000D02*
Y518333D01*
X773023*
Y524238*
X762000D02*
X773023D01*
X762000D02*
Y530144D01*
X773023*
Y536049*
X762000D02*
X773023D01*
X762000Y489505D02*
Y506522D01*
G54D188*
X638800Y601000D03*
Y612000D03*
G74*
X0Y0D02*
M02*
