*
*
G04 PADS 9.5 Build Number: 522968 generated Gerber (RS-274-X) file*
G04 PC Version=2.1*
*
%IN "ATS2825_MODULE_TEST_V1."*%
*
%MOIN*%
*
%FSLAX35Y35*%
*
*
*
*
G04 PC Standard Apertures*
*
*
G04 Thermal Relief Aperture macro.*
%AMTER*
1,1,$1,0,0*
1,0,$1-$2,0,0*
21,0,$3,$4,0,0,45*
21,0,$3,$4,0,0,135*
%
*
*
G04 Annular Aperture macro.*
%AMANN*
1,1,$1,0,0*
1,0,$2,0,0*
%
*
*
G04 Odd Aperture macro.*
%AMODD*
1,1,$1,0,0*
1,0,$1-0.005,0,0*
%
*
*
G04 PC Custom Aperture Macros*
*
*
*
*
*
*
G04 PC Aperture Table*
*
%ADD023R,0.03346X0.03346*%
%ADD049C,0.01*%
%ADD059C,0.001*%
%ADD129R,0.033X0.03*%
%ADD130R,0.05X0.036*%
%ADD131O,0.07874X0.02362*%
%ADD132R,0.02756X0.07874*%
%ADD133R,0.04724X0.05512*%
%ADD134R,0.04724X0.08661*%
%ADD135R,0.06299X0.05512*%
%ADD136R,0.03X0.033*%
%ADD143R,0.045X0.045*%
%ADD144R,0.06X0.05*%
%ADD148R,0.06299X0.11024*%
%ADD149R,0.07087X0.01968*%
%ADD150R,0.11417X0.06299*%
%ADD152R,0.09843X0.05906*%
%ADD153R,0.19685X0.07874*%
%ADD155R,0.05512X0.07874*%
%ADD156O,0.01969X0.07874*%
%ADD188R,0.05X0.06*%
*
*
*
*
G04 PC Circuitry*
G04 Layer Name ATS2825_MODULE_TEST_V1. - circuitry*
%LPD*%
*
*
G04 PC Custom Flashes*
G04 Layer Name ATS2825_MODULE_TEST_V1. - flashes*
%LPD*%
*
*
G04 PC Circuitry*
G04 Layer Name ATS2825_MODULE_TEST_V1. - circuitry*
%LPD*%
*
G54D23*
G01X575000Y665000D03*
Y659094D03*
X592000Y620000D03*
X597906D03*
X846000Y612000D03*
Y606094D03*
X645000Y647000D03*
X639094D03*
X903500Y612500D03*
Y606594D03*
X887500Y606500D03*
Y612406D03*
X870000Y612000D03*
Y606094D03*
X840000Y612000D03*
Y606094D03*
X783000Y606000D03*
Y611906D03*
X864000Y612000D03*
Y606094D03*
X858000Y606000D03*
Y611906D03*
X852000Y606000D03*
Y611906D03*
X834000Y606000D03*
Y611906D03*
X820000Y606000D03*
Y611906D03*
X814000Y606000D03*
Y611906D03*
X840500Y511200D03*
Y505294D03*
X651900Y611100D03*
Y605194D03*
X606000Y643000D03*
X611906D03*
X554000Y563000D03*
X548094D03*
X592000Y636000D03*
X597906D03*
X592000Y628000D03*
X597906D03*
G54D49*
X500000Y681102D02*
X691008D01*
Y608268*
X757937*
Y681102*
X946000*
Y500000*
X757937*
Y535433*
X691008*
Y500000*
X500000*
Y681102*
X563000Y531600D02*
X683000D01*
Y526400*
X563000*
Y531600*
G54D59*
G54D129*
X612000Y636000D03*
X606000D03*
X891000Y506000D03*
X897000D03*
X891000Y518000D03*
X897000D03*
X921000Y615000D03*
X915000D03*
Y606000D03*
X921000D03*
X863000Y558000D03*
X857000D03*
X863000Y566000D03*
X857000D03*
X800000Y623000D03*
X806000D03*
X931000Y635000D03*
X937000D03*
X915000D03*
X921000D03*
X931000Y644000D03*
X937000D03*
X915000D03*
X921000D03*
X891000Y512000D03*
X897000D03*
X906000Y506000D03*
X912000D03*
X906000Y514000D03*
X912000D03*
X906000Y522000D03*
X912000D03*
X782000Y623000D03*
X788000D03*
X767000D03*
X773000D03*
X772000Y542346D03*
X778000D03*
X591000Y650000D03*
X597000D03*
X612000Y620000D03*
X606000D03*
X612000Y628000D03*
X606000D03*
X612250Y649976D03*
X606250D03*
G54D130*
X929000Y625000D03*
Y617500D03*
X938055Y621200D03*
X929000Y612000D03*
Y604500D03*
X938055Y608200D03*
G54D131*
X628000Y639000D03*
Y634000D03*
Y629000D03*
Y624000D03*
X648309D03*
Y629000D03*
Y634000D03*
Y639000D03*
X880248Y504700D03*
Y509700D03*
Y514700D03*
Y519700D03*
X848752D03*
Y514700D03*
Y509700D03*
Y504700D03*
G54D132*
X870113Y622235D03*
X874443D03*
X878774D03*
X883105D03*
X887435D03*
X891766D03*
X896097D03*
X900428D03*
X904758D03*
G54D133*
X910158Y624935D03*
G54D134*
X910496Y661999D03*
X847504D03*
G54D135*
X853134Y624204D03*
G54D136*
X658900Y611100D03*
Y605100D03*
X629000Y513000D03*
Y507000D03*
X617000Y513000D03*
Y507000D03*
X605000Y513000D03*
Y507000D03*
X593000Y513000D03*
Y507000D03*
X938000Y589000D03*
Y595000D03*
Y573000D03*
Y579000D03*
X929000Y589000D03*
Y595000D03*
X880500Y612500D03*
Y606500D03*
X938000Y557000D03*
Y563000D03*
X902000Y589000D03*
Y595000D03*
X911000Y589000D03*
Y595000D03*
X920000Y589000D03*
Y595000D03*
X677000Y513000D03*
Y507000D03*
X569000Y513000D03*
Y507000D03*
X581000Y513000D03*
Y507000D03*
X653000Y513000D03*
Y507000D03*
X665000Y513000D03*
Y507000D03*
X641000Y513000D03*
Y507000D03*
X902000Y557000D03*
Y563000D03*
Y573000D03*
Y579000D03*
X799000Y612000D03*
Y606000D03*
X790000D03*
Y612000D03*
X775000Y606000D03*
Y612000D03*
X807000Y606000D03*
Y612000D03*
X827000D03*
Y606000D03*
X911000Y557000D03*
Y563000D03*
Y573000D03*
Y579000D03*
X920000Y557000D03*
Y563000D03*
X929000Y573000D03*
Y579000D03*
Y557000D03*
Y563000D03*
X920000Y573000D03*
Y579000D03*
X895500Y612500D03*
Y606500D03*
X778000Y542000D03*
Y536000D03*
G54D143*
X593000Y533000D03*
Y525000D03*
X605000Y533000D03*
Y525000D03*
X617000Y533000D03*
Y525000D03*
X629000Y533000D03*
Y525000D03*
X677000Y533000D03*
Y525000D03*
X581000Y533000D03*
Y525000D03*
X665000Y533000D03*
Y525000D03*
X641000Y533000D03*
Y525000D03*
X653000Y533000D03*
Y525000D03*
X569000Y533000D03*
Y525000D03*
G54D144*
X570500Y591000D03*
X579500D03*
X592000Y659000D03*
X603000D03*
X570500Y604000D03*
X579500D03*
G54D148*
X520472Y602575D03*
X532283D03*
X548031D03*
X551969Y575016D03*
G54D149*
X536205Y544886D03*
Y548035D03*
Y551185D03*
Y554335D03*
Y557484D03*
G54D150*
X513990Y533798D03*
X531312Y569231D03*
Y533798D03*
X513990Y569231D03*
G54D152*
X561012Y658335D03*
Y648492D03*
Y640618D03*
Y630776D03*
G54D153*
X547232Y674083D03*
Y615028D03*
G54D155*
X562937Y554000D03*
X548000D03*
G54D156*
X762000Y539005D03*
G54D188*
X638800Y601000D03*
Y612000D03*
X0Y0D02*
M02*
